<svg viewBox="0 0 1000 1000" xmlns="http://www.w3.org/2000/svg"><path d="m318.54 427.94-6.7 14.28h36.76l1.23-5.42a8 8 0 0 0 -5.09-9.33l-9.74-3.54a9.25 9.25 0 0 0 -3.13-.55h-6.13a8 8 0 0 0 -7.2 4.56z" fill="#ed8b7b"/><path d="m516.84 234.65v138.61c-19.57 26.33-45.87 33.89-65.63 45-20.75 11.69-34.51-7.15-34.51-7.15l29.69-59.33q1.62-4.31 3.39-8.51c25.34-60.33 67.06-108.62 67.06-108.62z" fill="#cd743d"/><path d="m336.34 434.92s49.3-45.43 110.05-83.13c42.65 2 27.69 56.54 4.82 66.48-26.27 15.15-65.84 21.33-114.87 26.27z" fill="#ed8b7b"/><ellipse cx="380.38" cy="809.58" fill="#e2e2e2" rx="230.02" ry="33.31"/><ellipse cx="619.62" cy="820.95" fill="#e2e2e2" rx="230.02" ry="38.74"/><g fill="#3a1413"><path d="m666.7 603.65-6.53 31-36.1 171.31a4.34 4.34 0 0 1 -4.25 3.45 4.35 4.35 0 0 1 -4.27-4.88l20.8-169.88 2.65-22.26z"/><path d="m736.89 809.57a4.42 4.42 0 0 1 -2.76-1 4.33 4.33 0 0 1 -1.5-2.51l-34.45-171.43-4.47-22.23 25-7.07 3.31 29.3 19.22 170.11a4.34 4.34 0 0 1 -4.35 4.83z"/><path d="m528.79 612.4-4.47 22.23-34.45 171.45a4.35 4.35 0 0 1 -8.58-1.34l19.21-170.11 2.5-22.23z"/><path d="m598.73 600.44-6.87 34.19-34.45 171.45a4.35 4.35 0 0 1 -1.51 2.51 4.4 4.4 0 0 1 -2.76 1 4.34 4.34 0 0 1 -4.32-4.83l19.18-170.13 2.51-22.23z"/></g><g fill="#1c0909"><path d="m503.01 612.4h25.78l-4.47 22.23h-23.82z"/><path d="m570.55 612.4h25.78l-4.47 22.23h-23.82z"/><path d="m639.03 612.39 25.78.24-4.64 22h-23.86z"/><path d="m721.99 634.63h-23.81l-4.47-22.23h25.77z"/></g><path d="m755.16 382.65h-84.66l-69 181.58-30.91 17.48s.19 15.45 3.2 17.24 71.74 2.17 71.74 2.17l74.94-30.67s16.7-95.92 18.25-97.86 16.39-71.26 16.39-71.26z" fill="#6e3b3b"/><path d="m561.52 612.4h154.88a34 34 0 0 0 34.06-32.31c.65-13.25-11.17-40.36-9.38-68.44 2.89-45.38 23-75.31 20.49-123.6-.39-7.63-11.42-6.93-13 .55-6.94 33.4-32.44 116.08-58.4 168.45-29.5 59.5-88.46 35.69-125.49 33.53-13.4-.79-12.41 10.06-4.69 21a1.82 1.82 0 0 0 1.53.82z" fill="#5d211d"/><path d="m501.68 480.93s-93.86 11.87-116.48 78.71c-16.85 49.8 53.91 199.7 53.91 199.7l18.58-4.53 4.47-159.08 53.5 5.4 67.93-81-24.16-43.76z" fill="#922311"/><path d="m439.11 759.34-30.69 37.52a8.66 8.66 0 0 0 10.95 12l43.25-17.7a13.19 13.19 0 0 0 6.08-19.38l-11-17z" fill="#a03c0b"/><path d="m540.84 177.93v15.62a.7.7 0 0 0 0 .11 103 103 0 0 1 -5.62 10.87 107.15 107.15 0 0 1 -18.69 23.78l-.16.14c-16 14.82-20.67 2.07-22.7-3.86a6.57 6.57 0 0 0 -2.15-3.23c-2.3-1.79-5.3-1.26-6.9-4.71s2.18-10.54-2.28-18.83a34.53 34.53 0 0 1 -4.23-14.82 26.1 26.1 0 0 1 .63-7.64l.21-.21 24.15-24.15 4.65-4.66 3.17 3.32 16.35 17.12z" fill="#efa08d"/><path d="m571.84 592.52 10.35 204.05-10.93 10.92-11.94-10.92s-110.32-205.24-58.82-267.32c17.12-20.64 55-27.61 55-27.61 14.65.86 31.18-1.21 48.89-7.85 39.26-14.72 78.8-10.2 91-8.26 12.16 66.47-14.39 137.17-123.55 106.99z" fill="#ac3f21"/><path d="m559.32 796.57-36.32 20.43a9.83 9.83 0 0 0 -4.8 5.91c-1.26 4.68 1.46 9 7.35 9.58l52.87.66a13.2 13.2 0 0 0 10.48-17.4l-6.69-19.13z" fill="#be6a15"/><path d="m695.34 485.53c-12.2-1.94-51.74-6.46-91 8.26-17.71 6.64-34.24 8.71-48.88 7.85-24.41-1.43-43.61-11-54.36-21.12l-2.27-36.52-8.91-143c-2.41-38.54 21.64-74.24 58.63-85.31a75.76 75.76 0 0 1 13.08-2.72s52.58 7 83.79 40.76c.72.78 1.43 1.57 2.13 2.38 39.91 46.23 9.09 122.71 38 195.25a184.2 184.2 0 0 1 9.79 34.17z" fill="#f3cf7a"/><path d="m647 416.91a61.55 61.55 0 0 0 -6.9-5.79c-28-20.35-65.15-12.31-65.15-12.31a422.68 422.68 0 0 1 0-66v-.3c0-.06 0-.12 0-.17s0-.2 0-.28v-.37c3.82-42.95 16.87-89.8 56.09-84.85a26.07 26.07 0 0 1 14.22 6.84 50.22 50.22 0 0 1 10.87 14.85.41.41 0 0 1 .05.09c17.91 35.13 17.42 104.38-9.18 148.29z" fill="#f2d6a0"/><g fill="#efa08d"><path d="m647 416.91a92.65 92.65 0 0 1 -17.23 21.18c-20.58 18.49-88.41 15.32-130.63 11.26-20.57-2-35.06-4.17-35.06-4.17l-.07-5.33-.16-12.07 74.56-19.44 36.59-9.53s37.11-8 65.15 12.31a61.55 61.55 0 0 1 6.85 5.79z"/><path d="m464.1 445.18h-40.88a2.21 2.21 0 0 1 -1.93-1 2.29 2.29 0 0 1 1.11-3.42q11.16-4.25 22.65-7.55l18.82-5.4.16 12.07z"/><path d="m562.21 213.34-.94 13.89a22.59 22.59 0 0 1 -22.53 21 22.13 22.13 0 0 1 -4.41-.44 22.16 22.16 0 0 1 -4.35-1.34 22.55 22.55 0 0 1 -13.61-17.84v-.2l-.94-7.17 12-20.23 7.12-12 6.28 4.59 9.61 7z"/></g><path d="m551.38 201.18-.22.29a9.79 9.79 0 0 1 -16.48-1.63l-.09-.2s5.69-3.89 3.47-11.81-11.25-6.83-11.25 3a6.26 6.26 0 0 1 -9.38-2.76 23.26 23.26 0 0 1 -.35-16.33 11.72 11.72 0 0 0 -18-.9c-5.13 5.52-12.5 11.43-21 12.17a20 20 0 0 1 -7.7-.82c-11.25-3.48-12.92-25.7 11.81-37.65s51.26 5.28 51.26 5.28a19.35 19.35 0 0 1 11.21 3.09 15.27 15.27 0 0 1 5.88 8c4.06 12.09-7.61 22.79.84 40.27z" fill="#6e3b3b"/><path d="m491.48 221.36c-2.3-1.79-5.3-1.26-6.9-4.71 0 0 3.62 1.8 6.9 1.3s3.03 3.91 0 3.41z" fill="#ed8b7b"/><path d="m526.82 190.85a6.26 6.26 0 0 1 -9.38-2.76 23.26 23.26 0 0 1 -.35-16.33 11.72 11.72 0 0 0 -18-.9c-6.64 7.14-17 14.94-28.67 11.35a20.24 20.24 0 0 0 18-9.38c6.93-10.53 16.36-19.26 29.07-10.41 14.21 9.88-5.36 30.84 9.33 28.43z" fill="#5d211d"/><path d="m551.38 201.18c-.54-.69-10.21-10-5.92-24.14 4.72-15.57-.77-24.14-.77-24.14a15.27 15.27 0 0 1 5.88 8c4.03 12.1-7.64 22.8.81 40.28z" fill="#5d211d"/><path d="m575 398.81-36.53 9.52c30.43-32.72 35.8-68.78 36.56-75.51a422.68 422.68 0 0 0 -.03 65.99z" fill="#cd743d"/><path d="m647 416.91a92.65 92.65 0 0 1 -17.23 21.18c-20.58 18.49-88.41 15.32-130.63 11.26-20.57-2-35.06-4.17-35.06-4.17h-40.86a2.21 2.21 0 0 1 -1.93-1c1 1.8 21.22-2 21.22-2 14.15 2.58 21.52-2.31 21.52-2.31 123.78 12 162.15-2.37 176.09-28.73a61.55 61.55 0 0 1 6.88 5.77z" fill="#ed8b7b"/><path d="m647 416.91a61.55 61.55 0 0 0 -6.9-5.79c7.9-14.94 13.9-48.12 15.5-68.34 5.41-66.28-9.77-88.5-10.17-89.08a50.22 50.22 0 0 1 10.87 14.85.41.41 0 0 1 .05.09c17.74 35.11 17.25 104.36-9.35 148.27z" fill="#dfa56e"/><path d="m685.5 451.32c-26.38-66.31-2.9-135.9-29.15-182.68 17.74 35.11 17.25 104.36-9.35 148.27a92.65 92.65 0 0 1 -17.23 21.18c-20.58 18.49-88.41 15.32-130.63 11.26 0 0 19 9.95 39.64 18.48s20.62 24.08 16.66 33.81c14.64.86 31.17-1.21 48.88-7.85 39.26-14.72 78.8-10.2 91-8.26a184.2 184.2 0 0 0 -9.82-34.21z" fill="#cd743d"/><rect fill="#393e46" height="14.43" rx="7.22" width="610.79" x="204.57" y="445.25"/><path d="m272.39 459.68-40.47 345.12a4.27 4.27 0 0 0 4.25 4.77 4.26 4.26 0 0 0 4.21-3.57l57.78-346.32z" fill="#222831"/><path d="m747.55 459.68 40.45 345.12a4.28 4.28 0 0 1 -4.25 4.77 4.28 4.28 0 0 1 -4.22-3.57l-57.75-346.32z" fill="#222831"/><path d="m371.82 382.6h-97.43a5.74 5.74 0 0 1 -5.65-4.77l-36.74-218.25a5.72 5.72 0 0 1 5.64-6.68h100.36a5.73 5.73 0 0 1 5.66 4.85l33.82 218.25a5.72 5.72 0 0 1 -5.66 6.6z" fill="#45505b"/><g fill="#6b7b8e"><path d="m371.82 382.6a5.74 5.74 0 0 1 -5.66-4.85l-33.87-218.25a5.73 5.73 0 0 1 11.32-1.75l33.87 218.25a5.72 5.72 0 0 1 -5.66 6.6z"/><path d="m413.19 440.06a5.12 5.12 0 0 1 -5.12 5.12h-159.16a26.12 26.12 0 0 1 -22.91-38.68l30.46-55.5.05-.09 9.49-17.21a117.3 117.3 0 0 0 14.46-55 1.51 1.51 0 0 1 1.36-1.48l13.62-1.37a47 47 0 0 1 10.34.11 3.61 3.61 0 0 1 3.18 3.59v9.77a122.77 122.77 0 0 1 -6 37.88l-28.33 87.27a15.58 15.58 0 0 0 14.81 20.38h118.65a5.13 5.13 0 0 1 5.1 5.21z"/><path d="m276.58 393.28a26.56 26.56 0 0 1 -4 7.16 66.81 66.81 0 0 1 4-7.16z"/></g><path d="m314.5 445.18h-65.59a26.12 26.12 0 0 1 -22.91-38.68l30.46-55.5c-1 2.05-20.06 39.29-15 52 1.79 4.48 6.09 6.82 11.14 7.08a16.25 16.25 0 0 1 15.06 13.42 15.91 15.91 0 0 0 5.73 9.73c12.15 9.83 32.9 11.63 41.11 11.95z" fill="#45505b"/><path d="m294.36 220a6.4 6.4 0 0 1 1.8-3.31 23.46 23.46 0 0 0 -3.31-2.69c-8.2-5.44-16.41-2.83-18.33 5.83s3.15 20.09 11.35 25.53 16.41 2.83 18.34-5.83a17.49 17.49 0 0 0 .39-3.86 8.89 8.89 0 0 1 -3.93-1.49c-4.56-2.99-7.38-9.34-6.31-14.18z" fill="#6b7b8e"/><path d="m293.54 211a7.77 7.77 0 0 0 -.13 1.08 9.36 9.36 0 0 0 .94.75c3.52 2.33 7 1.21 7.86-2.5a7.77 7.77 0 0 0 .13-1.08 9.36 9.36 0 0 0 -.94-.75c-3.52-2.38-7.03-1.26-7.86 2.5z" fill="#6b7b8e"/><g fill="#f3cf7a"><path d="m545.69 798.66a1.36 1.36 0 0 1 2.39.94c-.29 6.76 5.24 10.44 5.48 10.6a1.36 1.36 0 0 1 -1.47 2.28c-.29-.19-7.09-4.65-6.72-13a1.33 1.33 0 0 1 .32-.82z"/><path d="m539.34 803a1.36 1.36 0 0 1 2.39.94c-.3 6.81 5.41 10.56 5.47 10.6a1.36 1.36 0 1 1 -1.47 2.28c-.29-.18-7.08-4.65-6.72-13a1.43 1.43 0 0 1 .33-.82z"/><path d="m532.78 806.92a1.32 1.32 0 0 1 1.09-.47 1.35 1.35 0 0 1 1.3 1.41c-.3 6.81 5.41 10.56 5.47 10.59a1.36 1.36 0 0 1 -1.47 2.29c-.29-.19-7.08-4.65-6.72-13a1.4 1.4 0 0 1 .33-.82z"/></g><g fill="#cd743d"><path d="m428.25 766.08a1.38 1.38 0 0 1 .82-.87 1.37 1.37 0 0 1 1.75.79c2.4 6.33 8.94 7.52 9.22 7.56a1.37 1.37 0 0 1 1.11 1.57 1.35 1.35 0 0 1 -1.56 1.11c-.34 0-8.35-1.46-11.31-9.28a1.33 1.33 0 0 1 -.03-.88z"/><path d="m424.12 772.55a1.32 1.32 0 0 1 .81-.87 1.35 1.35 0 0 1 1.75.79c2.42 6.36 9.15 7.55 9.22 7.56a1.36 1.36 0 0 1 -.44 2.68c-.34-.06-8.35-1.47-11.32-9.28a1.33 1.33 0 0 1 -.02-.88z"/><path d="m419.66 778.78a1.3 1.3 0 0 1 .81-.87 1.35 1.35 0 0 1 1.75.79c2.42 6.36 9.15 7.55 9.22 7.56a1.36 1.36 0 0 1 -.44 2.68c-.34-.06-8.35-1.47-11.32-9.28a1.33 1.33 0 0 1 -.02-.88z"/></g><path d="m552.79 433.06h-7.58a9.14 9.14 0 0 1 -9.12-9.13v-10.38a9.13 9.13 0 0 1 9.12-9.12h7.58a9.13 9.13 0 0 1 9.12 9.12v10.38a9.14 9.14 0 0 1 -9.12 9.13zm-7.58-23.63a4.12 4.12 0 0 0 -4.12 4.12v10.38a4.13 4.13 0 0 0 4.12 4.13h7.58a4.13 4.13 0 0 0 4.12-4.13v-10.38a4.12 4.12 0 0 0 -4.12-4.12z" fill="#45505b"/><path d="m551.23 428.06a17.05 17.05 0 0 1 -1.22 5h-4.8a9 9 0 0 1 -3.85-.85h.84c1.83 0 3.39-1.74 3.92-4.15z" fill="#2d3842"/><path d="m551.23 409.43h-5.11c-.52-2.41-2.08-4.16-3.92-4.16h-.81a9 9 0 0 1 3.82-.84h4.79a17.05 17.05 0 0 1 1.23 5z" fill="#2d3842"/><path d="m535.74 385c-5.37-2.84 8.3-13.1-5.84-27-7-6.86-16-10-23.46-11.39a1.23 1.23 0 0 0 -.72 2.34 38.34 38.34 0 0 1 18.22 15.25c6.42 10.61-9.78 14.3-9.62 23.82a10.91 10.91 0 0 0 3 7.55h21.68c3.66-5.69 1.31-8.15-3.26-10.57zm-9.12 4.19a3.8 3.8 0 1 1 3.22-3.76 3.52 3.52 0 0 1 -3.22 3.75zm4-16a1.95 1.95 0 1 1 2-2 1.94 1.94 0 0 1 -1.98 1.97z" fill="#f4f3f3"/><path d="m522.26 330.19a1.5 1.5 0 0 0 -2.36-1.35c-2.46 1.79-5.3 4.7-3.48 7.76 2.45 4.12 11.7 1.3 15.46 5.2a1 1 0 0 0 1.66-.78c.06-1.82-.29-3.87-2.14-4-2.98-.25-9.67.14-9.14-6.83z" fill="#f4f3f3"/><path d="m548.26 402.43v35.84a7 7 0 0 1 -7 7h-25.06a7 7 0 0 1 -6.19-3.77 6.91 6.91 0 0 1 -.78-3.2v-35.87a7 7 0 0 1 7-7h25.08a7 7 0 0 1 6.95 7z" fill="#6b7b8e"/><path d="m541.29 395.46h-25.09a7 7 0 0 0 -7 7v4.5a7 7 0 0 1 7-7h16.45a6.32 6.32 0 0 1 6.32 6.69 29.93 29.93 0 0 1 -.68 4.47c-3.41 15.23-31.29 17.23-28.29 30.35a7 7 0 0 0 6.19 3.77h25.08a7 7 0 0 0 7-7v-35.81a7 7 0 0 0 -6.98-6.97z" fill="#45505b"/><g fill="#ed8b7b"><path d="m562.21 213.34-.94 13.89a22.59 22.59 0 0 1 -22.53 21 22.13 22.13 0 0 1 -4.41-.44 22.16 22.16 0 0 1 -4.35-1.34c14.07-.3 18-17.19 14.39-31.66-1.19-4.77-4.82-7.92-9.18-10.3a66.87 66.87 0 0 0 -7.78-3.48c-6.81-2.66-13.11-4.77-13.45-9.07-.7-8.89-3-18-12.91-12-9.78 5.84-22.5 3.16-22.92 3.07 8.46-.74 15.83-6.65 21-12.17a11.72 11.72 0 0 1 18 .9 23.26 23.26 0 0 0 .35 16.33 6.26 6.26 0 0 0 9.38 2.76c0-9.81 9-10.9 11.25-3s-3.47 11.81-3.47 11.81l.09.2a9.79 9.79 0 0 0 16.48 1.63z"/><path d="m525.07 228.14-4 11.58a22.45 22.45 0 0 1 -4.69-11.07v-.2l3.37-3.57a3.21 3.21 0 0 1 5.32 3.26z"/></g></svg>