<svg viewBox="0 0 1000 1000" xmlns="http://www.w3.org/2000/svg"><path d="m863.54 662.7c0 1.2 0 2.41-.06 3.6 0 .55 0 1.09-.05 1.64s0 1.35-.1 2a1.23 1.23 0 0 1 0 .19c0 .8-.09 1.57-.16 2.36s-.14 1.71-.21 2.55v.39c-.17 1.58-.36 3.14-.58 4.7s-.5 3.36-.79 5c-.11.7-.26 1.37-.39 2a5.67 5.67 0 0 0 -.1.57c-.16.74-.32 1.47-.49 2.2v.27c-.16.7-.31 1.41-.49 2.1 0 .17-.09.35-.11.5-.17.64-.32 1.28-.48 1.9-.1.35-.2.72-.29 1.08s-.21.78-.33 1.17v.2c-.17.6-.33 1.21-.52 1.8 0 .18-.12.36-.17.55-.14.5-.3 1-.45 1.48s-.29.91-.43 1.38c-.55 1.68-1.15 3.37-1.77 5.05-.4 1.1-.83 2.21-1.26 3.29-.27.69-.57 1.38-.86 2.07a.54.54 0 0 1 0 .1c-.31.75-.63 1.5-1 2.25a6.81 6.81 0 0 1 -.35.79c-.22.51-.45 1-.7 1.52-.13.34-.29.68-.45 1-.35.75-.72 1.5-1.08 2.23s-.74 1.49-1.12 2.22c-.51 1-1 2-1.55 3s-.94 1.71-1.43 2.56c-.21.39-.44.79-.67 1.17-.37.64-.74 1.28-1.14 1.93s-.76 1.23-1.13 1.84a4 4 0 0 1 -.2.35c-.39.63-.77 1.25-1.18 1.88l-.75 1.15c-.37.59-.76 1.17-1.16 1.73-.52.79-1 1.56-1.58 2.34-.06.07-.1.14-.16.2-.42.61-.85 1.23-1.3 1.85-.08.1-.16.22-.25.35l-.16.22c-.59.79-1.16 1.59-1.75 2.38s-1.22 1.59-1.85 2.38-1.4 1.8-2.12 2.69-1.37 1.65-2 2.46c-1.46 1.72-2.95 3.42-4.49 5.12-.29.33-.6.65-.89 1-1.08 1.18-2.19 2.34-3.3 3.5l-.46.47-.73.72c-1.35 1.4-2.76 2.79-4.19 4.15-1 .92-1.93 1.83-2.9 2.73-.69.63-1.39 1.27-2.09 1.88s-1.31 1.18-2 1.75l-.4.34c-.61.55-1.24 1.09-1.88 1.62-1.49 1.28-3 2.54-4.57 3.77-.55.46-1.13.92-1.73 1.37-.17.16-.37.32-.56.47-.56.45-1.12.88-1.7 1.31-2 1.52-4 3-6 4.51-.67.47-1.31.93-2 1.39-.28.21-.57.42-.85.61-.71.49-1.41 1-2.11 1.45-2.09 1.44-4.22 2.83-6.36 4.22l-1.5.93c-.58.39-1.18.75-1.77 1.12l-1 .61-2.77 1.63c-1.08.64-2.16 1.29-3.27 1.92-.63.37-1.29.73-1.93 1.1l-2.28 1.28-2.12 1.16c-.56.31-1.12.62-1.7.9l-1 .54c-1.52.8-3 1.6-4.59 2.38-.9.45-1.77.89-2.68 1.33l-2.55 1.22-.66.31c-1.34.64-2.69 1.28-4.06 1.9s-2.72 1.23-4.11 1.85l-2.91 1.26-2.94 1.24c-2 .82-4 1.63-6 2.41l-3.68 1.42-1.64.6-1.29.48c-.45.16-.89.34-1.34.48l-2.43.89c-.38.12-.77.26-1.17.41l-3 1-.82.28-2.41.79-2.09.68-2.75.86c-1.15.36-2.29.7-3.47 1-1.76.53-3.55 1-5.35 1.55-.91.26-1.82.5-2.71.74-1.69.46-3.37.91-5.06 1.33l-2.94.75c-1.52.37-3 .73-4.57 1.08-1.22.29-2.49.56-3.72.83-1.4.31-2.77.62-4.17.91-2.68.55-5.39 1.09-8.1 1.58s-5.67 1-8.55 1.48c-1.31.22-2.64.41-4 .61h-.28c-.9.14-1.81.28-2.74.39s-1.87.28-2.84.4l-.43.05c-1.14.17-2.29.31-3.47.45-.72.09-1.43.18-2.16.25s-1.39.18-2.09.24l-2.13.25-3 .3-.91.08-4.29.39c-1.41.11-2.84.24-4.26.34h-.62l-3.85.26h-.88c-.83.06-1.64.09-2.47.14l-2.93.15c-1.44.07-2.85.12-4.29.17h-1l-3.69.1c-1.49 0-3 .07-4.49.08s-3 0-4.51 0c-1.87 0-3.74 0-5.6 0a104.84 104.84 0 0 0 -35.2 5.59q-4.44 1.5-8.75 3.39c-41.55 18.25-91 28.86-144.12 28.86-56 0-107.95-11.78-150.84-31.9-34.52-16.19-63.16-37.78-83.32-63-1.71-2.12-3.33-4.27-4.91-6.44q-3.58-4.93-6.74-10c-1.58-2.58-3.1-5.19-4.52-7.82a145.44 145.44 0 0 1 -6.4-13.49c-.66-1.54-1.25-3.12-1.85-4.7q-1-2.65-1.85-5.34c-1.09-3.39-2.06-6.83-2.86-10.28a125.5 125.5 0 0 1 -3.42-29.15 127.11 127.11 0 0 1 1.42-18.86 131.12 131.12 0 0 1 6.71-25.93 143 143 0 0 1 7.56-16.87q2.76-5.26 6-10.4a170.69 170.69 0 0 1 17.09-22.55c3.3-3.72 6.8-7.33 10.48-10.87q2.06-2 4.21-3.92a224.67 224.67 0 0 1 20.91-16.78q9.54-6.77 20-12.84l1.9-1.13q1.74-1.05 3.45-2.13c1-.67 2.07-1.35 3.08-2.05s2.13-1.45 3.17-2.21c1.48-1.06 3-2.15 4.38-3.28.32-.23.64-.49 1-.74.62-.48 1.19-1 1.8-1.45l.1-.09c.48-.38.94-.76 1.4-1.16 1.27-1.06 2.51-2.15 3.74-3.25a1.62 1.62 0 0 0 .18-.19c.68-.6 1.35-1.22 2-1.85l1.39-1.33c2.38-2.33 4.7-4.75 6.9-7.24a135.18 135.18 0 0 0 10.78-13.4 137.2 137.2 0 0 0 24.25-79.07c0-.37 0-.75 0-1.12.03-100.6 119.44-182.11 266.75-182.11a388.7 388.7 0 0 1 54.13 3.76 345.38 345.38 0 0 1 83.94 22.52c3.26 1.34 6.46 2.74 9.61 4.17 6.43 2.93 12.69 6.05 18.73 9.34l.2.12c23 12.59 42.91 27.72 58.74 44.78 19.22 20.68 32.51 44.2 38.21 69.42a127 127 0 0 1 3.14 28v2.39s0 1.59-.07 2.37c0 .58-.05 1.15-.06 1.73 0 .39 0 .77-.08 1.15a7 7 0 0 1 -.06.91c0 .49-.07 1-.1 1.45s-.07.77-.09 1.15c-.06.66-.13 1.33-.19 2a2.17 2.17 0 0 0 0 .25c0 .52-.11 1-.17 1.56s-.11 1.07-.21 1.62c-.39 3.12-.92 6.19-1.56 9.26-.1.5-.22 1-.32 1.49s-.17.82-.28 1.24c-.16.74-.36 1.49-.53 2.24-.11.44-.22.85-.35 1.28s-.17.71-.27 1.06c-.13.55-.3 1.07-.45 1.61s-.37 1.36-.6 2c-.11.43-.24.84-.38 1.26s-.28.91-.41 1.36c-.35 1.06-.71 2.13-1.09 3.19s-.86 2.37-1.3 3.57c-.11.3-.25.64-.38 1-.22.59-.46 1.18-.7 1.75s-.44 1.11-.69 1.67-.44 1-.68 1.54-.33.8-.51 1.19l-.63 1.4c-.07.15-.13.27-.19.42-.3.63-.59 1.27-.92 1.9 0 .06-.05.12-.08.19-.31.65-.63 1.3-1 2l-.12.27-1 1.93c-.74 1.41-1.51 2.83-2.31 4.24-.29.5-.58 1-.86 1.49-.55.94-1.1 1.87-1.67 2.81l-1.21 1.94c-.3.47-.59.94-.88 1.41l-.86 1.3c-1.11 1.68-2.26 3.37-3.43 5a26.25 26.25 0 0 0 3.65 34.64c.91.82 1.81 1.66 2.68 2.49l.42.39c.49.47 1 .91 1.43 1.38 1.06 1 2.08 2 3.11 3.09 1.59 1.62 3.16 3.25 4.67 4.92.29.31.6.64.89 1s.64.68.94 1l.43.48c.45.5.89 1 1.34 1.53s.89 1 1.31 1.54q1.5 1.75 2.94 3.53c1.13 1.43 2.26 2.87 3.36 4.31v.06a162.82 162.82 0 0 1 10.16 15.2c.27.47.55.92.81 1.38.91 1.59 1.8 3.18 2.65 4.8.52 1 1.05 2 1.54 3 .8 1.6 1.56 3.18 2.28 4.77.48 1.07 1 2.15 1.42 3.21s.89 2.16 1.32 3.23c.22.56.43 1.1.63 1.64.15.37.28.75.43 1.13.28.72.53 1.45.79 2.18.36 1.08.74 2.17 1.08 3.25.17.48.3.94.44 1.41 0 .1.08.23.13.35.3 1 .57 1.9.84 2.86 0 .17.09.33.13.48a4.65 4.65 0 0 1 .15.59c.26.89.49 1.79.73 2.68.09.49.23 1 .34 1.44 0 .07 0 .14.05.21.16.67.32 1.34.45 2 .12.45.22.91.3 1.37s.23 1.13.35 1.7a2.92 2.92 0 0 0 .07.39c.34 1.75.64 3.53.91 5.32.05.37.11.73.15 1.09a2.23 2.23 0 0 0 0 .36l.06.37c.12 1 .24 1.93.34 2.89.07.54.12 1.06.18 1.6s.08.95.11 1.41c.14 1.39.22 2.78.29 4.17 0 .44.06.89.07 1.31s0 .66 0 1 0 .54 0 .83 0 .65 0 1v.83c.16.59.16 1.14.16 1.7z" fill="#fff7e9"/><g fill="#fff0d7"><path d="m421.36 548.31h-20.08a14.75 14.75 0 0 0 -14.75 14.75v89.35a10.36 10.36 0 0 1 -10.36 10.36h-88.94a15.16 15.16 0 0 0 -15.16 15.16v19.26a15.16 15.16 0 0 0 15.16 15.16h99.3a49.58 49.58 0 0 0 49.58-49.58v-99.71a14.75 14.75 0 0 0 -14.75-14.75z"/><path d="m307.26 763.46h-6.57l11.73-59.85h6.57z"/><path d="m376.18 763.46h6.57l-11.73-59.85h-6.57z"/><rect height="60.03" rx="5.6" width="102.38" x="620.86" y="306.34"/><rect height="82.9" rx="5.6" width="102.38" x="492.52" y="306.34"/><rect height="82.9" rx="5.6" width="102.38" x="492.52" y="409.97"/></g><path d="m819 763.46-.73.72c-1.35 1.4-2.76 2.79-4.19 4.15-1 .92-1.93 1.83-2.9 2.73-.69.63-1.39 1.27-2.09 1.88s-1.31 1.18-2 1.75l-.4.34c-.61.55-1.24 1.09-1.88 1.62-1.49 1.28-3 2.54-4.57 3.77-.55.46-1.13.92-1.73 1.37-.17.16-.37.32-.56.47-.56.45-1.12.88-1.7 1.31-2 1.52-4 3-6 4.51-.67.47-1.31.93-2 1.39-.28.21-.57.42-.85.61-.71.49-1.41 1-2.11 1.45-2.09 1.44-4.22 2.83-6.36 4.22l-1.5.93c-.58.39-1.18.75-1.77 1.12l-1 .61-2.54 1.59c-1.08.64-2.16 1.29-3.27 1.92-.63.37-1.29.73-1.93 1.1l-2.28 1.28-2.12 1.16c-.56.31-1.12.62-1.7.9l-1 .54c-1.52.8-3 1.6-4.59 2.38-.9.45-1.77.89-2.68 1.33l-2.55 1.22-.66.31c-1.34.64-2.69 1.28-4.06 1.9s-2.72 1.23-4.11 1.85l-2.91 1.26-2.94 1.24c-2 .82-4 1.63-6 2.41l-3.68 1.42-1.64.6-1.29.48c-.45.16-.89.34-1.34.48l-2.43.89c-.38.12-.77.26-1.17.41l-3 1-.82.28-2.41.79-2.09.68-2.75.86c-1.15.36-2.29.7-3.47 1-1.76.53-3.55 1-5.35 1.55-.91.26-1.82.5-2.71.74-1.69.46-3.37.91-5.06 1.33l-2.94.75c-1.52.37-3 .73-4.57 1.08-1.22.29-2.49.56-3.72.83-1.4.31-2.77.62-4.17.91-2.68.55-5.39 1.09-8.1 1.58s-5.67 1-8.55 1.48c-1.31.22-2.64.41-4 .61h-.28c-.9.14-1.81.28-2.74.39s-1.87.28-2.84.4l-.43.05c-1.14.17-2.29.31-3.47.45-.72.09-1.43.18-2.16.25s-1.39.18-2.09.24l-2.13.25-3 .3-.91.08-4.29.39c-1.41.11-2.84.24-4.26.34h-.62l-3.85.26h-.88c-.83.06-1.64.09-2.47.14l-2.93.15c-1.44.07-2.85.12-4.29.17h-1l-3.69.1c-1.49 0-3 .07-4.49.08s-3 0-4.51 0c-1.87 0-3.74 0-5.6 0a105.57 105.57 0 0 0 -44 9c-41.55 18.25-91 28.86-144.12 28.86-56 0-107.95-11.78-150.84-31.9-34.52-16.19-63.16-37.78-83.32-63-1.71-2.12-3.33-4.27-4.91-6.44q-3.58-4.93-6.74-10c-1.58-2.58-3.1-5.19-4.52-7.82z" fill="#ffd085"/><ellipse cx="196.39" cy="779.1" fill="#ffc470" rx="25.52" ry="3.89"/><path d="m863.54 662.7c0 1.2 0 2.41-.06 3.6 0 .55 0 1.09-.05 1.64s0 1.35-.1 2a1.23 1.23 0 0 1 0 .19c0 .8-.09 1.57-.16 2.36s-.14 1.71-.21 2.55v.39c-.17 1.58-.36 3.14-.58 4.7s-.5 3.36-.79 5c-.11.7-.26 1.37-.39 2a5.67 5.67 0 0 0 -.1.57c-.16.74-.32 1.47-.49 2.2v.27c-.16.7-.31 1.41-.49 2.1 0 .17-.09.35-.11.5-.17.64-.32 1.28-.48 1.9-.1.35-.2.72-.29 1.08s-.21.78-.33 1.17v.2c-.17.6-.33 1.21-.52 1.8 0 .18-.12.36-.17.55-.14.5-.3 1-.45 1.48s-.29.91-.43 1.38c-.55 1.68-1.15 3.37-1.77 5.05-.4 1.1-.83 2.21-1.26 3.29-.27.69-.57 1.38-.86 2.07a.54.54 0 0 1 0 .1c-.31.75-.63 1.5-1 2.25a6.81 6.81 0 0 1 -.35.79c-.22.51-.45 1-.7 1.52-.13.34-.29.68-.45 1-.35.75-.72 1.5-1.08 2.23s-.74 1.49-1.12 2.22c-.51 1-1 2-1.55 3s-.94 1.71-1.43 2.56c-.21.39-.44.79-.67 1.17-.37.64-.74 1.28-1.14 1.93s-.76 1.23-1.13 1.84a4 4 0 0 1 -.2.35c-.39.63-.77 1.25-1.18 1.88l-.75 1.15c-.37.59-.76 1.17-1.16 1.73-.52.79-1 1.56-1.58 2.34-.06.07-.1.14-.16.2-.42.61-.85 1.23-1.3 1.85-.08.1-.16.22-.25.35l-.16.22c-.59.79-1.16 1.59-1.75 2.38s-1.22 1.59-1.85 2.38-1.4 1.8-2.12 2.69-1.37 1.65-2 2.46c-1.46 1.72-2.95 3.42-4.49 5.12-.29.33-.6.65-.89 1-1.08 1.18-2.19 2.34-3.3 3.5l-.46.47-.73.72c-1.35 1.4-2.76 2.79-4.19 4.15-1 .92-1.93 1.83-2.9 2.73-.69.63-1.39 1.27-2.09 1.88s-1.31 1.18-2 1.75l-.4.34c-.61.55-1.24 1.09-1.88 1.62-1.49 1.28-3 2.54-4.57 3.77-.55.46-1.13.92-1.73 1.37-.17.16-.37.32-.56.47-.56.45-1.12.88-1.7 1.31-2 1.52-4 3-6 4.51-.67.47-1.31.93-2 1.39-.28.21-.57.42-.85.61-.71.49-1.41 1-2.11 1.45-2.09 1.44-4.22 2.83-6.36 4.22l-1.5.93c-.58.39-1.18.75-1.77 1.12l-1 .61-2.77 1.63c-1.08.64-2.16 1.29-3.27 1.92-.63.37-1.29.73-1.93 1.1l-2.28 1.28-2.12 1.16c-.56.31-1.12.62-1.7.9l-1 .54c-1.52.8-3 1.6-4.59 2.38-.9.45-1.77.89-2.68 1.33l-2.55 1.22-.66.31c-1.34.64-2.69 1.28-4.06 1.9s-2.72 1.23-4.11 1.85l-2.91 1.26-2.94 1.24c-2 .82-4 1.63-6 2.41l-3.68 1.42-1.64.6-1.29.48c-.45.16-.89.34-1.34.48l-2.43.89c-.38.12-.77.26-1.17.41l-3 1-.82.28-2.41.79-2.09.68-2.75.86c-1.15.36-2.29.7-3.47 1-1.76.53-3.55 1-5.35 1.55-.91.26-1.82.5-2.71.74-1.69.46-3.37.91-5.06 1.33l-2.94.75c-1.52.37-3 .73-4.57 1.08-1.22.29-2.49.56-3.72.83-1.4.31-2.77.62-4.17.91-2.68.55-5.39 1.09-8.1 1.58s-5.67 1-8.55 1.48c-1.31.22-2.64.41-4 .61h-.28c-.9.14-1.81.28-2.74.39s-1.87.28-2.84.4l-.43.05c-1.14.17-2.29.31-3.47.45-.72.09-1.43.18-2.16.25s-1.39.18-2.09.24l-1.79.2-3.85.4h-.37l-4.29.39c-1.41.11-2.84.24-4.26.34h-.62l-3.85.26h-.88c-.83.06-1.64.09-2.47.14l-2.93.15c-1.44.07-2.85.12-4.29.17h-1l-3.69.1c-1.49 0-3 .07-4.49.08s-3 0-4.51 0c-1.87 0-3.74 0-5.6 0a104.84 104.84 0 0 0 -35.2 5.59v-193.67a11.24 11.24 0 0 1 11.24-11.23h295.13a2.23 2.23 0 0 0 0 .36l.06.37c.12 1 .24 1.93.34 2.89.07.54.12 1.06.18 1.6s.08.95.11 1.41c.14 1.39.22 2.78.29 4.17 0 .44.06.89.07 1.31s0 .66 0 1 0 .54 0 .83 0 .65 0 1v.81c.16.59.16 1.14.16 1.7z" fill="#756671"/><path d="m615.1 621.06h11.51a24.19 24.19 0 0 1 24.19 24.19 0 0 0 0 1 0 0h-59.89a0 0 0 0 1 0 0 24.19 24.19 0 0 1 24.19-24.19z" fill="#948c91"/><path d="m620.86 633.15-58.73-95.75 58.73-81.03" fill="none" stroke="#948c91" stroke-miterlimit="10" stroke-width="7"/><g fill="#948c91"><circle cx="562.13" cy="537.4" r="11.61"/><circle cx="579.31" cy="564.17" r="6.64"/><circle cx="593.89" cy="589.85" r="6.64"/></g><ellipse cx="644.03" cy="500.19" fill="#f4e8d3" rx="21.36" ry="8.3" transform="matrix(.93734281 -.34840846 .34840846 .93734281 -133.94 255.78)"/><g fill="#948c91"><path d="m627.34 423.26a13.36 13.36 0 0 1 13.36 13.36v50.71a0 0 0 0 1 0 0h-26.7a0 0 0 0 1 0 0v-50.71a13.36 13.36 0 0 1 13.34-13.36z" transform="matrix(.93734281 -.34840846 .34840846 .93734281 -119.34 247.15)"/><path d="m667.32 491.53-46.58 17.32a5.24 5.24 0 0 1 -7-5.56 22.6 22.6 0 0 1 14.56-18.41l17.7-6.58a22.63 22.63 0 0 1 23 4.43 5.25 5.25 0 0 1 -1.68 8.8z"/><path d="m834.18 579.54h-120.18a13.26 13.26 0 0 1 -13.27-13.27v-141.4a13.26 13.26 0 0 1 13.27-13.27h116.55a127 127 0 0 1 3.14 28v2.39s0 1.59-.07 2.37c0 .58-.05 1.15-.06 1.73 0 .39 0 .77-.08 1.15a7 7 0 0 1 -.06.91c0 .49-.07 1-.1 1.45s-.07.77-.09 1.15c-.06.66-.13 1.33-.19 2a2.17 2.17 0 0 0 0 .25c0 .52-.11 1-.17 1.56s-.11 1.07-.21 1.62c-.39 3.12-.92 6.19-1.56 9.26-.1.5-.22 1-.32 1.49s-.17.82-.28 1.24c-.16.74-.36 1.49-.53 2.24-.11.44-.22.85-.35 1.28s-.17.71-.27 1.06c-.13.55-.3 1.07-.45 1.61s-.37 1.36-.6 2c-.11.43-.24.84-.38 1.26s-.28.91-.41 1.36c-.35 1.06-.71 2.13-1.09 3.19s-.86 2.37-1.3 3.57c-.11.3-.25.64-.38 1-.22.59-.46 1.18-.7 1.75s-.44 1.11-.69 1.67-.44 1-.68 1.54-.33.8-.51 1.19l-.63 1.4c-.07.15-.13.27-.19.42-.3.63-.59 1.27-.92 1.9 0 .06-.05.12-.08.19-.31.65-.63 1.3-1 2l-.12.27-1 1.93c-.74 1.41-1.51 2.83-2.31 4.24-.29.5-.58 1-.86 1.49-.55.94-1.1 1.87-1.67 2.81l-1.21 1.94c-.3.47-.59.94-.88 1.41l-.86 1.3c-1.11 1.68-2.26 3.37-3.43 5a26.25 26.25 0 0 0 3.65 34.64c.91.82 1.81 1.66 2.68 2.49l.42.39c.49.47 1 .91 1.43 1.38 1.06 1 2.08 2 3.11 3.09 1.59 1.62 3.16 3.25 4.67 4.92.29.31.6.64.89 1s.64.68.94 1l.43.48c.45.5.89 1 1.34 1.53s.89 1 1.31 1.54q1.5 1.75 2.94 3.53c1.13 1.43 2.26 2.87 3.36 4.31z"/><path d="m862.33 645.25h-49v-89l.42.39c.49.47 1 .91 1.43 1.38 1.06 1 2.08 2 3.11 3.09 1.59 1.62 3.16 3.25 4.67 4.92.29.31.6.64.89 1s.64.68.94 1l.43.48c.45.5.89 1 1.34 1.53s.89 1 1.31 1.54q1.5 1.75 2.94 3.53c1.13 1.43 2.26 2.87 3.36 4.31v.06a162.82 162.82 0 0 1 10.16 15.2c.27.47.55.92.81 1.38.91 1.59 1.8 3.18 2.65 4.8.52 1 1.05 2 1.54 3 .8 1.6 1.56 3.18 2.28 4.77.48 1.07 1 2.15 1.42 3.21s.89 2.16 1.32 3.23c.22.56.43 1.1.63 1.64.15.37.28.75.43 1.13.28.72.53 1.45.79 2.18.36 1.08.74 2.17 1.08 3.25.17.48.3.94.44 1.41 0 .1.08.23.13.35.3 1 .57 1.9.84 2.86 0 .17.09.33.13.48a4.65 4.65 0 0 1 .15.59c.26.89.49 1.79.73 2.68.09.49.23 1 .34 1.44 0 .07 0 .14.05.21.16.67.32 1.34.45 2 .12.45.22.91.3 1.37s.23 1.13.35 1.7a2.92 2.92 0 0 0 .07.39c.34 1.75.64 3.53.91 5.32.06.46.12.82.16 1.18z"/><path d="m862.33 645.25h-74.14v-12.1h71.86c0 .07 0 .14.05.21.16.67.32 1.34.45 2 .12.45.22.91.3 1.37s.23 1.13.35 1.7a2.92 2.92 0 0 0 .07.39c.34 1.75.64 3.53.91 5.32.05.39.11.75.15 1.11z"/></g><path d="m255.69 696.65c-.19.37-.39.73-.61 1.07-3.56 5.55-10.13 8.25-16.29 10.61a40.65 40.65 0 0 1 -4.43 1.53c-1.28.35-2.59.58-3.89.83-2.93.58-5.93 1.33-8.34 3.09a9.93 9.93 0 0 1 3.91 1.74 2.88 2.88 0 0 1 .82.88c.66 1.2-.28 2-1.05 2.6a17.73 17.73 0 0 1 -2.79 1.72 30.22 30.22 0 0 0 -9 6.93 3.53 3.53 0 0 0 -1.05 2c0 .76.64 1.59 1.39 1.4.4-.1.73-.47 1.21-.17a1 1 0 0 1 .41 1.07 19.16 19.16 0 0 1 -2.14 5.44 1.91 1.91 0 0 1 -1.37 1.14 1.51 1.51 0 0 1 -.37 0 2 2 0 0 1 -1.19-.56 4 4 0 0 1 -1-2 24.09 24.09 0 0 1 -2.46-12c.1-1.72.71-3.79 2.4-4.14l1 2.32a1 1 0 0 0 .21.33.67.67 0 0 0 .94-.15 2 2 0 0 0 .34-1 60 60 0 0 1 2.12-9.94 31.86 31.86 0 0 1 12.54-16.48c.71-.48 1.75-.89 2.33-.27.73 1.91.07 4.06-.8 5.9s-2 3.65-2.18 5.68a44.67 44.67 0 0 1 23.08-13.29 15.81 15.81 0 0 1 3.62-.45 2.68 2.68 0 0 1 .76.11 2.92 2.92 0 0 1 1.88 4.06z" fill="#fce0b9"/><path d="m255.69 696.65c-.19.37-.39.73-.61 1.07-3.56 5.55-10.13 8.25-16.29 10.61a40.65 40.65 0 0 1 -4.43 1.53c-1.28.35-2.59.58-3.89.83-2.93.58-5.93 1.33-8.34 3.09a9.93 9.93 0 0 1 3.91 1.74 2.88 2.88 0 0 1 .82.88c.66 1.2-.28 2-1.05 2.6a17.73 17.73 0 0 1 -2.79 1.72 30.22 30.22 0 0 0 -9 6.93 3.53 3.53 0 0 0 -1.05 2c0 .76.64 1.59 1.39 1.4.4-.1.73-.47 1.21-.17a1 1 0 0 1 .41 1.07 18.34 18.34 0 0 1 -.71 2.4l-2.51-.21a1.43 1.43 0 0 0 -.08-.22c-.45-1.12-1.38-2-1.77-3.14a5.06 5.06 0 0 1 .83-4.31 23.69 23.69 0 0 1 3.07-3.35 12.09 12.09 0 0 0 3.6-6.08c.33-1.82 0-3.86 1.12-5.37 1.28-1.81 3.83-2 6-2.21a19.24 19.24 0 0 0 8.81-3c2-1.36 3.56-3.2 5.47-4.63a16.63 16.63 0 0 1 6.33-2.91 21.62 21.62 0 0 0 3.92-1c1.72.14 3.37-3.36 3.65-4.61a4.36 4.36 0 0 0 .09-.69 2.92 2.92 0 0 1 1.89 4.03z" fill="#fcd3a2"/><path d="m217 636.78c-3.51 3.28-8.75 3.76-13 6a17.8 17.8 0 0 0 -9.32 12.52 2 2 0 0 0 .48 1.7c1.1 1.16 2.75 0 3.8-1.08a37 37 0 0 1 5-4.16c2.12-1.46 5.27-2.6 7-.72 1.2 1.27 1 3.38.09 4.86a14 14 0 0 1 -3.79 3.57c-6.92 5.24-12.7 12.86-13 21.52a3.6 3.6 0 0 0 .86 3c1.31 1.13 3.37.09 4.52-1.21s2.17-3 3.88-3.29 3.63 1.22 4.11 3a8.47 8.47 0 0 1 -.82 5.46c-1.59 3.65-4.12 6.79-6.15 10.21a42.13 42.13 0 0 0 -5.66 25.28c.1 1.11.76 2.58 1.83 2.25a1.9 1.9 0 0 0 .86-.68c1.34-1.59 2.67-3.18 4-4.76a2.57 2.57 0 0 1 4.5 1.27 14 14 0 0 1 .13 2.4 78.63 78.63 0 0 1 -1.66 14.08 7.91 7.91 0 0 1 -1.58 3.77 3.3 3.3 0 0 1 -.38.37c-3 2.47-8.41-1-11.15-2.72-4.24-2.66-7.35-7.9-8.84-12.55a3.59 3.59 0 0 1 -.21-2 1.35 1.35 0 0 1 1.56-1 2 2 0 0 1 .89.75l3.92 5c1.6-1.11.88-3.58 0-5.32q-3.94-8-7.38-16.3c-2-4.68-3.8-9.72-2.94-14.73.38-2.19 2.32-4.73 4.31-3.76 1.78.89 2.31 4.17 4.24 3.71 1.15-1.76.49-4.08-.21-6.06l-6-17.07c-2.36-6.71-4.75-13.89-3-20.79a5.78 5.78 0 0 1 1.94-3.45c1.1-.8 2.9-.71 3.56.47a4.49 4.49 0 0 1 .39 1.68 11.78 11.78 0 0 0 2.83 6.32 4 4 0 0 0 1.38-3.92c-.2-1.45-.79-2.82-1-4.27-.32-2.46.56-4.91 1.6-7.16a44.9 44.9 0 0 1 17.85-19.65c3.2-1.88 7.34-3.31 10.53-1.6.17.09.34.2.51.31 2.37 1.6 3.27 4.68 3.43 7.53.21 4.04-.91 8.44-3.91 11.22z" fill="#fce0b9"/><path d="m194 738.34a3.39 3.39 0 0 1 -1.32 2.77c-3.61 2.66-6.11-4-7.9-5.8-3-3-7-5.33-10.31-7.93-2.22-1.73-4.5-3.52-5.67-6.17a2.12 2.12 0 0 1 .75-2.65c1.23-.75 2.56.36 3.46 1.36l4.67 5.18c0-4.15-2.34-7.94-5-11.15a53.51 53.51 0 0 0 -8.91-8.63c-4.13-3.15-8.93-6-11.1-10.68-.46-1-.76-2.29.19-3.08a2 2 0 0 1 1.38-.43 5.13 5.13 0 0 1 2.81 1.38l4.45 3.48c.75-1.94-1.13-3.8-2.69-5.19a25 25 0 0 1 -7.31-10.8 17.62 17.62 0 0 1 .51-12.53c.06-.13.12-.26.19-.39a2.3 2.3 0 0 1 .74-1 2.37 2.37 0 0 1 2.49.4c3.12 2.07 5 5.53 6.68 8.84 2.77 5.33 5.62 11.14 4.66 17.06a2.24 2.24 0 0 0 1.88-1.57 9.27 9.27 0 0 0 .35-2.57v-.07a2.61 2.61 0 0 1 5.15-.29c1.35 6.27.63 13.15 2.17 19.49a1.77 1.77 0 0 0 .94 1.21c1.24.59 2.15-.71 2.43-1.85s.36-2.44 1.47-3a2.25 2.25 0 0 1 2.26.22 5.36 5.36 0 0 1 1.89 3.22c1.64 5.91 1.4 12.19.66 18.28a2.62 2.62 0 0 0 .1 1.42.88.88 0 0 0 1.18.48 1.41 1.41 0 0 0 .46-.93 10.85 10.85 0 0 1 2-4.32c.29-.38.64-.77 1.25-.57a1.38 1.38 0 0 1 .84 1 60 60 0 0 1 2 11.43c.14 1.4.2 2.89.2 4.38z" fill="#fce0b9"/><path d="m193.71 732.68-6.33.36a3.62 3.62 0 0 1 -.58-.38c-1.75-1.37-2.13-3.85-2.11-6.07s.24-4.57-.74-6.56c-1.92-3.88-7.52-4.65-9.67-8.41-1.19-2.09-1.05-4.66-1.66-7-1.11-4.35-4.67-7.55-7.73-10.82a63.68 63.68 0 0 1 -4.87-5.89 11.71 11.71 0 0 1 -2-3.69c-.7-2.41 0-5-.12-7.48a11.65 11.65 0 0 0 -3.57-7.68 12 12 0 0 0 -2.29-1.66c.06-.13.12-.26.19-.39a2.3 2.3 0 0 1 .74-1 2.37 2.37 0 0 1 2.49.4c3.12 2.07 5 5.53 6.68 8.84 2.77 5.33 5.62 11.14 4.66 17.06a2.24 2.24 0 0 0 1.88-1.57 9.27 9.27 0 0 0 .35-2.57v-.07a2.61 2.61 0 0 1 5.15-.29c1.35 6.27.63 13.15 2.17 19.49a1.77 1.77 0 0 0 .94 1.21c1.24.59 2.15-.71 2.43-1.85s.36-2.44 1.47-3a2.25 2.25 0 0 1 2.26.22 5.36 5.36 0 0 1 1.89 3.22c1.64 5.91 1.4 12.19.66 18.28a2.62 2.62 0 0 0 .1 1.42.88.88 0 0 0 1.18.48 1.41 1.41 0 0 0 .46-.93 10.85 10.85 0 0 1 2-4.32c.29-.38.64-.77 1.25-.57a1.38 1.38 0 0 1 .84 1 59.45 59.45 0 0 1 1.88 10.22z" fill="#fcd3a2"/><path d="m217 636.78c-3.51 3.28-8.75 3.76-13 6a17.85 17.85 0 0 0 -9.32 12.53 2 2 0 0 0 .48 1.69c1.1 1.15 2.75 0 3.8-1.08a37 37 0 0 1 5-4.16c2.12-1.46 5.27-2.6 7-.72 1.2 1.27 1 3.38.09 4.86a14 14 0 0 1 -3.79 3.57c-6.92 5.24-12.7 12.86-13 21.52a3.6 3.6 0 0 0 .86 3c1.31 1.13 3.37.09 4.52-1.21s2.17-3 3.88-3.29 3.63 1.22 4.11 3a8.47 8.47 0 0 1 -.82 5.46c-1.59 3.65-4.12 6.79-6.15 10.21a42.13 42.13 0 0 0 -5.66 25.28c.1 1.11.76 2.58 1.83 2.25a1.9 1.9 0 0 0 .86-.68l4-4.77a2.57 2.57 0 0 1 4.5 1.27 14.13 14.13 0 0 1 .13 2.41 77.39 77.39 0 0 1 -1 10.64l-2.58-.22a16.75 16.75 0 0 0 -.28-3.39 2.71 2.71 0 0 0 -.68-1.47c-.78-.72-2-.43-3.07-.37-3 .17-5.76-1.94-7.1-4.62a16.11 16.11 0 0 1 -1.15-8.78 34.46 34.46 0 0 1 4.39-13.71 19.16 19.16 0 0 0 2.34-4.79 4.75 4.75 0 0 0 -1.35-4.88 13.5 13.5 0 0 0 -1.76-1c-4.2-2.31-4.39-8.26-3.41-12.95a55.89 55.89 0 0 1 2.8-9.27c.79-2 1.68-4.28.56-6.09a9.75 9.75 0 0 0 -1.69-1.77c-3.17-3.07-3.75-8.13-2.38-12.33s4.38-7.65 7.6-10.65a66.93 66.93 0 0 1 8.55-6.75c3.39-2.25 7.1-4.31 9.33-7.7a9.74 9.74 0 0 0 1.51-6.25c.17.09.34.2.51.31 2.37 1.6 3.27 4.68 3.43 7.53.23 4.19-.89 8.59-3.89 11.37z" fill="#fcd3a2"/><path d="m262.69 658.9c-4.27 1.05-8.66-.91-13.05-1.08a16.27 16.27 0 0 0 -13 5.83 1.79 1.79 0 0 0 -.38 1.57c.36 1.41 2.2 1.2 3.51.83a33.78 33.78 0 0 1 5.83-1.05c2.34-.22 5.36.28 5.93 2.57a3.76 3.76 0 0 1 -2.1 3.92 12.92 12.92 0 0 1 -4.62 1.14c-7.84 1.09-15.86 4.59-20 11.35a3.27 3.27 0 0 0 -.63 2.74c.54 1.49 2.64 1.58 4.13 1.06s3.07-1.4 4.57-.89 2.35 2.59 1.92 4.25a7.73 7.73 0 0 1 -3.09 4c-2.89 2.19-6.31 3.57-9.46 5.39a38.5 38.5 0 0 0 -15.82 17.65c-.41.94-.55 2.4.45 2.62a1.63 1.63 0 0 0 1-.17l5.32-2a2.34 2.34 0 0 1 3 3 12.44 12.44 0 0 1 -1 2 71.14 71.14 0 0 1 -7.59 10.5 7.37 7.37 0 0 1 -2.94 2.31l-.48.12c-3.49.63-6.25-4.55-7.66-7.14-2.19-4-2.34-9.58-1.45-14a3.32 3.32 0 0 1 .75-1.72 1.21 1.21 0 0 1 1.69-.12 1.83 1.83 0 0 1 .38 1l.9 5.71c1.77-.16 2.3-2.45 2.39-4.22q.44-8.17 1.39-16.29c.54-4.61 1.31-9.45 4.23-13.06 1.28-1.57 4-2.73 5.11-1.07 1 1.5 0 4.36 1.73 4.85 1.7-.88 2.21-3 2.54-4.92.95-5.43 1.88-10.86 2.83-16.29 1.11-6.4 2.41-13.18 6.85-17.93a5.26 5.26 0 0 1 3.09-1.88 2.3 2.3 0 0 1 2.63 2 3.93 3.93 0 0 1 -.45 1.51 10.86 10.86 0 0 0 -.56 6.3 3.6 3.6 0 0 0 2.85-2.51c.49-1.23.63-2.6 1.12-3.84a12.19 12.19 0 0 1 4.47-5 41.05 41.05 0 0 1 23-7.7c3.38-.07 7.32.64 9.1 3.43a4.39 4.39 0 0 1 .27.47c1.18 2.34.52 5.19-.63 7.54-1.59 3.32-4.43 6.32-8.07 7.22z" fill="#fce0b9"/><path d="m262.69 658.9c-4.27 1.05-8.66-.91-13.05-1.08a16.27 16.27 0 0 0 -13 5.83 1.79 1.79 0 0 0 -.38 1.57c.36 1.4 2.2 1.2 3.51.83a33.78 33.78 0 0 1 5.83-1.05c2.34-.22 5.36.28 5.93 2.57a3.76 3.76 0 0 1 -2.1 3.92 12.92 12.92 0 0 1 -4.62 1.14c-7.84 1.09-15.86 4.59-20 11.35a3.27 3.27 0 0 0 -.63 2.74c.54 1.49 2.64 1.58 4.13 1.06s3.07-1.4 4.57-.89 2.35 2.59 1.92 4.25a7.73 7.73 0 0 1 -3.09 4c-2.89 2.19-6.31 3.57-9.46 5.39a38.5 38.5 0 0 0 -15.82 17.65c-.41.94-.55 2.4.45 2.62a1.63 1.63 0 0 0 1-.17l5.32-2a2.34 2.34 0 0 1 3 3 12.44 12.44 0 0 1 -1 2 70.36 70.36 0 0 1 -5.54 8l-2-1.32a15.47 15.47 0 0 0 1.29-2.84 2.4 2.4 0 0 0 .11-1.47c-.3-.92-1.4-1.24-2.27-1.66-2.46-1.2-3.73-4.12-3.6-6.86a14.64 14.64 0 0 1 3-7.51 31.48 31.48 0 0 1 9.62-8.94 16.61 16.61 0 0 0 4-2.77 4.3 4.3 0 0 0 1.1-4.48 12.53 12.53 0 0 0 -1-1.55c-2.32-3.72.19-8.54 3.06-11.84a50 50 0 0 1 6.37-6.14c1.5-1.22 3.24-2.67 3.16-4.6a8.78 8.78 0 0 0 -.56-2.17c-1.15-3.86.64-8.15 3.61-10.89s6.9-4.14 10.81-5.1a60.6 60.6 0 0 1 9.83-1.56c3.7-.29 7.58-.26 10.87-2a8.91 8.91 0 0 0 4-4.3 4.39 4.39 0 0 1 .27.47c1.18 2.34.52 5.19-.63 7.54-1.53 3.36-4.37 6.36-8.01 7.26z" fill="#fcd3a2"/><path d="m220.46 731.24-.36 2.76-1.17 9.16-4.18 32.74a4.66 4.66 0 0 1 -4.42 4.17h-27.89a4.65 4.65 0 0 1 -4.42-4.17l-5.36-41.9-.36-2.8z" fill="#e5af61"/><path d="m223.3 730.76v8.51a2.27 2.27 0 0 1 -2.27 2.27h-49.29a2.27 2.27 0 0 1 -2.27-2.27v-8.51a2.28 2.28 0 0 1 2.27-2.28h49.26a2.28 2.28 0 0 1 2.3 2.28z" fill="#e5af61"/><path d="m207.82 771.22c-.29 2.06-1.57 3.83-2.66 5.61a27.22 27.22 0 0 0 -1.7 3.26h-21a4.65 4.65 0 0 1 -4.42-4.17l-4.38-34.18h29.5a72.77 72.77 0 0 0 -15.78 8.37c-1.49 1-3.1 3-2 4.44a3.55 3.55 0 0 0 1.95 1c5.16 1.46 10.32 3.18 14.78 6.16 3.23 2.19 6.27 5.64 5.71 9.51z" fill="#d39340"/><path d="m452.56 246.79c-8.57-1.67-17.28 1.2-17.28 1.2a12.45 12.45 0 0 0 -8-2.46 18.68 18.68 0 0 0 -9.76 3.25 30 30 0 0 0 -3 2.13 8.88 8.88 0 0 1 -.15-1.62c0-7.3 8.61-13.21 19.23-13.21 9.45 0 17.26 4.62 18.96 10.71z" fill="#3d1b30"/><path d="m427.3 245.69a18.71 18.71 0 0 0 -9.76 3.26 29.92 29.92 0 0 0 -3 2.12 8.72 8.72 0 0 1 -.15-1.62c0-7.29 8.61-13.2 19.23-13.2.04 0-7.81 1.42-6.32 9.44z" fill="#29111f"/><path d="m442.14 313.3 5.29-15.49 15.25-26-5.68-14.81s-17.31-6.94-17.61-6.68-22.45 14.1-23 14.4-9.31 7.52-10 13.5l7.33 13.94v23s22.64 6.84 28.42-1.86z" fill="#efa08d"/><path d="m392 316.41 24.49 23.72 42.86-18.21 8.75 12.29 6.9-11.91 9.67 14.13-27 62.55s-47.24-5.79-47.78-5.32-52.59-14.17-52.59-14.17l-3.23-58.11z" fill="#efa08d"/><path d="m453.78 452.79-13.25-5.59 3.09-10.48-11.53-19.73-77.09 24.59.62 9.83-6.56 8.38 5.03 16.27 72.43 19.69z" fill="#2f5176"/><path d="m328.41 560.53-16.6-2.53a5 5 0 0 1 -2-9.12l27.81-11.5 7.44 3.71-10.29 17.31z" fill="#5d213a"/><path d="m359.2 591.17c-9.42 1.59-17.75 3.14-24.73 4.53-2.08-9.71-4.07-20.61-5.93-32.83a11.59 11.59 0 0 1 9.15-13.1z" fill="#efa08d"/><path d="m395.41 660.88s-36.9 46.8-60.94-65.18c7-1.39 15.31-2.94 24.73-4.53z" fill="#397172"/><path d="m499.68 545.35 15.48-6.5a5 5 0 0 0 -.28-9.34l-25.6-3.71a9.27 9.27 0 0 0 -7.37 2.14l-3.11 2.68 14.2 14.25z" fill="#5d213a"/><path d="m502.38 579.51c-8.15-.15-16.27-.13-24.29 0l9.27-41c6.16-.3 12.17 3 12.77 9.11 1.14 11.76 1.87 22.38 2.25 31.89z" fill="#efa08d"/><path d="m459.39 659.09 18.7-79.55c8-.16 16.14-.18 24.29 0 4.67 116.16-42.99 79.55-42.99 79.55z" fill="#397172"/><path d="m453.78 452.78a178.68 178.68 0 0 1 -36 10.73c-1.81.34-3.59.63-5.35.89a151.87 151.87 0 0 1 -20.61 1.7q-4.81.06-9.24-.18a124.59 124.59 0 0 1 -33.52-6.13 185 185 0 0 1 5.94-18.21c9.59 5.64 21.06 7.59 32.52 7.53a127.14 127.14 0 0 0 24.91-2.82c5.12-1.06 9.9-2.31 14.09-3.55a161.38 161.38 0 0 0 17.1-6 185.66 185.66 0 0 1 10.16 16.04z" fill="#2f5176"/><path d="m468.86 482.88a307.63 307.63 0 0 0 -15.08-30.1 178.68 178.68 0 0 1 -36 10.73c-1.81.34-3.59.63-5.35.89a151.87 151.87 0 0 1 -20.61 1.7q-4.81.06-9.24-.18a124.59 124.59 0 0 1 -33.52-6.13 308.94 308.94 0 0 0 -8.14 38.89c-5.75 39.78-6.41 96.32 17 156.36a28.71 28.71 0 0 0 10.37 13.27 25.28 25.28 0 0 0 5.41 2.86 18.15 18.15 0 0 0 14.89-.71c15.57-7.61 27.08-38.4 23.87-118.34v-4.69l2.65 10.57c16.51 78.26 35.25 105.28 52.21 108.84 8.74 1.83 15-2.39 19.15-7.07a28.66 28.66 0 0 0 6.78-15.41c8.35-67.36-8.2-124.36-24.39-161.48z" fill="#53a2a9"/><path d="m468.86 482.88c-38.84 8.57-51.08-19.37-51.08-19.37a178.68 178.68 0 0 0 36-10.73 307.63 307.63 0 0 1 15.08 30.1z" fill="#397172"/><path d="m382.58 465.92s-4.11 19.5-26.48 28.74a61.47 61.47 0 0 1 -15.18 4 308.94 308.94 0 0 1 8.14-38.89 124.59 124.59 0 0 0 33.52 6.15z" fill="#397172"/><path d="m462.68 271.77-5 25.14a21.48 21.48 0 0 1 -6.55 11.65 20.07 20.07 0 0 1 -3.14 2.35 19.91 19.91 0 0 1 -10.41 2.9 19.13 19.13 0 0 1 -4.13-.44 19.89 19.89 0 0 1 -10.2-5.57 31 31 0 0 1 -8.25-15.61 30.38 30.38 0 0 1 -.6-6c0-.72 0-1.44.08-2.17l.14-1.45a2.48 2.48 0 0 1 0-.27l.06-.5c3.49-11.58 12.87-13.6 19.21-17.26a23.49 23.49 0 0 0 9-9.91s5.11 16.37 15.11 17.48a11.62 11.62 0 0 0 4.68-.34z" fill="#efa08d"/><path d="m442.14 313.3-.55 6.32-.37 4.26-30.33-3.1.92-9.29 1.9-19.37.1-1.09.7-7a2.64 2.64 0 0 0 0 .29c0 .63-.06 1.25-.06 1.87a30.38 30.38 0 0 0 .6 6c.08.4.16.8.26 1.19s.15.61.23.91v.06c.09.33.18.65.29 1 0 .07 0 .13.05.18.1.31.2.62.31.92a.08.08 0 0 0 0 .05l.33.92.11.24q.17.44.36.87a.69.69 0 0 1 .05.13c.12.27.25.54.38.81s.36.75.55 1.11.35.65.54 1 .31.53.48.79.16.27.24.39.24.39.37.57.12.18.18.28c.18.26.36.52.55.77.2.27.4.54.61.8s.61.78.95 1.16c.17.21.34.4.52.59s.55.61.84.9a20 20 0 0 0 14.34 6 20.28 20.28 0 0 0 4.55-.53z" fill="#efa08d"/><path d="m414.75 281.73-1 10.39c-6 8-11.14-9.32-7.32-13.93a3 3 0 0 1 .67-.61c4.9-3.3 7.65 4.15 7.65 4.15z" fill="#e06855"/><path d="m462.68 271.78a11.85 11.85 0 0 1 -4.65.33c-6.5-.72-10.92-7.92-13.2-12.88a40.33 40.33 0 0 1 -1.86-4.68 23.38 23.38 0 0 1 -4.88 6.78 21.13 21.13 0 0 1 -4.14 3.15c-4.06 2.34-9.36 4-13.56 7.94a20.38 20.38 0 0 0 -5.64 9.31s-2.75-7.45-7.69-4.15a3.49 3.49 0 0 0 -.68.6c0-.48-5.69-16.82 8.2-28.07a31.7 31.7 0 0 1 3-2.13c10.56-6.71 17.46-1 17.73-.79s8.71-2.88 17.28-1.21c5.25 1 10.44 3.73 13.55 9.84 3.47 6.87 2.53 14.18-3.46 15.96z" fill="#5d213a"/><path d="m467 378.4c-3.29 7.64-6.38 14.28-9.24 20.57-3.07 6.72-5.89 13.06-8.42 19.81a170.73 170.73 0 0 0 -5.65 17.91 175.18 175.18 0 0 1 -31.19 9.57 127.14 127.14 0 0 1 -24.91 2.82 77.65 77.65 0 0 1 -18.2-1.91 51.36 51.36 0 0 1 -14.39-5.59s6.53-13.95 4.82-34.54c-.2-2.46-.55-5.16-.92-8.06a156.3 156.3 0 0 1 -1.58-19.49c-.05-11.22 1.89-23.72 9.35-36.38 5.27-9 13.32-18 25.38-26.7a0 0 0 0 1 0 0c-.52 1.29-11 27.74-5.23 31.87 2.77 2 12.36 4.89 22.79 6.65 2 .33 4 .62 6.05.86 9.91 1.16 19.55.93 23.9-2.43 9.87-7.62 19.85-31.48 19.85-31.48l15.62.38s5.97 23.35-8.03 56.14z" fill="#fda440"/><path d="m392.05 316.4a0 0 0 0 1 0 0l-27.05 49.19-7.64 13.89c-15-25.89-29.32-61-41.42-95.21l-.6-1.71q-3-8.6-5.85-17l-.63-1.87c-16.66-49.93-27.77-93.24-28.52-96.15a1 1 0 0 1 0-.12.11.11 0 0 0 0 0l4.83-13.79 11.11 6.27 38.72 63.28.81 1.34 11.19 18.34.82 1.32z" fill="#fda440"/><path d="m296.2 159.82s-1.55-5 9.68-20.39a.69.69 0 0 0 -1-1l-6.84 4.83 5.46-17.54a.68.68 0 0 0 -1.18-.67l-5.56 7.22 3.83-11.94a2.26 2.26 0 0 0 -3.94-2.08l-15.35 19.85-1.48-11.3a1 1 0 0 0 -2.07 0l-3.05 18a23.56 23.56 0 0 0 1.53 13.11l4 9.49z" fill="#efa08d"/><path d="m622.72 241.2c-21.08 25.37-41.6 47.69-60.59 66.94l-1.28 1.29q-5.48 5.55-10.78 10.73c-.42.42-.84.82-1.25 1.22-11.17 10.92-21.69 20.68-31.32 29.29a1 1 0 0 1 -.11.11c-36 32.12-59.69 48.2-59.69 48.2l-5.79-16.22 23.09-60.46 62.35-43.3 1.29-.89 14.51-10.11 1.32-.91 58.34-40.53h13.59z" fill="#fda440"/><path d="m459.39 321.92s-10 23.86-19.85 31.48c-4.38 3.38-14.09 3.59-24.05 2.41-1.42-.16-2.85-.36-4.26-.58-11-1.71-21.51-4.82-24.43-6.91-5.85-4.18 5-31.24 5.24-31.91a0 0 0 0 0 0 0z" fill="#efa08d"/><path d="m442.14 313.3-.55 6.32c-28.74-2.19-27.88-27.5-27.88-27.5.25 0 .78-11.56 1-11.54.51 0 .26 11.57.38 12.1a31.12 31.12 0 0 0 5.35 11.83 22.48 22.48 0 0 0 10 8 20.31 20.31 0 0 0 11.62.77z" fill="#e06855"/><path d="m457.7 399c-3.07 6.72-5.89 13.06-8.42 19.81l-4.32-8.6 12.73-11.21z" fill="#f35b34"/><path d="m363.83 391.41-4.93 7.59a156.3 156.3 0 0 1 -1.58-19.49z" fill="#f35b34"/><path d="m415.49 355.81c-1.42-.16-2.85-.36-4.26-.58l2.89-6.77z" fill="#ed8b7b"/><g fill="#f35b34"><path d="m335.8 224.52c-3 3.88-5.79 7.74-8.4 11.52q-3.47 5-6.62 10.05c-4.18 6.62-7.95 13.16-11.33 19.43l-.63-1.87c3.31-6.09 7-12.41 11-18.81q3-4.77 6.34-9.58 4.34-6.26 8.84-12.08z"/><path d="m562.13 308.14-1.28 1.29c-1.85-13.22-4.34-27.32-7.7-41.4l1.32-.91c3.03 12.72 5.59 26.43 7.66 41.02z"/><path d="m347.85 244.18c-5.42 5.46-10.42 11.1-15 16.74s-8.67 11.16-12.41 16.59q-2.32 3.39-4.52 6.76l-.6-1.71q1.9-2.93 3.92-5.85 6.15-8.91 12.64-16.91 7.36-9.08 15.17-16.94z"/><path d="m550.07 320.16c-.42.42-.84.82-1.25 1.22a335 335 0 0 0 -11.47-42.38l1.29-.89c.85 2.4 1.67 4.86 2.46 7.36a346.55 346.55 0 0 1 8.97 34.69z"/></g><path d="m420.39 251.41c-4.57 6.57 7.91 10.62 0 21a20.38 20.38 0 0 0 -5.64 9.31s-2.75-7.45-7.69-4.15a3.49 3.49 0 0 0 -.68.6c0-.48-5.69-16.82 8.2-28.07a31.7 31.7 0 0 1 3-2.13c10.56-6.71 17.46-1 17.73-.79s-10.31-2.35-14.92 4.23z" fill="#441427"/><path d="m331.86 259.8q-6.5 8-12.64 16.91-2 2.93-3.92 5.85-3-8.6-5.85-17c3.38-6.27 7.15-12.81 11.33-19.43 3.43 4.54 7.11 9.13 11.08 13.67z" fill="#f28236"/><path d="m319.84 244.84c-4 6.4-7.71 12.72-11 18.81-16.4-49.15-27.43-91.88-28.47-96 1.06 3.78 11.85 39.9 39.47 77.19z" fill="#f28236"/><path d="m320.78 246.09c-4.18 6.62-7.95 13.16-11.33 19.43l-.63-1.87c3.31-6.09 7-12.41 11-18.81.33.42.64.84.96 1.25z" fill="#d13d20"/><path d="m390.77 413.63a100.63 100.63 0 0 1 -15.36 7.37c-17.68 6.58-6.45 25.78-6.09 26.24a51.36 51.36 0 0 1 -14.32-5.66s6.53-13.95 4.82-34.54c-.2-2.46-.55-5.16-.92-8.06a156.3 156.3 0 0 1 -1.58-19.49c-15-25.89-29.32-61-41.42-95.21q2.19-3.37 4.52-6.76c3.74-5.43 7.88-11 12.41-16.59q3.87 4.41 8.09 8.73c24.18 24.7 26.81 50.7 25.75 73.45-.37 8-1.2 15.52-1.71 22.49-.79 10.56-.86 19.77 2.43 27 5.58 12.19 14.26 15.4 21.81 15.41a3.05 3.05 0 0 1 1.57 5.62z" fill="#f28236"/><path d="m332.83 260.92c-4.53 5.57-8.67 11.16-12.41 16.59q-2.32 3.39-4.52 6.76l-.6-1.71q1.9-2.93 3.92-5.85 6.15-8.91 12.64-16.91c.32.38.64.75.97 1.12z" fill="#d13d20"/><path d="m373.67 671.17a25.28 25.28 0 0 1 -5.41-2.86 28.71 28.71 0 0 1 -10.37-13.31c-23.38-60-22.72-116.58-17-156.36a61.47 61.47 0 0 0 15.18-4c-1.54 8.72-1 20 3.1 34.73 16.07 56.94-24.25 102.15 14.5 141.8z" fill="#407f7f"/><path d="m426.52 442.74a82.23 82.23 0 0 1 -43.94 23.18 124.59 124.59 0 0 1 -33.52-6.13 185 185 0 0 1 5.94-18.21c9.59 5.64 21.06 7.59 32.52 7.53a127.14 127.14 0 0 0 24.91-2.82c5.12-1.06 9.9-2.29 14.09-3.55z" fill="#1e395a"/><path d="m382.58 465.92s-22 3.29-26.48 28.74a61.47 61.47 0 0 1 -15.18 4 308.94 308.94 0 0 1 8.14-38.89 124.59 124.59 0 0 0 33.52 6.15z" fill="#1d494a"/><ellipse cx="422.23" cy="823.04" fill="#ffc470" rx="133.82" ry="12.99"/><path d="m462.68 271.77s-2.39 6.94-17.8 5-28.32 17.14-11.4 36.63a19.89 19.89 0 0 1 -10.2-5.57 31 31 0 0 1 -8.28-15.64 30.38 30.38 0 0 1 -.6-6c0-.72 0-1.44.08-2.17l.14-1.45a2.48 2.48 0 0 1 0-.27l.06-.5c3.49-11.58 12.87-13.6 19.21-17.26a23.49 23.49 0 0 0 9-9.91s5.11 16.37 15.11 17.48a11.62 11.62 0 0 0 4.68-.34z" fill="#ed8b7b"/><path d="m612.85 226.6s3.88-3.51 2.07-22.47a.7.7 0 0 1 1.33-.36l3.42 7.65 4.25-17.88a.69.69 0 0 1 1.36 0l1.1 9 2.79-12.21a2.27 2.27 0 0 1 4.46.22l3.11 24.9 7-9a1 1 0 0 1 1.8 1l-6.55 17a23.46 23.46 0 0 1 -8 10.49l-8.31 6.11z" fill="#efa08d"/><g fill="#fda440"><path d="m512.74 542.54h-.09a.8.8 0 0 1 -.7-.87s.46-4.86-2.54-7.18a.79.79 0 0 1 1-1.25c3.71 2.87 3.17 8.36 3.14 8.6a.78.78 0 0 1 -.81.7z"/><path d="m507.82 545.5h-.09a.79.79 0 0 1 -.7-.87s.46-4.86-2.54-7.18a.79.79 0 0 1 -.14-1.11.79.79 0 0 1 1.11-.14c3.71 2.86 3.17 8.36 3.14 8.59a.78.78 0 0 1 -.78.71z"/><path d="m502.9 548.46h-.09a.78.78 0 0 1 -.7-.87s.46-4.85-2.54-7.18a.79.79 0 1 1 1-1.25c3.7 2.87 3.17 8.37 3.14 8.6a.78.78 0 0 1 -.81.7z"/><path d="m316.12 561.45h.08a.8.8 0 0 0 .32-1.07s-2.3-4.31-.42-7.6a.8.8 0 0 0 -.3-1.08.79.79 0 0 0 -1.08.29c-2.31 4.07.3 8.94.41 9.15a.78.78 0 0 0 .99.31z"/><path d="m321.8 562.29h.08a.8.8 0 0 0 .32-1.07s-2.3-4.31-.42-7.61a.79.79 0 0 0 -1.38-.78c-2.32 4.07.29 8.94.41 9.15a.79.79 0 0 0 .99.31z"/><path d="m327.48 563.12h.08a.79.79 0 0 0 .31-1.07s-2.29-4.31-.41-7.61a.79.79 0 0 0 -1.38-.78c-2.32 4.07.29 8.94.41 9.14a.77.77 0 0 0 .99.32z"/></g></svg>