<svg viewBox="0 0 1000 1000" xmlns="http://www.w3.org/2000/svg"><ellipse cx="290.21" cy="881.21" fill="#e2e2e2" rx="123.24" ry="20.19"/><ellipse cx="420.54" cy="887.55" fill="#e2e2e2" rx="123.24" ry="20.19"/><path d="m251.75 880a7.35 7.35 0 0 1 -8.67-1.86l-25.81-28.75-.42-.47a9.94 9.94 0 0 1 .48-13.78l1-1 12.67-12.25c10.49-3.26 15.76 2 16.94 14l8.06 35.52a7.4 7.4 0 0 1 -4.25 8.59z" fill="#e2434b"/><g fill="#404b69"><path d="m238.26 838.85a1.5 1.5 0 0 1 2-2.22l14 11.32a1.5 1.5 0 1 1 -1.88 2.34l-14-11.33a.69.69 0 0 1 -.12-.11z"/><path d="m240.32 846.84a1.5 1.5 0 0 1 2-2.22l14 11.32a1.5 1.5 0 0 1 -1.89 2.34l-14-11.33a.63.63 0 0 1 -.11-.11z"/><path d="m243.05 854.48a1.5 1.5 0 0 1 2-2.22l14 11.33a1.5 1.5 0 1 1 -1.89 2.33l-14-11.33z"/><path d="m223.22 841.54a8.16 8.16 0 0 1 -5.95 7.83l-.42-.47a9.94 9.94 0 0 1 .48-13.78l1-1a8.13 8.13 0 0 1 4.89 7.42z"/><path d="m251.75 880a7.35 7.35 0 0 1 -8.67-1.86l-25.81-28.75-.42-.47a9.93 9.93 0 0 1 -2.22-9.15l6.58 7.13z"/></g><path d="m613.74 753.12a7.36 7.36 0 0 1 -9-2.46l-23.34-31.54a9.94 9.94 0 0 1 1.76-13.67l1.08-.87 13.76-11c7.87 3.33 13.51 8.2 15.56 15.56l4.75 36.08a7.36 7.36 0 0 1 -4.57 7.9z" fill="#e2434b"/><g fill="#404b69"><path d="m599.58 711.88a1.5 1.5 0 0 1 1.87-2.34l14.67 10.46a1.48 1.48 0 0 1 .35 2.09 1.5 1.5 0 0 1 -2.09.35l-14.67-10.44z"/><path d="m602.12 719.73a1.5 1.5 0 0 1 1.88-2.34l14.66 10.44a1.5 1.5 0 1 1 -1.74 2.45l-14.66-10.44z"/><path d="m605.32 727.19a1.5 1.5 0 0 1 1.87-2.34l14.67 10.44a1.5 1.5 0 0 1 -1.74 2.45l-14.67-10.45z"/><path d="m581.91 442.7-9.45 15.91c-5.14 25.53-18 50.8-35.26 75.21-50.08 70.64-137.76 134-185.9 175.29-63.3 54.23-101.54 123.49-103.3 126.7l-.05.1-16.94-14s20.23-61.91 41.05-116.64c14.5-38.12 41.9-56.06 57.2-63.44a73.66 73.66 0 0 1 11.05-4.43c45.69-142.28 79.24-183.35 127.35-209.4 10.33-5.58 19.86-13.59 28.81-23.09l6.47-3.42 51.95 3.42z"/></g><path d="m603.45 437.78c-8.79 6.12-16.19 12.43-31 20.83 0 0-8.71-35.8-76-53.68 2.45-2.59 4.85-5.3 7.22-8.1l.38-.45c.47-.56.93-1.11 1.39-1.68.06-.07.11-.14.17-.2a393.9 393.9 0 0 0 24.39-33.75l11.82-18.32c11 13.69 61.87 33.25 86.09 52.74 10.3 8.29-.7 24.66-11.25 34.42a129.93 129.93 0 0 0 -13.21 8.19z" fill="#efa08d"/><path d="m613.55 709.15-15.55-15.56.07-.06c1.33-1.15 22.76-20.69 28.15-84 4-47.48 17.58-59.19 18.41-59.87-2.2 1.08-83.33 41.29-145 29.43-11.91-2.29-23.08-6.53-32.82-13.36-31.5-22.1-36-54.31-29.07-82.73 6.35-26 22.31-48.9 35.91-57.9l99.73 33.56s77.67 11.75 146.42 54.67c29.51 18.35-15.03 87.67-106.25 195.82z" fill="#404b69"/><g fill="#222c3f"><path d="m499.66 579.06c-49.07 52.12-110.77 97.83-148.36 130.05-63.3 54.23-101.54 123.49-103.3 126.7.89-2 13.16-28.63 51.16-95.55 40.39-71.14 129-106.71 124.8-167.61-2.39-34.41 2.34-58.58 6.9-73.09a2.17 2.17 0 0 1 4.24.77c-1.4 23.52 6.53 47.68 31.74 65.37 9.74 6.83 20.91 11.07 32.82 13.36z"/><path d="m340.31 637.39-2.61 9a2.91 2.91 0 0 1 -5.29.7l-3.15-5.21a73.66 73.66 0 0 1 11.05-4.49z"/><path d="m653.87 531.09a8.57 8.57 0 0 1 7.47 14.12 82.61 82.61 0 0 0 -19 40.93c-6.21 38.22-20 88.44-44.25 107.39 1.33-1.15 22.76-20.69 28.15-84 4-47.48 17.58-59.19 18.41-59.87-2.2 1.08-83.33 41.29-145 29.43 0 0 63.63-.41 106.82-30.43a104.07 104.07 0 0 1 47.4-17.57z"/></g><path d="m361.63 163.76-25.56-14.47a20.66 20.66 0 0 0 -23.54 2.25 10.57 10.57 0 0 0 1.76 17.3l10.07 5.54a1.21 1.21 0 0 1 -.13 2.18l-3.94 1.57a2.21 2.21 0 0 0 .68 4.25h.15a61.31 61.31 0 0 0 29.15-5.4l5.1-2.32c8.18-2.17 12.75-5.21 6.26-10.9z" fill="#efa08d"/><path d="m809.73 334.85-3.3-3.56a21.53 21.53 0 0 1 -4.86-8.52l-2.78-9.35a1.58 1.58 0 0 1 2.5-1.85l4.49 4.31a1 1 0 0 0 1.67-.37l2.95-7.51a11.82 11.82 0 0 1 17.71-5.42 11.33 11.33 0 0 1 4.18 13.37l-.31.83a55.73 55.73 0 0 1 -14.91 21.74c-4.6 3.94-7.4 3.59-7.34-3.67z" fill="#efa08d"/><path d="m817.08 338.51s-9.75 28.8-23 57.36q-1.32 2.85-2.69 5.68c-11.52 23.86-25.22 46.19-37.43 49.79-22.64 6.66-83.43-25.9-104.83-38 15.82-10.28 12.79-26 12.58-46.08-.11-11-.34-21.88-.56-30.33-.09-3.8-.19-7.12-.27-9.76-.12-4.14-.2-6.59-.2-6.59l11.19-4.95 15.82 19.91 52.83 66.5 69.24-67.2z" fill="#404b69"/><path d="m674.15 364c-.11-11-.34-21.88-.56-30.33l-.47-16.35s12.48-18.81 12.28-25.87c-.33 1.23-26.24-16.42-26.24-16.42l-13.36-7.21-86.12 47.27c-5.89 8.65-11.8 17.93-17.82 27.37 2.37 3.44 5.55 8 9.44 13.29 14.19 19.34 37.75 49 65.4 73.87 4.41-2.38 9.56-4.84 15.92-7.5 5.18-2.17 11.16-4.47 18.2-6.94l.91-.33a48.74 48.74 0 0 0 9.78-4.74h.06c15.82-10.34 12.79-26.01 12.58-46.11z" fill="#404b69"/><path d="m743.74 248-27.22-2.79-35.52 26.63-21.83 3.16c-.14.29-2.49 5.26-2.24 14.36.2 7.06 2 16.6 7.57 28.39q1.07 2.25 2.31 4.6c1.22 2.28 2.57 4.64 4.09 7.07.4.65.82 1.31 1.24 2s1 1.47 1.46 2.22c-.25-9.77-.47-16.35-.47-16.35l11.19-5 3.64-1.61c15.88 24.89 23.86 8.54 35.92 5.38a14.27 14.27 0 0 1 3.59-.5 5.07 5.07 0 0 0 4.52-2.19c2-2.93 2.4-8.55 5.25-15.45 3.46-8.35 17.6-10.49 20.39-24.71z" fill="#efa08d"/><path d="m659.16 275c-.14.29-2.49 5.26-2.24 14.36a61.14 61.14 0 0 1 -6.25 15.06 48.69 48.69 0 0 1 -16.48 17c-12.77 7.88-23.93 11.13-34.49 10.77-13.59-.47-26.2-6.91-40-17.16-8.12-6-16.66-13.35-26.07-21.54-14.51-12.66-31.08-27.39-51.34-42.58-73.13-54.85-126.89-76.27-126.89-76.27l6.26-10.91c64.06 13.94 115.3 28.54 155.94 42.41l.21.07 4.16 1.43h.11c103.89 36 136.4 66.6 137.09 67.27z" fill="#404b69"/><g fill="#60424c"><path d="m757.63 273.25c-3.77-2.06-11.49-4.49-23.94-.67a2.07 2.07 0 0 1 -2.66-1.73c-.37-3-1.87-7.59-7.53-7.58-7.2 0-11.28 4.66-12 10a4.84 4.84 0 0 1 -3.4 4.13 29.05 29.05 0 0 1 -9.57 1.1 31.44 31.44 0 0 1 -17.53-6.66l-.12-.65s-10.2-32 29.3-43.14c6.29-4.49 12.7-4.34 19.22 0 0 0 15.7 2.43 24 19.94a.43.43 0 0 0 0 .07c.21.43.41.88.61 1.34v.07a51.79 51.79 0 0 1 3.59 12.53 32.09 32.09 0 0 1 .03 11.25z"/><path d="m727.21 222.6c-3.4 3.38-11.57 3.36-15.4.23-43.57-30-101.75-7.15-161.69-40.37-40.8-22.61-48.49-60.76-48.65-85.72a4.48 4.48 0 0 1 5.65-4.38h.17a4.37 4.37 0 0 1 2.88 2.72c32.49 84.17 143.06 66.31 188.24 85.08 36.59 15.29 29.15 41.31 28.8 42.44z"/><path d="m727.2 222.64-7.2 2.55-8.24-2.32c3.17-1.51 11.24-2.22 15.44-.23z"/></g><path d="m616.7 429.59a131.81 131.81 0 0 0 -13.25 8.19c-6-5.14-11.81-10.33-17.27-15.45a541.81 541.81 0 0 1 -51.18-55.33c-1.83-2.28-3.47-4.37-4.93-6.25 4-6.09 7.94-12.24 11.82-18.32 2.37 3.44 5.55 8 9.44 13.29 14.16 19.34 37.72 49 65.37 73.87z" fill="#e2434b"/><path d="m729.36 228h-19.22s-2.54-3.15 1.66-5.17c3.13-1.51 11.21-2.22 15.4-.23 2.14 1.05 3.25 2.76 2.16 5.4z" fill="#e2434b"/><path d="m599.7 332.22s-22.43 7.16-48.4 23.5c-3.89-5.31-7.07-9.85-9.44-13.29 6-9.44 11.93-18.72 17.82-27.37a135 135 0 0 0 12.67 8.43l1.24.7 1.25.68 1.09.58.77.39c.4.21.81.4 1.21.59l.64.31 1.22.57c1.54.68 3.08 1.31 4.62 1.86l1.06.37c.64.22 1.27.42 1.91.61s1.44.42 2.17.6c.55.14 1.1.27 1.66.39 1.15.25 2.3.46 3.46.63l1.25.16 1.26.13.86.07z" fill="#222c3f"/><path d="m535 367a184.31 184.31 0 0 0 -29.33 27.5 393.9 393.9 0 0 0 24.33-33.75c1.5 1.88 3.14 3.97 5 6.25z" fill="#e06855"/><path d="m551.3 355.72c-5.3 3.36-10.85 7.11-16.3 11.28-1.83-2.28-3.47-4.37-4.93-6.25 4-6.09 7.94-12.24 11.82-18.32 2.34 3.44 5.52 7.98 9.41 13.29z" fill="#b50a0c"/><path d="m661.51 410.08a50.59 50.59 0 0 1 -10.69 5.07c-7 2.47-13 4.77-18.2 6.94a57 57 0 0 1 -9.47-10.81 4.1 4.1 0 0 1 5.07-6.06c16.57 7.44 32.31 5.27 33.29 4.86z" fill="#222c3f"/><path d="m688 310.73-1.83-6.41a2.47 2.47 0 0 0 -4.81.26l-1.66 9.82z" fill="#e06855"/><path d="m732 313.42a5.07 5.07 0 0 1 -4.52 2.19 14.27 14.27 0 0 0 -3.59.5c-3-.92-1.47-4.29 1.93-2.7a7.16 7.16 0 0 0 6.18.01z" fill="#e06855"/><path d="m753.39 248c-3.3-6.18-15.33-21.7-28.56-5.65-13.7 16.65-29.83 2.75-35.21 18.75-4 11.73 8.91 17.42 8.91 17.42a31.44 31.44 0 0 1 -17.53-6.68l-.12-.65s-10.2-32 29.3-43.14h19.22s15.66 2.42 23.99 19.95z" fill="#442330"/><path d="m698.52 278.52c-.36.2-10.32-.18-24.75-2.12-14.6-2-16.85 12.23-16.85 13-.25-9.1 2.1-14.07 2.24-14.36l21.84-3.21a31.52 31.52 0 0 0 17.52 6.69z" fill="#e06855"/><path d="m659.16 275c-.14.29-2.49 5.26-2.24 14.36-18.51 17.76-44.39-8.33-79.34-45.64-20-21.34-45.36-32.25-55.51-36 103.89 36 136.4 66.6 137.09 67.27z" fill="#222c3f"/><path d="m727.21 222.6c-4.19-2-12.27-1.28-15.4.23-43.57-30-101.75-7.15-161.69-40.37-40.8-22.61-48.49-60.76-48.65-85.72a4.48 4.48 0 0 1 5.65-4.38c-1.25-.19-8.82-.08 2 32.73 12.57 38.19 46.25 36.11 85.15 57.2 38 20.61 105 18.74 120.82 20.54 15.33 1.8 12.29 18.88 12.12 19.77z" fill="#442330"/><path d="m729.11 228h-19s-2.54-3.15 1.66-5.17c3.13-1.51 11.21-2.22 15.4-.23 0 0-4.38-.41-4.66 2.55s5.43 2.85 6.6 2.85z" fill="#b50a0c"/><path d="m791.38 401.51c-11.52 23.86-25.22 46.19-37.43 49.79-16.56 4.87-53.5-11.22-80.54-25-8.53-4.33-16.07-8.43-21.67-11.56a48.74 48.74 0 0 0 9.78-4.74h.06c15.82-10.28 12.79-25.95 12.58-46.08-.11-11-.34-21.88-.56-30.33-.25-9.77-.47-16.35-.47-16.35s1.88 28.2 18.14 66.65 26.91 16.41 46.54 45.65 53.57-28.03 53.57-28.03z" fill="#222c3f"/><path d="m673.4 426.38c-8.53-4.33-16.07-8.43-21.67-11.56a48.74 48.74 0 0 0 9.78-4.74h.06c15.82-10.28 12.79-25.95 12.58-46.08 0 0 6.85 36.11-.75 62.38z" fill="#161d28"/><g fill="#404b69"><path d="m587.05 711a8.66 8.66 0 0 1 -5.65 8.14 9.94 9.94 0 0 1 1.76-13.67l1.08-.87a8.67 8.67 0 0 1 2.81 6.4z"/><path d="m613.74 753.12a7.36 7.36 0 0 1 -9-2.46l-23.34-31.54a9.92 9.92 0 0 1 -1.58-8.62l5 6.29z"/></g></svg>