<svg xmlns="http://www.w3.org/2000/svg" width="879.389" height="813.844" viewBox="0 0 879.389 813.844">
  <g id="Group" opacity="0.8">
    <path id="Path" d="M148.631,51.362l-73.057-19L23.631,13.452,0,11.006,11.666,0H37.373l85.251,10.54L146.6,29.051Z" transform="translate(548.281 61.425)" fill="#e13a3a"/>
    <path id="Path-2" data-name="Path" d="M99.926,39.309,89.668,57.38,29.059,65.333,3.493,83.553,0,78.09l2.543-32.9L38.06,0,82.084,19.4Z" transform="translate(644.916 134.694)" fill="#2b4e3e"/>
    <path id="Path-3" data-name="Path" d="M89.706,50.007a348.09,348.09,0,0,1-32.552,20.8L29.4,160.324,11.414,218.293H1.279S-2.24,73.181,2.4,49.119C3.91,41.341,7.9,30.582,12.9,19.048c.51-.079,24.273-21.616,45.2-18.792,10.557,1.425,33.951,13.584,45.089,18.792,1.5,7.619-8.006,23.279-13.487,30.96Z" transform="translate(569.392 257.529)" fill="#60424c"/>
    <path id="Path-4" data-name="Path" d="M71.676,94.911a115.445,115.445,0,0,0-33.432-9.44A146.414,146.414,0,0,0,0,85.3c13.329-30.74,33.854-66.969,33.854-66.969C42.986,20.376,83.377.009,93.407,0,93.451,0,91.119,55.6,71.676,94.911Z" transform="translate(582.249 191.246)" fill="#446e5c"/>
    <path id="Path-5" data-name="Path" d="M59.069,66.617,57.5,57.476,49.937,59.1,35.508,53.931,27.652,37.382,0,27.361,3.264,12.854,24.652,0,49.937,9.009l8.6,14.217,6.493,11.789,3.37-9,5.8-.308V43.47L65.474,67.955Z" transform="translate(449.208 66.739)" fill="#60424c"/>
    <path id="Path-6" data-name="Path" d="M13.081,53.276C-6.274,18.041,1.574.542,1.574.542s12.537-3.141,20.3,5.7c-.194,2.877,5.059,17.6,4.944,20.393-.44,10.989-4.153,19.338-13.733,26.64Z" transform="translate(506.703 132.814)" fill="#6a9c78"/>
    <path id="Path-7" data-name="Path" d="M66.846,125.457,80.333,89.386,90.486,12.66,52.321,0l-22.8,4.443L10.32,28.892,0,67.779v36.01l4.223,10.337Z" transform="translate(515.561 71.965)" fill="#6a9c78"/>
    <path id="Path-8" data-name="Path" d="M118.841,17.455c-.51,18.722-2.974,42.564-11.552,53.526C92.649,89.7,2.146,112.375.659,112.762s0,0,.053,0C3.474,99,53.552,47.174,68.007,30.793,72.863,25.285,95.341,0,113.456,0c3.238,1.786,7,9.229,5.384,17.455Z" transform="translate(463.567 179.967)" fill="#442330"/>
    <path id="Path-9" data-name="Path" d="M8.833,8.2,12.968,0,3.642,1.258,0,8.877Z" transform="translate(455.463 284.477)" fill="#60424c"/>
    <path id="Path-10" data-name="Path" d="M9.827,3.9,1.962,0,0,16.9l6.818.818Z" transform="translate(425.577 576.848)" fill="#efa08d"/>
    <path id="Path-11" data-name="Path" d="M11.182,13.4,0,15.414,4.364,4.76,18.2,0Z" transform="translate(142.559 653.459)" fill="#efa08d"/>
    <path id="Path-12" data-name="Path" d="M0,141.408,36.3,59.324,90.09,12.933l7.082-7.8L115.6,0V15.053l5.569,51.687-54.08,74.667L10.012,157.332Z" transform="translate(242.617 222.197)" fill="#0074e4"/>
    <path id="Path-13" data-name="Path" d="M33.625,160.271l36.837-45.714L74.21,95.175,70.488,70.348l-4.812-8.112,7.417-26L67.242,14.912,62.658,1.6,61.224,0,39.1,3.59l-12,35.1L5.78,68.315,0,111.17l20.745,53.271Z" transform="translate(332.707 171.178)" fill="#0074e4"/>
    <path id="Path-14" data-name="Path" d="M147.492,194.408l-9.827,13s-6.783-31.109-15.625-55.286c-9.2-25.153-19.276-59.122-14.754-69.5,0,0-42.687,3.519-83.043-.334C-15.18,60.874,4.448,35.958,8.169,23.245,11.451,12.037,34.774-2.515,50.443.371,74.7,11,145.653,43.067,151.618,57.205c9.352,22.5-4.126,137.2-4.126,137.2Z" transform="translate(287.912 386.337)" fill="#efa08d"/>
    <path id="Path-15" data-name="Path" d="M879.388.36V409.566a.352.352,0,0,1-.352.352H.35a.352.352,0,0,1-.273-.572L87.915,304.063a50.553,50.553,0,0,1,38.843-18.194h50.227a50.57,50.57,0,0,0,30.388-10.144L292.9,211.5a38.825,38.825,0,0,1,28.584-7.452l65.1,8.886a50.632,50.632,0,0,0,45.749-17.824l33.555-40.4,41.975-50.6a50.676,50.676,0,0,1,29.482-17.385,49.19,49.19,0,0,1,7.742-.88l77.852-2.639,12.176-.414A50.658,50.658,0,0,0,650.072,80l43.285-15.132L796.635,28.8,877.787.422l1.091-.378a.343.343,0,0,1,.51.317Z" transform="translate(0 403.644)" fill="#ffc88d"/>
    <path id="Path-16" data-name="Path" d="M90.528,15.423,70.24,25.558a55.84,55.84,0,0,1-40.47,3.678L8.963,23.2l-3.15-.88A8.076,8.076,0,0,1,3.773,7.733l.1-.062c.123-.07.238-.15.361-.211.273-.176.545-.343.818-.493l.581-.343,1.5-.818,1.214-.616.114-.053A50.473,50.473,0,0,1,30.544,0H75.9a19.5,19.5,0,0,1,9.176,2.287L90.66,5.252a5.719,5.719,0,0,1-.132,10.17Z" transform="translate(96.213 689.513)" fill="#eeac75"/>
    <path id="Path-17" data-name="Path" d="M122.035,92.6,111.83,116.352l-.123.282-36.854-.282L0,115.78,87.838,10.5A50.6,50.6,0,0,1,99.882,0a8.076,8.076,0,0,0,2.041,14.587l3.15.88-13.2,23.068a14.886,14.886,0,0,0,10.953,22.127l1.179.158A22.874,22.874,0,0,1,122.035,92.6Z" transform="translate(0.077 697.211)" fill="#e7a770"/>
    <path id="Path-18" data-name="Path" d="M15.043,7.745,8.963,18.461l-3.15-.88A8.076,8.076,0,0,1,3.773,2.994l.1-.062c.123-.07.238-.15.361-.211.273-.176.545-.343.818-.493l.581-.343,1.5-.818L8.163.54,8.347.452,8.462.4a5.226,5.226,0,0,1,6.581,7.346Z" transform="translate(96.213 694.252)" fill="#d27f4f"/>
    <g id="Group-2" data-name="Group" transform="translate(191.244 404.005)">
      <path id="Path-19" data-name="Path" d="M476.2,0V409.558H0L23.877,401.9a30.661,30.661,0,0,0,19.584-39.335L37.8,346.389l-2.235-6.334a30.661,30.661,0,0,1,12.607-36.071l73.471-46.259a30.669,30.669,0,0,0,2.56-50.148l-11.772-9.167a30.669,30.669,0,0,1-11.156-30.282l15.264-74.835a50.236,50.236,0,0,1,17.6-6.959,49.188,49.188,0,0,1,7.742-.88l77.852-2.639,12.176-.413a50.659,50.659,0,0,0,14.956-2.8l43.285-15.132L393.431,28.4,474.583.026Z" transform="translate(211.942 0)" fill="#eeac75"/>
      <path id="Path-20" data-name="Path" d="M17,52.406,98.288,69.861a49.488,49.488,0,0,0,45.177-13.2l12.924-12.783C171.214,29.223,158.553,4.167,137.914,7.4l-36.669,5.771a21.511,21.511,0,0,1-7.5-.15L29.982.41A21.476,21.476,0,0,0,6.139,12.868L1.793,22.81A21.476,21.476,0,0,0,17,52.406Z" transform="translate(128.364 215.964)" fill="#eeac75"/>
      <path id="Path-21" data-name="Path" d="M30.847,102.2,79.332,61.472a37.69,37.69,0,0,0,13.2-33.326L90.77,14.412C88.878-1.345,67.9-5.436,60.232,8.456L52.156,23.1A81.371,81.371,0,0,1,34.27,45.213L5.624,70.093A16.338,16.338,0,0,0,1.99,90.241L5.932,97.5a16.346,16.346,0,0,0,24.916,4.7Z" transform="translate(0 285.947)" fill="#eeac75"/>
      <path id="Path-22" data-name="Path" d="M124.938,55.514l-23.877,7.654H0L100.3,9.959A85.5,85.5,0,0,1,138.865,0l5.657,16.179a30.661,30.661,0,0,1-19.584,39.335Z" transform="translate(110.881 346.389)" fill="#eeac75"/>
    </g>
    <path id="Path-23" data-name="Path" d="M476.2,0V310.564H0l23.877-7.654a30.661,30.661,0,0,0,19.584-39.335L37.8,247.352a86.668,86.668,0,0,1,10.672.493l127.921,13.9a49.831,49.831,0,0,0,53.465-36.494l22.083-81.371A52.013,52.013,0,0,1,302.092,105.5h47.834a36.071,36.071,0,0,0,28.619-14.041L439.9,11.877A30.493,30.493,0,0,1,464.052,0Z" transform="translate(403.186 503.042)" fill="#d27f4f"/>
    <path id="Path-24" data-name="Path" d="M46.1,3.718v25.4a20.411,20.411,0,0,1-13.61,19.241L14.58,54.7A10.557,10.557,0,0,1,3.873,52.511l-2.481-2.27a4.4,4.4,0,0,1,.5-6.827,50.3,50.3,0,0,0,10.689-9.678l26.9-32.385A3.739,3.739,0,0,1,46.1,3.718Z" transform="translate(419.786 564.992)" fill="#eeac75"/>
    <path id="Path-25" data-name="Path" d="M93.492,30.432,46.863,41.324a20.693,20.693,0,0,1-15.009-2.2L6.9,24.8A13.742,13.742,0,0,1,3.683,3.52a49.189,49.189,0,0,1,7.742-.88L89.128,0a.343.343,0,0,1,.255.1l9.968,10.162a12.044,12.044,0,0,1-5.859,20.173Z" transform="translate(533.697 486.854)" fill="#d27f4f"/>
    <path id="Path-26" data-name="Path" d="M113.512,16.262,72.268,46.976a28.655,28.655,0,0,1-17.112,5.683H4.665a4.663,4.663,0,0,1-4.1-6.889l4.821-8.886a5.578,5.578,0,0,1,3.07-2.639L104.926.523a9.247,9.247,0,0,1,8.754,1.434,8.974,8.974,0,0,1-.167,14.305Z" transform="translate(686.985 433.553)" fill="#d27f4f"/>
    <path id="Path-27" data-name="Path" d="M236.583,105.3c-1.1-.317-2.2-.6-3.317-.88-.308-.079-.616-.158-.88-.22-.633-.15-1.267-.282-1.9-.4-2.235-.457-4.5-.818-6.748-1.109-.4-.053-.783-.106-1.179-.141l-1.188-.141-1.962-.194h-.229c-.466-.044-.88-.079-1.39-.106-.88-.053-1.76-.1-2.639-.114s-1.76,0-2.6,0h-1.2a66.063,66.063,0,0,0-33.511,10.663,67.872,67.872,0,0,0-7.654,5.745l-1.038.88c-.88.765-1.7,1.548-2.516,2.358-.572.563-1.144,1.117-1.76,1.654-.431.413-.88.827-1.311,1.223-.625.581-1.258,1.144-1.883,1.689-.44.4-.88.783-1.328,1.153A154.3,154.3,0,0,1,145.9,138.37l-1.029.686h-.062l-.88.554-.088.062-1.39.88c-3.519,2.261-5.815,3.519-5.815,3.519a130.55,130.55,0,0,1-28.769-3.211,147.8,147.8,0,0,1-33.74-12.15c-3.4-1.689-6.7-3.519-9.906-5.349A192.508,192.508,0,0,1,44.79,110.34c-4.4-3.37-8.569-6.792-12.4-10.179C26.842,95.252,21.942,90.431,17.754,86c-2.138-2.243-4.082-4.4-5.842-6.4A171.182,171.182,0,0,1,0,64.644C20.235,40.221,9.678,24.561,9.335,24.051,16.76,14.083,27.37,7.458,40.013,3.728,61.4-2.58,88.612-.592,116.07,7.5a230.583,230.583,0,0,1,41.447,16.874,220.633,220.633,0,0,1,31.127,19.707c13.6,10.329,25.514,22.074,34.576,34.8A97.145,97.145,0,0,1,236.583,105.3Z" transform="translate(508.259 68.704)" fill="#6a9c78"/>
    <path id="Path-28" data-name="Path" d="M24.493,52.479c-1.628.5-4.971.642-8.622.88l-2.217.15C6.977,53.922,0,54.168,0,54.168v-.123c15.581-14.358,7.584-25.8,5.375-38.711C3.933,6.9,5.375,2.56,4.021,0,6.766.748,9.3,2.921,11.349,5.569c4.461,5.657,3.387,10.725,10.733,15.317,3.282,2.059,5.164,3.466,5.9,4.909s.378,2.745-.713,4.733a5.12,5.12,0,0,0-.493,1.32c-1.54,6.132,3.959,18.66-2.287,20.631Z" transform="translate(389.946 171.17)" fill="#efa08d"/>
    <path id="Path-29" data-name="Path" d="M50.113,58.2c-.669.616-1.39,1.24-2.147,1.865a21.6,21.6,0,0,0-7.918-1.76,24.23,24.23,0,0,0-5.085-.053,7.2,7.2,0,0,0-.95.088A34.869,34.869,0,0,0,30,58.975c-.994.211-2.05.475-3.15.809-.264.07-.528.158-.8.246-.528.167-1.073.352-1.636.563l-.774.29-1.021.414-.765.334-.95.431c-.466.22-.933.449-1.408.7s-.792.413-1.2.642-.589.326-.88.5h-.079l-.88.528-.95.6c-.3.194-.607.4-.88.607l-.941.651S12.449,61.888,0,60.225A25.76,25.76,0,0,0,9.537,48.26C13.786,37.289,11.525,7.622,32.174,1.218h.044A29.253,29.253,0,0,1,41.016,0C49.857,0,53,1.913,54.16,4.094c1.355,2.56-.088,6.9,1.355,15.335,2.182,13,10.179,24.44-5.4,38.772Z" transform="translate(339.798 167.04)" fill="#264e86"/>
    <path id="Path-30" data-name="Path" d="M18.036,0l-1.4,1.672-7.461,8.9A21.238,21.238,0,0,0,0,2.551C.757,1.927,1.478,1.3,2.147.686V.809S9.123.563,15.8.15Z" transform="translate(387.764 224.555)" fill="#efa08d"/>
    <path id="Path-31" data-name="Path" d="M169.517,54.389c-1.381,4.461-2.815,9.035-4.285,13.663-10.461,32.886-22.742,68.307-31.3,82.814C116.105,181.061,6.818,266.251,6.818,266.251L0,257.611S36.467,203.944,50.922,171.6,83.94,128.256,83.94,128.256q-2.27-17.147-3.607-32.227c-2.71-30.493-2.736-55-.8-74.9C89.166-1.284,130.516-6.342,157.2,8.245,164.722,12.362,170.283,37.286,169.517,54.389Z" transform="translate(146.922 400.608)" fill="#efa08d"/>
    <path id="Path-32" data-name="Path" d="M119.537,75.708q-4.065,8.895-7.654,18.009-6.431,16.294-11.349,33.142c-2.789,9.519-6.449,21.783-10.557,35.068q-2.736-2.367-5.525-4.487a128.757,128.757,0,0,0-16.883-10.962c-2.217-1.205-4.443-2.331-6.66-3.378A150.849,150.849,0,0,0,21.22,130.783q-2.789-.457-5.384-.809A155.955,155.955,0,0,0,0,128.654a202.871,202.871,0,0,1,3.977-25.329c.194-.88.387-1.68.589-2.5a.387.387,0,0,0,0-.088q.29-1.161.581-2.3a.293.293,0,0,1,.062-.22c.176-.66.352-1.3.528-1.944.238-.88.484-1.76.739-2.569l.449-1.469a.794.794,0,0,1,.07-.22c.167-.554.343-1.1.528-1.645.29-.88.589-1.76.88-2.639s.519-1.443.783-2.155l.607-1.46c.4-1,.792-1.988,1.2-2.947q1.4-3.352,2.93-6.37l.238-.475.669-1.284c.44-.88.88-1.68,1.355-2.49A88.762,88.762,0,0,1,26.323,56.124a93.53,93.53,0,0,1,7.443-7.663,140.212,140.212,0,0,1,12.757-10.3A222.663,222.663,0,0,0,65.087,23.2c7.76-9.519,17.71-29.913,28.092-21,1.126.968,21.951,22.874,23.086,23.851,9.282,8.411,10.716,33.08,3.273,49.655Z" transform="translate(226.473 293.07)" fill="#264e86"/>
    <path id="Path-33" data-name="Path" d="M5.6,0A44.324,44.324,0,0,0,1.047,6.083L0,5.1A40.637,40.637,0,0,1,3.748,1.385C4.355.91,4.953.452,5.56.021,5.578,0,5.587-.005,5.6,0Z" transform="translate(347.857 233.411)" fill="#0054d8"/>
    <path id="Path-34" data-name="Path" d="M82.3.264l-.933.158-.317.062-.317.062-.422.088-.352.088h-.114a7.46,7.46,0,0,0-.88.229c-.352.088-.7.194-1.038.308s-.677.22-1,.352-.651.246-.977.387-.633.264-.941.413q-.88.431-1.76.95c-.282.167-.563.334-.88.519a5.48,5.48,0,0,0-.651.44,4.531,4.531,0,0,0-.4.282c-.246.176-.493.361-.73.554s-.554.449-.818.686l-.343.308-.308.282a2.428,2.428,0,0,0-.264.255c-.141.132-.273.264-.4.4l-.387.4a8.2,8.2,0,0,0-.581.66A7.355,7.355,0,0,0,67,8.736V8.78a2.392,2.392,0,0,0-.273.334l-.07.1c-.185.22-.352.457-.519.686s-.387.545-.563.818-.37.554-.537.836-.352.572-.51.88l-.194.29-.088.158-.37.7c-.167.317-.326.633-.475.959-.053.106-.1.2-.141.308-.158.317-.3.642-.431.968-.07.15-.141.308-.2.466a2.147,2.147,0,0,0-.088.211l-.07.176c-.123.308-.246.625-.352.941-.07.176-.132.352-.194.528-.141.387-.273.783-.4,1.179s-.238.757-.343,1.144c-.07.229-.132.457-.194.7-.106.37-.2.748-.29,1.126-.15.625-.29,1.258-.422,1.892a59.7,59.7,0,0,0-.88,5.912c-.044.4-.088.818-.114,1.232A83.219,83.219,0,0,0,59,39.881v1.073a17.052,17.052,0,0,0,.062,1.76c.062.607.053,1.161.088,1.76s.062,1.091.106,1.645a2.47,2.47,0,0,0,.044.572c0,.537.088,1.073.132,1.6.079.836.167,1.663.255,2.49l.238,2.015q.106.88.238,1.76t.238,1.61c.088.6.176,1.188.273,1.76.123.739.246,1.478.378,2.208.07.422.15.836.229,1.249.158.88.317,1.654.484,2.472a2.974,2.974,0,0,0,.123.607l.132.607q.246,1.214.528,2.4c.194.88.4,1.707.6,2.543C63.8,72.653,64.5,75.2,65.21,77.58l1.267,4.188.968,3.114q1.372,4.4,2.692,8.349c.194.589.4,1.179.589,1.76.334.985.66,1.944.994,2.877q.563,1.628,1.135,3.167.959,2.639,1.909,4.98a229.739,229.739,0,0,0-15.018,26.226q-2.754,5.507-5.279,11.1C43.549,123.795,25.734,108.53,12.581,99.1c-1.689-1.214-3.308-2.331-4.821-3.352C4.68,93.671,2.032,92.017,0,90.794,20.165,72.486,28.707,56.007,43.057,30.089A80.632,80.632,0,0,1,48.811,21.1q1.214-1.645,2.455-3.132a58.145,58.145,0,0,1,8.8-8.639,40.637,40.637,0,0,0-3.748,3.713l1.047.985a44.323,44.323,0,0,1,4.549-6.079l.941-.651c.3-.211.607-.413.88-.607l.95-.6.88-.528h.079c.29-.176.589-.343.88-.5s.8-.44,1.2-.642.941-.475,1.408-.7l.95-.431.765-.334,1.021-.413.774-.29c.563-.211,1.109-.4,1.636-.563.273-.088.537-.176.8-.246,1.1-.334,2.155-.6,3.15-.809S80.36.229,81.31.106L82.234,0Z" transform="translate(291.577 225.461)" fill="#0074e4"/>
    <path id="Path-35" data-name="Path" d="M16.442,0,3.5,5.613a5.868,5.868,0,0,0-2.27,8.965L17.357,35.086a5.446,5.446,0,0,0,9.678-4.276L23.287,8.6Z" transform="translate(130.48 658.219)" fill="#264e86"/>
    <path id="Path-36" data-name="Path" d="M9.827,4.748,25.232.2a4.856,4.856,0,0,1,4.918,7.98L11.974,27.534A6.264,6.264,0,0,1,1.249,24.4L0,17.742Z" transform="translate(425.577 575.997)" fill="#264e86"/>
    <path id="Path-37" data-name="Path" d="M34.787,111.671l-1.241,2.173L27.511,124.4a2,2,0,0,1-3.475,0c-3.018-5.437-8.8-18.845-9.871-42.67-.528-12.106-.818-23.957-1.83-34.514-.141-1.46-.29-2.886-.466-4.293A85.753,85.753,0,0,0,8.208,25.47,35.939,35.939,0,0,0,4,16.822a22.32,22.32,0,0,0-4-4.487l.053-.053C1.689,10.654,3.431,8.763,5.27,6.669l.581-.677.264-.308c.669-.783,1.355-1.6,2.05-2.437C9.044,2.208,9.924,1.117,10.8,0a29.983,29.983,0,0,1,2.639,2.807l.185.22c3.44,4.205,7.109,10.883,7.918,20.675,1.5,19.3,1.258,69.873,13.241,87.97Z" transform="translate(277.368 336.657)" fill="#446e5c"/>
    <path id="Path-38" data-name="Path" d="M55.145,13.126l-2.851,5.736L44.649,34.241a9.317,9.317,0,0,1-5.71,4.8c-2.314.686-5.543,1.61-9.4,2.639A234.981,234.981,0,0,1,0,47.491c.194-.88.387-1.68.589-2.5a.387.387,0,0,0,0-.088q.29-1.161.581-2.3a.293.293,0,0,1,.062-.22c.176-.66.352-1.3.528-1.944.238-.88.484-1.76.739-2.569l.449-1.469a.794.794,0,0,1,.07-.22c.167-.554.343-1.1.528-1.645.29-.88.589-1.76.88-2.639s.519-1.443.783-2.155l.625-1.5c.4-1,.792-1.988,1.2-2.947.941-2.226,1.918-4.355,2.93-6.37l.238-.475.669-1.284c.44-.88.88-1.68,1.355-2.49,11.191.431,22.874-4.056,32.3-12.379.6-.537,1.2-1.082,1.76-1.645l.607-.6L46.945,0c.3.255.589.519.88.792s.5.484.739.739l.114.114.616.677A16.158,16.158,0,0,1,50.526,3.9c.15.194.29.387.422.589s.422.625.625.95.4.651.589.985.387.677.572,1.029.361.7.528,1.065.3.625.44.95c.053.106.106.22.15.334s.2.457.29.686q.528,1.267,1,2.639Z" transform="translate(230.432 348.948)" fill="#0074e4"/>
    <path id="Path-39" data-name="Path" d="M73.242,22.391c-2.384,1.3-6.238,3.308-11.323,5.6A194.433,194.433,0,0,1,2.974,43.937l-.334.009A29.984,29.984,0,0,0,0,41.139c1.056-1.346,2.129-2.754,3.22-4.205,2-.616,4.513-1.443,7.425-2.5A166.878,166.878,0,0,0,49.259,14.648,120.328,120.328,0,0,0,66.582,0c.66,2.639,1.355,5.182,2.067,7.566l1.267,4.188c.176.572.352,1.135.519,1.7s.3.95.449,1.416q.7,2.243,1.381,4.4l.721,2.217a4.8,4.8,0,0,0,.255.906Z" transform="translate(288.172 295.413)" fill="#446e5c"/>
    <path id="Path-40" data-name="Path" d="M106.119,68.626,57.449,88.078A153.143,153.143,0,0,0,63.194,60.55c2.217-18.476,1.513-38.878-6.229-50.605a21.238,21.238,0,0,0-9.176-8.024A21.6,21.6,0,0,0,39.871.161,24.229,24.229,0,0,0,34.786.109L33.836.2,32.912.3c-.7.088-1.452.211-2.243.361L29.833.83c-.994.211-2.05.475-3.15.809-.264.07-.528.158-.8.246-.528.167-1.073.352-1.636.563l-.774.29-1.021.413-.765.334-.95.431c-.466.22-.933.449-1.408.7s-.792.413-1.2.642-.589.326-.88.5h-.079l-.88.528-.95.6c-.3.194-.607.4-.88.607l-.941.651-.352.387a47.191,47.191,0,0,0-4.2,5.692A57.186,57.186,0,0,0,1.2,33.514c-3.616,18.115.985,33.7,13.6,36.625.66,2.639,1.355,5.182,2.067,7.566l1.267,4.188c.176.572.352,1.135.519,1.7s.3.95.449,1.416q.7,2.243,1.381,4.4v.053l1.293,3.933c.194.589.4,1.179.589,1.76.334.985.66,1.944.994,2.877q.563,1.628,1.135,3.167.959,2.639,1.909,4.98c6.035,15.036,11.912,22.734,20.1,23.921,5.226.765,14.7-6.422,24.713-15.959C89.209,97,108.925,72.278,108.925,72.278Z" transform="translate(339.975 225.185)" fill="#efa08d"/>
    <path id="Path-41" data-name="Path" d="M15.405,58.629c2.217-18.475,1.513-38.878-6.229-50.605A21.238,21.238,0,0,0,0,0S17.349,4.038,21.819,28.452C23.789,39.291,20.657,49.585,15.405,58.629Z" transform="translate(387.764 227.106)" fill="#446e5c"/>
    <path id="Path-42" data-name="Path" d="M59.129,8.657l-.809,4.689L53.692,40.2s-1.5,1.76-3.678,3.915c-3.634,3.678-9.15,8.727-12.731,9.44-5.727,1.144-9.95-5.657-13.549-7.821a2.806,2.806,0,0,0-.431-.211c-2.076-.792-5.789.317-7.381-1.408a2.938,2.938,0,0,1-.713-1.672C14.251,35.191,10.961,32,4.09,25.6c-3.8-3.519-4.346-8.921-4-13.2C6.122,7.5,13.917-1.39,21.342.184,26.322,1.24,29.656,5.4,31.794,9.466q.264.5.5,1c.176.361.343.73.5,1.082s.361.88.519,1.232l.352.941c.062.167.123.326.176.493.114.326.22.633.317.933a2,2,0,0,0,3.282.8l.66-.642a2.428,2.428,0,0,0-.167-3.616c-1.6-1.337-3.37-3.4-2.719-5.736a3.958,3.958,0,0,1,.141-.422c.07-.167.15-.326.238-.493,2.463-4.4,7.232.66,7.232.66l7.83,5.631a4.109,4.109,0,0,0,5.279-.37c.977-.88,1.9-1.839,2.719-2.683Z" transform="translate(449.148 81.722)" fill="#60424c"/>
    <path id="Path-43" data-name="Path" d="M70.543,33.118l-.88.88c-.818.88-1.76,1.76-2.719,2.683a4.091,4.091,0,0,1-3.018,1.126,4,4,0,0,1-2.217-.757L53.88,31.42s-4.768-5.094-7.232-.66c-1.487,2.7.528,5.138,2.34,6.651a2.428,2.428,0,0,1,.167,3.616l-.66.642a2,2,0,0,1-3.282-.8,35.737,35.737,0,0,0-2.367-5.683l-.176-.317-.1-.176q-.185-.361-.4-.713C40.041,30.329,36.9,26.854,32.4,25.9c-4.065-.88-8.235,1.408-12.176,4.452-3.246,2.507-6.326,5.534-9.053,7.751C8.7,40.1,6.53,41.432,4.8,41.133c-5.991-1.038-6.255-7.689-1.434-11.6A25.461,25.461,0,0,0,6,26.9C12.354,19.658,24.8,2.757,36.583.549,49.631-1.906,56.37,4.015,62.449,15.505a64.62,64.62,0,0,0,7.918,12.027l.29.334a3.88,3.88,0,0,1-.114,5.252Z" transform="translate(438.068 55.941)" fill="#ce2525"/>
    <g id="Group-3" data-name="Group" transform="translate(430.978 90.352)">
      <path id="Path-44" data-name="Path" d="M9.132,43,0,35.482c2.173-2.2,3.678-3.915,3.678-3.915L8.323,4.689,9.132,0l9.326,2.4c.361.519,10.892,16.179-9.326,40.6Z" transform="translate(68.166 0)" fill="#60424c"/>
      <path id="Path-45" data-name="Path" d="M102.6,1.03l-1.416-.2A86.527,86.527,0,0,0,83.448.194,83.219,83.219,0,0,0,66.925,2.957a48.925,48.925,0,0,0-6.3,2.129c-.44,11.024-.273,21.282.053,29.253.387,9.8,1.012,16.126,1.012,16.126L0,133.983l5.1,6.994c.4-.264,7.3-4.663,17.1-11.129,5.7-3.757,12.379-8.217,19.355-12.95,20.358-13.883,43.11-30.221,50.676-38.8,3.871-4.4,9.827-14.472,16.223-27.414,1.628-3.282,3.273-6.748,4.927-10.355,2.49-5.437,4.988-11.2,7.39-17.112,2-4.909,3.933-9.942,5.763-14.956A90.266,90.266,0,0,0,102.6,1.03Z" transform="translate(28.127 61.399)" fill="#60424c"/>
      <path id="Path-46" data-name="Path" d="M19.628,2.024A31.153,31.153,0,0,0,8.948,6.9L.6,12.827A1.416,1.416,0,0,0,1.311,15.4l8.358.651a2.27,2.27,0,0,1,1.557,3.73L5,27.185a.642.642,0,0,0,.6,1.047l2.8-.484a8.9,8.9,0,0,0,5.56-3.352,7.329,7.329,0,0,1,4.874-2.8l3.053-.4a9.678,9.678,0,0,0,7.637-5.736l3.7-8.472L28.118,0Z" transform="translate(0 195.427)" fill="#60424c"/>
      <path id="Path-47" data-name="Path" d="M113.176,270.007l-9.915,2.085S32.209,180.1,17.868,147.075a96.583,96.583,0,0,1-3.686-10.232c-1.953-6.4-3.669-13.725-5.173-21.379C2.455,82.032,0,42.09,0,42.09A153.461,153.461,0,0,0,23.6,25.524c2.155-1.848,4.329-3.827,6.458-5.912C43.963,5.9,63.019-1.5,82.48.256A93.688,93.688,0,0,1,99.926,3.335c13.645,41.772-2.807,86.219-15.018,110.853-2.085,4.214-4.056,7.848-5.727,10.786-3.062,5.384-5.12,8.42-5.12,8.42l3.361,11.745Z" transform="translate(213.938 80.341)" fill="#60424c"/>
    </g>
    <path id="Path-48" data-name="Path" d="M74.28,57.058c-2.217,8.6-5.1,17.64-8.358,26.622a90.266,90.266,0,0,0-23.948-7.2l-1.416-.2a86.527,86.527,0,0,0-17.736-.633A83.219,83.219,0,0,0,6.3,78.41,48.926,48.926,0,0,0,0,80.539c.114-2.8.264-5.648.457-8.525.273-3.968.633-7.971,1.1-11.956,2.639-22.6,8.8-44.517,21.995-53.667a37.338,37.338,0,0,1,9.466-4.821A28.813,28.813,0,0,1,44.8.1C65.949,1.974,81.767,28.077,74.28,57.058Z" transform="translate(519.732 76.299)" fill="#7bb288"/>
    <path id="Path-49" data-name="Path" d="M17.5,2.085,1.46,17.71a4.83,4.83,0,0,0,4.672,8.112l23.455-6.528A7.188,7.188,0,0,0,33.458,8.076L27.449,0Z" transform="translate(730.678 440.701)" fill="#264e86"/>
    <path id="Path-50" data-name="Path" d="M21.214,0,2.264,11.93a4.83,4.83,0,0,0,2.868,8.912L29.44,19.364a7.2,7.2,0,0,0,6.1-10.179L31.35.035Z" transform="translate(549.457 475.787)" fill="#264e86"/>
    <path id="Path-51" data-name="Path" d="M15.327,14.947a46.5,46.5,0,0,1-5.182,1.918h-.053a3.343,3.343,0,0,1-2.745-.343,49.488,49.488,0,0,1-6.159-4.654,3.361,3.361,0,0,1-.572-4.5,38.508,38.508,0,0,1,5.956-6.29L6.89.8a3.343,3.343,0,0,1,4.5.141l.15.158a13.038,13.038,0,0,1,1.249,1.372,23.385,23.385,0,0,1,4.4,8.446,3.4,3.4,0,0,1-1.856,4.029Z" transform="translate(455.119 104.94)" fill="#132238"/>
    <path id="Path-52" data-name="Path" d="M22.69,0c-.123.141-1.645,1.883-3.8,4.4C15.132,8.8,9.44,15.651,5.868,20.657c-.387-.466-.8-.924-1.249-1.372l-.15-.158A3.352,3.352,0,0,0,0,18.959c.3-.29,3.238-3.185,7.5-6.959h0c3.044-2.683,6.774-5.824,10.7-8.8.37-.282.739-.563,1.117-.827Q21,1.153,22.69,0Z" transform="translate(462.026 86.736)" fill="#071019"/>
    <path id="Path-53" data-name="Path" d="M168.831,60.693c-1.636,12.317-6.317,33.432-19.663,49.039C104.58,75.887,41.755,57.226.537,69.376A30.388,30.388,0,0,1,0,63.666,30.88,30.88,0,0,1,1.865,53.109c.185-.51.378-1.047.581-1.584,2.516-6.792,5.983-15.66,9.757-23.754l.713-1.513c.2-.431.413-.88.616-1.276a33.221,33.221,0,0,1,8.842-11.173A111.231,111.231,0,0,1,37.963,3.084,24.352,24.352,0,0,1,57.38,1.2c4.4,1.416,10.091,3.326,16.786,5.7,2.7.95,5.56,1.988,8.552,3.088,20.763,7.645,47.852,18.722,72.538,32.262,2.067,1.135,4.126,2.287,6.158,3.458a15.027,15.027,0,0,1,7.417,14.983Z" transform="translate(547.744 3.055)" fill="#ffa258"/>
    <path id="Path-54" data-name="Path" d="M149.124,67.465l-.053-.044C104.492,33.593,41.737,15,.537,27.145A30.388,30.388,0,0,1,0,21.435V20.194A6.176,6.176,0,0,1,.062,19.13v-.15a6.513,6.513,0,0,1,.07-.713c.026-.238.053-.484.079-.73v-.273a6.913,6.913,0,0,1,.15-1.029,2.342,2.342,0,0,1,.062-.343c.053-.29.114-.581.176-.88s.15-.686.238-1.021.132-.537.211-.809l.053-.2c.088-.326.194-.66.3-.985s.246-.757.387-1.135.378-1.047.581-1.584C9.4,5.607,24.511-1.158,37.8.17,57.652,2.159,87.943,10.781,149.124,67.465Z" transform="translate(547.744 45.287)" fill="#446e5c"/>
    <path id="Path-55" data-name="Path" d="M22.941,9.3a2.763,2.763,0,0,1-1.856,2.261A21.344,21.344,0,0,0,8.618,23S4.4,27.884,1.729,22.351L1.6,22.078C-.9,16.509-1.315,13.35,6.7,7.711c.581-.413,1.205-.88,1.883-1.276A76.884,76.884,0,0,1,19.791.189a2.4,2.4,0,0,1,3.334,2.147A49.365,49.365,0,0,1,22.941,9.3Z" transform="translate(541.572 31.579)" fill="#ed6363"/>
    <path id="Path-56" data-name="Path" d="M31.027,12.328a67.972,67.972,0,0,1-2.155,16.848,3.519,3.519,0,0,1-4.636,2.393L2.24,23.185a3.519,3.519,0,0,1-2.2-3.809c.387-2.49.7-4.856.95-7.038a.959.959,0,0,0,0-.106c.4-3.519.642-6.634.792-8.974A3.519,3.519,0,0,1,6.569.24l22.215,8.8a3.519,3.519,0,0,1,2.243,3.29Z" transform="translate(657.061 36.947)" fill="#446e5c"/>
    <path id="Path-57" data-name="Path" d="M148.983,56.1c-.51-.387-1.021-.774-1.54-1.153l-1.575-1.161-1.76-1.3L142.4,51.274c-.6-.422-1.205-.88-1.821-1.258-1.047-.713-2.111-1.425-3.176-2.129q-2.745-1.812-5.56-3.519-1.8-1.109-3.625-2.191A232.483,232.483,0,0,0,97.559,26.983c-1.029-.431-2.067-.88-3.106-1.24a218.5,218.5,0,0,0-21.995-7.3l-1.328-.361c-3.634-.968-7.267-1.821-10.874-2.56l-1.487-.3a166.174,166.174,0,0,0-19.162-2.639c-1.153-.1-2.314-.167-3.458-.229-12.854-.7-24.96.378-35.614,3.519A30.388,30.388,0,0,1,0,10.162V8.921C4.513,5.332,13.672.044,28.5,0c28.76-.106,79.049,22.391,120.39,56.016Z" transform="translate(547.806 56.595)" fill="#e13a3a"/>
    <path id="Path-58" data-name="Path" d="M32.684.378V5.348a59.9,59.9,0,0,0-6.4-.062C20.7,5.507,12.81,6.536,8.552,10.363,5.56,9.264,2.7,8.225,0,7.275,2.463,4.97,8.877.545,22.373.043A78.662,78.662,0,0,1,32.684.378Z" transform="translate(621.91 2.674)" fill="#ed6363"/>
    <path id="Path-59" data-name="Path" d="M13.137,3.28,12.97,4.3l-.88,5.34a2.208,2.208,0,0,1-2.534,1.83L2.351,10.318A2.2,2.2,0,0,1,.512,8.356v-.15L.011,3.1V2.427A2.208,2.208,0,0,1,2.386.007l8.851.739a2.2,2.2,0,0,1,1.9,2.534Z" transform="translate(644.369 0)" fill="#ff7128"/>
    <g id="Group-4" data-name="Group" transform="translate(209.493 170.735)">
      <path id="Path-60" data-name="Path" d="M107.035,82.088a254.256,254.256,0,0,1-5.419,31.391,6.431,6.431,0,0,1-9.343,4.117,69.785,69.785,0,0,0-7.373-3.449,83.975,83.975,0,0,0-24.027-5.534,114.178,114.178,0,0,0-21.018.176,131.651,131.651,0,0,0-30.845,6.669C2.455,82.026,0,42.084,0,42.084s2.261-1.223,5.815-3.519l1.39-.88.088-.062.88-.554h.062l1.029-.686A154.3,154.3,0,0,0,23.737,25.43c.44-.37.88-.757,1.328-1.153.625-.545,1.258-1.109,1.883-1.689.44-.4.88-.809,1.311-1.223.581-.537,1.153-1.091,1.76-1.654.818-.809,1.663-1.592,2.516-2.358a69.873,69.873,0,0,1,8.71-6.616A69.02,69.02,0,0,1,51.336,5.353,65.4,65.4,0,0,1,78.53.013c.88,0,1.76.062,2.639.114.466,0,.924.062,1.39.106h.229L84.75.426l1.188.141a8.974,8.974,0,0,1,1.179.141c2.252.29,4.513.651,6.748,1.109.633.123,1.267.255,1.9.4.308.062.616.141.88.22,1.117.255,2.217.537,3.317.88,9.572,26.754,9.572,56.007,7.073,78.767Z" transform="translate(435.432)" fill="#446e5c"/>
      <path id="Path-61" data-name="Path" d="M.827,50.561,0,50.271C9.475,23.086,3.1.475,3.035.246L3.915,0C3.941.229,10.4,23.112.827,50.561Z" transform="translate(0 168.536)" fill="#446e5c"/>
      <path id="Path-62" data-name="Path" d="M2.393,38.966l-.88-.123A107.668,107.668,0,0,0,0,.229L.88,0A108.328,108.328,0,0,1,2.393,38.966Z" transform="translate(11.895 174.219)" fill="#446e5c"/>
    </g>
    <ellipse id="Oval" cx="2.305" cy="3.097" rx="2.305" ry="3.097" transform="translate(221.335 380.902)" fill="#6a9c78"/>
    <path id="Path-63" data-name="Path" d="M.422,0A1.689,1.689,0,0,0,0,.062,3.4,3.4,0,0,1,1.88,3.106,3.4,3.4,0,0,1,0,6.15,2.217,2.217,0,0,0,.422,6.2c1.276,0,2.305-1.39,2.305-3.1S1.7,0,.422,0Z" transform="translate(223.217 380.893)" fill="#4b7d58"/>
    <ellipse id="Oval-2" data-name="Oval" cx="2.305" cy="3.097" rx="2.305" ry="3.097" transform="translate(207.601 386.594)" fill="#6a9c78"/>
    <path id="Path-64" data-name="Path" d="M.466,0A1.663,1.663,0,0,0,0,.07,3.422,3.422,0,0,1,1.841,3.106,3.422,3.422,0,0,1,0,6.141,1.654,1.654,0,0,0,.466,6.2c1.276,0,2.305-1.39,2.305-3.1S1.777,0,.466,0Z" transform="translate(209.405 386.585)" fill="#4b7d58"/>
    <path id="Path-65" data-name="Path" d="M9.531.923c.079.651-1.416,1.372-3.519,1.76-.352.07-.721.123-1.1.167C2.273,3.158.091,2.788,0,2.031S1.965.4,4.6.1l.51-.044C7.525-.142,9.452.219,9.531.923Z" transform="translate(208.944 373.627)" fill="#6a9c78"/>
    <path id="Path-66" data-name="Path" d="M8.062,1.082c.062.528-.748,1.1-2.05,1.548-.352.07-.721.123-1.1.167C2.273,3.106.091,2.736,0,1.98S1.965.352,4.6.044L5.105,0C6.812.088,7.991.484,8.062,1.082Z" transform="translate(208.971 373.687)" fill="#4b7d58"/>
    <path id="Path-67" data-name="Path" d="M150.891,6.581h0a14.508,14.508,0,0,0-1.812,1.364,40.639,40.639,0,0,0-3.748,3.713c-1.258,1.381-2.692,3.114-4.311,5.279q-1.17,1.531-2.437,3.352c-4.672,6.7-10.487,16.514-17.138,30.722-1.416,3.026-2.9,6.053-4.4,9.044-.88,1.654-1.7,3.308-2.578,4.944-1.469,2.763-2.982,5.49-4.513,8.173-.51.88-1.029,1.76-1.54,2.639s-1.038,1.76-1.557,2.639-1.038,1.76-1.566,2.639l-1.575,2.569c-.528.88-1.056,1.689-1.584,2.525s-1.056,1.672-1.584,2.49-1.065,1.636-1.592,2.437-1.056,1.6-1.584,2.393l-.572.88q-1.293,1.927-2.587,3.783l-.783,1.117q-2.305,3.282-4.575,6.3c-1.091,1.452-2.164,2.859-3.22,4.205-.88,1.117-1.76,2.208-2.639,3.246s-1.557,1.865-2.314,2.745l-.581.677c-1.839,2.1-3.581,3.985-5.217,5.613l-.053.053-.062.053-.607.6c-9.678,9.37-22.171,14.481-34.074,14.024-.449,0-.88-.044-1.337-.079h-.088a11.149,11.149,0,0,1-1.32-.123l-1-.132a4.113,4.113,0,0,1-.792-.123c-.264-.053-.607-.1-.88-.158-.4-.07-.783-.158-1.161-.246s-.977-.229-1.452-.361l-.765-.22c-.519-.141-1.029-.308-1.531-.484l-.88-.334a21.559,21.559,0,0,1-2.094-.88c-.686-.334-1.584-.757-2.358-1.188l-.255-.15c-.273-.15-.537-.3-.809-.466q-.809-.475-1.584-1c-.361-.246-.713-.493-1.056-.748s-.748-.545-1.109-.836l-.2-.167c-.273-.22-.545-.44-.818-.686a1.637,1.637,0,0,1-.273-.229c-.264-.22-.519-.449-.774-.7-.466-.413-.88-.88-1.355-1.3a10.911,10.911,0,0,1-1.012-1.073c-.334-.37-.519-.572-.765-.88s-.317-.361-.466-.545l-.581-.721c-.422-.528-.827-1.065-1.223-1.628-.3-.422-.6-.88-.88-1.284s-.537-.818-.792-1.241a2.886,2.886,0,0,1-.229-.378c-.211-.334-.4-.669-.6-1.012-.37-.642-.73-1.3-1.073-1.979-.5-.968-.977-1.98-1.425-3.018a2.051,2.051,0,0,1-.1-.246c-.22-.475-.422-.968-.616-1.469l-.044-.106c-.2-.528-.4-1.056-.6-1.6a.868.868,0,0,0-.088-.238q-.317-.88-.607-1.76c-.141-.44-.282-.88-.413-1.3s-.273-.88-.4-1.284c-.37-1.188-.7-2.358-1.012-3.519-.132-.484-.264-.968-.387-1.443-.044-.158-.088-.317-.123-.475-.167-.633-.317-1.258-.466-1.874S2.023,95.9,1.891,95.3c-.273-1.2-.5-2.358-.7-3.519-.106-.563-.2-1.126-.29-1.672C.721,89.017.571,87.961.448,86.932.386,86.413.334,85.911.281,85.41a53.359,53.359,0,0,1-.238-7.619,4.834,4.834,0,0,1,.044-.8c.044-.264,0-.748.088-1.109a29.912,29.912,0,0,1,.493-3.466c.062-.273.114-.537.176-.792a20.367,20.367,0,0,1,.616-2.2c.15-.457.317-.88.493-1.32.079-.211.176-.413.264-.616s.185-.4.282-.589a3.175,3.175,0,0,1,.194-.343A11.437,11.437,0,0,1,6.4,62.3a8.358,8.358,0,0,1,6.554-1.2c6.1,1.346,11.156-3.246,18.08-10.408C36.651,44.869,43.5,37.356,53.138,29.939,73.778,14.033,98.5,3.722,118.683.827A70.26,70.26,0,0,1,134.4.176c1.038.088,2.015.194,2.93.308l1.073.15c11.314,1.786,12.484,5.947,12.484,5.947Z" transform="translate(202.587 226.807)" fill="#6a9c78"/>
    <path id="Path-68" data-name="Path" d="M138.645,1.087c-4.672,6.7-10.487,16.514-17.138,30.722-1.416,3.026-2.9,6.053-4.4,9.044-.88,1.654-1.7,3.308-2.578,4.944-1.469,2.763-2.982,5.49-4.513,8.173-.51.88-1.029,1.76-1.54,2.639s-1.038,1.76-1.557,2.639-1.038,1.76-1.566,2.639l-1.575,2.569c-.528.88-1.056,1.689-1.584,2.525s-1.056,1.672-1.584,2.49-1.065,1.636-1.592,2.437-1.056,1.6-1.584,2.393l-.572.88q-1.293,1.927-2.587,3.783l-.783,1.117q-2.305,3.282-4.575,6.3c-1.091,1.452-2.164,2.859-3.22,4.205-.88,1.117-1.76,2.208-2.639,3.246S81.5,95.7,80.746,96.579l-.581.677c-1.839,2.1-3.581,3.985-5.217,5.613l-.053.053-.062.053-.607.6c-9.678,9.37-22.171,14.481-34.074,14.024-.449,0-.88-.044-1.337-.079h-.361a8.27,8.27,0,0,1-1.047-.106l-1-.132a4.114,4.114,0,0,1-.792-.123c-.264-.053-.607-.1-.88-.158-.4-.07-.783-.158-1.161-.246l-.317-.07c-.3-.07-.6-.141-.88-.229l-.238-.062-.765-.22c-.519-.141-1.029-.308-1.531-.484H29.78c-.29-.1-.563-.2-.88-.308l-.774-.3c-.422-.167-.88-.352-1.276-.545h-.044c-.8-.37-1.584-.765-2.358-1.188l-.255-.15c-.273-.15-.537-.3-.809-.466l-.378-.229c-.37-.229-.73-.457-1.082-.7l-.123-.079c-.361-.246-.713-.493-1.056-.748s-.748-.545-1.109-.836l-.2-.167c-.273-.22-.545-.44-.818-.686a1.636,1.636,0,0,1-.273-.229l-.062-.053c-.211-.185-.422-.37-.633-.572l-.079-.07-.528-.493c-.282-.264-.554-.537-.827-.809s-.677-.7-1.012-1.073-.519-.572-.765-.88c-.141-.15-.273-.317-.4-.475l-.062-.07-.581-.721-.308-.4c-.29-.378-.581-.765-.88-1.161l-.053-.07c-.3-.422-.6-.88-.88-1.284s-.537-.818-.792-1.241a2.887,2.887,0,0,1-.229-.378,1.535,1.535,0,0,1-.1-.158c-.176-.282-.343-.563-.5-.88-.114-.185-.22-.378-.326-.572-.211-.378-.422-.774-.625-1.17a1.891,1.891,0,0,1-.123-.229c-.5-.968-.977-1.98-1.425-3.018a2.05,2.05,0,0,1-.1-.246l-.106-.229c-.176-.4-.343-.818-.51-1.24L6.4,91.467c-.2-.528-.4-1.056-.6-1.6a.868.868,0,0,0-.088-.238q-.317-.88-.607-1.76c-.141-.44-.282-.88-.413-1.3s-.273-.88-.4-1.284c-.37-1.188-.7-2.358-1.012-3.519-.132-.484-.264-.968-.387-1.443-.044-.158-.088-.317-.123-.475-.167-.633-.317-1.258-.466-1.874s-.282-1.214-.413-1.812c-.273-1.2-.5-2.358-.7-3.519-.106-.563-.2-1.126-.29-1.672C.721,69.877.571,68.821.448,67.792.386,67.273.334,66.772.281,66.27a53.359,53.359,0,0,1-.238-7.619,4.834,4.834,0,0,1,.044-.8c.044-.264,0-.748.088-1.109a34.224,34.224,0,0,1,.493-3.466c.062-.273.114-.537.176-.792a20.366,20.366,0,0,1,.616-2.2c.15-.457.317-.88.493-1.32.079-.211.176-.413.264-.616s.185-.4.282-.589a3.176,3.176,0,0,1,.194-.343,5.173,5.173,0,0,1,9.22.792v.106c3.95,10.443,2.842,36.766,24.264,49l.431.246c5.551,3.079,10.786,4.038,15.836,3.185a26.332,26.332,0,0,0,9.51-3.722C68.9,92.8,75.661,85.405,82.638,75.754c22.734-31.408,45.441-83.967,56.007-74.667Z" transform="translate(202.464 246.035)" fill="#446e5c"/>
    <path id="Path-69" data-name="Path" d="M87.305,6.169C84.587,11.447,78.3,19.11,63.832,35.334,35.547,67.059,12.286,75.249,2.775,64.674A11.1,11.1,0,0,1,0,57.267a15.59,15.59,0,0,1,1.628-7.293,17.305,17.305,0,0,1,3.106-4.4A166.28,166.28,0,0,1,23.776,28.014C42.251,13.8,63.92,4.057,82.721.081a4.232,4.232,0,0,1,4.584,6.088Z" transform="translate(231.844 228.768)" fill="#446e5c"/>
    <path id="Path-70" data-name="Path" d="M12.774,3.352A71.351,71.351,0,0,0,7.425,8.7C4.513,9.757,2,10.584,0,11.2Q2.252,8.191,4.575,4.9l.783-1.117Q6.651,1.927,7.944,0c1.522,1.021,3.141,2.138,4.83,3.352Z" transform="translate(291.348 321.182)" fill="#163366"/>
    <path id="Path-71" data-name="Path" d="M10.637,0C8,2.947,5.472,6.159,3.035,9.466l-.211.282-.185-.22-.721-.88C1.249,7.9.6,7.249,0,6.686,1.056,5.34,2.129,3.933,3.22,2.481c.748-.229,1.575-.493,2.463-.783C7.153,1.232,8.833.677,10.637,0Z" transform="translate(288.137 329.883)" fill="#2b4e3e"/>
    <path id="Path-72" data-name="Path" d="M55.409,56.993A120.328,120.328,0,0,1,38.086,71.641q-1.135-1.707-2.173-3.59s-12.519.22-31.092,18.027C3.132,84.864,1.513,83.747,0,82.726l.572-.88c.528-.792,1.056-1.584,1.584-2.393s1.065-1.619,1.592-2.437,1.056-1.645,1.584-2.49S6.387,72.855,6.915,72L8.49,69.433c.528-.88,1.047-1.76,1.566-2.639l1.557-2.639c.519-.88,1.029-1.76,1.54-2.639,1.531-2.639,3.044-5.411,4.513-8.173.88-1.636,1.76-3.29,2.578-4.944,1.531-2.991,3.018-6.018,4.4-9.044C31.294,25.144,37.109,15.335,41.781,8.631q1.267-1.821,2.437-3.352C45.837,3.132,47.271,1.4,48.529,0l1.047.985a57.274,57.274,0,0,0-7.795,19.355c-3.59,18.141,1.012,33.731,13.628,36.652Z" transform="translate(299.301 238.456)" fill="#0054d8"/>
    <path id="Path-73" data-name="Path" d="M16.241,13.645A49.752,49.752,0,0,1,0,5.6C5.085,3.308,8.939,1.3,11.323,0l.29.88c.194.589.4,1.179.589,1.76.334.985.66,1.944.994,2.877q.563,1.628,1.135,3.167.968,2.6,1.909,4.962Z" transform="translate(350.091 317.795)" fill="#0054d8"/>
    <path id="Path-74" data-name="Path" d="M24.027,22.355c-2.384,1.3-6.238,3.308-11.323,5.6A52.1,52.1,0,0,1,0,14.648,120.328,120.328,0,0,0,17.323,0c.66,2.639,1.355,5.182,2.067,7.566l1.267,4.188.968,3.114q.7,2.243,1.381,4.4l.721,2.217c.079.273.2.572.3.871Z" transform="translate(337.387 295.448)" fill="#2b4e3e"/>
    <path id="Path-75" data-name="Path" d="M47.262,8.666c-13.373,6.414-29.913,9.678-43.875,11.3C2.252,18.942,1.126,17.939,0,16.971A198.022,198.022,0,0,0,32.93,5.6C38.016,3.308,41.869,1.3,44.253,0l.29.88c.194.589.4,1.179.589,1.76.334.985.66,1.944.994,2.877q.545,1.61,1.135,3.15Z" transform="translate(317.161 317.803)" fill="#0054d8"/>
    <path id="Path-76" data-name="Path" d="M29.737,3.026A232.73,232.73,0,0,1,0,4.619l.4-.044A185.107,185.107,0,0,0,26.394,0c1.082,1,2.208,1.98,3.343,3.026Z" transform="translate(290.811 334.739)" fill="#163366"/>
    <path id="Path-77" data-name="Path" d="M114.8,5.9h0a14.509,14.509,0,0,0-1.812,1.364,40.637,40.637,0,0,0-3.748,3.713c-1.258,1.381-2.692,3.114-4.311,5.279q-1.17,1.531-2.437,3.352c-10.557-9.3-33.274,43.259-55.99,74.667-7.038,9.678-13.8,17.068-20.763,21.291a26.332,26.332,0,0,1-9.475,3.669c-5.068.88-10.3-.106-15.836-3.185L0,115.806c30.793,5.639,53.359-44.6,63.142-61.77C86.1,13.742,91.084,18.546,102.433,7.645,109.472.862,103.78.378,102.222,0,113.633,1.742,114.8,5.9,114.8,5.9Z" transform="translate(238.675 227.485)" fill="#4b7d58"/>
    <path id="Path-78" data-name="Path" d="M134.335,1.087c-4.672,6.7-10.487,16.514-17.138,30.722-1.416,3.026-2.9,6.053-4.4,9.044-.88,1.654-1.7,3.308-2.578,4.944-1.469,2.763-2.982,5.49-4.513,8.173-.51.88-1.029,1.76-1.54,2.639s-1.038,1.76-1.557,2.639-1.038,1.76-1.566,2.639l-1.575,2.569c-.528.88-1.056,1.689-1.584,2.525s-1.056,1.672-1.584,2.49-1.065,1.636-1.592,2.437-1.056,1.6-1.584,2.393l-.572.88q-1.293,1.927-2.587,3.783l-.783,1.117q-2.305,3.282-4.575,6.3c-1.091,1.452-2.164,2.859-3.22,4.205-.88,1.117-1.76,2.208-2.639,3.246s-1.557,1.865-2.314,2.745l-.581.677c-1.839,2.1-3.581,3.985-5.217,5.613l-.053.053-.062.053-.607.6c-.581.563-1.179,1.109-1.76,1.645-9.4,8.323-21.115,12.81-32.3,12.379-.449,0-.88-.044-1.337-.079h-.361a8.27,8.27,0,0,1-1.047-.106l-1-.132a4.114,4.114,0,0,1-.792-.123c-.264-.053-.607-.1-.88-.158-.4-.07-.783-.158-1.161-.246l-.317-.07c-.3-.07-.6-.141-.88-.229l-.238-.062-.765-.22c-.519-.141-1.029-.308-1.531-.484h-.062c-.29-.1-.563-.2-.88-.308l-.774-.3c-.422-.167-.88-.352-1.276-.545h-.044c-.792-.361-1.584-.757-2.358-1.188l-.255-.15c-.273-.15-.537-.3-.809-.466l-.378-.229c-.37-.229-.73-.457-1.082-.7l-.123-.079c-.361-.246-.713-.493-1.056-.748s-.748-.545-1.109-.836l-.2-.167c-.273-.22-.545-.44-.818-.686a1.636,1.636,0,0,1-.273-.229l-.062-.053c-.211-.185-.422-.37-.633-.572l-.079-.07-.528-.493c-.282-.264-.554-.537-.827-.809s-.677-.7-1.012-1.073-.519-.572-.765-.88c-.141-.15-.273-.317-.4-.475l-.062-.07-.581-.721-.308-.4c-.29-.378-.581-.765-.88-1.161l-.053-.07c-.3-.422-.6-.88-.88-1.284s-.537-.818-.792-1.241a2.887,2.887,0,0,1-.229-.378,1.535,1.535,0,0,1-.1-.158c-.176-.282-.343-.563-.5-.88-.114-.185-.22-.378-.326-.572-.211-.378-.422-.774-.625-1.17a1.891,1.891,0,0,1-.123-.229c-.5-.968-.977-1.98-1.425-3.018a2.05,2.05,0,0,1-.1-.246l-.106-.229c-.176-.4-.343-.818-.51-1.24L2.1,91.467c-.2-.528-.4-1.056-.6-1.6a.868.868,0,0,0-.088-.238q-.317-.88-.607-1.76c-.141-.44-.282-.88-.413-1.3s-.273-.88-.4-1.284c8.8,16.593,20.3,18.106,31.945,12.053l.431.246c5.551,3.079,10.786,4.038,15.836,3.185a26.332,26.332,0,0,0,9.431-3.748C64.585,92.8,71.351,85.405,78.327,75.754c22.734-31.408,45.441-83.967,56.007-74.667Z" transform="translate(206.774 246.035)" fill="#2b4e3e"/>
    <path id="Path-79" data-name="Path" d="M47.966,58.849a21.6,21.6,0,0,0-7.918-1.76,24.229,24.229,0,0,0-5.085-.053,7.2,7.2,0,0,0-.95.088A34.867,34.867,0,0,0,30,57.758c-.994.211-2.05.475-3.15.809-.264.07-.528.158-.8.246-.528.167-1.073.352-1.636.563l-.774.29-1.021.414-.765.334-.95.431c-.466.22-.933.449-1.408.7s-.792.413-1.2.642-.589.326-.88.5h-.079l-.88.528-.95.6c-.3.194-.607.4-.88.607l-.941.651S12.449,60.67,0,59.007A25.76,25.76,0,0,0,9.537,47.042C13.786,36.071,11.525,6.4,32.174,0,31.5.3,21.616,4.469,21.616,16.2c0,15.722,15.475,12.511,18.15,25.329,2.8,13.443,3.035,15.1,8.2,17.323Z" transform="translate(339.798 168.257)" fill="#163366"/>
    <path id="Path-80" data-name="Path" d="M37.742,111.231c-8.182-15.062,3.449-37.373-6.044-62.1C21.844,23.5,17.472,8.446,30.668,0l-.836.167c-.994.211-2.05.475-3.15.809-.264.07-.528.158-.8.246-.528.167-1.073.352-1.636.563l-.774.29-1.021.413-.765.334-.95.431c-.466.22-.933.449-1.408.7s-.792.413-1.2.642-.589.326-.88.5h-.079l-.88.528-.95.6c-.3.194-.607.4-.88.607l-.941.651-.352.387c-.475.537-1.381,1.628-2.5,3.185l-.062.079c-.229.317-.457.66-.7,1.021L9.8,12.3c-.264.4-.545.809-.827,1.258A57.186,57.186,0,0,0,1.2,32.851c-3.616,18.115.985,33.7,13.6,36.625.66,2.639,1.355,5.182,2.067,7.566l1.267,4.188c.176.572.352,1.135.519,1.7s.3.95.449,1.416q.7,2.243,1.381,4.4V88.8l1.293,3.933c.194.589.4,1.179.589,1.76.334.985.66,1.944.994,2.877q.563,1.628,1.135,3.167.959,2.639,1.909,4.98c6.035,15.036,11.912,22.734,20.1,23.921,5.226.765,14.7-6.422,24.713-15.959-.924.739-22.9,17.209-33.476-2.243Z" transform="translate(339.983 225.866)" fill="#e06855"/>
    <path id="Path-81" data-name="Path" d="M83.043,49.066S40.356,52.585,0,48.731C5.851,30.326,11.129,12.713,14.851,0c0,0,5.6,30.581,37.417,35.068s40.2-3.431,39.881,20.789C91.9,74.43,87.187,83.817,97.8,118.534,88.63,93.38,78.521,59.412,83.043,49.066Z" transform="translate(312.155 419.929)" fill="#e06855"/>
    <path id="Path-82" data-name="Path" d="M11.27,77.465c-2.217-1.205-4.443-2.331-6.66-3.378A324.465,324.465,0,0,1,2.851,36.7,163.429,163.429,0,0,0,0,5.736L2.851,0C7.689,14.077,7.865,34.76,8.807,56.306A135.425,135.425,0,0,0,11.27,77.465Z" transform="translate(282.761 362.074)" fill="#163366"/>
    <path id="Path-83" data-name="Path" d="M52.638,13.17c-.317-.88-.651-1.76-1.012-2.639q-.132-.343-.29-.686c-.044-.114-.1-.229-.15-.334-.141-.326-.282-.642-.44-.95-.343-.721-.713-1.425-1.1-2.094-.194-.334-.387-.669-.589-.985s-.413-.642-.625-.95-.273-.4-.422-.589l-.273-.361-.273-.37-.686-.88-.616-.677-.114-.114-.326-.326L45.406.9l-.1-.1L44.5.07,44.42,0l-.062.053-.607.6c-9.678,9.37-22.171,14.481-34.074,14.024A111.68,111.68,0,0,0,0,37.848c17.877,1.434,29.658-8.5,39.837-21.476a5.6,5.6,0,0,1,9.915,2.349v.15Z" transform="translate(232.939 348.904)" fill="#0054d8"/>
    <path id="Path-84" data-name="Path" d="M85.771,28.8,79.736,39.353a2,2,0,0,1-3.475,0c-1.953-3.519-5.068-10.355-7.3-21.168l.229-.246C42.5,3.352,15.415.422,1.356,0c-1.936,19.91-1.909,44.412.8,74.9A149.731,149.731,0,0,1,9.018,43.277,32.552,32.552,0,0,1,40.1,21h.211A30.08,30.08,0,0,1,68.079,40.356a52.655,52.655,0,0,0,4.223,8.7,2.71,2.71,0,0,0,4.786-.343Z" transform="translate(225.143 421.715)" fill="#e06855"/>
    <path id="Path-85" data-name="Path" d="M45.7,7.513s-7.434,11.6-16.162,31.839A234.981,234.981,0,0,1,0,45.159c.194-.88.387-1.68.589-2.5a.387.387,0,0,0,0-.088q.29-1.161.581-2.3a.293.293,0,0,1,.062-.22c.176-.66.352-1.3.528-1.944.238-.88.484-1.76.739-2.569l.449-1.469a.794.794,0,0,1,.07-.22c.167-.554.343-1.1.528-1.645.29-.88.589-1.76.88-2.639s.519-1.443.783-2.155l.625-1.469c.4-1,.792-1.988,1.2-2.947q1.4-3.352,2.93-6.37l.238-.475.669-1.284c.44-.88.88-1.68,1.355-2.49C23.411,12.81,35.095,8.323,44.517,0Z" transform="translate(230.432 351.244)" fill="#0054d8"/>
    <path id="Path-86" data-name="Path" d="M.532.421C.532.544.47.579.444.509S.462.447.532.421Z" transform="translate(240.642 433.453)" fill="#163366"/>
    <path id="Path-87" data-name="Path" d="M21.2,33.265A150.848,150.848,0,0,1,60.89,45.582c-4.874-6.422-15.405-13.936-23.657-19.267A16.434,16.434,0,0,1,30.88,6.4c.968-2.446,1.9-4.742,2.639-6.4A234.982,234.982,0,0,1,3.977,5.807,202.87,202.87,0,0,0,0,31.136a155.15,155.15,0,0,1,15.924,1.346l2.472.343c.941.141,1.856.282,2.807.44Z" transform="translate(226.499 390.597)" fill="#163366"/>
    <path id="Path-88" data-name="Path" d="M1.782,4.7a5.12,5.12,0,0,0-.493,1.32C.409,6.4-.726,5.428.62,4.4A4.346,4.346,0,0,0,2.486,0c.7,1.32.387,2.71-.7,4.7Z" transform="translate(415.402 197.009)" fill="#e06855"/>
    <path id="Path-89" data-name="Path" d="M11.229,1.477c-1.628.5-4.971.642-8.622.88l-1.4,1.672L.391,2.506l-.22-.4A1.425,1.425,0,0,1,1.64.016Z" transform="translate(403.209 222.172)" fill="#e06855"/>
    <path id="Path-90" data-name="Path" d="M87.305,6.169C84.587,11.447,78.3,19.11,63.832,35.334,35.547,67.059,12.286,75.249,2.775,64.674A11.1,11.1,0,0,1,0,57.267a15.59,15.59,0,0,1,1.628-7.293c.062,3.642,1.073,14.077,10.619,11.9,11.516-2.639,13.9-26.6,31.672-35.983S91.062,8.535,82.721.081a4.232,4.232,0,0,1,4.584,6.088Z" transform="translate(231.844 228.768)" fill="#2b4e3e"/>
    <path id="Path-91" data-name="Path" d="M84.943,7.223c-1.83,5.041-3.765,10.074-5.763,14.956-2.4,5.912-4.9,11.675-7.39,17.112C63.626,57.116,55.5,71.544,50.676,77.06,43.11,85.638,20.358,101.976,0,115.859,35.429,88,47.069,52.6,52.488,28.619,54.652,19.021,56.535,9.4,61.031,0A90.266,90.266,0,0,1,84.943,7.223Z" transform="translate(500.711 152.756)" fill="#442330"/>
    <path id="Path-92" data-name="Path" d="M32.306,56.949c-2.217,8.6-5.1,17.64-8.358,26.622A90.266,90.266,0,0,0,0,76.374C6.933,61.858,16.021,47.3,19,31.012,23.763,5.015,4.047.282,2.824,0c21.15,1.865,36.969,27.968,29.482,56.949Z" transform="translate(561.706 76.408)" fill="#6a9c78"/>
    <path id="Path-93" data-name="Path" d="M118.111,5.349s-7.98,24.423-20.7,39.027C78.864,65.667,2.692,99.284,0,100.6c2.815-1.76,72.609-46.461,87.055-62.834C91.911,32.253,100.04,17.824,108.17,0,111.407,1.865,114.707,3.66,118.111,5.349Z" transform="translate(464.296 192.073)" fill="#331b25"/>
    <path id="Path-94" data-name="Path" d="M63.2,30.819A346.515,346.515,0,0,1,30.652,51.608L2.894,141.135,0,145.015S1.592,68.562,18.344,23.138A136.455,136.455,0,0,0,24.643,0,121.481,121.481,0,0,1,49.55,5.947a90.891,90.891,0,0,1,8.481,3.519c1.5,7.628,3.22,14.948,5.173,21.352Z" transform="translate(595.895 276.717)" fill="#442330"/>
    <path id="Path-95" data-name="Path" d="M37.787,76.612c-2.8-1.311-5.639-2.472-8.481-3.519A121.481,121.481,0,0,0,4.4,67.145C11.27,29.077,0,0,0,0A130.551,130.551,0,0,0,28.769,3.211S29.9,21.687,32.684,43.963c1.32,10.549,3,21.933,5.1,32.649Z" transform="translate(616.138 209.546)" fill="#2b4e3e"/>
    <path id="Path-96" data-name="Path" d="M180.277,100.309c-1.1-.317-2.2-.6-3.317-.88-.308-.079-.616-.158-.88-.22-.633-.15-1.267-.282-1.9-.4-2.235-.457-4.5-.818-6.748-1.109-.4-.053-.783-.106-1.179-.141l-1.188-.141-1.962-.194h-.229c-.466-.044-.88-.079-1.39-.106-.88-.053-1.76-.1-2.639-.114s-1.76,0-2.6,0h-1.2a66.063,66.063,0,0,0-33.511,10.663c-6.079-11.921-9.942-25.4-13.487-37.945C101.017,44.9,55.268,44.258,46.963,74.179s-29.086,49.514-29.086,49.514c-3.4-1.689-6.7-3.519-9.906-5.349,2.49-5.437,4.988-11.2,7.39-17.112,2-4.909,3.933-9.942,5.763-14.956,3.255-8.983,6.159-18.027,8.358-26.622C34.1,41.777,29.851,25,20.948,14.328,15.423,7.694,8.1,3.418,0,2.706A91.909,91.909,0,0,1,21.854.022,161.476,161.476,0,0,1,96.125,16.738c1.76.88,3.431,1.716,5.129,2.639a222.745,222.745,0,0,1,31.127,19.707c13.6,10.329,25.514,22.074,34.576,34.8a97.146,97.146,0,0,1,13.32,26.42Z" transform="translate(564.565 73.693)" fill="#4b7d58"/>
    <path id="Path-97" data-name="Path" d="M112.366,21.737A161.476,161.476,0,0,0,38.095,5.021,91.909,91.909,0,0,0,16.241,7.7,28.813,28.813,0,0,0,4.461,9.174,7.707,7.707,0,0,1,0,3.728C21.388-2.58,48.6-.592,76.057,7.5a228.867,228.867,0,0,1,36.309,14.235Z" transform="translate(548.289 68.739)" fill="#4b7d58"/>
    <path id="Path-98" data-name="Path" d="M99.944,3.316c-1.1-.317-2.2-.6-3.317-.88-.308-.079-.616-.158-.88-.22-.633-.15-1.267-.282-1.9-.4C91.612,1.354,89.351.993,87.1.7,86.7.65,86.316.6,85.92.562L84.732.421,82.77.228h-.229c-.466-.044-.88-.079-1.39-.106-.88-.053-1.76-.1-2.639-.114s-1.76,0-2.6,0h-1.2A66.063,66.063,0,0,0,41.209,10.671a69.872,69.872,0,0,0-8.71,6.616c-.88.765-1.7,1.548-2.516,2.358-.572.563-1.144,1.117-1.76,1.654-.431.413-.88.827-1.311,1.223-.625.581-1.258,1.144-1.883,1.689-.44.4-.88.783-1.328,1.153A154.306,154.306,0,0,1,9.264,36.387l-1.029.686H8.173l-.88.554-.088.062-1.39.88C2.3,40.83,0,42.088,0,42.088s2.455,39.96,9.009,73.374c0,0-1.522-41.412,6.73-60.943C27.669,26.278,61.33,18.4,76.77,37.847c16.953,21.352,8.974,63.67-15.907,70.77a83.976,83.976,0,0,1,24.062,5.551,69.787,69.787,0,0,1,7.373,3.449,6.431,6.431,0,0,0,9.343-4.091c4.628-19.259,13.487-67.805-1.7-110.211Z" transform="translate(644.899 170.687)" fill="#2b4e3e"/>
    <path id="Path-99" data-name="Path" d="M32.552,24.872A346.512,346.512,0,0,1,0,45.661,132.091,132.091,0,0,0,18.88,0a90.89,90.89,0,0,1,8.481,3.519c1.522,7.628,3.238,14.948,5.191,21.352Z" transform="translate(626.546 282.665)" fill="#331b25"/>
    <path id="Path-100" data-name="Path" d="M8.481,32.649C5.683,31.338,2.842,30.177,0,29.13A160.121,160.121,0,0,0,3.387,0C4.7,10.549,6.378,21.933,8.481,32.649Z" transform="translate(645.444 253.509)" fill="#192d23"/>
    <g id="Group-5" data-name="Group" transform="translate(465.053 123.093)">
      <path id="Path-101" data-name="Path" d="M45.045,5.9c-2.085,4.214-4.056,7.848-5.727,10.786C22.338,4.509,0,.577,0,.577A114.179,114.179,0,0,1,21.018.4,83.976,83.976,0,0,1,45.045,5.9Z" transform="translate(219.727 155.863)" fill="#442330"/>
      <path id="Path-102" data-name="Path" d="M7.643,11.745h-4.3a3.343,3.343,0,0,1-2.9-5L4.282,0Z" transform="translate(249.641 180.968)" fill="#442330"/>
      <path id="Path-103" data-name="Path" d="M7.381,1.888C5.305,1.1,1.592,2.2,0,.48c.2,0,3.519.73,5.551-.229,1.83-.862,3.29.7,1.83,1.636Z" transform="translate(0 2.261)" fill="#442330"/>
      <path id="Path-104" data-name="Path" d="M0,2.741,1.883.577a1.672,1.672,0,0,1,2.921.88l.88,6.018Z" transform="translate(34.092)" fill="#442330"/>
    </g>
    <path id="Path-105" data-name="Path" d="M8.763,14.912A46.505,46.505,0,0,1,3.581,16.83c.475-.176,4.293-1.636,4.839-3.519C9.4,9.889,5.085,4.513,3.37,2.472S.158,1.02,0,1.073L.317.8a3.343,3.343,0,0,1,4.5.141q.748.748,1.4,1.531a23.385,23.385,0,0,1,4.4,8.446,3.4,3.4,0,0,1-1.848,3.994Z" transform="translate(461.683 104.975)" fill="#0b1828"/>
    <path id="Path-106" data-name="Path" d="M.051,3.038c.282,1.39,2.868,3.22,3.8,2.639s-.361-.968-1.258-2.024c-1.284-1.5.554-2.534,0-3.4S-.38.794.051,3.038Z" transform="translate(456.16 111.975)" fill="#283c55"/>
    <path id="Path-107" data-name="Path" d="M52.338,7.815C47.491,7.279,44.42,8.334,42.2,10.1c-5.156,4.126-5.446,12.167-12.247,12.783-4.531.413-6.748-1.205-11.12-6.845S7.161,18.681,5.974,21.918s4.68,10.012,2.938,12.4S0,36.866,0,36.866a46.5,46.5,0,0,0,5.182-1.918,3.4,3.4,0,0,0,1.856-4.021,23.385,23.385,0,0,0-4.4-8.446C6.211,17.475,11.9,10.639,15.66,6.223q.264.5.5,1c.176.361.343.73.5,1.082s.361.88.519,1.232a9.877,9.877,0,0,1,.352.941c.062.167.123.326.176.493.114.326.22.633.317.933a2,2,0,0,0,3.282.8l.66-.642A2.428,2.428,0,0,0,21.8,8.449c-1.6-1.337-3.37-3.4-2.719-5.736a3.958,3.958,0,0,1,.141-.422c.07-.167.15-.326.238-.493,2.463-4.4,7.232.66,7.232.66l7.83,5.631a4.109,4.109,0,0,0,5.279-.37c.977-.88,1.9-1.839,2.719-2.683l.537.387Z" transform="translate(465.264 84.939)" fill="#442330"/>
    <path id="Path-108" data-name="Path" d="M64.559,33.162l-.88.88c-.818.88-1.76,1.76-2.719,2.683a4.091,4.091,0,0,1-3.018,1.126c9.678-5.472-2.085-16.478-10.557-14.736s-15.37-3.466-20.719-8.991C20.93,8.2,1.1,25.913,0,26.9,6.352,19.658,18.8,2.757,30.581.549,43.629-1.906,50.368,4.015,56.447,15.505a64.62,64.62,0,0,0,7.918,12.027l.29.334a3.88,3.88,0,0,1-.1,5.3Z" transform="translate(444.052 55.897)" fill="#ba1515"/>
    <path id="Path-109" data-name="Path" d="M11.235,17.03c.387-.616,5.015-8.156,0-12S.457,4.361,0,4.625C3.941,1.581,8.112-.653,12.176.174c4.487.95,7.645,4.4,9.783,8.076C18.009,11.206,14.279,14.347,11.235,17.03Z" transform="translate(458.314 81.707)" fill="#442330"/>
    <path id="Path-110" data-name="Path" d="M13.39,14.622c-2.226,8.138-3.238,11.437-1.531,28.3A85.753,85.753,0,0,0,8.2,25.47a35.939,35.939,0,0,0-4.205-8.648A24.185,24.185,0,0,0,2.34,14.657,20.825,20.825,0,0,0,0,12.335l.053-.053C1.689,10.654,3.431,8.763,5.27,6.669l.581-.677.264-.308c.669-.783,1.355-1.6,2.05-2.437C9.044,2.208,9.924,1.117,10.8,0c.6.563,1.249,1.214,1.918,1.962l.721.88c.088.22,2.164,3.519-.053,11.78Z" transform="translate(277.421 336.604)" fill="#2b4e3e"/>
    <path id="Path-111" data-name="Path" d="M12.669,1.944A58.567,58.567,0,0,1,2.34,14.657,20.825,20.825,0,0,0,0,12.335l.053-.053C1.689,10.654,3.431,8.763,5.27,6.669l.581-.677.264-.308c.669-.783,1.355-1.6,2.05-2.437C9.044,2.208,9.924,1.117,10.8,0,11.349.545,12,1.2,12.669,1.944Z" transform="translate(277.377 336.604)" fill="#1e352a"/>
    <path id="Path-112" data-name="Path" d="M5.683,0A63.529,63.529,0,0,1,1.918,6.95C1.249,6.2.6,5.551,0,4.988,1.056,3.642,2.129,2.235,3.22.783,3.968.554,4.795.29,5.683,0Z" transform="translate(288.128 331.599)" fill="#1e352a"/>
    <path id="Path-113" data-name="Path" d="M148.886,61.607C107.536,27.982,57.256,5.486,28.5,5.591,13.672,5.635,4.513,10.923,0,14.512A43.893,43.893,0,0,1,26.825.277C44.288-2.133,56.966,11.926,74.553,13.061,91.436,14.152,144.8,58.2,148.886,61.607Z" transform="translate(547.77 50.968)" fill="#2b4e3e"/>
    <path id="Path-114" data-name="Path" d="M31.027,0a67.972,67.972,0,0,1-2.155,16.848,3.519,3.519,0,0,1-4.636,2.393L2.24,10.857a3.519,3.519,0,0,1-2.2-3.809c.387-2.49.7-4.856.95-7.038C.947.994.648,8.543,3.568,8.639c3.123.114,8.983-9.176,16.223-6.95S31.027,0,31.027,0Z" transform="translate(657.061 49.275)" fill="#2b4e3e"/>
    <path id="Path-115" data-name="Path" d="M22.954,5.463c-5.076.484-10.945,1.76-14.4,4.856C5.56,9.22,2.7,8.182,0,7.232,5.727,2.437,15.062,5.147,18.476,3.977A5.481,5.481,0,0,0,22.347,0h.044Z" transform="translate(621.91 2.717)" fill="#e13a3a"/>
    <path id="Path-116" data-name="Path" d="M12.959,1.188l-.88,5.34a2.208,2.208,0,0,1-2.534,1.83L2.34,7.223A2.2,2.2,0,0,1,.5,5.261v-.15L0,0C.238,1.047,1.021,4.161,2.217,5c2.789,1.953,9.5,2.173,10.742-3.809Z" transform="translate(644.38 3.095)" fill="#ce5a2c"/>
    <path id="Path-117" data-name="Path" d="M22.941,9.32a2.763,2.763,0,0,1-1.856,2.261A21.344,21.344,0,0,0,8.618,23.018S4.4,27.9,1.729,22.367L1.6,22.094C-.9,16.525-1.315,13.367,6.7,7.727c-.29.238-5.332,4.452-4.329,8.173s2.692,7.293,4.337,5.05,2.481-8.508,7.337-10.276S23.4,1.683,19.8.2a2.4,2.4,0,0,1,3.352,2.138,49.365,49.365,0,0,1-.211,6.986Z" transform="translate(541.572 31.562)" fill="#e13a3a"/>
    <path id="Path-118" data-name="Path" d="M158.977,17.616c-2.032-1.17-4.091-2.323-6.158-3.458,8.6,7.716,5.648,48.133-22.267,39.326C98.747,43.447,83.439,21.5,57.028,9.742,40.831,2.536,28.443,4.164,21.282,6.5a3.6,3.6,0,0,1-4.7-2.859c-.22-1.5-.5-2.842-1.179-3.238C13.742-.569,11.4.5,11.2.6a2.4,2.4,0,0,1,3.334,2.147,49.364,49.364,0,0,1-.211,6.994A2.763,2.763,0,0,1,12.467,12,21.344,21.344,0,0,0,0,23.44c7.038-3.669,22.144-10.434,35.429-9.106,19.786,1.98,50.042,10.557,111.293,67.321,13.346-15.634,18.027-36.749,19.663-49.039a15.027,15.027,0,0,0-7.408-15Z" transform="translate(550.19 31.14)" fill="#f76f32"/>
    <path id="Path-119" data-name="Path" d="M89.21,18.18a.449.449,0,0,1-.4.273.431.431,0,0,1-.176,0L56.755,4.824A49.726,49.726,0,0,0,10.126,8.871L0,15.487l.713-1.513L9.651,8.185A50.6,50.6,0,0,1,57.1,4.059L88.946,17.608a.431.431,0,0,1,.264.572Z" transform="translate(559.938 15.33)" fill="#f76f32"/>
    <g id="Group-6" data-name="Group" transform="translate(146.922 575.651)">
      <path id="Path-120" data-name="Path" d="M9.414,0,0,1.636" transform="translate(0 96.037)" fill="none" stroke="#6a9c78" stroke-linecap="round" stroke-miterlimit="10" stroke-width="2"/>
      <path id="Path-121" data-name="Path" d="M9.414,0,0,1.636" transform="translate(1.24 99.952)" fill="none" stroke="#6a9c78" stroke-linecap="round" stroke-miterlimit="10" stroke-width="2"/>
      <path id="Path-122" data-name="Path" d="M9.414,0,0,1.636" transform="translate(1.716 104.167)" fill="none" stroke="#6a9c78" stroke-linecap="round" stroke-miterlimit="10" stroke-width="2"/>
      <path id="Path-123" data-name="Path" d="M0,0,2.279,9.282" transform="translate(292.159 2.279)" fill="none" stroke="#6a9c78" stroke-linecap="round" stroke-miterlimit="10" stroke-width="2"/>
      <path id="Path-124" data-name="Path" d="M0,0,2.279,9.273" transform="translate(295.978 0.774)" fill="none" stroke="#6a9c78" stroke-linecap="round" stroke-miterlimit="10" stroke-width="2"/>
      <path id="Path-125" data-name="Path" d="M0,0,2.279,9.282" transform="translate(300.148 0)" fill="none" stroke="#6a9c78" stroke-linecap="round" stroke-miterlimit="10" stroke-width="2"/>
    </g>
    <g id="Group-7" data-name="Group" transform="translate(553.45 444.591)">
      <path id="Path-126" data-name="Path" d="M.215,6.959a2.305,2.305,0,0,0,3.246.985L8.037,5.3A2.305,2.305,0,0,0,8.82,2.067l-.642-1A2.314,2.314,0,0,0,4.658.616L.726,4.3a2.314,2.314,0,0,0-.51,2.657Z" transform="translate(0 35.507)" fill="#6a9c78"/>
      <path id="Path-127" data-name="Path" d="M.119,3.625a1.188,1.188,0,0,0,1.68.51L4.166,2.754a1.2,1.2,0,0,0,.4-1.68L4.245.554A1.2,1.2,0,0,0,2.416.326L.374,2.235a1.2,1.2,0,0,0-.255,1.39Z" transform="translate(10.09 32.084)" fill="#6a9c78"/>
      <path id="Path-128" data-name="Path" d="M.441,8.073a2.305,2.305,0,0,0,3.37.361L7.805,4.915a2.314,2.314,0,0,0,.158-3.326L7.136.709A2.305,2.305,0,0,0,3.617.938L.45,5.337A2.323,2.323,0,0,0,.441,8.073Z" transform="translate(179.505 4.656)" fill="#6a9c78"/>
      <path id="Path-129" data-name="Path" d="M.248,4.2a1.2,1.2,0,0,0,1.76.185L4.075,2.576A1.2,1.2,0,0,0,4.154.817L3.723.368a1.2,1.2,0,0,0-1.83.123L.248,2.752a1.188,1.188,0,0,0,0,1.452Z" transform="translate(188.233 0)" fill="#6a9c78"/>
    </g>
  </g>
</svg>
