<svg viewBox="0 0 1000 1000" xmlns="http://www.w3.org/2000/svg"><ellipse cx="500" cy="836.39" fill="#e2e2e2" rx="415.02" ry="60.71"/><ellipse cx="499.28" cy="818.69" fill="#7fc2c9" rx="277.57" ry="60.71"/><path d="m221.71 613.69h555.14v205.01h-555.14z" fill="#7fc2c9"/><path d="m307.29 410.69 107.51 50.95-25.41 19.73-111.47-39.3z" fill="#ca754f"/><ellipse cx="499.28" cy="613.69" fill="#acdbdf" rx="277.57" ry="60.71"/><ellipse cx="499.28" cy="599.27" fill="#7fc2c9" rx="219.68" ry="33.63"/><path d="m440 581.57 58.29 11.31s51.89-22.2 57.65-26.68 74.95-108.9 74.95-108.9l-23.06-3.21-110.83 12.81s-108.9 1.29-109.54 3.21-19.86 24.07-19.86 24.07z" fill="#37456a"/><path d="m621.68 446s-18.49-46.74-43.17-80.2l6 81.73h-166.17l-11.52-93.25s-17.51 39.22-35.92 86.53l-65.9 46.64-9.5 6.73-2.11-6.18-15.47-45.94s18.68-128.36 68.44-190.06c27.91-34.63 61.78-53 85.6-62.41 17.76-7 29.92-9 29.92-9h64.54a284.71 284.71 0 0 1 34.17 12.92c22.27 9.93 51.08 25.77 72.62 48.16 32.06 33.37 46.18 91.3 51.66 147.25z" fill="#9692af"/><path d="m628.29 416.12-57.67 42.28 28.84 10.94 59.4-27.97 13.88-25.25z" fill="#dea379"/><path d="m728.25 504.22c-17 22.9-45.92 44.4-89.57 60.4-47.65 17.46-84 29.82-108.84 37.94-26.78 8.75-40.26 12.59-40.26 12.59l-10.44-20.87-.38-.77.58-.59 2.81-2.94c2.92-3.1 7.61-8.07 13.56-14.48 3.32-3.58 7-7.61 11.05-12 21.76-23.79 52.47-58.33 78.19-90.92 9.08-11.51 17.53-22.77 24.73-33.23 43.29-62.76 97.41-73.9 125.68-29.63 16.85 26.37 17.06 61.85-7.11 94.5z" fill="#69779b"/><path d="m489.57 615.15-35.74 35.63c-8.52 8.49-22.7-.21-19-11.65l11.17-34.48a17 17 0 0 1 16.86-11.76l15.86.62z" fill="#cf3e3e"/><path d="m539.3 609.87-7.34 23h-.06c-1.94-.24-53.65-6.69-155.08-26.77-110.57-21.87-140.91-89.21-119.54-138a67.75 67.75 0 0 1 8.12-14 51.87 51.87 0 0 1 12.6-11.92c20-13.31 48.08-10.25 77.57 9.52a183.9 183.9 0 0 1 30.43 26.17c15.68 16.52 35.69 35 56 52.68 18.63 16.25 37.52 31.89 53.65 44.93 4.11 3.33 8 6.49 11.73 9.43 9.12 7.29 16.84 13.34 22.4 17.65l5 3.9c2.94 2.21 4.52 3.41 4.52 3.41z" fill="#69779b"/><path d="m532 632.92 40.83 29.64c9.74 7.07 22.4-3.72 17-14.45l-16.4-32.33a17 17 0 0 0 -18.48-9l-15.58 3.07z" fill="#cf3e3e"/><path d="m601.7 398.68c-11.28-15.74-25.87-27.2-44.46-27.38-26.56-.29-44.7 14.81-60.84 32.45a10 10 0 0 0 10.85 4.35 12.68 12.68 0 0 0 5-2.46 21.16 21.16 0 0 1 1 4.76c1.06 11.79-7.26 23.4-18.63 25.89a18 18 0 0 1 -19.62-8.07c-12.61 13.95-25.84 25.76-43 28.68-48.17 8.18-56-66.16-56-66.16l-1-37.05-.14-5.07a10.5 10.5 0 0 1 10-10.76l139.3-7 65.33-3.28h.83a10.49 10.49 0 0 1 10.19 10.29z" fill="#6b7b8e"/><path d="m560.63 193.46s-23.72 48.54-69.33 46.44-59.3-50.36-59.3-50.36a191 191 0 0 1 22.25-7.27c3.27-.85 5.6-1.33 6.78-1.56l.89-.16h64.54s.57.16 1.65.5c1.72.52 4.71 1.48 8.69 2.88 6.04 2.13 14.34 5.29 23.83 9.53z" fill="#dea379"/><path d="m528.11 181c-.68 11.58-1.79 46.44-36.34 45.06-26.77-1.06-30.25-34.51-30.77-45.36l.89-.16h64.54s.57.16 1.68.46z" fill="#ca754f"/><path d="m527.06 133.69v31.41 1l-.55 11.72a50.75 50.75 0 0 1 -14.82 33.5 24 24 0 0 1 -31.34 2.25 21.45 21.45 0 0 1 -2.22-1.86l-.85-.8a50.76 50.76 0 0 1 -15.72-36.73v-38.36l7.32-14 36.41-3.82 6.83-.73z" fill="#f9b282"/><path d="m529.06 153.7c-.9 7.07-2 12.39-2 12.39l-4.62-6.39-.32-.45s2.52-25.2-4.12-29.25c-8-4.91-9.17 6.6-22.41 6.82-5.83.1-10.81-3.19-15.26-5.76-4.82-2.79-9-4.74-12.88-.64-7.48 7.9-1.71 25-1.71 25l-2 2.9-2.2 3.13v9.75a121.32 121.32 0 0 1 -4.34-17.48c-6.52-39.37 17-50.22 37.11-50.78a36.93 36.93 0 0 1 17 3.29c11.48 5.4 17.42 16.51 18.47 26.34.69 6.65.08 14.63-.72 21.13z" fill="#e37070"/><path d="m533 160.3c-1.49 6.83-3.6 18.12-6.49 17.49l.55-11.72s1.14-5.32 2-12.39c-.01.02 5.39-.2 3.94 6.62z" fill="#f9b282"/><path d="m461.51 171.19v6.62c-3.64-2.19-8.19-14.51-8.19-18 0-6.31 3.85-6.13 3.85-6.13a123.1 123.1 0 0 0 4.34 17.51z" fill="#e89862"/><path d="m496.4 403.74c-7.36 8-14.3 16.59-21.43 24.47a20.15 20.15 0 0 1 -2.83-8.73c-1.08-11.81 7.26-23.41 18.61-25.92a19.6 19.6 0 0 1 4.76-.44 12.94 12.94 0 0 0 -.78 5.63 11 11 0 0 0 1.67 4.99z" fill="#ccc"/><path d="m490.37 389.37a8.39 8.39 0 0 0 .26 1.36 9 9 0 0 0 1.35-.16 10.61 10.61 0 0 0 8-11.1 8.83 8.83 0 0 0 -.26-1.36 9 9 0 0 0 -1.35.16 10.61 10.61 0 0 0 -8 11.1z" fill="#ccc"/><path d="m480.3 213.55a21.45 21.45 0 0 1 -2.22-1.86l-.85-.8a50.76 50.76 0 0 1 -15.72-36.73v-12.73l2.2-3.13 2-2.9s-5.77-17.07 1.71-25c3.88-4.1 8.06-2.15 12.88.64-.45 0-9.25-.5-10.54 7.27-1.33 8 9.87 18.28 9.5 29.44s-18.69 24.14 1.04 45.8z" fill="#e89862"/><path d="m505.29 118a19.64 19.64 0 0 1 -6.83 2.74c-14 3-19.51 5.59-18.11 10.38-4.82-2.79-9-4.74-12.88-.64-7.48 7.9-1.71 25-1.71 25l-2 2.9-2.2 3.13v9.75a121.32 121.32 0 0 1 -4.34-17.48c-6.52-39.37 17-50.22 37.11-50.78a36.93 36.93 0 0 1 17 3.29 13.15 13.15 0 0 1 -6.04 11.71z" fill="#cf3e3e"/><path d="m360.72 267c-17.83 43.14 23.82 61.86 10.18 173.88l-15.37 10.82c-29.53-19.77-57.53-22.83-77.53-9.52v-.11s18.6-128.37 68.36-190.07c27.91-34.63 61.78-53 85.6-62.41-1.63 1.01-53.69 34.9-71.24 77.41z" fill="#646083"/><path d="m590.32 327.57h-.83l-65.33 3.28a204.27 204.27 0 0 0 37.91-47.76 10.49 10.49 0 0 1 18.76.91 115.14 115.14 0 0 1 9.49 43.57z" fill="#8381a5"/><path d="m494.66 436.29a18 18 0 0 1 -19.66-8.08c7.13-7.88 14.07-16.44 21.43-24.47a10 10 0 0 0 10.85 4.35 12.55 12.55 0 0 0 5-2.46 21.16 21.16 0 0 1 1 4.76c1.07 11.8-7.28 23.4-18.62 25.9z" fill="#a8a8a8"/><path d="m602.91 461.35a9 9 0 0 1 -.1 1.65 10.51 10.51 0 0 1 -9.73 9l-203.77 13.2a10.52 10.52 0 0 1 -11.18-10.2l-2.13-84.26s7.82 74.34 56 66.16c17.17-2.92 30.4-14.73 43-28.68a18 18 0 0 0 19.69 8.07c11.37-2.49 19.69-14.1 18.63-25.89a21.16 21.16 0 0 0 -1-4.76 12.68 12.68 0 0 1 -5 2.46 10 10 0 0 1 -10.85-4.35c16.14-17.64 34.28-32.74 60.84-32.45 18.59.18 33.18 11.64 44.46 27.38z" fill="#495560"/><path d="m531.9 632.91c-1.94-.24-53.65-6.69-155.08-26.77-110.57-21.87-140.91-89.21-119.54-138a67.75 67.75 0 0 1 8.12-14s-23.94 78 29.49 90.18c43.73 10 99.08-2.08 131.17 39.15 29.09 37.35 103.65 48.9 105.84 49.44z" fill="#4a5a7f"/><path d="m728.25 504.2c-17 22.9-45.92 44.4-89.57 60.4-47.66 17.46-84 29.82-108.85 37.94-7.83-6.04-19.89-15.54-34.13-27.06 3.32-3.58 7-7.61 11.05-12 0 .01 118.6 26.6 221.5-59.28z" fill="#4a5a7f"/><path d="m584.94 472.57c-25.72 32.59-56.43 67.13-78.19 90.92-4 4.38-7.73 8.41-11.05 12-16.13-13-35-28.68-53.65-44.93 81.95 3.62 142.88-58 142.88-58z" fill="#2d3954"/></svg>