<svg viewBox="0 0 1000 1000" xmlns="http://www.w3.org/2000/svg"><path d="m560.53 637.1 76.22-90.63-6.82-38.6-4.69-3.13 7.4-6.18-9.79-63.12 20.28-1.72 19.62-38.94 13-49.82 2.82-28-2.34-13.62 5.71-6.58-3.37-11.84-36.31-15.22-32.17-17.88-.39-7.3-11.49-25.91s17.72-35.43 20.57-38.86 12.62-32.29 12.62-32.29l-11.89-11.36-22.51-3.95-30.81 27.42-5.7 24 14.7 24.43 4.58 19.24-13.54 1.37-1.8 2-9-4.21-39.19 93.74 1.76 43.04 5.89 6.71-4.68 4.93 8.2 34-14.52 39.36-20 1.7v28.61l-29.77 7.07 6.46 109.15z" fill="#efa08d"/><path d="m857.45 351.77a11.28 11.28 0 0 1 -14.84 10.71l-18.79-6.26c-16.23-2.12-19.51-15.85-18.17-20 1-3.22 18.7-2.74 25.46-1.65l18.79 6.59a11.27 11.27 0 0 1 7.55 10.61z" fill="#018790"/><path d="m710.21 293.24-4.44 11.58s9.69 29.75 14.52 32.1 23.61 30.63 27.46 27.87 42.25-21.53 43.45-28.29 1.1-29.15-1-31.68-13-26-18.07-25.46-45.67 0-49.11 5.55-12.81 8.33-12.81 8.33z" fill="#0a516d"/><path d="m467.94 224.59a11.48 11.48 0 0 1 -.61 2.26 12.48 12.48 0 0 1 -3.37 4.89l-5.6 7.93-5.63-6.48-18.58-23.38z" fill="#efa08d"/><path d="m403.46 187.06c2.44 1.11 6.48 3.67 6.38 4.06l-2.89-.75c-.58 2.24 3.56 4.13 2.84 6.37s-7.37 4.23-10.81 4.6l-9.21-3.11c-4.94-2.37-5.1-7.95-4.28-10.52.72-2.24 5.47-5.86 8.92-3.78z" fill="#016972"/><path d="m232.13 155.25 10.76-31.48 27.77 1.46s69.94-19.38 69.42-16.76 2.62 29.59 5 36.93 4.19 29.07-2.88 37.46-19.38 25.69-33.26 24.24-35.1-.9-44-5.76-32.81-46.09-32.81-46.09z" fill="#0a516d"/><ellipse cx="545.48" cy="917.46" fill="#e2e2e2" rx="254.13" ry="19.74"/><path d="m631.37 147.47a26.6 26.6 0 0 0 -16.13-7c-12.09-.6-13.6 7.36-13.45 12.1a6 6 0 0 1 -2.74 5.22 32.51 32.51 0 0 0 -9 8.72 33 33 0 0 0 -4.35 8.82 1.2 1.2 0 0 1 -2.22.16c-1.27-2.62-3.68-5.56-8-5.23-10.89.84-8.38 14.86-2.48 20.15a14.45 14.45 0 0 1 3.32 4.31 12.23 12.23 0 0 1 -.36 11.44l-.79 1.82c-16.26-7.63-22.06-28.73-18.22-45.86a25.16 25.16 0 0 1 3.25-7.43c6.34-10.32 20.38-22.08 35.33-25.07a34.34 34.34 0 0 1 10.79-.5h.25c7.52 1 14.85 4.75 21.14 12.66a34.56 34.56 0 0 1 3.66 5.69z" fill="#f77754"/><path d="m595.55 129.64c-8.71 1.74-17.11 6.46-23.85 12.14a55.43 55.43 0 0 0 -11.48 12.93 11.67 11.67 0 0 1 -4.39-4.91c-6-11.7 4.94-28.33 18.83-31.69a21.37 21.37 0 0 1 3.89-.58c11.58-.62 15.61 6.63 17 12.11z" fill="#f77754"/><path d="m632.33 204.81a14.37 14.37 0 0 1 -18.67 9.94l-.63-.22c-.46 4-1.29 11.47-2.1 18.66-.45 4.08-.9 8.09-1.26 11.34a200 200 0 0 0 -33.17-13.15c-3.43-1-6.87-2-10.27-2.76l9-20.61.79-1.82a12.23 12.23 0 0 0 .36-11.44 14.45 14.45 0 0 0 -3.32-4.31c-5.9-5.29-8.41-19.31 2.48-20.15 4.31-.33 6.72 2.61 8 5.23a1.2 1.2 0 0 0 2.22-.16 32.72 32.72 0 0 1 13.34-17.54 6 6 0 0 0 2.74-5.22c-.15-4.74 1.36-12.7 13.45-12.1a26.6 26.6 0 0 1 16.13 7c8.84 17.09 4.92 41.7.91 57.31z" fill="#efa08d"/><path d="m643.13 433.72a302.84 302.84 0 0 1 -10.49 64.84c-15.24 2.08-35.11 2.5-59.48-1.6a130.3 130.3 0 0 1 -80.33-47.1c11.58-12.14 21.4-23.78 24.46-42.11a147.53 147.53 0 0 0 1.9-32.93c5.74-.27 17.67-.67 32.39-.37 27.41.56 64.52 3.6 89.5 14.62 0 0 3.4 16.86 2.05 44.65z" fill="#efa08d"/><path d="m632.64 498.56c-.83 3.05-1.72 6.16-2.68 9.3-1.31.59-43.3 19.68-60.38 60.08a89 89 0 0 0 -6.19-10.51 161.33 161.33 0 0 0 -22-26.14 185 185 0 0 0 -19.91-16.65 205.58 205.58 0 0 0 -58.35-29.11c9.2-15 20.1-25.53 29.77-35.68a130.3 130.3 0 0 0 80.26 47.15c24.37 4.06 44.24 3.64 59.48 1.56z" fill="#f77754"/><path d="m569.55 568s-2.95 31.24-9 69.15c-6.78 42.3-17.46 92.9-32.3 117.63-28.15 46.84-117.77 143.81-117.77 143.81l-9.48 9.78-8.11-9.78s19.15-44.87 22.79-87.07 26.05-83.88 61-95.34c0 0-41.82-114.7-31.78-178.7 3.53-22.53 10.23-38.93 18.19-51.94 36.24 11.58 61.48 29.56 78.26 45.76 20.28 19.62 28.2 36.7 28.2 36.7z" fill="#efa08d"/><path d="m524.87 229.08c.6 9.21-7.57 12.45-14.27 9.91l-13.78-4.65-28.88-9.75-30.87-10.41-38.07-12.84c.81-2.09 1.55-4.22 2.24-6.38s1.37-4.49 1.95-6.73c.1-.39.2-.77.29-1.16l109.57 37.93z" fill="#018790"/><g fill="#efa08d"><path d="m553.85 340.84c-18.85 17.67-35.85 22.34-35.85 22.34-.54.46-38.05 32.85-59.74 27.37-21.84-5.53-23.14-45.76-20.58-78.15 1-13 3.66-28.3 6.44-42 3.11-15.32 6.42-28.6 7.88-34.29.48-1.89.76-2.94.76-2.94l5.82-.75 5.41-.7 9.1 55.77a225.12 225.12 0 0 1 24.86-35.65 129 129 0 0 1 12.65-12.84 72.15 72.15 0 0 1 14.27-9.91c6-3.05 12.19-4.71 18.36-4.24 3.9.3 8 .82 12.16 1.54a98.34 98.34 0 0 1 18.08 33.82 90.61 90.61 0 0 1 3.77 21.1c1.21 21.36-5.62 42.92-23.39 59.53z"/><path d="m679.27 898.59-8.95 8.61-8.63-8.61s4.58-58.17-16.09-92.76c-11-18.38-14.68-41.6-14.82-61.16-.14-17.25 2.48-31.67 5.28-37.44a489.42 489.42 0 0 1 -38.12-31.69 433.28 433.28 0 0 1 -37.41-38.44c6.07-37.91 9-69.15 9-69.15 6.15-14.53 15.51-26.3 25.05-35.45a137.9 137.9 0 0 1 35.42-24.64s64 96.74 72.15 166.74-22.88 223.99-22.88 223.99z"/><path d="m644.12 347.83-10.12-.24c-3.52-41.41-28.3-39.18-44.41-68.9q-.69-1.26-1.35-2.61c-.83-1.68-1.64-3.45-2.41-5.34a.11.11 0 0 1 0-.08q-1.14-2.79-2.18-5.91c-.15-.44-.29-.87-.44-1.3a161.49 161.49 0 0 0 -6.7-16.52 148.91 148.91 0 0 0 -10.2-18.32c3.4.81 6.84 1.74 10.27 2.76a200 200 0 0 1 33.17 13.15c14.1 7.18 25.81 15.64 31.89 24.23.22.32.45.63.66.95 2.73 3.91 5.39 8 7.92 12.07.42 1.5.81 3.06 1.16 4.67a112.43 112.43 0 0 1 2.56 22.7c.33 25.17-9.82 38.69-9.82 38.69z"/></g><path d="m678.54 317s0 81.26-20.38 109.28c-4.31 5.92-10.43 7.36-15 7.47 1.35-27.79-2-44.65-2-44.65s27.81-14.13 30-42.31c.74-9.34-.94-19.48-4.26-29.79z" fill="#ed8b7b"/><path d="m388.26 192.32c-16.68 52-71.87 81.41-109.44 69.34-1.33-.43-2.7-.7-4-1.13-35.15-11.27-52.69-56.66-42.65-105.28l.26.09 49.16 16.38c.72 10.89 6 19.8 14.49 22.52 12.41 4 27-6.8 32.5-24.08s0-34.51-12.44-38.49c-8.26-2.65-17.48 1.24-24.34 9.24l-48.87-17.14-.29-.1c20.47-43.84 60.27-69.34 94.76-58.29 1.33.43 2.63.9 3.91 1.42 35.69 9.89 63.62 73.49 46.95 125.52z" fill="#0a516d"/><path d="m328.54 170.16c-4.6 14.35-15.4 24.21-26 24.87a17.32 17.32 0 0 1 -6.46-.79c-8.48-2.72-13.77-11.63-14.49-22.52l19.61 6.54c6.07 1.94 13.19-3.33 15.9-11.78a21.32 21.32 0 0 0 1-7c-.12-5.71-2.76-10.46-7.12-11.86l-19.22-6.74c6.86-8 16.08-11.89 24.34-9.24 12.41 4.01 17.98 21.24 12.44 38.52z" fill="#018790"/><path d="m394.41 183.92c-.58 2.24-1.23 4.49-2 6.73-.82 2.57-1.72 5.1-2.69 7.57-19.25 49.31-65.64 78.12-106.73 64.94-1.43-.46-2.84-1-4.22-1.51 37.76 8.93 80.64-24.21 97.32-76.24s1.12-103.9-34.79-118.6c1.44.35 2.88.76 4.31 1.22 41.39 13.26 62.39 64.23 48.8 115.89z" fill="#053750"/><path d="m825.31 327.26c-.74 3.33-3.27 12.74-4.34 16.08-1.32 4.12-1.48 14.81-3.2 18.6-11.12 24.65-35.07 33.86-54.77 39.13-7.39 2-16.43.57-23.7-1.16-1-.25-2.06-.53-3.09-.86-30.37-9.74-44-51.91-30.43-94.19l.14.05 37 12.49c-4.07 13.38.31 26.59 9.92 29.68 4.49 1.44 9.33.41 13.68-2.44a26.4 26.4 0 0 0 6-5.48 34.93 34.93 0 0 0 7.48-22.53c-.29-9-4.5-16.47-11.42-18.69-5.54-1.78-11.62.19-16.63 4.71a29.4 29.4 0 0 0 -3.51 3.83l-38.05-13.17-.21-.07c15.84-35.36 47.6-56.12 75.08-47.32 1.05.34 2.08.71 3.09 1.12 25.91 10.61 45.23 42.96 36.96 80.22z" fill="#0a516d"/><path d="m831.11 334.55q-1 4.83-2.58 9.67a101.41 101.41 0 0 1 -4.71 12c-16.39 35-50.63 54.69-81.16 44.9-1.15-.37-2.28-.77-3.38-1.21 26.66 6.36 56.59-14 71.87-47.92a109.89 109.89 0 0 0 4.57-11.88q1.6-5 2.71-10c8.27-37.27-4.17-72.45-30-83.05 1.12.28 2.24.59 3.36.95 31.26 9.99 47.69 47.55 39.32 86.54z" fill="#053750"/><path d="m831.11 334.55q-1 4.83-2.58 9.67a101.41 101.41 0 0 1 -4.71 12c-16.39 35-50.63 54.69-81.16 44.9-1.15-.37-2.28-.77-3.38-1.21 26.66 6.36 56.59-14 71.87-47.92a109.89 109.89 0 0 0 4.57-11.88q1.6-5 2.71-10c8.27-37.27-4.17-72.45-30-83.05 1.12.28 2.24.59 3.36.95 31.26 9.99 47.69 47.55 39.32 86.54z" fill="#053750"/><path d="m317.06 166.48c-2.71 8.45-9.83 13.72-15.9 11.78l-3.07-1-16.54-5.52-49.16-16.38-.26-.09-77.77-25.92a17.27 17.27 0 1 1 11.18-32.69l77.06 27 .29.1 48.87 17.14 19.24 6.75c6 1.95 8.77 10.35 6.06 18.83z" fill="#018790"/><path d="m172.28 117.63a17.27 17.27 0 0 1 -19.94 10.87c-.38-.18-.75-.38-1.11-.58a19.19 19.19 0 0 1 -2-1.38 17.17 17.17 0 0 1 -2.6-2.51c-.25-.3-.48-.61-.71-.92s-.45-.64-.66-1a17.31 17.31 0 0 1 -2.44-6.55c0-.16-.05-.32-.06-.48a15 15 0 0 1 -.14-2.13 17.13 17.13 0 0 1 .76-5.07c.07-.23.15-.46.23-.69a4.09 4.09 0 0 1 .18-.49c.11-.29.22-.57.35-.84l.3-.65a16.31 16.31 0 0 1 1.14-1.95l.31-.44c.27-.38.55-.73.85-1.08q.21-.26.45-.51c.15-.17.31-.33.47-.49l.49-.47a12.4 12.4 0 0 1 1-.88c.17-.14.35-.28.54-.41s.49-.35.74-.51l.38-.24a15.28 15.28 0 0 1 1.43-.79 17.19 17.19 0 0 1 11.32-1.36 17.22 17.22 0 0 1 7.26 6.55 17.2 17.2 0 0 1 1.46 15z" fill="#016972"/><path d="m778.37 328.14a33.78 33.78 0 0 1 -5.85 11c-5.44 6.72-12.95 10.07-19.65 7.92-9.61-3.09-14-16.3-9.92-29.68l.43.14 7.5 2.53a1.64 1.64 0 0 0 2.12-1.05l2.59-8.34a1.64 1.64 0 0 0 -1-2l-6.06-2.1c5.47-7.14 13.22-10.76 20.14-8.54s11.13 9.69 11.42 18.69a34.11 34.11 0 0 1 -1.72 11.43z" fill="#018790"/><path d="m755.63 310.13a1.66 1.66 0 0 1 -.07.49l-2.56 8.38a1.64 1.64 0 0 1 -2.09 1.07l-7.5-2.53-.43-.14-37-12.49-.14-.05-23.86-8.05-19.57-6.6-9-3.05q-1.53-2.69-3.15-5.34c-2.53-4.12-5.19-8.16-7.92-12.07l4.21 1.46 7.94 2.74 32.71 11.33 23.12 8 .21.07 38.05 13.17 6.06 2.1a1.63 1.63 0 0 1 .99 1.51z" fill="#018790"/><path d="m472.08 210.26a4.89 4.89 0 0 1 0 .54 5.23 5.23 0 0 1 -1.19 2.8 6.89 6.89 0 0 1 -6.93 2.23l-8-2a19.22 19.22 0 0 1 -13.11-11.34 3.12 3.12 0 0 1 -.24-1.19 3.82 3.82 0 0 1 .07-.68 3.26 3.26 0 0 1 1-1.72 3.14 3.14 0 0 1 3-.59l.55.18 21.27 6.85a5.17 5.17 0 0 1 3.58 4.92z" fill="#efa08d"/><path d="m683.86 282.52a5.31 5.31 0 0 1 -1.23 3.34 6.37 6.37 0 0 1 -1.37 1.23 6.84 6.84 0 0 1 -5.55 1l-8-2a19.18 19.18 0 0 1 -13.1-11.34 2.88 2.88 0 0 1 -.21-.84 2.07 2.07 0 0 1 0-.35 3.15 3.15 0 0 1 4.1-3l21.82 7a5.14 5.14 0 0 1 3.59 4.91z" fill="#efa08d"/><g fill="#f77754"><path d="m717.07 919.28a5.3 5.3 0 0 1 -5.34 4.43h-50a6.88 6.88 0 0 1 -6.37-9.48l6.33-15.56v-.08h17.58l34.58 14.67a5.3 5.3 0 0 1 3.22 6.02z"/><path d="m447.78 920.75a5.21 5.21 0 0 1 -4.84 3h-50a6.52 6.52 0 0 1 -1.55-.18 6.88 6.88 0 0 1 -4.82-9.3l6.36-15.64h17.58l34.58 14.67a5.38 5.38 0 0 1 2.69 7.45z"/><path d="m671.26 343.24c0 1.18-.06 2.36-.16 3.52-2.21 28.18-30 42.31-30 42.31-25-11-62.09-14.06-89.5-14.62-4.69-.1-9.11-.12-13.12-.1-8.58 0-15.36.29-19.27.47-.24-4.19-.67-8.07-1.22-11.63s17-4.67 35.87-22.34c17.77-16.61 24.6-38.17 23.41-59.52a90.61 90.61 0 0 0 -3.77-21.1 98.34 98.34 0 0 0 -18.08-33.82c3.55.61 7.17 1.35 10.83 2.23a148.91 148.91 0 0 1 10.2 18.32 161.49 161.49 0 0 1 6.7 16.52c.15.43.29.86.44 1.3 15 45.05 46.39 35.85 50.38 82.84l10.17.24s10.15-13.52 9.75-38.68a112.43 112.43 0 0 0 -2.56-22.7c-.35-1.6-.74-3.16-1.15-4.65 1.08 1.76 2.12 3.52 3.13 5.3a158.83 158.83 0 0 1 13.53 29.87 82.21 82.21 0 0 1 4.42 26.24z"/></g><path d="m681 311.27a36.48 36.48 0 0 1 -2.45 5.7h-11.7a158.83 158.83 0 0 0 -13.53-29.85l28.6 9.65a15.32 15.32 0 0 1 .66 3.06 27 27 0 0 1 -1.58 11.44z" fill="#efa08d"/><path d="m492.83 654.31c7.23 118.45-77.15 161.43-89.73 235.85a54.54 54.54 0 0 0 -.8 8.43h-9.4s19.15-44.87 22.79-87.07 26.05-83.88 61-95.34c0 0-41.82-114.7-31.78-178.7 3.53-22.53 10.23-38.93 18.19-51.94 36.24 11.58 61.48 29.56 78.26 45.76-15.78 23.41-53.36 43.37-48.53 123.01z" fill="#ed8b7b"/><path d="m541.3 487.35a130.62 130.62 0 0 1 -48.47-37.49c11.58-12.14 21.4-23.78 24.46-42.11a147.53 147.53 0 0 0 1.9-32.93c5.74-.27 17.67-.67 32.39-.37-19.37 29.38-35.08 63.26-10.28 112.9z" fill="#ed8b7b"/><path d="m541.32 531.3c-16.78-16.2-42-34.18-78.26-45.76 9.2-15 20.1-25.53 29.77-35.68a130.62 130.62 0 0 0 48.47 37.49c10.16 20.33 7.7 32.55.02 43.95z" fill="#f3593a"/><path d="m553.85 340.84c-18.85 17.67-35.85 22.34-35.85 22.34-.54.46-38.05 32.85-59.74 27.37-21.84-5.53-23.14-45.76-20.58-78.15 1-13 3.66-28.3 6.44-42-.2 1.57-17.71 146.51 63.33 69.35a15.68 15.68 0 0 1 12.19-4.25c16.23 1.42 55.73-.67 57.65-54.21 1.16 21.38-5.67 42.94-23.44 59.55z" fill="#ed8b7b"/><g fill="#f3593a"><path d="m569.55 568s-7.92-17-28.23-36.65a185 185 0 0 0 -19.91-16.65l6.77-9.91s26.04 17.68 41.37 63.21z"/><path d="m629.93 507.87c-1.31.59-43.3 19.68-60.38 60.08a89 89 0 0 0 -6.19-10.51l.75-3.59s23.09-36.14 65.82-45.98z"/><path d="m637.72 368.84c-23.55.7-28.21-29.13-55.88-28.59a5.75 5.75 0 0 1 -5.57-7.56c9-27 1.26-50.57 1-51.37 1.19 21.35-5.64 42.91-23.41 59.52-18.86 17.67-35.86 22.34-35.86 22.34.55 3.56 1 7.44 1.22 11.63 3.92-.19 10.73-.43 19.34-.47h5.41 1.91.8 2.1l2.83.05c27.41.56 64.52 3.6 89.5 14.62 0 0 27.81-14.13 30-42.31.1-1.16.15-2.34.16-3.52-.2.82-6.56 24.82-33.55 25.66z"/><path d="m644.12 347.83s10.15-13.52 9.75-38.68a112.43 112.43 0 0 0 -2.56-22.7c-.35-1.6-.74-3.16-1.15-4.65.7 1.33 12.9 39.88-1 65.14a3.27 3.27 0 0 1 -5.04.89z"/></g><g fill="#ed8b7b"><path d="m497.93 251.83-11.36 52.76a5.32 5.32 0 0 1 -10.44-.17l-3.07-16.91a225.12 225.12 0 0 1 24.87-35.68z"/><path d="m613 214.53c-.46 4-1.29 11.47-2.1 18.66l-10.25-17.59a3.55 3.55 0 0 1 4.66-5z"/><path d="m588.19 276.08a21.94 21.94 0 0 1 1.35 2.61q-.69-1.26-1.35-2.61z"/><path d="m601.49 191.15c-12 11.36-32.25 16.85-25 40.22 7.94 21.16 6.53 30.78 9.25 39.28q-1.14-2.79-2.18-5.91c-.15-.44-.29-.87-.44-1.3a161.49 161.49 0 0 0 -6.7-16.52 148.91 148.91 0 0 0 -10.2-18.32l9-20.61.79-1.82a12.23 12.23 0 0 0 .36-11.44 14.45 14.45 0 0 0 -3.32-4.31c-5.9-5.29-8.41-19.31 2.48-20.15 4.31-.33 6.72 2.61 8 5.23a1.2 1.2 0 0 0 2.22-.16 32.72 32.72 0 0 1 13.34-17.54 6 6 0 0 0 2.74-5.22c-.15-4.74 1.36-12.7 13.45-12.1 0 0-13 4.95-7.22 20.19s4.42 20.04-6.57 30.48z"/></g><path d="m564.4 136.1c.4 4.7 3.6 5.91 7.3 5.68a55.43 55.43 0 0 0 -11.48 12.93 11.67 11.67 0 0 1 -4.39-4.91c-6-11.7 4.94-28.33 18.83-31.69-5.06 4.55-10.84 11.29-10.26 17.99z" fill="#f3593a"/><path d="m586.21 140.46c-4.64 11.82 1.82 16 3.85 26.07a33 33 0 0 0 -4.35 8.82 1.2 1.2 0 0 1 -2.22.16c-1.27-2.62-3.68-5.56-8-5.23-10.89.84-8.38 14.86-2.48 20.15a14.45 14.45 0 0 1 3.32 4.31 12.23 12.23 0 0 1 -.36 11.44l-.79 1.82c-16.26-7.63-22.06-28.73-18.22-45.86a25.16 25.16 0 0 1 3.25-7.43c6.34-10.32 20.38-22.08 35.33-25.07a34.34 34.34 0 0 1 10.79-.5c-1.59-.14-15.6-.22-20.12 11.32z" fill="#f3593a"/><g fill="#ed8b7b"><path d="m597.94 675.54a433.28 433.28 0 0 1 -37.41-38.44c6.07-37.91 9-69.15 9-69.15 6.15-14.53 15.51-26.3 25.05-35.45-.31 1.23-17.24 64.27 3.36 143.04z"/><path d="m645.9 731.8-15.12 12.87c-.14-17.25 2.48-31.67 5.28-37.44l9.69 7.95a10.83 10.83 0 0 1 .15 16.62z"/><path d="m681 311.27a36.48 36.48 0 0 1 -2.45 5.7h-11.7a158.83 158.83 0 0 0 -13.53-29.85l28.6 9.65a15.32 15.32 0 0 1 .66 3.06l-15.65-4.32a.79.79 0 0 0 -.8 1.29 22.81 22.81 0 0 1 4.72 8.46 11.49 11.49 0 0 0 2.58 4.29c1.68 1.73 4.3 3.3 7.57 1.72z"/><path d="m669.11 283.9c5.76 1.33 9.69 2.43 12.15 3.19a6.84 6.84 0 0 1 -5.55 1l-8-2a19.18 19.18 0 0 1 -13.1-11.34 2.88 2.88 0 0 1 -.21-.84 2.07 2.07 0 0 1 0-.35 3.15 3.15 0 0 1 4.1-3l21.82 7a5.18 5.18 0 0 1 3.14 2.8l-21.88-6.7a1.79 1.79 0 0 0 -2.26 2.19c.68 2.72 2.91 6.46 9.79 8.05z"/><path d="m470.86 213.6a6.89 6.89 0 0 1 -6.93 2.23l-8-2a19.22 19.22 0 0 1 -13.11-11.34 3.12 3.12 0 0 1 -.24-1.19 3.82 3.82 0 0 1 .07-.68 3.26 3.26 0 0 1 1-1.72 3.14 3.14 0 0 1 3-.59l.55.18c-.92.47-1.9 1.64-.31 4.45 2.5 4.41 4.32 5.66 8.83 7.31 5.17 1.88 11.59 5.33 15.14 3.35z"/><path d="m467.33 226.85c-2.52-.82-8.15-2.57-12.75-4a.77.77 0 0 0 -.7 1.34c2.48 1.95 4.75 4.7 4.67 8.25-.05 2.16-2.73 3.24-6.58 3.69.48-1.89.76-2.94.76-2.94l-14.91-18.76 30.12 10.16a11.48 11.48 0 0 1 -.61 2.26z"/></g><g fill="#074760"><path d="m355.78 158.77c-7.44 75.59-103.15 48.64-77 102.89-1.36-.33-2.7-.7-4-1.13-35.15-11.27-52.69-56.66-42.65-105.28l.26.09 49.16 16.38c.72 10.89 6 19.8 14.49 22.52 12.41 4 27-6.8 32.5-24.08s0-34.51-12.44-38.49c-8.26-2.65-17.48 1.24-24.34 9.24l-48.87-17.14-.29-.1c20.47-43.84 60.27-69.34 94.76-58.29 0 0-49.71-1.15-58.54 43.06s84.4-25.26 76.96 50.33z"/><path d="m766.55 344.6c5.82 22.36 5.38 41.69-5.1 54.82a45 45 0 0 1 -22.17.49c-1-.25-2.06-.53-3.09-.86-30.37-9.74-44-51.91-30.43-94.19l.14.05 37 12.49c-4.07 13.38.31 26.59 9.92 29.68 4.54 1.4 9.38.37 13.73-2.48z"/><path d="m710.42 293.31-.21-.07c15.84-35.36 47.6-56.12 75.08-47.32 0 0-42 17.73-33.31 56.73a29.4 29.4 0 0 0 -3.51 3.83z"/></g><path d="m687.09 285.24c-1.15 2.86-3.73 7.29-9.42 7.33-5 0-11.14-4.66-15.33-2.4l-9-3.05q-1.53-2.69-3.15-5.34c-2.53-4.12-5.19-8.16-7.92-12.07l4.21 1.46 7.94 2.74a2.88 2.88 0 0 0 .21.84 19.18 19.18 0 0 0 13.1 11.34l8 2a6.88 6.88 0 0 0 6.92-2.24 4.91 4.91 0 0 0 1-1.82z" fill="#016972"/><path d="m524.87 229.08a72.15 72.15 0 0 0 -14.27 9.92l-13.78-4.65c3.53-4.07 7.2-7.93 10.58-11.31z" fill="#016972"/><path d="m151.23 127.92c.36.21.75.4 1.13.58-.36-.18-.77-.38-1.13-.58z" fill="#053750"/><path d="m298.09 177.24-16.54-5.52-49.16-16.38-.26-.09-77.77-25.92a17.53 17.53 0 0 1 -2-.83 17.26 17.26 0 0 0 18.45-25.86c.42.21 6.37 6.91 16.14 22.65 22.07 35.56 74.13 23.62 98.35 33.55 10.04 4.16 12.79 18.4 12.79 18.4z" fill="#03777a"/><path d="m314.76 182.66c-5.4 4.38-10.13 8.25-12.26 12.37a17.32 17.32 0 0 1 -6.46-.79c-8.48-2.72-13.77-11.63-14.49-22.52l19.61 6.54c6.07 1.94 13.19-3.33 15.9-11.78a21.32 21.32 0 0 0 1-7c.35.64 7.37 14.52-3.3 23.18z" fill="#016972"/><path d="m717.07 919.28a5.3 5.3 0 0 1 -5.34 4.43h-50a6.88 6.88 0 0 1 -6.37-9.48l6.33-15.56c-.51 1.38-7.06 19.76 3.68 20.55 9.28.68 41.34.22 51.7.06z" fill="#f3593a"/><path d="m402.3 898.9v-.31h-9.4l-6.36 15.64a6.88 6.88 0 0 0 4.82 9.3h.17l.54.1a7.58 7.58 0 0 0 .84.05h50a5.21 5.21 0 0 0 4.84-3h-23.45a21.91 21.91 0 0 1 -22-21.78z" fill="#f3593a"/><g fill="none" stroke="#0a516d" stroke-linecap="round" stroke-miterlimit="10" stroke-width="3"><path d="m422.07 901.42s-3.25 4-10.89 7"/><path d="m428.85 903.32s-3 4.18-10.39 7.69"/><path d="m435.4 905.71s-2.82 4.29-10.1 8.06"/><path d="m690.69 901.46s-3.26 4-10.9 6.95"/><path d="m697.47 903.36s-3 4.18-10.39 7.69"/><path d="m704 905.75s-2.82 4.29-10.11 8.06"/></g></svg>