<svg viewBox="0 0 1000 1000" xmlns="http://www.w3.org/2000/svg"><path d="m805.62 454.4q0 7.37-.46 14.61a5.49 5.49 0 0 1 0 .58v.84q-.52 7.51-1.53 14.87c0 .19 0 .39-.08.57q-.51 3.7-1.15 7.36c-.48 2.81-1 5.59-1.59 8.36 0 .19-.09.38-.12.57-.17.82-.35 1.62-.54 2.44a1.42 1.42 0 0 1 0 .2q-1.47 6.52-2.71 13.08c0 .19-.08.39-.11.57q-1.49 7.83-2.63 15.71l-.09.58c-.7 4.9-1.33 9.82-1.85 14.75 0 .32-.06.64-.1 1l-.06.57c-.54 5.22-1 10.47-1.32 15.71v.58c-.2 3-.34 5.93-.46 8.9-.09 2.27-.17 4.54-.22 6.82v.57c-.07 3.12-.12 6.24-.12 9.36q0 3.18 0 6.35v.57q.11 7.86.51 15.72a5.59 5.59 0 0 0 0 .57q.14 2.9.33 5.79c.17 2.56.36 5.16.58 7.73q.07 1.09.18 2.19v.57q.69 7.89 1.65 15.72c0 .2 0 .39.08.57.32 2.62.67 5.24 1 7.85.32 2.25.65 4.48 1 6.72.06.37.12.76.19 1.14a5.62 5.62 0 0 0 .09.57c.06.43.14.87.21 1.3s.15 1 .23 1.43c.45 2.76.84 5.52 1.18 8.32.18 1.56.36 3.12.51 4.67v.57q.71 7.77.77 15.71a5.42 5.42 0 0 1 0 .57v1.62q0 6.51-.49 12.92c0 .39 0 .8-.09 1.19v.57c-.31 3.92-.76 7.82-1.31 11.68-.19 1.35-.4 2.68-.63 4 0 .2-.05.38-.09.57-.4 2.39-.86 4.78-1.36 7.13q-.9 4.35-2 8.6c-.06.19-.1.38-.15.57-.28 1-.57 2.1-.87 3.14-.16.57-.32 1.13-.49 1.7-.28 1-.57 2-.88 2.93 0 .13-.07.26-.11.38-.31 1-.62 1.95-.94 2.92-.09.29-.18.57-.28.85-.6 1.78-1.22 3.54-1.87 5.3-.31.83-.62 1.64-.93 2.46-.18.49-.38 1-.57 1.47-.47 1.19-.95 2.37-1.46 3.54q-.21.54-.45 1.08c-.61 1.44-1.24 2.88-1.91 4.31q-1.38 3-2.86 6c-31.16 62.26-95.81 105.06-169.9 104.57a187.31 187.31 0 0 1 -44.08-5.49c-45.59-11.25-93.22-10.36-138.93.45a188.72 188.72 0 0 1 -214.66-104.49q-2.91-6.27-5.35-12.77l-.42-1.15q-1.12-3-2.14-6.15c-.87-2.61-1.67-5.26-2.41-7.93-.56-2-1.09-4-1.57-6-1.09-4.45-2-9-2.79-13.53-.25-1.52-.48-3-.7-4.55a189.6 189.6 0 0 1 -.57-49.5c.08-.67.16-1.34.25-2 .33-2.59.73-5.17 1.17-7.74.57-3.27 1.22-6.5 1.95-9.73.68-3 1.42-5.89 2.24-8.8a187.64 187.64 0 0 1 37.49-70.67q2.31-2.73 4.72-5.37 2.22-2.44 4.56-4.82a188.61 188.61 0 0 1 43.34-33.08c.82-.47 1.65-.92 2.48-1.36q5.47-2.94 11.16-5.53a76.89 76.89 0 0 0 21.45-14.44 75.53 75.53 0 0 0 23.53-55.61c0-.83 0-1.67 0-2.51 0-1 0-2.07 0-3.11 0-2.58.11-5.18.23-7.75.05-1.06.11-2.11.18-3.16q.15-2.46.36-4.89c.11-1.5.25-3 .4-4.51.3-3 .67-5.93 1.09-8.88q1.25-8.78 3.16-17.32a225.76 225.76 0 0 1 21.73-58.25c.08-.17.16-.32.25-.49.3-.55.59-1.09.9-1.63.63-1.14 1.27-2.28 1.94-3.41a224.4 224.4 0 0 1 16.4-24.65c1-1.31 2-2.61 3-3.9 1.69-2.12 3.43-4.21 5.2-6.27 2.1-2.47 4.28-4.9 6.5-7.26q6.59-7 13.73-13.51l2.17-1.93c1.39-1.24 2.8-2.44 4.23-3.63a227.51 227.51 0 0 1 48.58-31.23c.52-.26 1-.51 1.57-.75l.55-.25a225.11 225.11 0 0 1 28.85-11.05l2.5-.76q7.51-2.2 15.24-3.9 4.9-1.08 9.88-1.94c2.54-.44 5.11-.85 7.67-1.2 1.41-.2 2.82-.38 4.23-.55 2.37-.28 4.76-.52 7.15-.73q10.13-.88 20.49-.87h.75q7.85 0 15.56.6 8.56.63 16.92 1.86 2.76.41 5.5.88c2.09.36 4.18.76 6.24 1.18q4.29.85 8.5 1.89c.91.21 1.81.44 2.72.67q3.46.89 6.87 1.87a227.44 227.44 0 0 1 39.75 15.73 224.57 224.57 0 0 1 23.15 13.57 228.5 228.5 0 0 1 26.59 20.77c.83.75 1.66 1.51 2.48 2.28a228.47 228.47 0 0 1 36 43.06q2.8 4.37 5.42 8.86 1.34 2.26 2.61 4.58c.64 1.15 1.26 2.31 1.89 3.47a225.88 225.88 0 0 1 20.74 56c0 .2.08.38.13.57 1.15 5.17 2.14 10.43 2.93 15.72a3.72 3.72 0 0 1 .08.57q.72 4.78 1.22 9.64c.13 1.22.25 2.44.35 3.67.08.8.14 1.6.2 2.4 0 .2 0 .39.05.58.17 2.16.3 4.34.4 6.52q.23 4.57.25 9.19a5.42 5.42 0 0 1 0 .57c.07.39.07.72.07 1.12z" fill="#e7f3d8"/><path d="m804.71 434q-34.8 1.57-69.58 2.94c-37.28 1.51-74.77 3.87-112.09 3.87h-.23c-8.81.17-10.69-12.35-2.27-15q36.74-11.36 74.47-19.07c5.92-1.21 5.71-9.78-.28-10.65-30.46-4.41-62.28-.53-93.19 3q-72.62 8.47-145.54 13.77c-16.84 1.22-34 2.29-50.36-2a8.49 8.49 0 0 1 -5.57-4.35c-3.21-6.58 5.34-11.76 12.09-13.53 46.33-12.1 94.47-18.28 138.61-37a9.27 9.27 0 0 0 4.89-4.69c2.53-5.79-2.76-9.86-7.49-12.24-41.49-20.93-91.17-11.24-137.17-17.44h-.27a13.25 13.25 0 0 1 -11-9.13c1.69-2.12 3.43-4.21 5.2-6.27 2.1-2.47 4.28-4.9 6.5-7.26q6.59-7 13.73-13.51a155.69 155.69 0 0 1 16.6-6.65c11.68-3.91 24.45-6.81 35.79-11.61 8.37-3.52 9.33-13.67 4.16-19.28l.55-.25a225.11 225.11 0 0 1 28.85-11.05l2.5-.76q7.51-2.2 15.24-3.9 4.9-1.08 9.88-1.94c2.54-.44 5.11-.85 7.67-1.2 1.41-.2 2.82-.38 4.23-.55 2.37-.28 4.76-.52 7.15-.73q10.13-.88 20.49-.87h.73q7.85 0 15.56.6 8.56.63 16.92 1.86 2.76.41 5.5.88c2.09.36 4.18.76 6.24 1.18q4.29.85 8.5 1.89c.91.21 1.81.44 2.72.67q3.46.89 6.87 1.87a227.44 227.44 0 0 1 39.75 15.73 224.57 224.57 0 0 1 23.15 13.57 228.5 228.5 0 0 1 26.59 20.77c.83.75 1.66 1.51 2.48 2.28a228.47 228.47 0 0 1 36 43.06q2.8 4.37 5.42 8.86 1.34 2.26 2.61 4.58c.64 1.15 1.26 2.31 1.89 3.47a225.88 225.88 0 0 1 20.74 56c0 .2.08.38.13.57 1.15 5.17 2.14 10.43 2.93 15.72a3.72 3.72 0 0 1 .08.57q.72 4.78 1.22 9.64c.19 1.17.31 2.39.41 3.58z" fill="#f2f8ea"/><path d="m293.93 532.49v205.94h-2.48v-204.58c.82-.47 1.65-.92 2.48-1.36z" fill="#ccdfb0"/><path d="m513.64 235.81v502.62h-2.5v-501.86z" fill="#ccdfb0"/><g fill="#d0eaa9"><path d="m484.58 347.76c-2.71 1.73-6.11 1.85-9.32 1.89q-49 .74-98-3.12c.08-.17.16-.32.25-.49.3-.55.59-1.09.9-1.63.63-1.14 1.27-2.28 1.94-3.41a224.4 224.4 0 0 1 16.4-24.65 20.17 20.17 0 0 1 3.26 1.84c5.86 4.16 8.55 11.36 10.93 18.14 1.41-2.61 3.91-4.84 6.86-5s6 2.5 5.49 5.42c3-5.88 7-11.4 12.53-15s12.64-5.2 18.86-3 11 8.69 10.15 15.25a4.57 4.57 0 0 1 8.79.86 9 9 0 0 1 9.36-2.44 8.73 8.73 0 0 1 5.61 7.15 8.92 8.92 0 0 1 -4.01 8.19z"/><path d="m517.45 337.93a12 12 0 0 1 17.71-5.93c1.79-5.73 7.89-9 13.79-10.1 5.53-1 11.54-.43 16.22 2.68s7.64 9.08 6.18 14.51c-1 3.64-3.72 6.57-6.77 8.79-7.54 5.47-17.12 7.29-26.41 7.95s-19 .25-27.72-3.36c-4.06-1.69-8.43-5.87-5.43-10.29a11.84 11.84 0 0 1 5.88-4.18c.48-.16 6.8-.75 6.55-.07z"/><path d="m685 298a22 22 0 0 1 11.81.87 18.71 18.71 0 0 1 10.19 10.48 25.54 25.54 0 0 1 1 14.76 2.14 2.14 0 0 0 2.07-.57c1.74-1.81 5.56-1.51 7.11.47a8.14 8.14 0 0 1 1 7.19 8.33 8.33 0 0 1 6.84-3.13 5.75 5.75 0 0 1 5.25 4.91c.13 1.55-.4 3.42.77 4.45a17 17 0 0 1 6.71-3.19c2.46-.39 5.3.51 6.47 2.72a10 10 0 0 1 3.83-1.76 3.44 3.44 0 0 1 3.62 1.61 5.7 5.7 0 0 1 6.41-1.95c2.21.93 3.38 4 2 5.95-1.46 2.17-4.57 2.11-7.17 2.38-4.06.42-7.84 2.16-11.68 3.54a91.46 91.46 0 0 1 -23.75 4.75c-8.95.72-18.42.48-26.24-4a13.4 13.4 0 0 1 -4.41-3.67 17.24 17.24 0 0 1 -2.25-5.48c-1.25-4.58-2.33-9.31-1.86-14 .5-4.91 2.67-9.7 2.08-14.6-.33-3.22-1.38-8.9.2-11.73z"/></g><path d="m733.33 287.94v450.49h-2.48v-452.77c.83.75 1.66 1.51 2.48 2.28z" fill="#ccdfb0"/><path d="m762.28 344.41-.23.16-2.23 1.43-88.47 58.74h-315.85a225.87 225.87 0 0 1 22-58.74c.3-.55.59-1.09.9-1.63z" fill="#b8d392"/><g fill="#ccdfb0"><ellipse cx="402.06" cy="374.6" rx="11.85" ry="1.69"/><ellipse cx="480.66" cy="374.6" rx="11.85" ry="1.69"/><ellipse cx="559.26" cy="374.6" rx="11.85" ry="1.69"/><ellipse cx="637.86" cy="374.6" rx="11.85" ry="1.69"/></g><path d="m762.28 343.52a2.38 2.38 0 0 1 -.16.89.77.77 0 0 1 -.07.16 2.5 2.5 0 0 1 -2.23 1.47h-382.34c.3-.55.59-1.09.9-1.63.63-1.14 1.27-2.28 1.94-3.41h379.45a2.51 2.51 0 0 1 2.51 2.52z" fill="#a3c174"/><path d="m799 699.21q0 6.51-.49 12.92c0 .39 0 .8-.09 1.19v.57c-.2 2.49-.44 5-.76 7.45-.16 1.41-.34 2.83-.55 4.23s-.4 2.68-.63 4c0 .2-.05.38-.09.57-.4 2.39-.86 4.78-1.36 7.13q-.9 4.35-2 8.6c-.06.19-.1.38-.15.57v.08q-.41 1.55-.84 3.06c-.16.57-.32 1.13-.49 1.7-.28 1-.57 2-.88 2.93 0 .13-.07.26-.11.38-.31 1-.62 1.95-.94 2.92-.09.29-.18.57-.28.85-.57 1.69-1.16 3.35-1.77 5l-.1.28c-.31.83-.62 1.64-.93 2.46-.18.49-.38 1-.57 1.47-.47 1.19-.95 2.37-1.46 3.54q-.21.54-.45 1.08c-.61 1.44-1.24 2.88-1.91 4.31q-1.38 3-2.86 6a190.09 190.09 0 0 1 -94.89 89.5q-2.7 1.15-5.44 2.23a188.45 188.45 0 0 1 -113.7 7.41c-39.28-9.69-80.06-10.37-119.82-3.46q-9.6 1.67-19.11 3.91a189.43 189.43 0 0 1 -113.68-8.45c-2.77-1.11-5.5-2.28-8.2-3.53a189.14 189.14 0 0 1 -92.77-92.46q-2.91-6.27-5.35-12.77l-.42-1.15q-1.12-3-2.14-6.15v-.1c-.84-2.57-1.64-5.2-2.37-7.83-.56-2-1.09-4-1.57-6-1.09-4.45-2-9-2.79-13.53-.25-1.52-.48-3-.7-4.55-.05-.35-.1-.69-.14-1a187.13 187.13 0 0 1 -1.78-25.87c0-.9 0-1.8 0-2.69 0-1.24 0-2.47.09-3.69q.1-3.57.38-7.09c.21-3.06.49-6.11.86-9.12.08-.67.16-1.34.25-2 .12-1 .25-1.92.4-2.88.24-1.62.49-3.24.77-4.86.17-1 .36-2 .56-3 .1-.54.2-1.09.31-1.63.34-1.7.7-3.38 1.08-5.07.68-3 1.42-5.89 2.24-8.8a183.58 183.58 0 0 1 5.82-17.43c1.09-2.82 2.25-5.6 3.46-8.34.47-1 .95-2.1 1.43-3.13q2.76-5.89 5.89-11.53 2.69-4.85 5.66-9.52l1.2-1.88c.66-1 1.32-2 2-3h563.51q0 3.18 0 6.35v.57q.11 7.86.51 15.72a5.59 5.59 0 0 0 0 .57q.14 2.9.33 5.79c.17 2.56.36 5.16.58 7.73q.07 1.09.18 2.19v.57q.69 7.89 1.65 15.72c0 .2 0 .39.08.57.32 2.62.67 5.24 1 7.85.32 2.25.65 4.48 1 6.72.06.37.12.76.19 1.14a5.62 5.62 0 0 0 .09.57c.06.43.14.87.21 1.3s.15 1 .23 1.43c.45 2.76.84 5.52 1.18 8.32.18 1.56.36 3.12.51 4.67v.57q.71 7.77.77 15.71a5.42 5.42 0 0 1 0 .57c.16.46.16.99.16 1.54z" fill="#cce0af"/><path d="m797.65 721.34c-.16 1.41-.34 2.83-.55 4.23s-.4 2.68-.63 4c0 .2-.05.38-.09.57-.4 2.39-.86 4.78-1.36 7.13q-.9 4.35-2 8.6c-.06.19-.1.38-.15.57v.08q-.41 1.55-.84 3.06c-.16.57-.32 1.13-.49 1.7-.28 1-.57 2-.88 2.93 0 .13-.07.26-.11.38-.31 1-.62 1.95-.94 2.92-.09.29-.18.57-.28.85-.57 1.69-1.16 3.35-1.77 5l-.1.28c-.31.83-.62 1.64-.93 2.46-.18.49-.38 1-.57 1.47-.47 1.19-.95 2.37-1.46 3.54q-.21.54-.45 1.08c-.61 1.44-1.24 2.88-1.91 4.31q-1.38 3-2.86 6a190.13 190.13 0 0 1 -53.72 65.24q-11.14-1-22.35-.94c-38.71.09-77.4 9-115.86 4.64-6-.69-13.69-3.62-13.28-9.69.22-3.45 3.19-6 4.64-9.17 2.73-5.89-.38-13.17-5.45-17.23s-11.64-5.61-18-7q-24.37-5.4-49-9.65-47.79-8.25-96.19-12.14c-6-.47-11.9-1.29-17.91-1.63l-98.81-5.53c-5-.28-10.12-.62-14.41-3.14-.11-.06-.22-.14-.33-.21-5.58-3.47-6.57-9.14-3.73-14.68a9 9 0 0 1 1.53-2.31 8.51 8.51 0 0 1 3.45-1.76 97.74 97.74 0 0 1 22-4.32c4.93-.4 9.89-.41 14.84-.42h13.83c32.42.19 64.84.06 97.26.18 16.94 0 36-.79 47.41-13.34q-36.07-14.64-73.47-25.68c24.38-10.45 51.54-12 78.06-12.77 106.21-2.84 212.52 6.05 317.86 20.39z" fill="#b8ce93"/><g fill="#d9e8bf"><path d="m269 593-51 14.4q2.69-4.85 5.66-9.52l17.22-4.88z"/><path d="m447 593-249.29 70.29c.1-.54.2-1.09.31-1.63.34-1.7.7-3.38 1.08-5.07.68-3 1.42-5.89 2.24-8.8a183.58 183.58 0 0 1 5.82-17.43c1.09-2.82 2.25-5.6 3.46-8.34l103-29.06z"/><path d="m521.73 593-326.86 92.19c.21-3.06.49-6.11.86-9.12.08-.67.16-1.34.25-2 .12-1 .25-1.92.4-2.88l277.23-78.19z"/><path d="m559.48 593-365.08 103c0-1.24 0-2.47.09-3.69l352-99.32z"/><path d="m269 593-51 14.4q2.69-4.85 5.66-9.52l17.22-4.88z"/><path d="m447 593-249.29 70.29c.1-.54.2-1.09.31-1.63.34-1.7.7-3.38 1.08-5.07.68-3 1.42-5.89 2.24-8.8a183.58 183.58 0 0 1 5.82-17.43c1.09-2.82 2.25-5.6 3.46-8.34l103-29.06z"/><path d="m521.73 593-326.86 92.19c.21-3.06.49-6.11.86-9.12.08-.67.16-1.34.25-2 .12-1 .25-1.92.4-2.88l277.23-78.19z"/><path d="m559.48 593-365.08 103c0-1.24 0-2.47.09-3.69l352-99.32z"/></g><g fill="#c0d39f"><path d="m411.33 566.93v4.82h-167.78q2.22-2.44 4.56-4.82z"/><path d="m325.17 569.34h4.19v28.02h-4.19z"/><path d="m259.57 569.34h4.19v28.02h-4.19z"/><rect height="89.53" rx="2.09" transform="matrix(0 1 -1 0 891.29 303.43)" width="4.19" x="291.84" y="552.6"/></g><rect fill="#1b2745" height="60.45" rx="2.8" transform="matrix(.2094479 -.97781981 .97781981 .2094479 72.51 722.76)" width="5.59" x="480.43" y="286.32"/><path d="m614.57 540.91-3.5 8.48-11.11 26.89-62.29 150.71-13.31 11.44-10.34-11.44 10.34-166.81.7-11.34 1.61-25.93 61.56-25.3z" fill="#1f2a46"/><path d="m533 753.83h-40.14a6.74 6.74 0 0 1 -3.39-12.57l24.53-14.26h23.65l2.38 12.73.85 4.57a8.07 8.07 0 0 1 -7.88 9.53z" fill="#1b2745"/><path d="m736.85 706.14-3.63 15.46-17.12-4.11c-66.1-54.49-100.1-105.43-117.4-141.25a248.75 248.75 0 0 1 -10.58-25.24c-5.91-16.71-7-26.44-7-26.44l110-56.5c-1.79 10.74-11.62 48-17.19 68.87-2.31 8.61-3.89 14.41-3.89 14.41l6 13.89z" fill="#21437e"/><path d="m745.61 732-4.61 2.48-30.56 16.72a6.75 6.75 0 0 1 -9-9.4l14.68-24.31 20.74-11.36 6.6 8.08 4.54 5.56a8.07 8.07 0 0 1 -2.39 12.23z" fill="#1b2745"/><path d="m571.42 161.1-4.48 33.5c-.13.2-.25.41-.39.61-3.92 6.32-7.75 8.81-11.2 9.27-6.35.86-11.36-5.17-13.18-6.83a2.84 2.84 0 0 0 -.95-.54c-2.25-.81-6.3.09-9-.57-1.7-.4-2.87-1.41-2.75-3.83.3-6.47-3.79-11.8-9.2-17a23.81 23.81 0 0 1 -4.19-5.34 21.57 21.57 0 0 1 -2.42-6l.48-.93 10.37-20.3 18.72-6.57 16.9-5.93 6.23 16.76 3.74 10.06 1.3 3.48z" fill="#f09582"/><path d="m596.14 182.64-25.92 19.64-1.16-2.23-1.38-2.66-1.12-2.17-.16-.31-1.85-3.58-5.72-11 5.94-12.56 2.74-5.81 1.23-2.59 2.63 1.6 7.59 4.61 11.15 11.07.87.86z" fill="#f09582"/><path d="m728.51 513.62c-2.53 1.51-5.58 3.22-9.14 5.08-5.42 2.82-12 6-19.78 9.16-25 10.26-62 21-110.57 23.15h-.56a426.47 426.47 0 0 1 -63.21-2.16 7.79 7.79 0 0 1 -6.92-8.19c.44-7.46 1.3-20.12 2.82-35.78 2.86-29.52 8-69.71 17.13-105.76 2.25-8.92 1.75-18.12 1.89-27.31.22-13.77 2-33.67 11.38-66.58 17.87-62.4 14-90.41 14-90.41l-2.12-14.07-.49-3.19a7.74 7.74 0 0 1 .16-3.11 7.94 7.94 0 0 1 1.26-2.64l.12-.15a7.3 7.3 0 0 1 .93-1c1.81-1.61 4.4-3.83 7.74-6.42l.5-.39c.51-.4 1-.8 1.59-1.21l.95-.71.69-.51s0 0 0 0c3.63-2.66 7.92-5.59 12.8-8.61 1.56-1 3.19-2 4.87-2.91a197.63 197.63 0 0 1 30-14.14 8.67 8.67 0 0 1 11.73 8.11v12.13a26.67 26.67 0 0 0 2.15 10.54 26.16 26.16 0 0 0 3.5 5.91c8.12 10.35 22.16 34.07 22.4 74.67.24 40.79.24 64.21 8.82 94.67.14.49.28 1 .43 1.5 4.46 15.49 11.15 32.9 21.19 55.34 9.46 21.16 21.9 46.81 38.28 79.57a11.78 11.78 0 0 1 -4.54 15.42z" fill="#f0674a"/><path d="m521 309.51-5.58-5.76a6.25 6.25 0 0 0 -9.09.12 17.71 17.71 0 0 1 -6 4.25l-23.52 10.14a2.24 2.24 0 0 0 .73 4.29l12.63.88a10.3 10.3 0 0 1 7.32 3.82l3.64 4.51a7.2 7.2 0 0 0 9.22 1.72l10.65-6.13z" fill="#f09582"/><path d="m579 165.58s-5.54 3.4-10.83 1.78a10 10 0 0 1 -5.51-4.33s1.54-2.73 0-4.91c-2.56-3.61-9-6.8-11.15-1.5a4.89 4.89 0 0 1 -4.93 3.11 19.69 19.69 0 0 1 -8.19-2.38 15.28 15.28 0 0 1 -5.14-4.74 37.82 37.82 0 0 1 -4.79 8.64c-2.8 3.78-6.88 7.68-12.37 9.12a19.59 19.59 0 0 1 -11.51-.63c-8.39-2.84-11-11-4.59-17.14 23.7-22.52 19.66-37.1 39.62-39.55 12.84-1.58 12.56 9.67 32 19.34l.52.26c12.87 6.35 12 24.26 6.87 32.93z" fill="#6c372f"/><path d="m592.17 294.74s-26-38.9-13.94-78.29c9.18-29.89 42.27-32.33 49-23.13z" fill="#3f343a"/><path d="m699.17 370.76a8.27 8.27 0 0 1 -8.8 7.25c-3.87-.28-8-.54-12.42-.91a299.62 299.62 0 0 1 -39.79-5.87 15.85 15.85 0 0 1 -11.5-21.12c9.27-24.33 21.71-73.12 2.57-129.51a199.94 199.94 0 0 0 -11.29-26.66 3.1 3.1 0 0 1 3.92-4.29 124.63 124.63 0 0 1 52.85 41.15c.5.67 1 1.36 1.49 2.05.68 1 1.36 1.95 2 2.95q1.57 2.34 3.08 4.83 2.58 4.29 5 9a123.55 123.55 0 0 1 8.51 22.7c.39 1.42.75 2.85 1.1 4.29q.3 1.22.57 2.43c.2.84.38 1.68.55 2.53 7.46 35.27 4.14 73.28 2.16 89.18z" fill="#3f343a"/><path d="m705.79 340.41a8 8 0 0 1 -7.74 7.41 64.07 64.07 0 0 1 -23.24-4.16 8 8 0 0 1 -5.28-7.49v-18.77a7.93 7.93 0 0 1 9.3-7.82 88.57 88.57 0 0 0 18.68 1.36 8 8 0 0 1 8.26 7.44 169.17 169.17 0 0 1 .02 22.03z" fill="#c3512c"/><path d="m645.87 304.09c-3.08 10.55-7.4 19.77-13 26.4-4.5 5.37-9.81 9.05-15.93 10.39-27 5.95-54.3.75-72.87-4.84a68.25 68.25 0 0 0 -19.54-3.12 3.53 3.53 0 0 1 -3.55-3.54v-19.87l71.18-14.77s-2.13-6-4.39-15.14a181.89 181.89 0 0 1 -5-30.34c-1.76-24.59 3-51.16 29.9-57.25a21.2 21.2 0 0 1 15.52 2 25.06 25.06 0 0 1 4.78 3.51l.15.11c19.12 17.89 23.34 70.13 12.75 106.46z" fill="#f2815f"/><path d="m541.22 197.12c-2.25-.81-6.3.08-9-.57s4-.7 6.22-3.09 4.99 2.21 2.78 3.66z" fill="#ea7670"/><path d="m538.36 157.35a15.21 15.21 0 0 1 -5.15-4.74l1.47-7.91z" fill="#67221a"/><path d="m577 168a19.24 19.24 0 0 0 -3.55 16c-.07.18-6.27 5.08-8.08 6.69a7.3 7.3 0 0 0 -.93 1l-.12.15c.07-.16.15-.33.22-.5a31.21 31.21 0 0 0 .22-23.56 40.7 40.7 0 0 0 -2.15-4.74c5.79 8.79 16 2.78 16.33 2.55z" fill="#ea7670"/><path d="m563.23 199.72c-2.75 3.07-5.42 4.43-7.88 4.76a36.51 36.51 0 0 0 7.62-9.83 6.19 6.19 0 0 0 -.13 2.5z" fill="#ea7670"/><path d="m604.28 291.7-12.11 3s-2.13-6-4.39-15.14z" fill="#e86546"/><path d="m690.38 378c-13.3-.93-29.36-1.85-52.24-6.79a15.87 15.87 0 0 1 -12.29-18.32 15.24 15.24 0 0 1 .79-2.8 188.85 188.85 0 0 0 6.25-19.61c.35-.41.7-.84 1-1.27l.87-1.16.35-.49.75-1.07c.29-.42.57-.86.84-1.3.13-.19.25-.38.37-.58.39-.63.78-1.28 1.15-1.95.16-.28.33-.57.49-.87 1.13-2.07 2.19-4.27 3.18-6.58.22-.51.44-1 .65-1.55 0-.12.1-.25.14-.38q.31-.77.6-1.56c.19-.48.37-1 .55-1.47.08-.21.16-.43.23-.66.17-.49.35-1 .51-1.49 0 0 0-.09 0-.14.21-.63.42-1.27.62-1.92v-.08c.2-.62.39-1.25.57-1.88 10.59-36.34 6.37-88.57-12.77-106.44 1.84 1.57 21.71 19.5 31.2 68.2 4.83 24.77 1.11 44.87-4.45 59.53-8.61 22.63 4.84 48 28.67 52.32.73.13 1.35.23 1.97.31z" fill="#3b2021"/><path d="m632.89 330.49a188.85 188.85 0 0 1 -6.25 19.61 15.24 15.24 0 0 0 -.79 2.8c-.26.88-7.65 2.74-12.25 2.82-32.14.57-68.74-19.26-69.51-19.68 18.57 5.59 45.92 10.79 72.87 4.85 6.13-1.36 11.44-5.03 15.93-10.4z" fill="#e3402a"/><path d="m598.7 576.24c-36.38-1.18-63-11-74.34-16.06l.7-11.34h.2a421.73 421.73 0 0 0 62.86 2.16 248.75 248.75 0 0 0 10.58 25.24z" fill="#121928"/><path d="m676 565.27a229.23 229.23 0 0 1 -76.06 11h-1.26a248.75 248.75 0 0 1 -10.56-25.27c.7 0 1.41-.06 2.1-.1 1.28-.05 2.56-.12 3.81-.19s2.65-.15 4-.24c1.07-.08 2.14-.15 3.2-.24 1.44-.1 2.87-.22 4.29-.35l2.8-.25c1.27-.12 2.54-.25 3.79-.39l2.81-.3.7-.08c1.23-.15 2.43-.28 3.64-.44l3-.39h.29l1.55-.22c1.07-.14 2.12-.3 3.16-.45q2-.29 3.9-.6c2.05-.33 4.08-.68 6.07-1 1.31-.23 2.61-.47 3.89-.72s2.66-.52 4-.78l2-.4c2.18-.46 4.31-.92 6.4-1.41 1-.24 2-.47 3.07-.72h.06c1.13-.27 2.25-.54 3.36-.83l.23-.05c1-.26 2-.52 3.05-.8 3.11-.81 6.13-1.66 9-2.52l1.65-.5c-2.31 8.61-3.89 14.41-3.89 14.41z" fill="#1f2a46"/><path d="m705.79 340.41a8 8 0 0 1 -7.74 7.41 64.07 64.07 0 0 1 -23.24-4.16 8 8 0 0 1 -5.28-7.49v-18.77a7.91 7.91 0 0 1 4.79-7.29s-5.52 22.45 7.21 27.7a43.94 43.94 0 0 0 24.26 2.6z" fill="#b93218"/><path d="m638.41 186.56c-5.16-.4-10.26-.57-14.56-.63a3.39 3.39 0 0 1 -1.55-6.37 102.8 102.8 0 0 1 14-6.12v2.56a26.76 26.76 0 0 0 2.11 10.56z" fill="#e3402a"/><path d="m694.75 272.31-7.5-2.54a14.21 14.21 0 0 1 -9-9.25l-4.65-15a3.38 3.38 0 0 1 2.84-4.35l4.88-.57c1.72 2.85 3.39 5.85 5 9a122.76 122.76 0 0 1 8.43 22.71z" fill="#3b2021"/><path d="m696.42 279-6.08-2a21.79 21.79 0 0 1 -13.79-14.12l-7.46-24.05a4.29 4.29 0 0 1 3.61-5.55l3.48-.42c-.49-.69-1-1.37-1.49-2.05l-2.25.27a6.33 6.33 0 0 0 -4 2 5.66 5.66 0 0 0 -.75.93 6.49 6.49 0 0 0 -.76 5.49l7.46 24a24 24 0 0 0 15.2 15.56l7.34 2.48c-.13-.83-.31-1.67-.51-2.54z" fill="#3b2021"/><path d="m673.92 537c-2.31 8.61-3.89 14.41-3.89 14.41s-47.53.59-81-.37l1.19-.07c1.28-.05 2.56-.12 3.81-.19s2.65-.15 4-.24c1.08-.08 2.14-.15 3.2-.24 1.44-.1 2.87-.22 4.29-.35l2.8-.25c1.27-.12 2.54-.25 3.79-.39.94-.09 1.88-.2 2.81-.3l.7-.08 3.64-.44c1-.13 2-.25 3-.39h.29l1.55-.22c1.07-.14 2.12-.3 3.16-.45q2-.29 3.9-.6c2.05-.33 4.08-.68 6.07-1 1.31-.22 2.61-.47 3.89-.72s2.67-.51 4-.78l2-.4c2.18-.46 4.31-.92 6.4-1.41l3.07-.72h.06c1.13-.27 2.25-.54 3.36-.83l.23-.05 3.05-.8c3.11-.82 6.13-1.67 9-2.52z" fill="#121928"/><path d="m526.35 158a4.47 4.47 0 0 0 -6 1.28 10.37 10.37 0 0 1 -8.85 4.47c-3.87 0-7.12-1.68-8.22-3.26a.72.72 0 0 1 -.14-.47c0-.9 1.22-2 1.22-2l.28-.23.23-.27c1.44-1.66 2.84-3 4.31-4.46a67.92 67.92 0 0 0 8.82-10.06 3.55 3.55 0 0 0 -1.08-5.11h-.06a3.55 3.55 0 0 0 -4.64.94 104.61 104.61 0 0 1 -12.22 13.78c-6.45 6.13-3.79 14.3 4.59 17.14 11.61 3.94 19.39-2.44 23.88-8.5a4.42 4.42 0 0 0 -2.12-3.25z" fill="#75433c"/><path d="m571.52 132.4c-19.39-9.67-19.11-20.92-31.94-19.35-10.92 1.34-14.66 6.31-19.68 14.21a3.26 3.26 0 0 0 1.1 4.55h.08a3.25 3.25 0 0 0 4.4-1.09c4.11-6.53 8.8-9 12.13-10 3.54-1 6.38-.44 7.73.33 2.15 1.24 4.16 3.46 6.3 5.82 3.66 4 7.8 8.61 14.38 10.36a4.42 4.42 0 0 0 5.5-4.88z" fill="#75433c"/><path d="m595 213.35-.11-.09a5.46 5.46 0 0 0 -8.61 2.37c-3 8.2-4 17.66-3.78 27.11a5.75 5.75 0 0 0 6.57 5.6 5.73 5.73 0 0 0 4.89-6c-.36-6.4-.1-15.76 2.64-22.77a5.46 5.46 0 0 0 -1.6-6.22z" fill="#f28c75"/><path d="m728.51 513.62c-2.53 1.51-5.58 3.22-9.14 5.08-5.42 2.82-12 6-19.78 9.16-25 10.26-62 21-110.57 23.15h-.56c-.38-.72-.75-1.45-1.11-2.2-35.6-73 94.56-109.44 84.29-139.57-10.11-29.66-32.78-37.79-33.49-38a299.62 299.62 0 0 0 39.79 5.87c4.17 12 9.63 25.5 16.81 41.54 9.46 21.16 21.9 46.81 38.28 79.57a11.78 11.78 0 0 1 -4.52 15.4z" fill="#e3402a"/><path d="m568.13 167.36-1.49 7.57c-5.87-15.18-17.82-12.09-28.29-7.31s-22.3 2.76-22.3 2.76c5.49-1.44 9.57-5.34 12.37-9.12a37.82 37.82 0 0 0 4.79-8.64 15.28 15.28 0 0 0 5.14 4.74 19.69 19.69 0 0 0 8.19 2.38 4.89 4.89 0 0 0 4.93-3.11c2.16-5.3 8.59-2.11 11.15 1.5 1.54 2.18 0 4.91 0 4.91a10 10 0 0 0 5.51 4.32z" fill="#ea7670"/><g fill="#f0674a"><path d="m509.75 726.68a1.1 1.1 0 0 1 .86-.38 1.09 1.09 0 0 1 1 1.12c-.24 5.32 4.13 8.22 4.31 8.35a1.06 1.06 0 0 1 .32 1.47 1.08 1.08 0 0 1 -1.48.32c-.23-.14-5.58-3.66-5.29-10.23a1 1 0 0 1 .28-.65z"/><path d="m504.75 730.07a1.09 1.09 0 0 1 .86-.38 1.07 1.07 0 0 1 1 1.12c-.23 5.36 4.27 8.32 4.31 8.34a1.07 1.07 0 0 1 .32 1.48 1.06 1.06 0 0 1 -1.47.32c-.23-.14-5.58-3.66-5.3-10.23a1.05 1.05 0 0 1 .28-.65z"/><path d="m499.58 733.19a1.07 1.07 0 0 1 1.88.74c-.23 5.36 4.27 8.31 4.31 8.34a1.07 1.07 0 1 1 -1.15 1.8c-.23-.15-5.58-3.66-5.3-10.24a1.11 1.11 0 0 1 .26-.64z"/></g><path d="m533 753.83h-3.79c0-.44-.07-.89-.07-1.34a12.93 12.93 0 0 1 10.94-12.77l.85 4.57a8.07 8.07 0 0 1 -7.93 9.54z" fill="#dd6b4d"/><g fill="#f0674a"><path d="m709.47 721.29a1.06 1.06 0 0 1 2-.38 10 10 0 0 0 8.11 4.75 1.07 1.07 0 0 1 0 2.14c-.27 0-6.68-.12-9.94-5.83a1 1 0 0 1 -.17-.68z"/><path d="m707 726.83a1.07 1.07 0 0 1 2-.38c2.67 4.65 8.05 4.75 8.1 4.75a1.07 1.07 0 1 1 0 2.14c-.27 0-6.68-.12-10-5.83a1.11 1.11 0 0 1 -.1-.68z"/><path d="m704.34 732.22a1 1 0 0 1 .53-.77 1.07 1.07 0 0 1 1.46.39c2.66 4.66 8 4.75 8.1 4.75a1.08 1.08 0 0 1 1.06 1.08 1.06 1.06 0 0 1 -1.08 1.06c-.27 0-6.67-.11-9.94-5.83a1.09 1.09 0 0 1 -.13-.68z"/><path d="m745.61 732-4.61 2.48a16.55 16.55 0 0 1 2.46-20.27l4.54 5.56a8.07 8.07 0 0 1 -2.39 12.23z"/></g><path d="m802.32 493.23c-.48 2.81-1 5.59-1.59 8.36 0 .19-.09.38-.12.57-.17.82-.35 1.62-.54 2.44a1.42 1.42 0 0 1 0 .2q-1.47 6.52-2.71 13.08c0 .19-.08.39-.11.57q-1.49 7.83-2.63 15.71l-.09.58c-.7 4.9-1.33 9.82-1.85 14.75 0 .32-.06.64-.1 1l-.06.57c-.54 5.22-1 10.47-1.32 15.71v.58c-.2 3-.34 5.93-.46 8.9-.09 2.27-.17 4.54-.22 6.82v.57q-.19 7.85-.09 15.71v.57q.11 7.86.51 15.72a5.59 5.59 0 0 0 0 .57q.14 2.9.33 5.79c.17 2.56.36 5.16.58 7.73q.07 1.09.18 2.19v.57q.69 7.89 1.65 15.72c0 .2 0 .39.08.57.32 2.62.67 5.24 1 7.85.32 2.25.65 4.48 1 6.72.06.37.12.76.19 1.14a5.62 5.62 0 0 0 .09.57c.06.43.14.87.21 1.3s.15 1 .23 1.43c.45 2.76.84 5.52 1.18 8.32.18 1.56.36 3.12.51 4.67v.57q.71 7.77.77 15.71a5.42 5.42 0 0 1 0 .57v1.62q0 6.51-.49 12.92c0 .39 0 .8-.09 1.19v.57c-.31 3.92-.76 7.82-1.31 11.68-.19 1.35-.4 2.68-.63 4 0 .2-.05.38-.09.57-.4 2.39-.86 4.78-1.36 7.13q-.9 4.35-2 8.6c-.06.19-.1.38-.15.57-.28 1-.57 2.1-.87 3.14-.16.57-.32 1.13-.49 1.7-.28 1-.57 2-.88 2.93 0 .13-.07.26-.11.38-.31 1-.62 1.95-.94 2.92-.09.29-.18.57-.28.85h-390.62c-3.34-2.23-6.6-4.6-9.73-7.08a144.65 144.65 0 0 1 89.76-258.07z" fill="#a3c174"/><path d="m790.45 583.6q-.19 7.85-.09 15.71v.57q.11 7.86.51 15.72a5.59 5.59 0 0 0 0 .57q.14 2.9.33 5.79c.17 2.56.36 5.16.58 7.73q.07 1.09.18 2.19v.57q.69 7.89 1.65 15.72c0 .2 0 .39.08.57.32 2.62.67 5.24 1 7.85.32 2.25.65 4.48 1 6.72.06.37.12.76.19 1.14a5.62 5.62 0 0 0 .09.57c.06.43.14.87.21 1.3s.15 1 .23 1.43c.45 2.76.84 5.52 1.18 8.32.18 1.56.36 3.12.51 4.67v.57q.71 7.77.77 15.71a5.42 5.42 0 0 1 0 .57v1.62q0 6.51-.49 12.92c0 .39 0 .8-.09 1.19v.57c-.31 3.92-.76 7.82-1.31 11.68-.19 1.35-.4 2.68-.63 4 0 .2-.05.38-.09.57-.4 2.39-.86 4.78-1.36 7.13q-.9 4.35-2 8.6c-.06.19-.1.38-.15.57-.28 1-.57 2.1-.87 3.14-.16.57-.32 1.13-.49 1.7-.28 1-.57 2-.88 2.93 0 .13-.07.26-.11.38-.31 1-.62 1.95-.94 2.92-.09.29-.18.57-.28.85h-363.51a133.3 133.3 0 0 1 57-253.78h317.4a1.42 1.42 0 0 1 0 .2q-1.47 6.52-2.71 13.08c0 .19-.08.39-.11.57q-.9 4.77-1.67 9.57c-.34 2-.65 4.09-1 6.14l-.09.58c-.7 4.9-1.33 9.82-1.85 14.75 0 .32-.06.64-.1 1l-.06.57c-.54 5.22-1 10.47-1.32 15.71v.58c-.2 3-.34 5.93-.46 8.9-.09 2.27-.17 4.54-.22 6.82-.03.16-.03.35-.03.55z" fill="#b8d392"/><path d="m791.5 751.3c-.28 1-.57 2-.88 2.93 0 .13-.07.26-.11.38-.31 1-.62 1.95-.94 2.92-.09.29-.18.56-.28.85h-500.17a3.54 3.54 0 1 1 0-7.08z" fill="#90af5a"/><path d="m799 699.21q0 6.51-.49 12.92c0 .39 0 .8-.09 1.19v.57c-.31 3.92-.76 7.82-1.31 11.68-.19 1.35-.4 2.68-.63 4 0 .2-.05.38-.09.57-.4 2.39-.86 4.78-1.36 7.13q-.9 4.35-2 8.6c-.06.19-.1.38-.15.57-.28 1-.57 2.1-.87 3.14-.16.57-.32 1.13-.49 1.7h-154.52l-113.56-201.93a14.31 14.31 0 0 1 12.47-21.35h259.63c-.34 2-.65 4.09-1 6.14l-.09.58c-.7 4.9-1.33 9.82-1.85 14.75 0 .32-.06.64-.1 1l-.06.57c-.54 5.22-1 10.47-1.32 15.71v.58c-.2 3-.34 5.93-.46 8.9-.09 2.27-.17 4.54-.22 6.82v.57q-.19 7.85-.09 15.71v.57q.11 7.86.51 15.72a5.59 5.59 0 0 0 0 .57q.14 2.9.33 5.79c.17 2.56.36 5.16.58 7.73q.07 1.09.18 2.19v.57q.69 7.89 1.65 15.72c0 .2 0 .39.08.57.32 2.62.67 5.24 1 7.85.32 2.25.65 4.48 1 6.72.06.37.12.76.19 1.14a5.62 5.62 0 0 0 .09.57c.06.43.14.87.21 1.3s.15 1 .23 1.43c.45 2.76.84 5.52 1.18 8.32.18 1.56.36 3.12.51 4.67v.57q.71 7.77.77 15.71a5.42 5.42 0 0 1 0 .57c.14.52.14 1.05.14 1.6z" fill="#ccdfb0"/></svg>