<svg viewBox="0 0 1000 1000" xmlns="http://www.w3.org/2000/svg"><path d="m120.27 572.45 19.75 10.92-19.82 12.83-14.9-11.88z" fill="#78b0a0"/><path d="m436.21 879.82-6.94-16.41-16.81 16.41 11.88 15.23z" fill="#35512e"/><path d="m535.34 444.14-20.05-45.44-138.78 138.6 29.95 62.14 63.57-5.78z" fill="#35512e"/><path d="m671.6 124.4 12.9-25.06 35.28-11.98 20.74 2.96 5.5 29.07-14.52 16.58-29.65 7.47-22.74-1.81z" fill="#60424c"/><path d="m687.49 176.81-23.28-10.56v-32.9l24.4 8.2z" fill="#60424c"/><path d="m677.99 193.72 16.68 64.77-44.54 62.78-114.44-8.3-34.94-46.26 8.12-72.99 119.03-27.47z" fill="#fadcc4"/><path d="m349.89 355.92 25.44-42.95 127.52 47.93 32.49 83.24-12.21 40.29h-100.79l-78.35-21.51-6.46-67.6z" fill="#35512e"/><ellipse cx="405.33" cy="906.48" fill="#f8f8f8" rx="268.35" ry="23.69"/><path d="m750.34 117.29a5.38 5.38 0 0 1 -4.32 2.1c-3.82-.26-7.26-5.76-9.53-11.11-3.11-7.31-10.27-7.31-12.61-2.18-1.67 3.68-1.67 15.42-1.53 21.79a3.73 3.73 0 0 1 -4.1 3.79l-1.36-.13a3.7 3.7 0 0 1 -3.36-4 18.65 18.65 0 0 0 -1-8.4 9.44 9.44 0 0 0 -9.23-6.51c-6.14 0-11.24 10.45-13.63 16.36a4.73 4.73 0 0 1 -6.2 2.57c-3.62-1.51-9.33-5.31-11.91-7.17l-.09-.06a4.49 4.49 0 0 1 -1.4-5.67c7.9-15.1 6.42-21.41 14-35.64 11.66-21.74 44.35-12.89 60.39 0 16.15 12.97 11.33 28.36 5.88 34.26z" fill="#ffa45c"/><path d="m747.2 146.43a5 5 0 0 1 -3.36 2.7 7.7 7.7 0 0 0 -3.58 1.91 6.92 6.92 0 0 0 -.74.79 7.77 7.77 0 0 0 -1.41 2.65l-3 10a13.42 13.42 0 0 1 -20 7.48l-15.56-9.75c-3.43 4.16-8.07 9.77-12.07 14.59l-13.71-25.6-9.57-17.86 7.39-8.95c2.58 1.86 8.29 5.66 11.91 7.17a4.73 4.73 0 0 0 6.2-2.57c2.39-5.91 7.49-16.36 13.63-16.36 7.48 0 10.95 6.77 10.19 14.92a3.7 3.7 0 0 0 3.36 4l1.36.13a3.73 3.73 0 0 0 4.1-3.79c-.14-6.37-.14-18.11 1.53-21.79a5.94 5.94 0 0 1 9.25-2.28 10.44 10.44 0 0 1 3.36 4.46c2.27 5.35 5.71 10.85 9.53 11.11-.47 11.6-.19 18.91 1.37 23.39a4.79 4.79 0 0 1 -.18 3.65z" fill="#60424c"/><path d="m686.3 188.45-8.3 5.27a7 7 0 0 0 -9.47 6.55v66.44h-167.78l.35-3.38s63.34-12.12 109.53-46.53c11.89-8.86 20.3-19.53 25.34-30.58 11.95-26.18 5-54.49-19.34-65.8a92.24 92.24 0 0 1 19.78 3.22 9.49 9.49 0 0 0 7.94-1.35l3.28-2.26a7.48 7.48 0 0 1 10.84 2.62l5.73 10.7 23.28 43.46 1.26 2.34a7.06 7.06 0 0 1 -2.44 9.3z" fill="#fadcc4"/><path d="m903.37 361.17-223.87 155.16a7 7 0 0 1 -11-5.74v-310.32a7 7 0 0 1 9.47-6.55 6.67 6.67 0 0 1 1.51.8l195.13 135.22 28.76 19.94a7 7 0 0 1 0 11.49z" fill="#78b0a0"/><path d="m474.57 444.14h-97.52a27.17 27.17 0 0 1 -27.16-27.14v-123.12a27.17 27.17 0 0 1 27.16-27.17h53.24a80.43 80.43 0 0 0 2 10.55l37.71 143.58 3.71 20.16a18 18 0 0 0 .85 3.1z" fill="#478672"/><path d="m668.52 266.71v177.43h-163.38a6.9 6.9 0 0 0 .07-1 7.35 7.35 0 0 0 -.54-2.74 11.37 11.37 0 0 1 -.74-5.65l.59-4.87a8.34 8.34 0 0 0 -4.7-8.56l-14.23-6.76.26-2.58 1.52-14.82 13.38-130.43z" fill="#78b0a0"/><path d="m529.39 444.14-106.6 137.49a146.33 146.33 0 0 1 -151.06 52.37l-151.53-37.8.07-23.75 68.24-11.78 14.72-2.54 108.94-18.81c-6.33-85.7 15.76-145.91 37.71-183.4v61.08a27.17 27.17 0 0 0 27.16 27.17h97.52a18.08 18.08 0 0 0 6.79 8.65l1.18.8a9.44 9.44 0 0 0 9.58.62l9.09-4.6a7.26 7.26 0 0 0 3.93-5.47z" fill="#587850"/><path d="m535.34 444.14-3 131.33a461.4 461.4 0 0 1 -39.39 176.25l-56.73 128.1h-23.76l14.75-242.54a263.66 263.66 0 0 1 -20.75-37.84 146.58 146.58 0 0 0 16.33-17.81l106.6-137.49z" fill="#35512e"/><path d="m465.49 904.6a5.93 5.93 0 0 1 -4.46 1.88h-50.15a4.8 4.8 0 0 1 -4.59-6.18l2.78-9.22.58-1.92 1.23-4.09.58-1.92 1-3.33h23.75l25.36 13.81 2.4 1.3a6.15 6.15 0 0 1 1.52 9.67z" fill="#478672"/><path d="m474.57 444.14s-97.7 17.31-137.25 87.62c-24.94 44.35-72.86 18.48-134.08 26.37l108.94-18.81c-6.33-85.7 15.76-145.91 37.71-183.4v61.08a27.17 27.17 0 0 0 27.16 27.17z" fill="#35512e"/><path d="m610 266.71h-109.25l.35-3.38s63.34-12.12 109.53-46.53c11.89-8.86 20.3-19.53 25.34-30.58s6.31 54.11-25.97 80.49z" fill="#f3b386"/><path d="m705.94 83.07c-11.84 13.75 6.22 20.36 6.63 36.08a9.44 9.44 0 0 0 -9.23-6.51c-6.14 0-11.24 10.45-13.63 16.36a4.73 4.73 0 0 1 -6.2 2.57c-3.62-1.51-9.33-5.31-11.91-7.17l-.09-.06a4.49 4.49 0 0 1 -1.4-5.67c7.9-15.1 6.42-21.41 14-35.64 11.66-21.74 44.35-12.89 60.39 0-1.03-.52-26.98-13.42-38.56.04z" fill="#ee763a"/><g fill="#442330"><path d="m733.13 103.82s-7.6-2.06-5.84 16.35-9.21 32-22.8 24.55c-11.27-6.18-24.8-3.77-30.71 6.49l-9.57-17.86 7.39-8.95c2.58 1.86 8.29 5.66 11.91 7.17a4.73 4.73 0 0 0 6.2-2.57c2.39-5.91 7.49-16.36 13.63-16.36 7.48 0 10.95 6.77 10.19 14.92a3.7 3.7 0 0 0 3.36 4l1.36.13a3.73 3.73 0 0 0 4.1-3.79c-.14-6.37-.14-18.11 1.53-21.79a5.94 5.94 0 0 1 9.25-2.29z"/><path d="m699.56 162.22-3.51-2.66a3.92 3.92 0 0 0 -6.28 3.21l.26 11z"/><path d="m747.2 146.43a5 5 0 0 1 -3.36 2.7 7.7 7.7 0 0 0 -3.58 1.91 6.92 6.92 0 0 0 -.74.79c-3.14-2.66.46-4.85 4.52-4.59a4.61 4.61 0 0 0 3.16-.81z"/></g><path d="m500.75 266.71h-70.46l-.61 82.17 44.88 95.25 30.58.01 63.48-48.71z" fill="#78b0a0"/><path d="m610.63 216.8c-46.19 34.41-109.53 46.53-109.53 46.53l-.35 3.38-15.16 147.83-15.59 6.3-22-83.84v-.08l-15.66-59.64a80.64 80.64 0 0 1 22.59-79.07c35.58-33.71 91.53-80.23 131.49-82.68 12-.74 22.07 1.14 30.21 4.9a42.05 42.05 0 0 1 19.17 17.42c12.77 22.36 4.96 56.5-25.17 78.95z" fill="#fadcc4"/><path d="m474.56 444.13c-.58-1-38-65-53.72-98.36-9.88-21-50.64-14.8-70.95 13.9v-65.79a27.17 27.17 0 0 1 27.16-27.17h53.24a80.43 80.43 0 0 0 2 10.55l37.71 143.58 3.71 20.16a18 18 0 0 0 .85 3.13z" fill="#2b6b5f"/><path d="m505.21 443.12a6.9 6.9 0 0 1 -.07 1 7.26 7.26 0 0 1 -3.93 5.47l-9.09 4.6a9.44 9.44 0 0 1 -9.58-.62l-1.18-.8a18.08 18.08 0 0 1 -6.79-8.65 17.24 17.24 0 0 1 -.86-3.11l-3.71-20.17 15.56-6.3 14.23 6.76a8.34 8.34 0 0 1 4.7 8.56l-.59 4.87a11.37 11.37 0 0 0 .74 5.65 7.35 7.35 0 0 1 .57 2.74z" fill="#60424c"/><path d="m635.81 137.84s-37.06-30.42-90.59 9.23c-74.32 55-122.17 69.41-97.24 189.83l-15.66-59.64a80.64 80.64 0 0 1 22.59-79.07c35.58-33.71 91.53-80.23 131.49-82.68 12-.74 22.07 1.14 30.21 4.9a42.05 42.05 0 0 1 19.2 17.43z" fill="#f3b386"/><path d="m668.52 444.14 55.04-34.8-55.04-142.63-60.92 34.17z" fill="#78b0a0"/><path d="m903.37 349.68-28.76-19.94s-62.4 116.91-206.09 19.65c-32.27-21.85-64.33 4.48-95.31 28.71a25.78 25.78 0 0 1 -37.5-6.28c-35.94-55.29-35-105.11-35-105.11l-13.34 130.43-1.52 14.86-.27 2.58 14.23 6.76a8.34 8.34 0 0 1 4.7 8.56l-.59 4.87a11.37 11.37 0 0 0 .74 5.65 7.35 7.35 0 0 1 .54 2.74 6.9 6.9 0 0 1 -.07 1h163.39v66.45a7 7 0 0 0 11 5.74l223.85-155.18a7 7 0 0 0 0-11.49z" fill="#478672"/><g fill="#35512e"><path d="m409.65 889.16-.58 1.92a14.63 14.63 0 0 1 9.16 15.4h2a14.6 14.6 0 0 0 .1-1.76 16.7 16.7 0 0 0 -10.68-15.56z"/><path d="m411.46 883.15-.58 1.92a21 21 0 0 1 13.71 19.65 17.14 17.14 0 0 1 -.08 1.76h2c.05-.58.07-1.17.07-1.76a23 23 0 0 0 -15.12-21.57z"/><path d="m431.11 890.16a1 1 0 0 1 -.79-.39 1 1 0 0 1 .18-1.4 63.76 63.76 0 0 1 12.18-7.37 1 1 0 1 1 .81 1.83 63.09 63.09 0 0 0 -11.76 7.17 1 1 0 0 1 -.62.16z"/><path d="m435.27 892.9a1 1 0 0 1 -.79-.39 1 1 0 0 1 .18-1.4 63.67 63.67 0 0 1 12.19-7.42 1 1 0 0 1 .8 1.83 63.35 63.35 0 0 0 -11.76 7.16 1 1 0 0 1 -.62.22z"/><path d="m439.9 895a1 1 0 0 1 -.62-1.79 64.28 64.28 0 0 1 12.19-7.42 1 1 0 0 1 .8 1.83 63.09 63.09 0 0 0 -11.76 7.17 1 1 0 0 1 -.61.21z"/><path d="m465.49 904.6a5.93 5.93 0 0 1 -4.46 1.88h-14.03v-3.56a2.36 2.36 0 0 1 2.36-2.36h5.32a2.43 2.43 0 0 0 2.32-1.56 10 10 0 0 1 4.62-5.37l2.4 1.3a6.15 6.15 0 0 1 1.47 9.67z"/></g><path d="m95.49 625.48a5.93 5.93 0 0 1 -1.88-4.48v-50.13a4.8 4.8 0 0 1 6.18-4.59l9.22 2.78 1.92.58 4.09 1.23 1.92.58 3.33 1v23.75l-13.81 25.36-1.3 2.4a6.15 6.15 0 0 1 -9.67 1.52z" fill="#478672"/><g fill="#35512e"><path d="m110.93 569.64-1.92-.58a14.63 14.63 0 0 1 -15.4 9.16v2a14.6 14.6 0 0 0 1.76.1 16.7 16.7 0 0 0 15.56-10.68z"/><path d="m116.94 571.45-1.92-.58a21 21 0 0 1 -19.65 13.71 17.14 17.14 0 0 1 -1.76-.08v2c.58 0 1.17.07 1.76.07a23 23 0 0 0 21.57-15.12z"/><path d="m109.93 591.1a1 1 0 0 1 .39-.79 1 1 0 0 1 1.4.17 64.28 64.28 0 0 1 7.42 12.19 1 1 0 1 1 -1.83.8 63.45 63.45 0 0 0 -7.17-11.76 1 1 0 0 1 -.21-.61z"/><path d="m107.19 595.26a1 1 0 0 1 .39-.79 1 1 0 0 1 1.4.17 63.67 63.67 0 0 1 7.42 12.19 1 1 0 0 1 -1.83.81 63 63 0 0 0 -7.17-11.77 1 1 0 0 1 -.21-.61z"/><path d="m105.08 599.88a1 1 0 0 1 1.79-.61 64 64 0 0 1 7.42 12.18 1 1 0 0 1 -1.83.81 63.34 63.34 0 0 0 -7.17-11.77 1 1 0 0 1 -.21-.61z"/><path d="m95.49 625.48a5.93 5.93 0 0 1 -1.88-4.48v-14h3.56a2.35 2.35 0 0 1 2.36 2.36v5.32a2.43 2.43 0 0 0 1.56 2.29 10 10 0 0 1 5.37 4.62l-1.3 2.4a6.15 6.15 0 0 1 -9.67 1.49z"/></g></svg>