<svg viewBox="0 0 1000 1000" xmlns="http://www.w3.org/2000/svg"><path d="m872.29 581.23c0 1.3-.06 2.61-.12 3.92v.72c0 .44 0 .89-.06 1.35-.25 5.47-.7 11-1.37 16.47-.19 1.59-.4 3.2-.62 4.81-.17 1.25-.37 2.5-.57 3.75-.08.57-.18 1.13-.28 1.7 0 .36-.12.74-.18 1.1s-.09.52-.14.75c-.19 1.09-.38 2.18-.59 3.26-.17.89-.34 1.78-.52 2.67-.36 1.79-.75 3.57-1.14 5.31-1.48 6.5-3.27 13-5.34 19.45-.06.16-.11.32-.17.49s-.14.44-.23.68v.08a4.43 4.43 0 0 1 -.2.58c-.41 1.29-.86 2.58-1.31 3.86-.16.5-.33 1-.52 1.46-.29.85-.61 1.7-.92 2.53-.51 1.39-1 2.76-1.58 4.14-1.41 3.57-2.89 7.08-4.47 10.53q-1.56 3.46-3.25 6.82c-.32.66-.65 1.33-1 2-.23.5-.5 1-.77 1.53s-.51 1-.78 1.48l-.06.12c-.55 1.07-1.11 2.11-1.68 3.17-2.69 4.89-5.52 9.68-8.53 14.32-.92 1.42-1.85 2.83-2.81 4.23-.64 1-1.27 1.89-1.94 2.82-.44.62-.89 1.25-1.35 1.87q-3.51 4.9-7.25 9.58-4.47 5.58-9.26 10.81c-1.88 2.08-3.82 4.1-5.77 6.09l-1.36 1.38a1.76 1.76 0 0 1 -.31.3c-1.11 1.12-2.21 2.2-3.35 3.28q-7.86 7.51-16.4 14.2c-.44.38-.88.71-1.33 1-3 2.32-6 4.58-9.16 6.74-.84.6-1.7 1.18-2.56 1.76l-.5.34a226.76 226.76 0 0 1 -89.43 35.6c-.85.15-1.71.28-2.57.41q-9.88 1.54-19.95 2.19a368.05 368.05 0 0 0 -69.39 11l-.59.15c-.85.23-1.71.44-2.57.66a346.42 346.42 0 0 1 -89.93 9.88l-2.57-.05a410.25 410.25 0 0 1 -89.93-12.39l-2.56-.66a437.64 437.64 0 0 1 -44.39-14c-1.92-.71-3.82-1.44-5.71-2.17-1.35-.52-2.69-1.05-4-1.59-2.07-.82-4.14-1.65-6.19-2.51l-4.82-2-1-.42c-1.53-.66-3-1.34-4.57-2l-5.11-2.33q-2.52-1.17-5-2.37h-.06c-1.66-.78-3.32-1.59-5-2.4l-4.13-2.07h-.07c-.67-.35-1.35-.69-2-1l-.48-.25q-3.25-1.66-6.47-3.39l-1.8-1c-1.19-.64-2.37-1.29-3.54-1.94q-4.7-2.61-9.27-5.33a1 1 0 0 1 -.22-.13l-4.68-2.81q-2.76-1.68-5.47-3.4c-1.12-.69-2.22-1.4-3.33-2.11l-1.32-.86c-1.11-.71-2.2-1.44-3.28-2.15l-.38-.26q-4.47-2.94-8.81-6c-1.29-.92-2.58-1.83-3.86-2.76a6.64 6.64 0 0 1 -.56-.41q-6.13-4.41-12-9c-.46-.36-.91-.7-1.35-1.06-.67-.52-1.33-1.05-2-1.58l-1.75-1.38-2.82-2.32-2.27-1.91c-1.13-.94-2.24-1.9-3.36-2.86-2.34-2-4.66-4-6.93-6.1-.54-.49-1.08-1-1.61-1.46-1-.87-1.91-1.74-2.85-2.63l-.8-.74-1.79-1.86-1.8-1.71c-.62-.59-1.25-1.19-1.86-1.8-1-1-2-1.93-2.94-2.9s-2.06-2.07-3.06-3.12l-.47-.48-.48-.47-.15-.14c-1.9-2-3.78-4-5.62-6-.39-.43-.78-.84-1.18-1.29s-.89-1-1.35-1.47q-3.92-4.35-7.64-8.76l-2.6-3.13-.17-.21c-.5-.6-1-1.19-1.45-1.79l-.19-.23-.2-.26c-.52-.63-1-1.25-1.54-1.89a.86.86 0 0 1 -.07-.1c-.24-.29-.48-.6-.71-.91-.7-.88-1.39-1.76-2.07-2.66-.19-.26-.39-.5-.59-.76-1.87-2.46-3.71-4.92-5.49-7.41l-2.11-3-1.22-1.75c-.5-.73-1-1.46-1.5-2.19l-.61-.9c-.76-1.14-1.52-2.28-2.27-3.44s-1.67-2.56-2.48-3.86c-.29-.44-.58-.9-.83-1.34-2-3.21-3.94-6.43-5.8-9.67-1.43-2.53-2.82-5-4.16-7.58l-1.33-2.54q-2.1-4.05-4-8.13c-.1-.2-.19-.41-.29-.61-1.12-2.38-2.21-4.76-3.24-7.14-.77-1.78-1.52-3.55-2.26-5.33q-3.81-9.33-6.77-18.76c-.15-.44-.29-.9-.42-1.35-.07-.25-.16-.47-.22-.72-.77-2.53-1.5-5-2.16-7.58-.24-.88-.46-1.75-.69-2.62-.27-1.11-.54-2.21-.8-3.32-.07-.27-.13-.55-.19-.82-.42-1.77-.8-3.55-1.17-5.32l-.24-1.16s0-.05 0-.07c-.49-2.5-.93-5-1.35-7.5-.05-.28-.08-.57-.13-.86-.17-1-.33-2.06-.48-3.09s-.32-2.32-.47-3.47c-.09-.81-.19-1.64-.28-2.45-.16-1.28-.28-2.57-.39-3.85-.05-.45-.09-.91-.12-1.36s0-.64-.08-1c-.05-.59-.09-1.19-.14-1.77 0-.9-.13-1.79-.16-2.67s-.09-1.46-.11-2.19c-.11-1.95-.18-3.9-.19-5.86 0-.69 0-1.4 0-2.09 0-.32 0-.61 0-.93v-1.13a181.12 181.12 0 0 1 3.4-34c.92-4.66 2-9.27 3.29-13.84.71-2.54 1.5-5.08 2.35-7.61.38-1.19.79-2.38 1.21-3.57l.48-1.34c.16-.47.33-.95.52-1.4q2.43-6.48 5.31-12.7c.83-1.83 1.72-3.63 2.64-5.43 2.23-4.43 4.65-8.72 7.23-12.92l.75-1.21c.18-.31.37-.62.56-.92a2.39 2.39 0 0 1 .13-.21c.62-1 1.23-2 1.82-3.07.32-.54.63-1.08.94-1.63.51-.86 1-1.73 1.5-2.6l.6-1q1.08-1.94 2.13-3.87l1.6-3c.7-1.32 1.4-2.66 2.08-4 1-1.91 1.93-3.84 2.88-5.78l.62-1.34c.35-.72.69-1.45 1-2.17 1-2 1.9-4.08 2.8-6.14s1.8-4.16 2.66-6.25c.41-1 .81-2 1.2-2.93.27-.72.56-1.43.84-2.14 1.46-3.74 2.82-7.51 4.12-11.3.59-1.68 1.14-3.39 1.68-5.11.35-1 .67-2.08 1-3.14 1.54-5 2.94-10.09 4.19-15.2.44-1.8.89-3.59 1.39-5.38.11-.45.24-.91.36-1.35q2.64-9.5 6.15-18.95c.65-1.74 1.33-3.47 2-5.18.45-1.09.89-2.17 1.34-3.25.36-.84.69-1.68 1.06-2.49.71-1.66 1.44-3.29 2.18-4.93.63-1.31 1.24-2.66 1.88-4a224.83 224.83 0 0 1 11.57-21c.27-.46.56-.91.84-1.35v-.05c.84-1.34 1.7-2.65 2.57-4 .25-.39.51-.77.77-1.16q3.81-5.68 7.93-11.08c.27-.36.54-.71.84-1.07.6-.8 1.21-1.58 1.85-2.36 1-1.28 2-2.56 3.08-3.81 1.23-1.48 2.45-2.92 3.71-4.36a3.28 3.28 0 0 0 .22-.26c1.68-1.9 3.4-3.8 5.13-5.64l.05-.05q.66-.72 1.35-1.41a221.78 221.78 0 0 1 22.12-20.28c1.82-1.46 3.66-2.88 5.52-4.28l1.85-1.29a4.61 4.61 0 0 0 .38-.28 2.55 2.55 0 0 0 .28-.21c1.84-1.35 3.7-2.65 5.56-3.91.28-.21.55-.39.84-.58 2.28-1.55 4.6-3.05 6.93-4.52.09 0 .17-.11.25-.15l1.33-.83c1.43-.86 2.85-1.71 4.29-2.55q7.66-4.5 15.68-8.35l2.57-1.22q5.46-2.55 11.06-4.8c1.83-.76 3.69-1.48 5.54-2.17 1.14-.42 2.27-.84 3.42-1.25.29-.09.55-.2.85-.27l.29-.11.63-.23c.25-.07.48-.17.72-.24q2.88-1 5.81-1.93c1.91-.59 3.83-1.15 5.78-1.73q5.52-1.56 11.13-2.84c6.12-1.42 12.33-2.55 18.58-3.43l2.4-.32 1.35-.18.83-.11 3.46-.38h.04l.7-.09h.13c2.29-.22 4.57-.43 6.86-.59l1-.07c1.6-.11 3.2-.2 4.82-.26s3-.12 4.47-.15l2.56-.05q9.36-.13 18.77.53c.44 0 .89.06 1.35.11 1.32.09 2.66.21 4 .33 2.4.23 4.79.51 7.22.81.27 0 .56.06.83.11 2.09.26 4.21.57 6.3.9a228.13 228.13 0 0 1 25.35 5.58c.45.11.89.25 1.33.38q7.46 2.12 14.86 4.8c1.08.39 2.15.8 3.24 1.19l.84.32q2.94 1.14 5.84 2.34l2.57 1.08.25.11c5.51 2.37 10.89 4.94 16.1 7.69.46.23.91.48 1.35.72a223.54 223.54 0 0 1 25 15.54q.43.28.84.6c.32.22.61.44.92.67l1.81 1.34q7.9 5.91 15.18 12.43c.46.4.91.8 1.35 1.22a223.13 223.13 0 0 1 27.16 29.53c.87 1.13 1.73 2.27 2.57 3.42.71 1 1.4 1.9 2.08 2.86l.82 1.15q3.16 4.5 6.11 9.15c.21.3.39.59.58.89s.18.3.28.46c1.32 2.08 2.69 4.14 4.09 6.17.42.64.87 1.26 1.33 1.89a180.29 180.29 0 0 0 35.75 37.6c1 .77 1.94 1.53 2.93 2.27.29.21.56.42.85.61l.7.52.44.32c1 .75 2 1.48 3.05 2.2l1.33.92c1.57 1.08 3.17 2.13 4.78 3.16q1.83 1.19 3.7 2.31c1 .61 2 1.2 3 1.79l.51.3 1.86 1 .24.14c.76.42 1.52.84 2.29 1.24 1.27.69 2.55 1.35 3.83 2a1.54 1.54 0 0 0 .34.17c1.44.75 2.89 1.44 4.34 2.12.41.21.85.4 1.28.59.87.41 1.75.8 2.64 1.19l.75.33 1.35.58 1.22.51.83.35.48.19c.68.28 1.37.56 2.06.82 2.69 1.07 5.41 2.05 8.17 3l1.35.46c.16.06.34.09.49.16s.56.17.83.28c1.1.35 2.22.68 3.33 1 1.35.4 2.7.78 4.05 1.15 1.91.5 3.78 1 5.69 1.61.66.19 1.32.39 2 .6 4.26 1.28 8.49 2.73 12.73 4.3q2.77 1.05 5.51 2.15l.89.36.27.11c2.11.85 4.19 1.73 6.28 2.65.56.26 1.11.5 1.66.77l1.35.6c1.12.52 2.24 1.05 3.33 1.59.7.32 1.37.64 2 1s1.24.61 1.84.93a.73.73 0 0 1 .12 0c.29.15.57.27.85.42 2.93 1.51 5.84 3.05 8.69 4.67q6.36 3.61 12.43 7.57c.91.59 1.8 1.18 2.68 1.78.26.17.52.34.77.52s.77.51 1.13.78c.13.1.27.18.39.27l.27.19c.84.58 1.66 1.15 2.49 1.75l1.12.8.19.15c.83.6 1.66 1.21 2.48 1.83.38.27.76.55 1.12.83.52.41 1 .79 1.53 1.19a1.88 1.88 0 0 1 .23.16l1.27 1 .06.05c1 .76 1.95 1.53 2.91 2.31.23.2.47.38.69.56.37.3.73.61 1.1.9.17.16.35.3.52.44l2.35 2c.72.61 1.42 1.23 2.1 1.84s1.49 1.3 2.2 2 1.58 1.41 2.36 2.14l.83.78c3.06 2.85 6 5.81 8.9 8.84.34.34.67.7 1 1 1.39 1.45 2.75 2.94 4.07 4.42q4.56 5.12 8.78 10.48c.42.53.84 1.06 1.23 1.6s.79 1 1.18 1.52c.72.93 1.41 1.87 2.11 2.82.47.63.93 1.27 1.37 1.89l1.3 1.73.14.19c.46.63.9 1.28 1.34 1.92 1.14 1.64 2.25 3.3 3.33 4.95 0 0 0 .06.06.08l.44.69c.15.23.29.45.43.69.4.61.78 1.22 1.18 1.85.59.93 1.16 1.86 1.73 2.8.71 1.19 1.42 2.38 2.12 3.58.26.45.52.9.76 1.34 1.25 2.16 2.44 4.33 3.61 6.53s2.23 4.32 3.3 6.49c.49 1 1 1.94 1.41 2.92.11.23.21.45.31.69.37.76.72 1.52 1.05 2.29s.58 1.24.84 1.87.59 1.37.89 2a223.45 223.45 0 0 1 12.26 36.94c.1.44.21.9.31 1.35q1.75 7.54 3 15.22c.15.85.28 1.68.41 2.53 0 .34.09.67.14 1 .22 1.4.41 2.79.58 4.19.15 1.24.31 2.48.43 3.73.11 1 .22 2 .31 3.05.18 1.8.32 3.58.44 5.37 0 .18 0 .37.05.54q.62 9.74.42 19.53z" fill="#e5e6f2"/><g fill="#d8daeb"><path d="m220.6 276.3v437l-.8-.74-1.8-1.65v-430.65c.87-1.34 1.73-2.65 2.6-3.96z"/><path d="m313.1 196.6v580.95h-.07c-.67-.35-1.35-.69-2-1l-.48-.25v-578.48z"/><path d="m405.6 175.39v636.74l-2.56-.66v-294.93s0 0 0 0v-341.1z"/><path d="m498.1 193.87v630.7l-2.57-.05v-631.73z"/><path d="m590.6 267.15v546.85c-.85.23-1.71.44-2.57.66v-551c.87 1.2 1.73 2.34 2.57 3.49z"/><path d="m683.1 351.64v448.68c-.85.15-1.71.28-2.57.41v-450.18l1.35.58z"/><path d="m775.59 391.91v370.71c-.84.6-1.7 1.18-2.56 1.76v-374.23c.26.17.52.34.77.52s.77.51 1.13.78c.13.1.27.18.39.27z"/></g><path d="m520.21 508.51h5.95v110.77h-5.95z" fill="#b3acc2"/><path d="m803.7 508.51h5.95v110.77h-5.95z" fill="#b3acc2"/><rect fill="#c7c1d3" height="12.62" rx="6.31" width="329.86" x="500" y="502.2"/><path d="m771.31 470v25.8a6.43 6.43 0 0 1 -6.43 6.43h-76.74a6.43 6.43 0 0 1 -6.44-6.43v-25.8a6.44 6.44 0 0 1 6.44-6.44h76.74a6.43 6.43 0 0 1 6.43 6.44z" fill="#bdb7cb"/><path d="m681.7 482.33h89.61v1.08h-89.61z" fill="#d3cedd"/><circle cx="726.51" cy="482.87" fill="#c7c1d3" r="14.65"/><circle cx="726.51" cy="482.87" fill="#d3cedd" r="6.47"/><path d="m868.35 619.06c-.17.89-.34 1.78-.52 2.67-.36 1.79-.75 3.57-1.14 5.31-1.48 6.5-3.27 13-5.34 19.45-.06.16-.11.32-.17.49s-.14.44-.23.68v.08a4.43 4.43 0 0 1 -.2.58c-.41 1.29-.86 2.58-1.31 3.86-.16.5-.33 1-.52 1.46-.29.85-.61 1.7-.92 2.53-.51 1.39-1 2.76-1.58 4.14-1.41 3.57-2.89 7.08-4.47 10.53q-1.56 3.46-3.25 6.82c-.32.66-.65 1.33-1 2-.23.5-.5 1-.77 1.53s-.51 1-.78 1.48l-.06.12c-.55 1.07-1.11 2.11-1.68 3.17-2.69 4.89-5.52 9.68-8.53 14.32-.92 1.42-1.85 2.83-2.81 4.23-.64 1-1.27 1.89-1.94 2.82-.44.62-.89 1.25-1.35 1.87q-3.51 4.9-7.25 9.58-4.47 5.58-9.26 10.81c-1.88 2.08-3.82 4.1-5.77 6.09l-1.36 1.38a1.76 1.76 0 0 1 -.31.3c-1.11 1.12-2.21 2.2-3.35 3.28q-7.86 7.51-16.4 14.2c-.44.38-.88.71-1.33 1-3 2.32-6 4.58-9.16 6.74-.84.6-1.7 1.18-2.56 1.76l-.5.34a226.76 226.76 0 0 1 -89.43 35.6c-.85.15-1.71.28-2.57.41q-9.88 1.54-19.95 2.19a368.05 368.05 0 0 0 -69.39 11l-.59.15c-.85.23-1.71.44-2.57.66a346.42 346.42 0 0 1 -89.93 9.88l-2.57-.05a410.25 410.25 0 0 1 -89.93-12.39l-2.56-.66a437.64 437.64 0 0 1 -44.39-14c-1.92-.71-3.82-1.44-5.71-2.17-1.35-.52-2.69-1.05-4-1.59-2.07-.82-4.14-1.65-6.19-2.51l-4.82-2-1-.42c-1.53-.66-3-1.34-4.57-2l-5.11-2.33q-2.52-1.17-5-2.37h-.06c-1.66-.78-3.32-1.59-5-2.4l-4.13-2.07h-.07c-.67-.35-1.35-.69-2-1l-.48-.25q-3.25-1.66-6.47-3.39l-1.8-1c-1.19-.64-2.37-1.29-3.54-1.94q-4.7-2.61-9.27-5.33a1 1 0 0 1 -.22-.13l-4.68-2.81q-2.76-1.68-5.47-3.4c-1.12-.69-2.22-1.4-3.33-2.11l-1.32-.86c-1.11-.71-2.2-1.44-3.28-2.15l-.38-.26q-4.47-2.94-8.81-6c-1.29-.92-2.58-1.83-3.86-2.76a6.64 6.64 0 0 1 -.56-.41q-6.13-4.41-12-9c-.46-.36-.91-.7-1.35-1.06-.67-.52-1.33-1.05-2-1.58l-1.75-1.38-2.82-2.32-2.27-1.91c-1.13-.94-2.24-1.9-3.36-2.86-2.34-2-4.66-4-6.93-6.1-.54-.49-1.08-1-1.61-1.46-1-.87-1.91-1.74-2.85-2.63l-.8-.74-1.78-1.86-1.8-1.71c-.62-.59-1.25-1.19-1.86-1.8-1-1-2-1.93-2.94-2.9s-2.06-2.07-3.06-3.12l-.47-.48-.48-.47-.15-.14c-1.9-2-3.78-4-5.62-6-.39-.43-.78-.84-1.18-1.29s-.89-1-1.35-1.47q-3.92-4.35-7.64-8.76l-2.6-3.13-.17-.21c-.5-.6-1-1.19-1.45-1.79l-.19-.23-.2-.26c-.52-.63-1-1.25-1.54-1.89a.86.86 0 0 1 -.07-.1c-.24-.29-.48-.6-.71-.91-.7-.88-1.39-1.76-2.07-2.66-.19-.26-.39-.5-.59-.76-1.87-2.46-3.71-4.92-5.49-7.41l-2.11-3-1.22-1.75c-.5-.73-1-1.46-1.5-2.19l-.61-.9c-.76-1.14-1.52-2.28-2.27-3.44s-1.67-2.56-2.48-3.86c-.29-.44-.58-.9-.83-1.34-2-3.21-3.94-6.43-5.8-9.67-1.43-2.53-2.82-5-4.16-7.58l-1.33-2.54q-2.1-4.05-4-8.13z" fill="#c5c0d1"/><path d="m382.44 698.4-8.42 14.33-8.57-8.06-13.95-48.95-4.03-160.72 53.54-.43 85.73 39.06 43.99 59.61 3.14 54.59-132.86 53.56-10.85 5.05z" fill="#fd5f00"/><path d="m498.84 420.2-.35-14.76v-2.21l-6.15-16.87s-13.52-8.41-14.21-8.14-14.75 7.72-14.75 7.72l-9.89 7.86-1.06 13.71s1.07 11.5 4.2 15.66l2.48 3-1.49.14 1 7.23-1.9 1.16-5.27 4.3-12 .58-8.4 14 27.3 27.31 41.49-21.82 6-20.39-4.53-5.59-3.12-6.5z" fill="#efa08d"/><path d="m391.87 455.22-19.16 26.45-25.24 13.33 33.23 71.81 76 50.44 74.03-24.01-18.64-78.87 80.66-29.31 11.18-21.69-25.99-36.77h-24.95l-30.5 24.64-21.24-18.14-27.61 23.5-34.2-17.03-25.54 22.18z" fill="#005792"/><path d="m366.85 464.6-9.78 14.4a7.48 7.48 0 0 0 -1 1.25c0-.07-.17-.81-.42-2-.05-.25-.11-.51-.17-.79-.24-1.17-.55-2.63-.89-4.27l-.2-.92c-1-4.92-2.34-11.1-3.26-15.48-.08-.37-.15-.71-.22-1-.34-1.58-.6-2.85-.77-3.63a.71.71 0 0 1 .7-.85h22.8a2 2 0 0 1 1.34.49l1 .82z" fill="#384249"/><ellipse cx="425.67" cy="701.52" fill="#b1a9be" rx="158.51" ry="44.29"/><ellipse cx="592.75" cy="682.29" fill="#b1a9be" rx="158.51" ry="44.29"/><path d="m407.58 505.88a98 98 0 0 1 -3 25.06 134.11 134.11 0 0 0 -18.78-20.77v-.05c-6.79-6.05-14.3-11-22-13.62a32.87 32.87 0 0 0 -16.2-1.49c7.95-14.68 24.57-31.05 42.78-39.1.51-.23 1.05-.46 1.61-.69.36.47 9.33 12.25 13.55 31.6a93.71 93.71 0 0 1 2.04 19.06z" fill="#005792"/><path d="m592.75 485.06c-20.14 15.67-41 29.32-48.24 34a6.82 6.82 0 0 0 -3.08 4.93c-1.36 11.31-2.93 22.43-4.5 32.61-2.34 15.25-4.67 28.34-6.2 36.64l-1.41.24-1.39.25-2.23.42-1.8.35-1.27.26-1.27.28-1.23.26-2.36.54-.53.12-1.65.4a64.7 64.7 0 0 1 -13.59 1.84 65.69 65.69 0 0 1 -12.12-.75l-33.69-5.2a31.43 31.43 0 0 1 -21.94-14.56s0 0 0 0l-.87-1.42c-1.83-3-3.81-6.35-5.91-9.91l-.62-1c-1.06-1.8-2.17-3.65-3.29-5.54l-1-1.71c-3.69-6.13-7.73-12.61-12.1-19l-1.36-2-.26-.36-.83-1.17c-.54-.78-1.1-1.55-1.67-2.32s-1.12-1.54-1.7-2.3a98 98 0 0 0 3-25.06 93.71 93.71 0 0 0 -2.16-19.06c-4.16-19.05-12.91-30.75-13.53-31.57s0 0 0 0c20.28-8.55 64.84-20.47 64.84-20.47l2.38.6 20.81 5.24 21.36-7.48s21.57-3.75 51.74-6.5l18 9.45c-.6 8.29.16 20.18 6.58 31.76q1.2 2.18 2.68 4.33c.33.48.68 1 1 1.44a56.53 56.53 0 0 0 11.41 11.42z" fill="#005792"/><path d="m592.76 485.07-.01-.01" fill="none" stroke="#0a0a0a" stroke-miterlimit="10"/><path d="m637.75 432.3c-3.93-25.84-53.1-22.51-102.27-28.39l-4.48-1.82a28 28 0 0 0 -17.26-1.28 3.24 3.24 0 0 0 -2.39 2.41c-.42 1.8-1.07 4.68-1.71 7.9a9.29 9.29 0 0 0 3.95 9.5 5.76 5.76 0 0 0 3.69 1l1.45-.11a1 1 0 0 1 1 1.29 36.7 36.7 0 0 0 -1.9 7.86 1.27 1.27 0 0 0 2.37.79c2.73-5 7.53-11.16 15.3-14l17.5 9.15 18 9.45c-.6 8.29.16 20.18 6.58 31.76q1.2 2.18 2.68 4.33c.33.48.68 1 1 1.44a56.53 56.53 0 0 0 11.46 11.48c20.13-15.65 39.58-33.33 44.12-46.08 0 0 0 0 0-.06a13.68 13.68 0 0 0 .91-6.62z" fill="#efa08d"/><path d="m501.25 433.1s-11.28 33.36-38 34.14c-13.82.4-19.71-7-22.17-14.26a35.24 35.24 0 0 1 -1.62-13.41l16.88-4.72.19-.06.2-.05.88-8.39a31.31 31.31 0 0 0 8.24 8.27 17.63 17.63 0 0 0 10 3.11h.92s.55 0 .82-.06h.1l.74-.09.63-.11a3.73 3.73 0 0 0 .46-.09l.73-.17.61-.17c.35-.1.7-.21 1.05-.34l.7-.26h.05c.22-.09.43-.18.65-.29l.29-.13.57-.29.17-.1.53-.29.41-.25.33-.21c.19-.13.38-.25.56-.39a.83.83 0 0 0 .15-.11 6.41 6.41 0 0 0 .52-.39q.48-.37.93-.78l.6-.57c.26-.26.52-.53.77-.82l.64-.71c.28-.31.54-.63.8-.95a29 29 0 0 0 2.1-2.88c.15-.22.28-.43.41-.65s.17-.27.24-.4.26-.44.38-.66l.19-.35c.15-.26.28-.52.41-.79a1.74 1.74 0 0 0 .14-.27c.13-.26.25-.52.37-.78.05-.1.1-.2.14-.3.15-.33.29-.66.43-1 .28-.69.54-1.39.77-2.1 0-.17.11-.34.16-.51.21-.69.4-1.38.56-2.09.06-.26.12-.52.17-.78s.05-.22.07-.33q.09-.4.15-.84 0-.15.06-.33c.05-.33.1-.67.14-1 0-.24.06-.47.08-.71l.12.67 1.17 6.21z" fill="#efa08d"/><path d="m600.47 627.22c0-.39 0-.77 0-1.14s-.05-.76-.08-1.13c0-.77-.12-1.53-.21-2.26l-.15-1.07c0-.39-.12-.77-.19-1.15s-.12-.66-.19-1-.14-.7-.22-1.05a37.25 37.25 0 0 0 -1.27-4.39c-.15-.44-.32-.87-.48-1.28s-.32-.79-.49-1.17a1.43 1.43 0 0 0 -.13-.28 0 0 0 0 0 0 0c-5.71-13.32-19.28-18.6-34.35-19.87-.79-.07-1.59-.13-2.39-.17a135.88 135.88 0 0 0 -29.55 2l-1.41.24-1.4.25c-.75.13-1.49.28-2.23.42l-1.79.35-1.27.26-1.28.28-1.22.26c-.81.18-1.6.35-2.36.54l-.53.12-1.53.37h-.12c-.5.12-1 .24-1.5.34l-.42.09c-.53.12-1.07.23-1.61.33l-1 .17c-.28.05-.56.11-.85.14h-.11c-.41.08-.84.14-1.27.19a1.86 1.86 0 0 1 -.33 0c-.36.05-.72.1-1.09.13l-.76.09-1.17.1h-.28l-1.22.08h-.26-.54-.23-.73-.26c-1.52 0-3 0-4.58 0l-1.25-.07-1.05-.07c-1-.07-2-.17-2.95-.28l-.75-.09c-.51-.08-1-.14-1.54-.23l-13-2-2.39-.37-18.32-2.83a31.43 31.43 0 0 1 -22-14.56 0 0 0 0 0 0 0c-.29-.48-.57-.95-.87-1.43-1.84-3-3.8-6.35-5.92-9.91-.19-.34-.4-.69-.61-1-1.06-1.81-2.16-3.65-3.29-5.54-.35-.57-.69-1.14-1-1.71-3.7-6.13-7.74-12.61-12.11-19l-1.36-2-.26-.37-.83-1.17c-.54-.77-1.1-1.55-1.67-2.32s-1.13-1.54-1.69-2.3c-1.68-2.24-3.41-4.44-5.16-6.57l-1.12-1.19c-.43-.51-.87-1-1.3-1.51q-1.91-2.19-3.88-4.28l-.91-1c-.36-.38-.74-.76-1.12-1.14l-.18-.17-1.17-1.16-1-1c-1-.92-1.94-1.8-2.94-2.66.42 1 .83 2.1 1.21 3.17.2.52.38 1.06.56 1.6.35 1.09.69 2.17 1 3.27.08.26.14.51.21.77.19.7.37 1.4.53 2.11s.34 1.42.49 2.14.28 1.42.41 2.15.23 1.28.35 1.92v.09c.11.69.22 1.4.31 2.09s.18 1.3.25 2a1 1 0 0 1 0 .17c.06.43.1.86.15 1.29s.07.75.11 1.13c.06.56.1 1.11.15 1.68l.09 1.34c0 .48.07 1 .08 1.42s.05.71.06 1.06 0 .72.05 1.09 0 1 0 1.47v.67 2.91 2.27s0 1.55-.06 2.32v1.51s0 1.08-.07 1.62v.73.5.3c0 .55-.06 1.11-.11 1.67v.67s0 .72-.08 1.08c0 .55-.07 1.09-.13 1.63s-.08 1-.13 1.45v.06c-.05.55-.1 1.12-.17 1.67s-.12 1.3-.2 1.95q-.31 2.94-.71 5.85c-.08.63-.17 1.26-.26 1.89a.06.06 0 0 0 0 0l-.27 1.94c-.11.78-.24 1.56-.36 2.34-.07.51-.15 1-.24 1.52 0 .33-.1.66-.15 1-.05.31-.11.6-.15.91l-.33 1.91v.27s-.08.46-.13.69c-.16.94-.33 1.89-.5 2.84-.27 1.53-.55 3.05-.83 4.56-.15.82-.31 1.63-.46 2.44 0 .15-.07.3-.1.46v.22c-.11.53-.21 1.07-.32 1.61l-.11.58c-.14.73-.28 1.45-.43 2.17-.2 1-.41 2-.6 3l-.24 1.23c-.08.35-.14.7-.22 1q-.2.92-.36 1.83c-.06.27-.11.53-.16.79a.15.15 0 0 1 0 .07s0 .15-.06.28 0 .15-.05.24c-.22 1.09-.44 2.19-.65 3.25-.11.55-.21 1.09-.32 1.64l-.22 1.14c-.08.38-.15.76-.22 1.14q-.27 1.35-.51 2.67c-.14.76-.28 1.53-.41 2.3-.09.49-.17 1-.24 1.48-.22 1.35-.4 2.7-.58 4.07-.06.52-.13 1-.18 1.54v.27s0 .47-.08.7c-.08.7-.15 1.42-.22 2.12 0 .18 0 .37-.05.55 0 .36-.07.73-.1 1.1s-.05.57-.07.86-.08.86-.11 1.29c-.05.66-.1 1.32-.14 2v.66c0 .36 0 .73-.06 1.1l-.06 1.06v.69c-.08 1.76-.15 3.51-.19 5.27v1 .7 1.74 1 5.37 1.6 1.49.57l.06 2.09v.13a.2.2 0 0 1 0 .07c0 1.39.08 2.76.14 4.11 0 .45 0 .91.06 1.37v.06.73s0 .45 0 .68c.06 1.3.13 2.57.21 3.82 0 .49.05 1 .09 1.45s0 .73.08 1.1v.54s.05.59.07.88.05.83.09 1.24.05.56.06.85c0 .45.07.89.11 1.34a1.23 1.23 0 0 1 0 .19v.38c.05.58.11 1.15.15 1.71s.12 1.29.18 1.92v.27c.1 1.05.2 2.08.3 3.07 0 .41.09.8.12 1.2.08.73.16 1.41.23 2.08 0 .16 0 .31.05.46s.07.53.09.79v.24l7.38.92 2.37.3 13.13 1.66-3.36 8.67s1.8 0 5-.09h.41c1.39 0 3-.06 4.89-.11h.84l4.38-.12h1l3.54-.12 2.82-.09c4.52-.15 9.55-.34 14.94-.56l2.33-.11 1.48-.06 4.53-.21c4.89-.24 10-.51 15.26-.81l4.07-.24 8-.51 2.39-.17c5.2-.36 10.45-.76 15.66-1.21l3.78-.33c5.24-.47 10.42-1 15.44-1.56.81-.08 1.62-.17 2.42-.27l2.37-.28c1.58-.19 3.14-.38 4.67-.59 1-.13 1.95-.26 2.91-.41s1.9-.28 2.83-.44 1.86-.32 2.77-.48l2.72-.52c.71-.14 1.42-.29 2.12-.45.44-.09.87-.18 1.3-.29s1.06-.23 1.58-.36 1.31-.31 2-.48l1.87-.48.68-.19 1.85-.52a1.17 1.17 0 0 0 .2-.06c.7-.2 1.38-.4 2-.61l.3-.1 1.87-.59.33-.12c.63-.21 1.25-.41 1.86-.63l1.53-.55c.66-.24 1.33-.49 2-.75l.3-.11 1.41-.57c1.6-.65 3.15-1.32 4.65-2l.52-.24 1.13-.55.74-.36c.92-.45 1.82-.93 2.69-1.4a0 0 0 0 0 0 0c.65-.34 1.28-.69 1.91-1.06s1.26-.73 1.87-1.1c1.35-.82 2.64-1.65 3.9-2.52.4-.27.8-.55 1.19-.84a3.05 3.05 0 0 0 .32-.22c.49-.35 1-.71 1.44-1.07.41-.3.81-.62 1.2-.92q1-.75 1.86-1.53c1-.8 1.88-1.63 2.76-2.45s1.88-1.83 2.76-2.76l1.1-1.17c.06-.08.13-.15.19-.22.36-.41.72-.81 1.07-1.23l.81-1c.51-.63 1-1.25 1.48-1.88l.91-1.25c.33-.46.66-.92 1-1.39s.47-.69.68-1 .5-.78.74-1.18l.07-.12c.24-.39.47-.78.69-1.18s.47-.82.7-1.24.44-.84.66-1.25c.64-1.26 1.21-2.52 1.74-3.78.12-.29.24-.58.35-.87.24-.58.46-1.16.66-1.73.12-.33.23-.65.33-1 .36-1 .66-2.05.94-3.07.09-.31.16-.6.24-.91.22-.86.41-1.71.59-2.57.24-1.21.43-2.43.57-3.63.06-.41.1-.82.14-1.23s.06-.59.08-.88c.11-1.33.16-2.64.16-3.94 0-.49-.01-.89-.02-1.27z" fill="#fd5f00"/><path d="m381.81 492.4a4.1 4.1 0 0 0 0 4.35 1 1 0 0 1 -.32 1.34l-1.54.94a13.39 13.39 0 0 1 -6.51 2l-.94-.54-1-.53c-.3-.17-.61-.33-.92-.49l-.47-.24-.72-.35-.29-.15-.46-.21c-.23-.11-.45-.22-.67-.31l-.69-.31h-.07l-.68-.28-.72-.29-.54-.21-.54-.2-.62-.22-.46-.16a38 38 0 0 0 -5.74-1.46l-2.67-9a6.75 6.75 0 0 1 -.29-2 7 7 0 0 1 1.09-3.76 7.48 7.48 0 0 1 1-1.25 13.49 13.49 0 0 1 12.71-3.45l2 .49a1.58 1.58 0 0 1 .18 3l-3.82 1.46a.4.4 0 0 0 .1.78l4.5.41a14.37 14.37 0 0 1 4.49 1.16 14.19 14.19 0 0 1 3.89 2.54 5.09 5.09 0 0 1 1 1.27.81.81 0 0 1 .1.18 5.25 5.25 0 0 1 -.18 5.24z" fill="#efa08d"/><path d="m382.2 486.82a.81.81 0 0 0 -.1-.18 5 5 0 0 0 -1-1.25 14.19 14.19 0 0 0 -3.89-2.54 14.37 14.37 0 0 0 -4.49-1.16l-4.5-.41a.4.4 0 0 1 -.1-.78l3.82-1.46a1.58 1.58 0 0 0 -.18-3l-2-.49a13.49 13.49 0 0 0 -12.69 3.45l-5.54-26.29c0-.09 0-.14 0-.14h24.43l5.19 28.43 1 5.56z" fill="#6b7b8e"/><path d="m407.28 684.41-3.54 9.59-2.73 7.4-18.16 8.77a6.69 6.69 0 0 1 -8.54-9.64l7-10.89 7.5-11.71a6.8 6.8 0 0 1 10.44-1.24z" fill="#00122f"/><g fill="#fc4100"><path d="m394.48 696a.82.82 0 0 1 1.36.76 7.65 7.65 0 0 0 2.38 6.83.82.82 0 0 1 -1.08 1.24 9.33 9.33 0 0 1 -2.92-8.37.76.76 0 0 1 .26-.46z"/><path d="m390.3 698a.83.83 0 0 1 1.36.77 7.77 7.77 0 0 0 2.38 6.82.82.82 0 0 1 .08 1.16.81.81 0 0 1 -1.16.08 9.33 9.33 0 0 1 -2.92-8.37.82.82 0 0 1 .26-.46z"/><path d="m386 699.83a.82.82 0 0 1 1.35.77 7.74 7.74 0 0 0 2.38 6.82.82.82 0 0 1 -1.07 1.25 9.34 9.34 0 0 1 -2.93-8.37.89.89 0 0 1 .27-.47z"/></g><path d="m569.86 681.62 64.23 9.49 71.61-10.6v4.11l-72.15 11.53-63.69-9.71z" fill="#384249"/><path d="m637.03 671.18-6.06 19.46-61.11-9.02z" fill="#6b7b8e"/><path d="m726.21 610.63-10.21 34.73-10.3 35.15-71.61 10.59 22.21-72.26a.11.11 0 0 1 0 0z" fill="#6b7b8e"/><path d="m656.32 618.8-15.94 51.86-6.29 20.44-3.12-.46 6.06-19.46 15.78-50.73z" fill="#384249"/><path d="m693.84 647.82c-4.56 4.36-7.89 10.8-12.35 15.8-3 .12-5.28-1.46-5.75-4.41-.71-4.39 2.87-10.19 8-12.93a11.67 11.67 0 0 1 2.16-.92 5 5 0 0 0 -.26 2.3c.39 2.44 3 3.18 5.86 1.66a9.29 9.29 0 0 0 2.24-1.74 2.56 2.56 0 0 1 .1.24z" fill="#ccc"/><path d="m683.48 644.71a2.53 2.53 0 0 0 .14.49 4.14 4.14 0 0 0 .61-.28c2.2-1.17 3.73-3.66 3.43-5.54a2.25 2.25 0 0 0 -.15-.48 6.34 6.34 0 0 0 -.61.27c-2.19 1.17-3.72 3.66-3.42 5.54z" fill="#ccc"/><path d="m381.32 689.85c.61 5.35 1.12 8.55 1.12 8.55l-10.6 3.91-6.38 2.36s-76-142.11-43.89-190.18c6-9 12.49-14.58 19.1-17.44a29.23 29.23 0 0 1 6.78-2 30.87 30.87 0 0 1 10.46 0 46 46 0 0 1 15.49 6 79.59 79.59 0 0 1 12.29 9.1 74.38 74.38 0 0 1 4 13.07c6.36 30.13-3.06 66.79-8.06 93.51-4.8 25.71-2.07 58-.31 73.12z" fill="#fd5f00"/><path d="m388.93 716.88-22.61 14.49a6.7 6.7 0 0 1 -9.93-3.36 6.47 6.47 0 0 1 .29-5.18l8.78-18.16 6.37-2.35 10.6-3.91 7.72 8a6.81 6.81 0 0 1 -1.22 10.47z" fill="#00204a"/><path d="m583.75 597.88-.46-.16c-30.26-9.66-66 21.19-97.27 46.18a193 193 0 0 1 -27.26 17.8h-.07l-2.55 1.39h-.08a350.4 350.4 0 0 1 -48.77 21.24l-8-7.73a6.8 6.8 0 0 0 -10.44 1.24l-7.5 11.71c-1.77-15.22-4.45-47.32.36-72.92.6-3.23 1.27-6.61 2-10.11l.06-.28s0 0 0-.06c5.07-25.33 11.59-56.7 6-83.06a74.38 74.38 0 0 0 -4-13.07c.38.51 13.43 18.25 11.85 57.14-1.59 39.48 27.52 69.62 72.71 56.29 44.72-13.14 81.48-37.55 113.42-25.6z" fill="#fc4100"/><path d="m371.84 702.31-6.37 2.35s-76-142.11-43.89-190.18c6-9 12.49-14.58 19.1-17.44-.55.53-22 21.7-12.19 56.18 10 34.92 40.67 44.41 43.36 65.57s-19.96 53.79-.01 83.52z" fill="#fc4100"/><path d="m371.83 702.32c-.17.31-4.55 10.29-8 16.86-3.34 6.39-4.75 11.15-7.45 8.83a6.47 6.47 0 0 1 .29-5.18l8.78-18.16z" fill="#00122f"/><path d="m521.22 693.87c-49.22 6.45-120.22 7.52-120.22 7.52l6.27-17s31.5 13.52 58.8-5.51 85.86-8.27 112.08-25.87c25.64-17.21 19.18-40.67 18.88-41.72l.12.28c10.85 24.66-2.23 72.63-75.93 82.3z" fill="#fc4100"/><path d="m498.84 420.2c0 .43-1.21 19.18-15.59 24.28s-26.55-9.75-26.55-9.75l.88-8.39a31.31 31.31 0 0 0 8.24 8.27 17.63 17.63 0 0 0 10 3.11h.92s.55 0 .82-.06h.1c.25 0 .49-.06.74-.09l.63-.11a3.4 3.4 0 0 0 .46-.09l.73-.17c.2-.05.41-.1.61-.17s.7-.21 1.05-.34l.7-.26h.05c.22-.09.43-.18.65-.29l.29-.13.57-.29.17-.1.53-.29c.14-.08.28-.16.41-.25l.33-.21c.19-.13.38-.25.56-.39a.83.83 0 0 0 .15-.11 6.41 6.41 0 0 0 .52-.39q.48-.37.93-.78l.6-.57c.26-.26.52-.53.77-.82l.64-.71c.28-.31.54-.63.8-.95a29 29 0 0 0 2.1-2.88c.15-.22.28-.43.41-.65s.17-.27.24-.4.26-.44.38-.66l.19-.35c.14-.26.28-.52.41-.79a1.74 1.74 0 0 0 .14-.27c.13-.26.25-.52.37-.78.05-.1.1-.2.14-.3.15-.33.29-.66.43-1 .28-.69.54-1.39.77-2.1.06-.17.11-.34.16-.51.21-.69.4-1.38.56-2.09.06-.26.12-.52.17-.78s.05-.22.07-.33q.09-.4.15-.84 0-.15.06-.33c.05-.33.1-.67.14-1h.2.05z" fill="#e06855"/><path d="m502 598.2a65.69 65.69 0 0 1 -12.12-.75l-33.69-5.2a31.43 31.43 0 0 1 -21.94-14.56s0 0 0 0l-.87-1.42c-1.83-3-3.81-6.35-5.91-9.91l-.62-1c-1.06-1.8-2.17-3.65-3.29-5.54l-1-1.71c-3.69-6.13-7.73-12.61-12.1-19l-1.36-2-.26-.36-.83-1.17c-.54-.78-1.1-1.55-1.67-2.32s-1.12-1.54-1.7-2.3a134.11 134.11 0 0 0 -18.78-20.77v-.05a79.51 79.51 0 0 0 -12.28-9.1 13.39 13.39 0 0 0 6.51-2l1.54-.94a1 1 0 0 0 .32-1.34 4.1 4.1 0 0 1 0-4.35l.21-.34a5.25 5.25 0 0 0 .18-5.24v-.23c10.14-7.3 18.95-18.21 9.73-31.34s0 0 0 0c18.58-7.83 57.5-18.49 63.93-20.22l-16.36 4.58a35.24 35.24 0 0 0 1.41 13.38c-13 8.62-28.42 20.79-35.63 33.84-3.42 6.19-2 14.21 2.16 20.71 12.55 19.61 44.77 20.18 50.77 52.6 4.95 26.75 26.44 36.07 43.65 38.05z" fill="#003a73"/><path d="m462.69 440.29a227.19 227.19 0 0 0 -21.64 12.71 35.24 35.24 0 0 1 -1.62-13.41l16.88-4.72.19-.06.2-.05 2.38.6z" fill="#e06855"/><path d="m592.75 485.06c-24.94 19.41-50.94 35.72-50.94 35.72-1.44 12.4-3.17 24.68-4.88 35.82 0 0-.38-20.44-1.45-43.17-1-20.36 11.56-15.83 34.84-28.36a18.8 18.8 0 0 0 9.93-12.93c.33.48.68 1 1 1.44a56.53 56.53 0 0 0 11.5 11.48z" fill="#003a73"/><path d="m636.87 439c-4.54 12.75-24 30.43-44.12 46.08a56.53 56.53 0 0 1 -11.46-11.48c-.36-.47-.71-1-1-1.44 3.48-15.55-9.26-36.09-9.26-36.09s53.27 34.34 65.84 2.93z" fill="#e06855"/><path d="m456.05 663.17a350.4 350.4 0 0 1 -48.77 21.24l-8-7.73a6.8 6.8 0 0 0 -10.44 1.24l-7.5 11.71c-1.77-15.22-4.45-47.32.36-72.92.6-3.23 1.27-6.61 2-10.11-.69 4-6.47 42.13 23.65 57 21.71 10.8 41.65 3.06 48.7-.43z" fill="#d82e00"/><path d="m686.29 662.2a11.29 11.29 0 0 1 -4.8 1.42c4.46-5 7.79-11.44 12.35-15.8a5.38 5.38 0 0 1 .44 1.44c.72 4.4-2.87 10.19-7.99 12.94z" fill="#a8a8a8"/><path d="m716 645.36-10.3 35.15-71.61 10.59 22.21-72.26c-.43 1.7-13.12 52.69 10.06 52.34 6.8-.1 11.37-3.32 15.13-7.56a11.29 11.29 0 0 0 4.8-1.42c5.12-2.75 8.69-8.54 8-12.94a5.38 5.38 0 0 0 -.44-1.44c4.93-4.71 11.32-7.01 22.15-2.46z" fill="#495560"/><circle cx="356.73" cy="456.13" fill="#384249" r="1.76"/><circle cx="356.73" cy="456.13" fill="#ccc" r="1.46"/><path d="m382.16 486.59h-.07a5 5 0 0 0 -1-1.25 14.19 14.19 0 0 0 -3.89-2.54 14.37 14.37 0 0 0 -4.49-1.16l-4.5-.41a.4.4 0 0 1 -.1-.78l3.82-1.46a1.58 1.58 0 0 0 -.18-3l-2-.49a13.49 13.49 0 0 0 -12.68 3.5l-5.54-26.29c.34 1.33 3.38 12.12 16.55 15.83a18.38 18.38 0 0 1 13.07 12.46 20 20 0 0 1 1.01 5.59z" fill="#495560"/><path d="m496.38 404.77v13a26.55 26.55 0 0 1 -.15 2.83c0 .21-.05.42-.07.63a28.05 28.05 0 0 1 -6.85 15.17l-.57.64a15.83 15.83 0 0 1 -11 5.29c-.27 0-.55 0-.82 0a15.74 15.74 0 0 1 -8.94-2.78 28 28 0 0 1 -7.34-7.37c-.49-.73-.95-1.47-1.37-2.24a27.72 27.72 0 0 1 -2.66-6.78 28.36 28.36 0 0 1 -.7-4.12l-.92-9.7v-11a8.93 8.93 0 0 1 1.89-5.43 2.49 2.49 0 0 1 2.51-.91c4.13.85 14.92 2.26 24-3.78a2.74 2.74 0 0 1 .64-.32 3 3 0 0 1 3.95 2.38c.68 4.66 2.66 11 8.4 14.49z" fill="#efa08d"/><path d="m498.45 403.23-2.07 1.54c-5.74-3.49-7.72-9.83-8.37-14.49a3 3 0 0 0 -3.95-2.38 2.74 2.74 0 0 0 -.64.32c-9.09 6-19.88 4.63-24 3.78a2.49 2.49 0 0 0 -2.51.91 8.93 8.93 0 0 0 -1.89 5.43v11l-2.58-1.84a30.41 30.41 0 0 1 -1.05-16.11c1.47-7.18 6.47-16.45 19.66-18.35.81-.12 1.59-.2 2.36-.24h.22.37a24.26 24.26 0 0 1 23.12 14.65c1.75 4.72 1.33 15.78 1.33 15.78z" fill="#00204a"/><path d="m456.59 423.17c-3.71.69-5.43-8.06-6.16-11.39a3.46 3.46 0 0 1 2-4.27l2.58 1.84.92 9.7a28.36 28.36 0 0 0 .66 4.12z" fill="#ea807a"/><path d="m501.3 409.35c-.24 4.1-1.29 11.34-4.92 11.82l-.15-.59a26.55 26.55 0 0 0 .15-2.83v-13l2.07-1.54a7 7 0 0 1 2.85 6.14z" fill="#efa08d"/><path d="m458.58 402.5c-.35 9.23 11 16.57 9.47 25.33s4.84 14.48 9.67 14.48c-.27 0-.55 0-.82 0a15.74 15.74 0 0 1 -8.94-2.78 28.08 28.08 0 0 1 -11.37-16.39 28.36 28.36 0 0 1 -.7-4.12l-.92-9.7v-11a8.93 8.93 0 0 1 1.89-5.43 2.49 2.49 0 0 1 2.51-.91c4.13.85 14.92 2.26 24-3.78a2.74 2.74 0 0 1 .64-.32c.38 8.35-25.08 5.39-25.43 14.62z" fill="#ea807a"/><path d="m484.06 387.9a2.74 2.74 0 0 0 -.64.32c-9.09 6-19.88 4.63-24 3.78a2.49 2.49 0 0 0 -2.51.91 8.93 8.93 0 0 0 -1.89 5.43v11l-2.58-1.84a30.41 30.41 0 0 1 -1.05-16.11c1.47-7.18 6.47-16.45 19.66-18.35.81-.12 1.59-.2 2.36-.24-3.37.26-12.6 1.81-13.95 10.87-1.7 11.14 24.26-4.1 24.6 4.23z" fill="#00122f"/><g fill="#fc4100"><path d="m360.8 707.66a.77.77 0 0 1 .33-.64.81.81 0 0 1 1.15.16 7.67 7.67 0 0 0 6.65 2.83.82.82 0 0 1 .91.72.81.81 0 0 1 -.72.91 9.31 9.31 0 0 1 -8.15-3.47.8.8 0 0 1 -.17-.51z"/><path d="m359.49 712.13a.85.85 0 0 1 .33-.65.83.83 0 0 1 1.15.16 7.75 7.75 0 0 0 6.65 2.83.83.83 0 0 1 .2 1.64 9.38 9.38 0 0 1 -8.16-3.48.86.86 0 0 1 -.17-.5z"/><path d="m358 716.51a.82.82 0 0 1 1.48-.49 7.72 7.72 0 0 0 6.65 2.83.83.83 0 0 1 .2 1.64 9.38 9.38 0 0 1 -8.16-3.47.84.84 0 0 1 -.17-.51z"/></g><circle cx="316.59" cy="276.3" fill="#c7c1d3" r="56.05"/><circle cx="316.59" cy="276.3" fill="#d3cedd" r="49.22"/><path d="m322.33 273.92c.85 1.51-1.74 4.32-5.18 6l-30.89 14.84c-.1 0-.29-.1-.42-.33s-.16-.46-.06-.52l28.76-18.65c3.2-2.1 6.94-2.85 7.79-1.34z" fill="#e7e4f2"/><path d="m311.47 271.83c-.71.81.57 2.93 2.58 4.52l22.18 17.58c.08.07.26 0 .39-.15s.17-.33.09-.41l-20.42-19.59c-1.84-1.78-4.12-2.78-4.82-1.95z" fill="#e7e4f2"/><path d="m265.53 565.49v53.57h-115.46c-.1-.2-.19-.41-.29-.61-1.12-2.38-2.21-4.76-3.24-7.14-.77-1.78-1.52-3.55-2.26-5.33q-3.81-9.33-6.77-18.76c-.15-.44-.29-.9-.42-1.35-.07-.25-.16-.47-.22-.72-.77-2.53-1.5-5-2.16-7.58-.24-.88-.46-1.75-.69-2.62-.27-1.11-.54-2.21-.8-3.32-.07-.27-.13-.55-.19-.82-.42-1.77-.8-3.55-1.17-5.32z" fill="#c7c1d3"/><path d="m265.53 565.49v53.57h-61.7c10.17-8.06 22.52-17.06 6.69-25.47-14-7.4-39.88-12-63.47-14.71-4.22-.49-8.36-.93-12.34-1.31-.24-.88-.46-1.75-.69-2.62-.27-1.11-.54-2.21-.8-3.32-.07-.27-.13-.55-.19-.82-.42-1.77-.8-3.55-1.17-5.32z" fill="#bdb7cb"/><path d="m274.52 548.36v18.92a7.67 7.67 0 0 1 -7.67 7.67h-132.85c-.27-1.11-.54-2.21-.8-3.32-.07-.27-.13-.55-.19-.82-.42-1.77-.8-3.55-1.17-5.32l-.24-1.16s0-.05 0-.07c-.49-2.5-.93-5-1.35-7.5-.05-.28-.08-.57-.13-.86-.17-1-.33-2.06-.48-3.09s-.32-2.32-.47-3.47c-.09-.81-.19-1.64-.28-2.45-.16-1.28-.28-2.57-.39-3.85-.05-.45-.09-.91-.12-1.36s0-.64-.08-1h138.55a7.64 7.64 0 0 1 6 2.92 7.12 7.12 0 0 1 .69 1 6 6 0 0 1 .28.57 4.55 4.55 0 0 1 .21.51.3.3 0 0 1 0 .1 5.76 5.76 0 0 1 .18.59c0 .14.07.28.1.43l.06.32a5.51 5.51 0 0 1 .06.57q.09.31.09.67z" fill="#c7c1d3"/><path d="m265.53 575v3.93h-118.48c-4.22-.49-8.36-.93-12.34-1.31-.24-.88-.46-1.75-.69-2.62z" fill="#b3acc3"/><path d="m274.52 548.36v18.92a7.67 7.67 0 0 1 -7.67 7.67h-132.85c-.27-1.11-.54-2.21-.8-3.32-.07-.27-.13-.55-.19-.82h132.5a7.68 7.68 0 0 0 7.37-7.66v-18.93c0-.21 0-.4 0-.61a7.12 7.12 0 0 1 .69 1 6 6 0 0 1 .28.57 4.55 4.55 0 0 1 .21.51.3.3 0 0 1 0 .1 5.76 5.76 0 0 1 .18.59c0 .14.07.28.1.43l.06.32a5.51 5.51 0 0 1 .06.57q.06.3.06.66z" fill="#bdb7cb"/><path d="m196 523.79h-.11a1 1 0 0 1 -.88-1.11c.07-.63 7.82-64.48 52.32-113.76a1 1 0 0 1 1.49 1.34c-44.02 48.74-51.71 112.01-51.82 112.64a1 1 0 0 1 -1 .89z" fill="#b3acc3"/><path d="m222.35 449.89a4.7 4.7 0 0 0 4.48-2.39 191.1 191.1 0 0 1 24.78-34.76 4.71 4.71 0 0 0 -7-6.31 200.92 200.92 0 0 0 -26 36.47 4.7 4.7 0 0 0 1.81 6.4 4.52 4.52 0 0 0 1.93.59z" fill="#c7c1d3"/><path d="m197 503.89a1 1 0 0 1 -1-1c0-.72 2.38-72.63 37.42-141.77a1 1 0 1 1 1.79.91c-34.82 68.7-37.21 140.18-37.21 140.89a1 1 0 0 1 -1 .97z" fill="#b3acc3"/><path d="m213.69 416.61a4.7 4.7 0 0 0 4.74-3.28 331 331 0 0 1 20.09-49.65 4.7 4.7 0 1 0 -8.39-4.25 339 339 0 0 0 -20.67 51.06 4.7 4.7 0 0 0 3.07 5.91 4.64 4.64 0 0 0 1.16.21z" fill="#c7c1d3"/><path d="m196 520.3a1 1 0 0 1 -1-1c0-.71 1.45-72.21-29.7-142.69a1 1 0 0 1 1.83-.8c31.35 70.86 29.87 142.79 29.87 143.51a1 1 0 0 1 -1 .98z" fill="#b3acc3"/><path d="m178.35 409.94a5.36 5.36 0 0 0 .54-.14 4.71 4.71 0 0 0 3-5.95c-3.36-10.19-7.17-20.15-11.34-29.57a4.71 4.71 0 0 0 -8.61 3.8c4 9.15 7.75 18.81 11 28.72a4.71 4.71 0 0 0 5.41 3.14z" fill="#c7c1d3"/><path d="m197.27 516.3a1 1 0 0 1 -1-.89c-.1-.78-9.67-78.56-62.81-106.54a1 1 0 0 1 .93-1.77c28.3 14.9 44.15 43.51 52.48 64.89a195.82 195.82 0 0 1 11.38 43.19 1 1 0 0 1 -.88 1.11z" fill="#b3acc3"/><path d="m169.47 443.21a4.72 4.72 0 0 0 2.46-7.24c-10.11-14.15-22.15-25-35.8-32.15a4.71 4.71 0 0 0 -4.39 8.33c12.34 6.49 23.28 16.35 32.53 29.29a4.71 4.71 0 0 0 5.2 1.77z" fill="#c7c1d3"/><path d="m220.3 495-1.3 5.3a54.56 54.56 0 0 0 -1.46 15.7c0 .46 0 .92.05 1.39a34.58 34.58 0 0 1 -5.22 19.44 9.09 9.09 0 0 1 -3 2.92 6.52 6.52 0 0 1 -3.25.91h-15.9a7.25 7.25 0 0 1 -5.69-3.08c-.14-.18-.28-.37-.41-.56a34.26 34.26 0 0 1 -5.35-18.95c0-.72 0-1.44.06-2.15a54 54 0 0 0 -1.47-15.68l-1.29-5.3c-.36-1.46.41-3 1.5-3h41.23c1.09.06 1.85 1.56 1.5 3.06z" fill="#bdb7cb"/><path d="m220.3 495-1.3 5.3a54.56 54.56 0 0 0 -1.46 15.7c0 .46 0 .92.05 1.39a34.58 34.58 0 0 1 -5.22 19.44 9.09 9.09 0 0 1 -3 2.92l-.42-.45c-2.58-2.64-6.07-4.16-9.15-6.19s-6-5-6.22-8.68c-.16-2.78 1.25-5.44 3.06-7.55s4-3.84 6-5.87c4.75-5 7.36-12.84 4.33-19h11.83c1.09-.01 1.85 1.49 1.5 2.99z" fill="#b3acc2"/><path d="m731.75 368.15h-193.47a3.46 3.46 0 0 1 -3.46-3.46 3.45 3.45 0 0 1 3.46-3.46h174.07c4.26 1.28 8.49 2.73 12.73 4.3q2.77 1.05 5.51 2.15l.89.36z" fill="#c7c1d3"/><path d="m599.71 298.77v59.87a2.61 2.61 0 0 1 -2.6 2.6h-8.71a2.6 2.6 0 0 1 -2.6-2.6v-59.87a2.59 2.59 0 0 1 2.6-2.6h8.71a2.6 2.6 0 0 1 2.6 2.6z" fill="#bdb7cb"/><path d="m595.65 316.23v24.95a1.08 1.08 0 0 1 -1.08 1.08h-3.63a1.08 1.08 0 0 1 -1.08-1.08v-24.95a1.07 1.07 0 0 1 .76-1 1.13 1.13 0 0 1 .32-.05h3.63a1.08 1.08 0 0 1 1.08 1.05z" fill="#e7e4f2"/><path d="m597.11 361.24h-8.71a2.6 2.6 0 0 1 -2.6-2.6v-59.87a2.59 2.59 0 0 1 2.6-2.6h8.71s-8.54 3.22-7.25 14.53a42.54 42.54 0 0 0 .76 4.5 1.07 1.07 0 0 0 -.76 1v24.95a1.08 1.08 0 0 0 1.08 1.08h.67c-1.84 7.95-1.61 16.77 5.5 19.01z" fill="#b3acc2"/><path d="m593.42 336.28c-.5 1.89-1.32 3.87-1.81 6h-.67a1.08 1.08 0 0 1 -1.08-1.08v-24.97a1.07 1.07 0 0 1 .76-1c1.91 8.43 5.03 12.56 2.8 21.05z" fill="#d8d4e8"/><rect fill="#bdb7cb" height="51.51" rx="2.06" width="11.01" x="599.71" y="309.73"/><path d="m599.71 315.93h11.01v4.59h-11.01z" fill="#e7e4f2"/><path d="m599.71 350.45h11.01v4.59h-11.01z" fill="#e7e4f2"/><path d="m606.7 350.45h-7v-29.93h1.3a26.47 26.47 0 0 0 -.08 4.23c.71 11.39 7.34 17.9 5.78 25.7z" fill="#b3acc2"/><path d="m606.7 309.73a12 12 0 0 0 -4.61 6.2h-2.38v-4.14a2.06 2.06 0 0 1 2.06-2.06z" fill="#b3acc2"/><path d="m602.09 315.93a18.82 18.82 0 0 0 -1.06 4.59h-1.32v-4.59z" fill="#d8d4e8"/><path d="m608.66 361.24h-6.89a2.06 2.06 0 0 1 -2.06-2.06v-4.18h6.21c-.51 4.28.2 5.84 2.74 6.24z" fill="#b3acc2"/><path d="m606.7 350.45c-.36 1.8-.63 3.32-.78 4.59h-6.21v-4.59z" fill="#d8d4e8"/><path d="m621.73 311.78v47.4a2.06 2.06 0 0 1 -2.06 2.06h-6.89a2.06 2.06 0 0 1 -2.06-2.06v-47.4a2.06 2.06 0 0 1 2.06-2.06h6.89a2.06 2.06 0 0 1 2.06 2.06z" fill="#bdb7cb"/><path d="m618.52 325.61v19.75a.86.86 0 0 1 -.86.85h-2.87a.83.83 0 0 1 -.81-.59.58.58 0 0 1 -.05-.26v-19.75a.85.85 0 0 1 .86-.86h2.87a.86.86 0 0 1 .86.86z" fill="#e7e4f2"/><path d="m619.19 361.24h-6.41a2.06 2.06 0 0 1 -2.06-2.06v-47.4a2.06 2.06 0 0 1 2.06-2.06h6.89a8.27 8.27 0 0 0 -5.38 8.5 46.54 46.54 0 0 0 1.1 6.53h-.6a.85.85 0 0 0 -.86.86v19.75a.58.58 0 0 0 .05.26c-1.05 7.78-.98 15.62 5.21 15.62z" fill="#b3acc2"/><path d="m615.54 336.36c-.48 2.68-1.12 6-1.56 9.26a.58.58 0 0 1 -.05-.26v-19.75a.85.85 0 0 1 .86-.86h.6a26.92 26.92 0 0 1 .15 11.61z" fill="#d8d4e8"/><path d="m712.35 361.23h-34.61a2.06 2.06 0 0 1 -2.06-2.06v-6.89a2.06 2.06 0 0 1 2.06-2.06h2l.75.33 1.35.58 1.22.51.83.35.48.19c.68.28 1.37.56 2.06.82 2.69 1.07 5.41 2.05 8.17 3l1.35.46c.16.06.34.09.49.16s.56.17.83.28c1.1.35 2.22.68 3.33 1 1.35.4 2.7.78 4.05 1.15 1.91.5 3.78 1 5.69 1.61.66.16 1.36.34 2.01.57z" fill="#bdb7cb"/><path d="m686.47 353v8.23h-4.59v-10.1l1.22.51.83.35.48.19c.68.28 1.37.56 2.06.82z" fill="#e7e4f2"/><path d="m712.35 361.23h-25.88v-1.32a26.47 26.47 0 0 0 4.23.08 36.42 36.42 0 0 0 9.94-2.12c1.35.4 2.7.78 4.05 1.15 1.91.5 3.78 1 5.69 1.61.62.19 1.32.37 1.97.6z" fill="#b3acc2"/><path d="m675.68 354.24a12 12 0 0 0 6.2 4.61v2.38h-4.14a2.06 2.06 0 0 1 -2.06-2.06z" fill="#b3acc2"/><path d="m681.88 358.85a18.82 18.82 0 0 0 4.59 1.06v1.32h-4.59z" fill="#d8d4e8"/><path d="m667.35 344.15v11a6.1 6.1 0 0 1 -6.1 6.11h-16.19a6.1 6.1 0 0 1 -6.11-6.11v-22.77a6.1 6.1 0 0 1 2.69-5.06c1 .77 1.94 1.53 2.93 2.27.29.21.56.42.85.61l.7.52.44.32c1 .75 2 1.48 3.05 2.2l1.33.92c1.57 1.08 3.17 2.13 4.78 3.16q1.83 1.19 3.7 2.31c1 .61 2 1.2 3 1.79l.51.3 1.86 1 .24.14c.79.47 1.55.89 2.32 1.29z" fill="#bdb7cb"/><path d="m659.42 339.63a3 3 0 0 1 -2.26 1h-8a3 3 0 0 1 -3-3v-6.91l.44.32c1 .75 2 1.48 3.05 2.2l1.33.92c1.57 1.08 3.17 2.13 4.78 3.16q1.79 1.19 3.66 2.31z" fill="#bdb7cb"/><path d="m659.85 361.23h-14.79a6.1 6.1 0 0 1 -6.11-6.11v-22.74a6.1 6.1 0 0 1 2.69-5.06c1 .77 1.94 1.53 2.93 2.27.29.21.56.42.85.61l.7.52.44.32a8.21 8.21 0 0 0 -.44 1.53 9.78 9.78 0 0 0 0 3.74 13.81 13.81 0 0 0 1.37 3.85c3.98 7.92 14.38 15.84 12.36 21.07z" fill="#b3acc2"/><rect fill="#bdb7cb" height="13.12" rx="2.29" width="10.66" x="567.96" y="348.11"/><path d="m575.93 348.15v4.23a1.14 1.14 0 0 1 -1.13 1.13h-3a1.16 1.16 0 0 1 -.62-.18 1.13 1.13 0 0 1 -.52-.95v-4.23a.08.08 0 0 1 0 0 1.12 1.12 0 0 1 1.13-1.1h3a1.14 1.14 0 0 1 1.13 1.1z" fill="#bdb7cb"/><path d="m575.81 361.24h-5.56a2.29 2.29 0 0 1 -2.29-2.3v-8.54a2.29 2.29 0 0 1 2.29-2.29h.41a1.12 1.12 0 0 1 1.13-1.1h3a7.92 7.92 0 0 0 -2.5 1.1 3.82 3.82 0 0 0 -1.65 2.37 3.86 3.86 0 0 0 0 1.4 5.28 5.28 0 0 0 .52 1.45c1.5 2.97 5.41 5.94 4.65 7.91z" fill="#b3acc2"/><rect fill="#bdb7cb" height="13.12" rx="2.29" width="10.66" x="553.15" y="348.11"/><path d="m561.12 348.15v4.23a1.14 1.14 0 0 1 -1.13 1.13h-3a1.21 1.21 0 0 1 -.62-.18 1.15 1.15 0 0 1 -.51-.95v-4.27a1.14 1.14 0 0 1 1.14-1.11h3a1.14 1.14 0 0 1 1.13 1.1z" fill="#bdb7cb"/><path d="m561 361.24h-5.56a2.29 2.29 0 0 1 -2.29-2.3v-8.54a2.29 2.29 0 0 1 2.29-2.29h.4a1.14 1.14 0 0 1 1.16-1.11h3a7.92 7.92 0 0 0 -2.5 1.1 3.79 3.79 0 0 0 -1.65 2.37 3.65 3.65 0 0 0 0 1.4 5.59 5.59 0 0 0 .51 1.45c1.49 2.98 5.39 5.95 4.64 7.92z" fill="#b3acc2"/></svg>