<svg viewBox="0 0 1000 1000" xmlns="http://www.w3.org/2000/svg"><path d="m520.69 475.21-14.69 9.37s-66.23-41.24-103.63-117.28a242.5 242.5 0 0 1 -20.69-61.06c-9.89-51 13.44-116.13 62.32-103.2 10.55 2.8 17.32 7.91 21.52 14.85 3.28 5.43 5 12 5.68 19.4 2.94 30.85-11.41 76.82-2.09 120.77 14.43 68.1 51.58 117.15 51.58 117.15z" fill="#27749b"/><path d="m354 830.47-169.15 66.2a6.34 6.34 0 0 1 -8.17-8.32l5-12.11 8.83-21.55a6.28 6.28 0 0 0 .24-4.12 6.1 6.1 0 0 0 -1.33-2.46l-23.98-27.41a6.35 6.35 0 0 1 5.06-10.52l181.47 8a6.34 6.34 0 0 1 2.03 12.29z" fill="#ffca0b"/><path d="m245.94 591.76-110 144.52a6.35 6.35 0 0 1 -11.32-2.85l-5.73-35.93a6.35 6.35 0 0 0 -4.35-5l-34.69-11a6.34 6.34 0 0 1 -1.15-11.61l159.17-87.51a6.35 6.35 0 0 1 8.07 9.38z" fill="#ff9b08"/><path d="m905.06 396.94c-36.95-39-125.54-51.34-259.41-23.64l-.25.06-166.71 171 297.19 107.72c100.93-80.18 148.75-152.28 148.75-205 0-19.58-6.63-36.5-19.57-50.14z" fill="#ffca0b"/><path d="m775.88 652.08-109.36-233.59-21.12-45.13q-15.89 4.45-31.33 9.37c-115.29 36.45-214.24 90-293.18 143.08l-27 18.64c-116.72 82.88-182.82 159.3-183.89 160.55.9-.73 36.66-29.08 95.62-68.42-59 39.33-94.72 67.69-95.63 68.42l65.33 139.53 3.07 6.55s72.27-1.1 178.67-23.59h.17c19.65-4.16 40.47-9 62.21-14.79q15.51-4.1 31.61-8.78c91.29-26.67 195.81-68.34 297.64-133.54q13.65-8.75 27.26-18.05z" fill="#919191"/><path d="m274.85 723.72-145 109.43a6.35 6.35 0 0 1 -10.12-5.8l4.19-36.15a6.33 6.33 0 0 0 -2.83-6l-30.44-19.96a6.35 6.35 0 0 1 2-11.49l176.89-41.28a6.35 6.35 0 0 1 5.27 11.25z" fill="#ffca0b"/><circle cx="607.09" cy="561.31" fill="#686868" r="72.13"/><circle cx="607.09" cy="561.31" fill="#ffe9c5" r="61.51"/><g fill="#1b1a1b"><path d="m776 652.27q-13.59 9.32-27.26 18.05l-113.9-243.21q15.79-4.56 31.68-8.62l109.36 233.59z"/><path d="m363.89 617.64a226.25 226.25 0 0 1 -44.44-18.64l-12.18-26q13.73-8 28.17-16.13z"/><path d="m451.07 803.86q-16.1 4.68-31.61 8.78l-80.23-171.33c12.44-1 23.92-2.2 34.09-3.51z"/></g><path d="m339.23 641.31c-38.49 3-86.25 3.41-133.57-4.76-59 39.34-94.72 67.69-95.62 68.42 1-1.22 67.14-77.64 183.86-160.52l13.37 28.55q-7 4.1-13.83 8.17a164.46 164.46 0 0 0 26 17.85z" fill="#686868"/><path d="m905.06 396.94c-77.68-8.35-158.91 1.3-238.54 21.55l-21.12-45.13.25-.06c133.87-27.7 222.46-15.3 259.41 23.64z" fill="#ff9b08"/><path d="m666.52 418.49q-15.9 4-31.68 8.62l-20.78-44.38q15.47-4.91 31.34-9.37z" fill="#0c0c0c"/><path d="m634.84 427.11c-108.58 31.5-212.84 81.11-299.4 129.78l-14.55-31.08c78.94-53 177.89-106.63 293.17-143.08z" fill="#686868"/><path d="m451.64 800.53-19.36-.53-9.61-147.87-1.46-22.33c-68.15-9-110.94-30.68-137.21-57.31-42.75-43.3-41.76-99.69-35-135.94 4.06-21.76 10.22-36.25 10.22-36.25 36.97-35.3 114.95 24.4 156.78 67.7 52 49.92 72.71 94.3 78.74 141.07 8.65 66.87-43.1 191.46-43.1 191.46z" fill="#444375"/><path d="m470.18 826.1a7 7 0 0 1 -5.34 1.24l-33.95-5.22a5.64 5.64 0 0 1 -4.72-4.78 5.41 5.41 0 0 1 .05-1.88 6.06 6.06 0 0 1 .29-1l5.76-14.46 19.36.58 18.64 13.78a7.28 7.28 0 0 1 -.09 11.74z" fill="#1e0c1c"/><path d="m627.71 446.13-7.11 3.07a5.22 5.22 0 0 1 -1.26.38 5.81 5.81 0 0 1 -6.49-3.71l-3-7.89s-7.26 2.9-11.81-3.63l2.4-3.53 7.43-10.82 11.35 1a12.31 12.31 0 0 1 10.54 8l2.43 6.72a8.26 8.26 0 0 1 -4.48 10.41z" fill="#ff8869"/><path d="m416 468c-113.52 29.89-167-31.5-167-31.5 4.06-21.76 10.22-36.25 10.22-36.25s48.84 87.54 156.78 67.75z" fill="#2b3870"/><path d="m437.63 633.56-15 18.52-1.46-22.33 13.36-1.75a3.42 3.42 0 0 1 3.1 5.56z" fill="#2b3870"/><path d="m421.21 629.75s-18.56 4.3-47.89 8l-9.43-20.16a354.55 354.55 0 0 0 57.32 12.16z" fill="#686868"/><path d="m373.32 637.8c-10.17 1.31-21.65 2.54-34.09 3.51l-19.78-42.31a226.25 226.25 0 0 0 44.44 18.6z" fill="#0c0c0c"/><path d="m276.71 715.83-153.25 72.17a6.36 6.36 0 0 0 -2.37-2.83l-30.44-19.93a6.35 6.35 0 0 1 2-11.49l176.89-41.28a6.18 6.18 0 0 1 7.17 3.36z" fill="#ff9b08"/><path d="m357.08 827.47-175.46 48.77 8.83-21.55a6.28 6.28 0 0 0 .24-4.12c24.91-1.3 85.87-6.09 166.39-23.1z" fill="#ff9b08"/><path d="m619.34 449.58c-6.94 2.38-28.13-8.8-28.13-8.8l9.28-10-2.4 3.53c4.55 6.53 11.81 3.63 11.81 3.63l3 7.89a5.81 5.81 0 0 0 6.44 3.75z" fill="#686868"/><path d="m809 597.55a6.94 6.94 0 0 1 -4.74-12.4c57.42-44.84 85-115.22 85.27-115.93a6.94 6.94 0 0 1 13 5c-1.16 3-29.15 74.62-89.69 121.89a6.87 6.87 0 0 1 -3.84 1.44z" fill="#ffe8a6"/><path d="m520.19 185.81c-5.15 3.62 3.11 16.38-8.58 24.56-.39.27-.79.54-1.21.78-12 7-33.48 1.57-33.48 1.57l-23.1 19.56-35.44-17.54 1-1.33 16.84-23.41 8.16-11.75 14.62-47.46.36-1.18 3.3-.69 20-4.18 14.24-3 2.77 4.76 13.72 23.55c-1 14.65 4.67 20.34 8.61 22.56a3.84 3.84 0 0 1 1.08.89c2.6 2.84 1.92 8.9-2.89 12.31z" fill="#ff8869"/><path d="m513.38 150.07s-5.62 9.36-18.75 16.13-19.11 17.31-17.32 26.67-38 2.78-39 15.72c-.53 6.87-10 7.74-19 4.82l16.91-23.41 8.16-11.75 14.62-47.46c1.28-.67 2.51-1.3 3.66-1.87a46.51 46.51 0 0 1 8.52-3.53 50.16 50.16 0 0 1 11.46-.65 126.83 126.83 0 0 1 17 1.78c4.58.81 8.08 1.77 9.1 2.65 3.01 2.59 4.64 20.9 4.64 20.9z" fill="#dd6d62"/><path d="m520.33 141.58a8.23 8.23 0 0 1 -4.46 7.35q-1.22.62-2.49 1.14a51.88 51.88 0 0 1 -7 2.37 6.22 6.22 0 0 1 -7-3.05l-2.66-4.84a2.15 2.15 0 0 0 -4 .66l-.8 4.54a6.6 6.6 0 0 1 -6.3 5.45c-5.87.18-9.92-.12-9.92-.12a36.39 36.39 0 0 1 3 7.74 29 29 0 0 1 .68 11.53 2.53 2.53 0 0 1 -4.38 1.25c-3-3.22-8.45-5.14-12.3-3.51a6.46 6.46 0 0 0 -3.11 2.81c-5.49 9.67 2.12 16.06 6.55 18.77a.8.8 0 0 1 -.42 1.49h-1.8a6.68 6.68 0 0 1 -3.58-1c-6.33-4-14.12-5.61-24.1-4.15-5.2-6.85-13.1-20.66-14.12-42.31a41.54 41.54 0 0 1 1.12-12c6.07-24 34.6-34.1 65.75-32.59a40.29 40.29 0 0 1 6.65.86h.06c22.13 4.77 24.63 27.57 24.63 37.61z" fill="#ffca0b"/><path d="m456.62 367.36c-7.9 14.38-15.74 27.79-21.17 38.35-1.4 2.72-2.72 5.51-3.94 8.32-11.34 25.97-15.51 53.97-15.51 53.97-108 19.84-156.79-67.7-156.79-67.7 111.13-206.3 171-200.3 171-200.3-40.26 5.92-45.41 51.78-30.66 91.87a126.34 126.34 0 0 0 14 27.51 242.27 242.27 0 0 0 43.07 47.98z" fill="#62baeb"/><path d="m520.19 185.81c-6.37 4.13-11.21-1.16-4.28-2.78s7.16-9.51 7.16-9.51c2.61 2.82 1.93 8.88-2.88 12.29z" fill="#dd6d62"/><path d="m510.38 211.15c-12 7-33.48 1.57-33.48 1.57l-2.2-2c-.39-.72-.8-1.44-1.21-2.14a1.62 1.62 0 0 1 2.1-2.28c7.99 3.9 23.01 9.58 34.79 4.85z" fill="#dd6d62"/><path d="m456.62 367.36c-7.9 14.38-15.74 27.79-21.17 38.35-1.4 2.72-2.72 5.51-3.94 8.32-26.68-37.2-31.88-120.88-32-122.17a126.34 126.34 0 0 0 14 27.51 242.27 242.27 0 0 0 43.11 47.99z" fill="#3e9ce0"/><path d="m478.69 162.82-8.3-4.55a1.71 1.71 0 0 1 .82-3.21h4.48a36 36 0 0 1 3 7.76z" fill="#ff9b08"/><path d="m607.87 420-9.78 14.37s-29.72-4.55-67.65-21.2a304.94 304.94 0 0 1 -57.84-33.17c-5.38-3.94-10.73-8.15-16-12.67a242.58 242.58 0 0 1 -43.06-48 127.23 127.23 0 0 1 -14-27.51c-14.75-40.09-9.6-86 30.66-91.87 10.8-1.58 19 .45 25.63 5.18 5.15 3.69 9.3 9 12.87 15.59 14.84 27.2 19.75 75.1 45.62 111.84 40.09 56.95 93.55 87.44 93.55 87.44z" fill="#86ccea"/><g fill="#62baeb"><path d="m451.71 809.65a1 1 0 0 1 .27-.72c4-4.3 3.7-7.55 3.7-7.58a1 1 0 0 1 2-.24c0 .16.46 4.15-4.23 9.2a1 1 0 0 1 -1.43.05 1 1 0 0 1 -.31-.71z"/><path d="m455.54 812.91a1 1 0 0 1 .27-.72c4-4.3 3.71-7.55 3.7-7.58a1 1 0 0 1 .89-1.11 1 1 0 0 1 1.12.87c0 .16.46 4.14-4.23 9.19a1 1 0 0 1 -1.42.06 1 1 0 0 1 -.33-.71z"/><path d="m459.62 817a1.06 1.06 0 0 1 .27-.72c4-4.29 3.71-7.54 3.7-7.57a1 1 0 0 1 .89-1.12 1 1 0 0 1 1.12.87c0 .17.46 4.15-4.23 9.2a1 1 0 0 1 -1.43 0 1 1 0 0 1 -.32-.66z"/><path d="m470.18 826.1a7 7 0 0 1 -5.34 1.24l-33.95-5.22a5.64 5.64 0 0 1 -4.72-4.78z"/></g><path d="m454.55 125.57c-8.59 24.91 15.05 27.77 8.12 46.52a6.46 6.46 0 0 0 -3.11 2.81c-5.49 9.67 2.12 16.06 6.55 18.77a.8.8 0 0 1 -.42 1.49h-1.8a6.68 6.68 0 0 1 -3.58-1c-6.33-4-14.12-5.61-24.1-4.15-5.2-6.85-13.1-20.66-14.12-42.31a41.54 41.54 0 0 1 1.12-12c6.07-24 34.6-34.1 65.75-32.59a40.29 40.29 0 0 1 6.65.86c-1.61-.23-32.69-2.68-41.06 21.6z" fill="#ff9b08"/><path d="m530.41 413.13a304.94 304.94 0 0 1 -57.81-33.13c-5.38-3.94-10.73-8.15-16-12.67a242.58 242.58 0 0 1 -43.06-48 127.23 127.23 0 0 1 -14-27.51c-14.75-40.09-9.6-86 30.66-91.87 10.8-1.58 19 .45 25.63 5.18 0 0-47.13 0-43.72 51s32.46 99.87 118.3 157z" fill="#62baeb"/></svg>