<svg xmlns="http://www.w3.org/2000/svg" width="19.97" height="19.97" viewBox="0 0 19.97 19.97">
  <path id="account_circle" d="M12,19.219a7.135,7.135,0,0,0,3.352-.938A7.02,7.02,0,0,0,18,15.984q-.047-1.313-2.109-2.2A9.855,9.855,0,0,0,12,12.89a10.036,10.036,0,0,0-3.891.867Q6.047,14.625,6,15.984a7.03,7.03,0,0,0,2.648,2.3A7.131,7.131,0,0,0,12,19.219Zm0-14.2a2.881,2.881,0,0,0-2.109.891,2.942,2.942,0,0,0,0,4.218,2.942,2.942,0,0,0,4.218,0,2.942,2.942,0,0,0,0-4.218A2.881,2.881,0,0,0,12,5.016Zm0-3a9.617,9.617,0,0,1,7.055,2.93A9.617,9.617,0,0,1,21.985,12a9.617,9.617,0,0,1-2.93,7.055A9.617,9.617,0,0,1,12,21.986a9.617,9.617,0,0,1-7.055-2.93A9.617,9.617,0,0,1,2.015,12a9.617,9.617,0,0,1,2.93-7.055A9.617,9.617,0,0,1,12,2.016Z" transform="translate(-2.015 -2.016)" fill="#273940"/>
</svg>
