<svg viewBox="0 0 1000 1000" xmlns="http://www.w3.org/2000/svg"><path d="m728.94 704.21 24.91-5.6s5.46 11.54 5.24 11.87-15.51 7.57-16.38 7.91-10.45-2.39-10.45-2.39-3.26-3.15-3.32-11.79z" fill="#3f343a"/><path d="m687.66 669.33c6.58 4.53 12.8 9.34 18.32 13.9a122.3 122.3 0 0 0 18.43-19.39q-6.75-9.76-13.5-19.26c-18.44-3.58-34.24-.42-23.25 24.75z" fill="#953017"/><path d="m779.81 733.4-18.76-1.13-.32-.49a8 8 0 0 0 -13.25-.37l-12.32-.89a8.57 8.57 0 0 1 -7.91-9.41l1.69-16.9 1 2.66a8.54 8.54 0 0 0 12.06 4.47 25.91 25.91 0 0 0 9.63-9.16l2.19-3.57 30.66 21.27a7.43 7.43 0 0 1 -4.67 13.52z" fill="#3f343a"/><path d="m742.31 690.28q-8.91-13.44-17.9-26.45a122.3 122.3 0 0 1 -18.41 19.4 304.34 304.34 0 0 1 23 21l1 2.66a8.54 8.54 0 0 0 12 4.45 25.91 25.91 0 0 0 9.63-9.16l2.19-3.57z" fill="#dea379"/><path d="m266.64 743.61-25.5-1.29v15.5l25.5 1.53a75.48 75.48 0 0 0 0-15.74z" fill="#3f343a"/><path d="m265 770.59-12 3a8.06 8.06 0 0 0 -13 2.62l-.23.53-18.3 4.3a7.43 7.43 0 0 1 -6.92-12.53l26.6-26.16 2.76 3.14a26 26 0 0 0 11.06 7.4 8.53 8.53 0 0 0 11.14-6.46l.54-2.79 4.53 16.36a8.57 8.57 0 0 1 -6.18 10.59z" fill="#3f343a"/><path d="m264.25 703.06q-6.79 14.66-13.44 29.76l-9.67 9.5 2.76 3.14a26 26 0 0 0 11.06 7.4 8.53 8.53 0 0 0 11.14-6.46l.54-2.79a304.67 304.67 0 0 1 19.06-24.61c-1.55-15.22-11.95-18.59-21.45-15.94z" fill="#dea379"/><path d="m301.4 702.23c-5.72 5.58-11 11.38-15.7 16.81a122.06 122.06 0 0 1 -21.45-16q5-10.77 10-21.27c9.43.02 19 8.79 27.15 20.46z" fill="#953017"/><path d="m335 565.49 112.48-13.94 35.17-36.55h57.49l9.19-75.72-16.66-24.58 1.56-9.92-9.12-10.19 4-11.5-37.22-9.25-74.2 10.8 2.55 15.65-9.17 5.47a45.84 45.84 0 0 0 -2.32 27.43l-10.11 18.85 10.11 13.62-43.52 55.05z" fill="#8e2911"/><path d="m501.81 162.74a12.44 12.44 0 0 1 -3.54 4.84l2.73.82-26.21 182.7a306.13 306.13 0 0 1 -32.5 15.28c-50.09 19.84-86 15.33-108.22-4.95-15.35-14-19.31-41.51-7.91-66.58 8.48-18.64 25.45-35.93 52.54-45.32 69.51-24.1 66.57-62.74 71.59-74.69s14.81-23.9 36.32-24.38c7.71-.17 11.85 1.36 14 3.4h.05c3.72 3.68 1.15 8.88 1.15 8.88z" fill="#84341d"/><path d="m483.82 206.12-21.75 130.24-19.78 30c-50.09 19.84-86 15.33-108.22-4.95-15.35-14-19.31-41.51-7.91-66.58a56.8 56.8 0 0 0 -2.85 10.75c-8.22 51.78 68.9 65.56 80.27 14.38 3.48-15.64 1.24-31.18-.47-39.27a12.42 12.42 0 0 0 -5.32-7.9c-13.38-8.64-16.79-24.07-16.79-24.07l1.21-.87c8.89 10.16 18 18.81 27.21 25 .26 3 .58 5.75 1 8.31.14 1.05.3 2.07.46 3.06 2.61 16 6.95 24.33 9.88 34.92 5.24-20.89 7-47.1 12-72.63 5.34-27.35 14.21-44.88 21.48-55.41 6.72-9.71 12.08-13.46 12.08-13.46z" fill="#5e2922"/><path d="m604.11 316.29c-4.14 24.88-28.29 35-54.09 34.81-1.6 0-3.22-.07-4.86-.16-7.11-.39-14.49-1.46-22-2.44-16.36-2.16-33.14-3.92-48.41 2.6l-4.3-118.16 30.1-79.08s5.49-5.67 13.68 1.11c18.09 15 3.69 33.36 17.05 55.13 14.34 23.37 31.28 36.76 45.31 48.44 18.85 15.66 32.41 28.26 27.52 57.75z" fill="#84341d"/><path d="m513.51 224.5c-5 7.34-7.63 15.79-4.45 24.16l-.07.07-11.49-1.35v-15a37.89 37.89 0 0 0 4.22-2.26l.42-.26c.22-.14.38-.25.46-.29a35.85 35.85 0 0 0 15.71-25.38c0-.17 0-.33.07-.5l1.84-16.3a12.19 12.19 0 0 0 .07-1.39s3.91 22.85-6.78 38.5z" fill="#5e2922"/><path d="m547.61 291.44s-1.73 3-4.13 7.77a185.4 185.4 0 0 0 -11.05 26.2 110.91 110.91 0 0 0 -4.21 22.85 154.81 154.81 0 0 0 -.07 26.07q.36 4.35 1 8.79c-35 13.23-64.27 13.08-85.34 9.24a124.07 124.07 0 0 1 -26.06-7.69c3.13-11.95 6.17-27.35 6.06-41.83 0-.73 0-1.45 0-2.15a87.3 87.3 0 0 0 -2.23-18.33c-2.88-12.26-7.84-20.54-10.71-38.17-.16-1-.32-2-.46-3.06-.37-2.56-.69-5.32-1-8.31l9.94-6.93 6.43-4.49 28.22-19.72 13 1.53 23.23 2.73 12.2 1.44 11.57 1.35.18.23 8.09 10.26 1.47 1.88 13.86 17.61 1.73 2.2z" fill="#3f343a"/><path d="m522.27 259.24-.36.32c-6.47 5.87-16.78 11.86-32.89 14.35q-3.31.52-7 .83c-27.69 2.29-39.51-11.8-44.36-21.66l16.34-11.4 13 1.53 1-4.7 1.58-7.66 1-5 .85-4.12.62-3 19.18 5 7.42 3.08 3.77 1.57v19l11.58 1.35.18.23z" fill="#dea379"/><path d="m520.36 185.9a12.19 12.19 0 0 1 -.07 1.39l-1.84 16.3c0 .17 0 .33-.07.5a35.85 35.85 0 0 1 -15.71 25.38c-.08 0-.24.15-.46.29l-.42.26a36.55 36.55 0 0 1 -4 2.15l-.22.11c-.73.33-1.48.63-2.24.92a19.06 19.06 0 0 1 -4.21 1 17.78 17.78 0 0 1 -2.52.17h-.67a17.05 17.05 0 0 1 -2-.18 19.05 19.05 0 0 1 -8.61-3.45c-.13-.09-.25-.17-.36-.26l-4.79-3.48c-.52-.39-1-.79-1.51-1.22l-.66-.56a34.47 34.47 0 0 1 -3.49-3.56q-1-1.17-1.89-2.4a37 37 0 0 1 -2.55-4.11 35.92 35.92 0 0 1 -4.19-16.85v-22.42s9.87-17.91 42.18-13.46c14.11 1.95 20.28 15.83 20.3 23.48z" fill="#dea379"/><path d="m501.81 162.74a12.44 12.44 0 0 1 -3.54 4.84c-4.2 3.85-13.18 8.78-32 10a47.06 47.06 0 0 0 -8.37 8.49c-1.17 1.45-2.41 3.1-3.71 5l-1.88-3.69 3.11-17.18 21.65-13h19.83l1.93 2.19z" fill="#84341d"/><path d="m521.92 180.12-1.56 5.78a28.19 28.19 0 0 1 -3.89-2.47 43.44 43.44 0 0 1 -11.47-13.79 49.59 49.59 0 0 1 -3.18-6.9 12.35 12.35 0 0 1 3.18-1.44 12 12 0 0 1 9.7 1.44l5.7 13.64.6 1.62z" fill="#84341d"/><path d="m454 241.68-28.23 19.72-6.43 4.49-9.94 6.93c-9.18-6.16-18.32-14.81-27.21-25-19.9-22.79-38.48-53.18-53.09-80.21-18.88-34.91-31.14-64.2-31.14-64.2l2.19-8.41h5.2z" fill="#3f343a"/><path d="m305.35 95 10.17-15.19a1.22 1.22 0 0 0 -1.72-1.67l-5.42 3.86 3.31-14.24a1.08 1.08 0 0 0 -2-.81l-6.13 10.05 2.77-16a2.74 2.74 0 0 0 -2.69-3.31 2.72 2.72 0 0 0 -2.49 1.6l-8.68 19.11-2.55-9.62a1.57 1.57 0 0 0 -3 .15l-2.11 10.07a12.45 12.45 0 0 0 .45 6.6l1 2.91s-.94 12.55 11.66 14.91z" fill="#dea379"/><path d="m670.08 110.46s-42.54 92.11-88.46 148.08a223.37 223.37 0 0 1 -19.5 21.15 116.93 116.93 0 0 1 -14.51 11.75l-10-12.69-13.86-17.61-1.47-1.88-8.1-10.26-.18-.23.07-.07 148.6-146.62 8.6-1.44z" fill="#3f343a"/><path d="m662.67 102.08-10.17-15.18a1.22 1.22 0 0 1 1.72-1.67l5.42 3.83-3.31-14.24a1.08 1.08 0 0 1 2-.81l6.15 10.07-2.79-16.08a2.75 2.75 0 0 1 2.69-3.32 2.74 2.74 0 0 1 2.49 1.6l8.68 19.12 2.55-9.62a1.57 1.57 0 0 1 3 .15l2.11 10.07a12.49 12.49 0 0 1 -.45 6.61l-1 2.9s.94 12.55-11.66 14.92z" fill="#dea379"/><path d="m495.83 466.76-13.18 48.24-117 121.4s-2.27 7.61-9 17.54a95.7 95.7 0 0 1 -30 28.11c-8.76 5.27-17.37 12.5-25.22 20.15a122.15 122.15 0 0 1 -27.11-20.44c20.77-43.29 41.91-83 60.67-116.3 35.27-62.67 62.1-103 62.1-103q.76-5.47 1.62-10.43a63.54 63.54 0 0 0 20.2-6.03c20.24-10.33 23-28.52 23-28.52a123.09 123.09 0 0 1 -30.77-11.65l26.33-3.31 34.69-4.36 6.37 22.21z" fill="#c3512c"/><path d="m441.88 417.44s-2.73 18.19-23 28.52a63.54 63.54 0 0 1 -20.23 6.11c5.16-30.1 12.21-45.79 12.42-46.27a123.09 123.09 0 0 0 30.81 11.64z" fill="#a64429"/><path d="m710.91 644.58a122.16 122.16 0 0 1 -23.25 24.75c-9-6.21-18.74-11.87-28.27-15.58a95.14 95.14 0 0 1 -36.84-25.37 67.14 67.14 0 0 1 -9.32-13l-138.44-106.38-18.7-38.72 9.19-48.67 2.5-23 34.94-1.61 26.51-1.21a122.71 122.71 0 0 1 -28.35 16.7s9.28 28 48.46 26.8q1.68 4.72 3.36 10s78.12 82.58 158.21 195.29z" fill="#c3512c"/><path d="m500.88 412.51s9.27 28 48.45 26.8c-10.33-29.25-20.4-43.31-20.4-43.31a120.38 120.38 0 0 1 -28.05 16.51z" fill="#a64429"/><path d="m534.23 404.81s-23.13 13.42-55.72 15.54a126.38 126.38 0 0 1 -36.63-2.91 123.09 123.09 0 0 1 -30.77-11.65s1.62-4.2 3.71-10.93c.92-2.95 1.92-6.4 2.91-10.19 18.15 7.71 58 18.61 111.42-1.55a126.8 126.8 0 0 0 5.08 21.69z" fill="#312424"/><path d="m365.6 636.43s-2.27 7.61-9 17.54l-1.77-2.29a5.08 5.08 0 0 1 .79-7z" fill="#8e2911"/><path d="m623.87 626.46-1.32 1.92a67.14 67.14 0 0 1 -9.32-13l8.76 4.13a4.73 4.73 0 0 1 1.88 6.95z" fill="#8e2911"/><g fill="#5e2922"><path d="m521 179.71-.6 6.19a28.19 28.19 0 0 1 -3.89-2.47z"/><path d="m547.25 339.55a57.74 57.74 0 0 0 2.91 11.39c-7.11-.39-14.49-1.46-22-2.44a110.67 110.67 0 0 1 4.23-23.09c5.29-16.67 15.18-34 15.18-34a116.93 116.93 0 0 0 14.51-11.75 223.37 223.37 0 0 0 19.5-21.15s-4.4 11.93-17 25.76c-13.58 15.03-20.37 35.23-17.33 55.28z"/><path d="m505 169.64a49.59 49.59 0 0 1 -3.18-6.9s2.57-5.2-1.17-8.84a12.35 12.35 0 0 1 4.32 7.4 21.54 21.54 0 0 1 .03 8.34z"/></g><path d="m482.65 515-10.21-7.21a13.38 13.38 0 0 0 -21 9.39l-4 34.34z" fill="#8e2911"/><path d="m470 225.26a35.93 35.93 0 0 1 -12.12-26.92v-12.24a47.06 47.06 0 0 1 8.37-8.49s-10.41 30.31 3.75 47.65z" fill="#ca754f"/><path d="m547.61 291.44s-1.73 3-4.13 7.77l-10.81 2.79z" fill="#312424"/><path d="m497.72 232.23c-16.11 10.76-28.1-1.38-28.1-1.38l1-5c.49.43 1 .83 1.51 1.22l4.69 3.54c.11.09.23.17.36.26a19.05 19.05 0 0 0 8.61 3.45 17.05 17.05 0 0 0 2 .18h.67a17.78 17.78 0 0 0 2.52-.17 19.06 19.06 0 0 0 4.21-1c.76-.29 1.51-.59 2.24-.92z" fill="#9e563f"/><path d="m454.65 327.5a6 6 0 0 1 3.18 11 104.67 104.67 0 0 1 -13.83 7.67c-20.83 9.51-19.73 38.72-.17 46.19a124.07 124.07 0 0 1 -26.06-7.69c3.13-11.95 6.17-27.35 6.06-41.83a89.94 89.94 0 0 0 -2.27-20.48c-2.88-12.26-7.84-20.54-10.71-38.17-.16-1-.32-2-.46-3.06-.37-2.56-.69-5.32-1-8.31-29.76-20-59.17-66.09-80.3-105.18.9 1.57 26.3 47.72 67.29 75.87 11.68 8 20.28 13.47 22.95 22.38 6 20.15-3.09 42.85 16.33 56.35 5.56 3.86 12.49 5.15 18.99 5.26z" fill="#312424"/><path d="m424.86 459.35a18.55 18.55 0 0 1 -7.16 24.73 233.48 233.48 0 0 0 -82.7 81.41c35.27-62.67 62.1-103 62.1-103q.76-5.47 1.62-10.43a63.54 63.54 0 0 0 20.19-6.06 113.92 113.92 0 0 0 5.95 13.35z" fill="#8e2911"/><path d="m418.91 446a63.54 63.54 0 0 1 -20.23 6.11c5.16-30.1 12.21-45.79 12.42-46.27a123.49 123.49 0 0 0 7.81 40.16z" fill="#93351f"/><ellipse cx="479.98" cy="922.16" fill="#e2e2e2" rx="210.92" ry="20.19"/><g fill="#c3512c"><path d="m237.23 746.07 3.77 3.93a3.08 3.08 0 0 1 -.19 4.45l-2.79 2.43a3.08 3.08 0 0 1 -4.23-.18l-3.76-3.89a3.08 3.08 0 0 1 .16-4.43l2.75-2.46a3.06 3.06 0 0 1 4.29.15z"/><path d="m227.62 755.5 3.79 3.92a3.09 3.09 0 0 1 -.19 4.46l-2.79 2.43a3.08 3.08 0 0 1 -4.23-.18l-3.76-3.9a3.07 3.07 0 0 1 .16-4.42l2.76-2.47a3.07 3.07 0 0 1 4.26.16z"/><path d="m759.06 702.12-3.22 4.41a3.06 3.06 0 0 0 .8 4.38l3.09 2a3.08 3.08 0 0 0 4.17-.76l3.19-4.37a3.08 3.08 0 0 0 -.77-4.36l-3.07-2.06a3.06 3.06 0 0 0 -4.19.76z"/><path d="m769.88 710.14-3.22 4.41a3.07 3.07 0 0 0 .8 4.39l3.09 2a3.07 3.07 0 0 0 4.17-.76l3.19-4.37a3.06 3.06 0 0 0 -.77-4.35l-3.07-2.07a3.06 3.06 0 0 0 -4.19.75z"/></g></svg>