<svg xmlns="http://www.w3.org/2000/svg" width="40" height="40" viewBox="0 0 40 40">
  <g id="Group_21" data-name="Group 21" transform="translate(-1169 -33)">
    <circle id="Ellipse_6" data-name="Ellipse 6" cx="20" cy="20" r="20" transform="translate(1169 33)" fill="#ec7253"/>
    <path id="trophy" d="M15.03,4.312V2H3.468V4.312H0V6.625A3.471,3.471,0,0,0,4.509,9.934,5.784,5.784,0,0,0,8.093,12.29v3.584H6.937a2.312,2.312,0,0,0-2.312,2.312h9.249a2.312,2.312,0,0,0-2.312-2.312H10.405V12.29a5.784,5.784,0,0,0,3.583-2.356A3.471,3.471,0,0,0,18.5,6.625V4.312H15.03ZM3.468,8.72a2.1,2.1,0,0,1-2.1-2.1V5.468h2.1V6.625a5.764,5.764,0,0,0,.379,2.061,2.1,2.1,0,0,1-.379.035Zm13.657-2.1a2.095,2.095,0,0,1-2.474,2.061,5.762,5.762,0,0,0,.379-2.061V5.468h2.1Z" transform="translate(1180 43)" fill="#fff"/>
  </g>
</svg>
