<svg xmlns="http://www.w3.org/2000/svg" width="146.753" height="41.796" viewBox="0 0 146.753 41.796">
  <g id="Group_12" data-name="Group 12" transform="translate(-1454.414 -447.753)">
    <path id="Path_38" data-name="Path 38" d="M1466.978,461.715h-4.33v17.632h-5.7V461.715h-2.53V457.1h2.53v-1.125q0-4.1,2.33-6.025c1.553-1.286,4.57-1.888,7.7-1.807v4.739c-1.365-.026-2.991.2-3.527.683a3.418,3.418,0,0,0-.8,2.61v.924h4.33Z" transform="translate(0 -0.105)" fill="#273940"/>
    <path id="Path_39" data-name="Path 39" d="M1508.76,453.4a3.3,3.3,0,0,1,0-4.7,3.7,3.7,0,0,1,4.94,0,3.3,3.3,0,0,1,0,4.7,3.7,3.7,0,0,1-4.94,0Zm5.241,3.6v22.251h-5.623V456.991Z" transform="translate(-14.736 0)" fill="#273940"/>
    <path id="Path_40" data-name="Path 40" d="M1530.984,461.076a7.879,7.879,0,0,1,4-1v5.9h-1.486a5.7,5.7,0,0,0-4,1.245q-1.347,1.245-1.346,4.338v11.086h-5.623V460.393h5.623v3.454A7.907,7.907,0,0,1,1530.984,461.076Z" transform="translate(-18.81 -3.402)" fill="#273940"/>
    <path id="Path_41" data-name="Path 41" d="M1586.67,450.2v29.722h-5.623V450.2Z" transform="translate(-34.969 -0.674)" fill="#273940"/>
    <path id="Path_42" data-name="Path 42" d="M1648.051,460.516h-5.985l-5.824,15.543-5.744-15.543h-6.305l8.917,21.689-.29.666h-.005l-.113.272-.1.221h0c-.844,1.975-2.013,4-4.6,4a9.638,9.638,0,0,1-3.281-.648l-.043,5.138a14.332,14.332,0,0,0,4.576.777c4.678,0,6.749-3.48,9.049-8.951h.009Z" transform="translate(-46.884 -3.524)" fill="#273940"/>
    <path id="Path_43" data-name="Path 43" d="M1559.751,461.026c-5.477-2.96-12.364-1.7-16.017,5.788-3.417,7-1.8,25.992-1.8,25.992s17.719-6.588,23.078-16.5C1567.976,470.824,1565.228,463.986,1559.751,461.026Zm-8.029,14.855a5.614,5.614,0,1,1,7.608-2.269A5.613,5.613,0,0,1,1551.723,475.881Z" transform="translate(-24.063 -3.257)" fill="#ec7253"/>
    <path id="Path_44" data-name="Path 44" d="M1612.685,464.459a8.64,8.64,0,0,0-3.555-3.333,10.963,10.963,0,0,0-5.081-1.165,11.108,11.108,0,0,0-4.921,1.064,9.124,9.124,0,0,0-3.535,2.972,10.122,10.122,0,0,0-1.484,3.134h5.748a3.965,3.965,0,0,1,1.1-1.447,4.509,4.509,0,0,1,2.932-.944,4.039,4.039,0,0,1,3.153,1.265,5.181,5.181,0,0,1,1.225,3.394H1602.6q-4.619,0-6.929,1.968a6.347,6.347,0,0,0-2.309,5.061,6.131,6.131,0,0,0,.964,3.414,6.592,6.592,0,0,0,2.651,2.329,8.321,8.321,0,0,0,3.776.844,10.083,10.083,0,0,0,4.5-1.024,6.964,6.964,0,0,0,3.013-2.551v3.173h5.7V469.56A9.827,9.827,0,0,0,1612.685,464.459Zm-4.418,8.756a4.691,4.691,0,0,1-.884,2.851,5.519,5.519,0,0,1-2.229,1.807,6.67,6.67,0,0,1-2.751.6,3.679,3.679,0,0,1-2.43-.722,2.386,2.386,0,0,1-.864-1.928,2.456,2.456,0,0,1,.944-2.008,4.516,4.516,0,0,1,2.872-.763h5.342Z" transform="translate(-38.371 -3.371)" fill="#273940"/>
    <path id="Path_45" data-name="Path 45" d="M1493.312,464.459a8.63,8.63,0,0,0-3.555-3.333,10.961,10.961,0,0,0-5.081-1.165,11.1,11.1,0,0,0-4.92,1.064,9.12,9.12,0,0,0-3.534,2.972,10.143,10.143,0,0,0-1.485,3.134h5.749a3.963,3.963,0,0,1,1.1-1.447,4.509,4.509,0,0,1,2.932-.944,4.038,4.038,0,0,1,3.153,1.265,5.177,5.177,0,0,1,1.225,3.394h-5.664q-4.619,0-6.928,1.968a6.346,6.346,0,0,0-2.31,5.061,6.132,6.132,0,0,0,.964,3.414,6.6,6.6,0,0,0,2.651,2.329,8.324,8.324,0,0,0,3.776.844,10.083,10.083,0,0,0,4.5-1.024,6.962,6.962,0,0,0,3.012-2.551v3.173h5.7V469.56A9.827,9.827,0,0,0,1493.312,464.459Zm-4.418,8.756a4.687,4.687,0,0,1-.884,2.851,5.521,5.521,0,0,1-2.229,1.807,6.671,6.671,0,0,1-2.751.6,3.679,3.679,0,0,1-2.43-.722,2.386,2.386,0,0,1-.864-1.928,2.456,2.456,0,0,1,.944-2.008,4.517,4.517,0,0,1,2.872-.763h5.342Z" transform="translate(-5.406 -3.371)" fill="#273940"/>
  </g>
</svg>
