<svg viewBox="0 0 1000 1000" xmlns="http://www.w3.org/2000/svg"><path d="m428.51 554.92 53.49-54.76 92.77 30 15.65-53.75-32.47-31.36s-18.94 14-23.84 17.73-11.19-6.63-11.19-6.63l-14.7-7.15-23.84 10.9-.56.56-4.08-.6s-19.14 4.8-20.35 4.8-11.57-3.7-11.57-3.7l-38.23 31z" fill="#60424c"/><path d="m525.62 769.6-9.48 28.09-37.82-9.7 2.53-23.99z" fill="#7dd8c7"/><g fill="#60424c"><path d="m708.93 714.22 5.97 31.39-41.03 1.22-2.3-22.2z"/><path d="m591.84 683.7-8.78-81.95 69.53 19.93-4.78 49.42z"/><path d="m505.05 705.24-21.44-51.12s-51.1 4.27-54.4 31.75l36.19 50.78s39.81-19.39 39.65-31.41z"/></g><path d="m419.29 529 38.87-56.62 108.2 24.49v49l-35.24 88-52.8 33.61s-66.32-51.48-59.03-138.48z" fill="#509aaf"/><path d="m774.82 794.58-2.39 3.11-5.78 7.54s-38.4-20.19-92.78-58.4c-21.84-15.35-46.27-33.61-71.82-54.64q-5.05-4.19-10.21-8.49c12.45-6.87 35.59-23.65 60.75-62q5.53 10.32 11 21.46 3.15 6.43 6.23 13.13 5 10.72 9.74 22.13l29.37 35.81z" fill="#60424c"/><path d="m566.36 496.83c-12.1 13.55-25.4 24.88-39.65 31.57a129.69 129.69 0 0 1 -43.1 12.05c-2.73.27-5.4.42-8 .5a120.73 120.73 0 0 1 -24.67-1.81c-2.65-.45-5.19-1-7.61-1.59a117.53 117.53 0 0 1 -24-8.6v-1.08a870.89 870.89 0 0 1 9.42-101c.44-2.95.9-5.86 1.35-8.72a860 860 0 0 1 18-85.28c10.26-2.22 20.89-1.33 31.91-1.1l4.62 4.61a17.09 17.09 0 0 0 21 2.49l17.55-10.74a182.74 182.74 0 0 0 35-11.1 75 75 0 0 0 -4.57 31.36 85 85 0 0 0 3.29 18.51 411.92 411.92 0 0 0 -19.36 47.8 28 28 0 0 0 3.94 25.43 261.6 261.6 0 0 1 15.59 23.87c.11.2.23.39.33.58 1.27 12.03 4.32 23.51 8.96 32.25z" fill="#7dd8c7"/><path d="m652.59 621.68c-4.27 6.51-8.48 12.4-12.6 17.73-3 3.84-5.88 7.39-8.71 10.65-1-.86-1.94-1.73-2.91-2.6l-1.54-1.38-.07-.08c-.93-.84-1.86-1.69-2.78-2.55s-1.56-1.43-2.33-2.16l-1.56-1.47c-7.08-6.66-13.94-13.49-20.56-20.36q-1.44-1.49-2.85-3-4.77-5-9.36-10c-4.12-4.51-8.12-9-12-13.42l-2.58-3c-10.24-11.86-19.44-23.21-27.32-33.31l-2.09-2.69c-.45-.57-.89-1.15-1.33-1.72s-.88-1.14-1.3-1.7-.86-1.11-1.27-1.66l-1.14-1.49c-2.91-3.83-5.58-7.41-8-10.67-.34-.45-.67-.91-1-1.36-1-1.33-1.92-2.63-2.8-3.85-.3-.41-.59-.8-.87-1.2l-.83-1.16 1.87-.87c14.25-6.69 27.55-18 39.65-31.57a41.71 41.71 0 0 0 5.52 8.19c3.42 3.91 8.22 9.41 14 16.49a624 624 0 0 1 66.76 100.21z" fill="#f5ffc3"/><path d="m631.28 650.06c-16.46 18.94-30.63 28.77-39.44 33.64-1.74 1-3.26 1.72-4.56 2.33a7.66 7.66 0 0 1 -8.61-1.44c-14.27-13.9-31-32.06-47.55-50.8-15-17-29.94-34.58-42.68-49.85-12.82-14.3-25.4-29.24-37.55-44.8a123.44 123.44 0 0 0 67.21-7q3.33-1.3 6.74-2.85l.83 1.16q.42.6.87 1.2c.88 1.22 1.82 2.52 2.8 3.85.33.45.66.91 1 1.36 2.39 3.26 5.06 6.84 8 10.67l1.14 1.49c.41.55.84 1.11 1.27 1.66s.86 1.12 1.3 1.7.88 1.15 1.33 1.72l2.09 2.69c7.88 10.1 17.08 21.45 27.32 33.31l2.58 3c3.86 4.42 7.86 8.91 12 13.42q4.59 5 9.36 10 1.41 1.49 2.85 3c6.62 6.87 13.48 13.7 20.56 20.36l1.56 1.47c.77.73 1.55 1.45 2.33 2.16s1.85 1.71 2.78 2.55l.07.08 1.54 1.38c.92.81 1.88 1.68 2.86 2.54z" fill="#509aaf"/><path d="m550.26 846.7-11.51 6.9s-70.25-65.6-95.5-119.2q-2.06-4.36-3.7-8.62c-4.11-10.69-7.53-24.41-10.34-39.91 4.47 1.83 10.21 4 16.82 6.32 16.32 5.63 38 11.64 59 13l6.25 19.57 1.27 4z" fill="#60424c"/><path d="m446 692.19c-6.61-2.27-12.35-4.49-16.82-6.32-8.62-47.7-11.33-112.21-9.94-156.92a117.53 117.53 0 0 0 24 8.6c-2 30.51-4.55 93.2 2.76 154.64z" fill="#f5ffc3"/><path d="m531.12 633.79c-4.37 20.74-7.21 45.89-8.62 60.18-.18 1.83-.33 3.48-.47 4.92a7.3 7.3 0 0 1 -7.2 6.66c-3.23 0-6.5-.09-9.78-.31-21.07-1.41-42.7-7.42-59-13-6.94-58.05-5-117.22-3.1-149.3.12-1.88.23-3.66.35-5.34 2.42.59 5 1.14 7.61 1.59q3.6 4.62 7.27 9.16 9.91 12.36 20.16 24.15 5 5.82 10.12 11.48c12.72 15.23 27.61 32.76 42.66 49.81z" fill="#509aaf"/><g fill="#60424c"><path d="m667.88 229.28c-.14-.31-.24-.49-.26-.56-12.7-26.22-25.62-48.78-25.62-48.78l1.59-11.89a33.82 33.82 0 0 0 -2.77-18.53l-2.26-4.94a2.09 2.09 0 0 0 -4 .86v14.56s-8.87 11.73-.07 24.19l4.77 88.59.79 14.74s-37.06 11.57-62.2 21.33c-6.41 2.5-12.79 5.39-19.68 8.25a75 75 0 0 0 -4.57 31.36 85 85 0 0 0 3.29 18.51c3.15 10.79 8.76 22.66 18.1 35.24 6.4-4.13 12.92-8.32 19.44-12.56 22.15-14.42 44.29-29.43 62.15-44.81h.06a176.47 176.47 0 0 0 23.36-23.9 83.53 83.53 0 0 0 10.5-16.77c5.36-11.62-8.4-45.46-22.62-74.89z"/><path d="m433.31 338.76c-61.22 37.81-189.44 117.24-189.44 117.24l-11.65-2.83a33.78 33.78 0 0 0 -18.72.8l-5.16 1.73a2.09 2.09 0 0 0 .45 4.05l14.43 1.53s10.73 10.06 24.05 2.62c0 0 23.41-2.19 56-7.54h.13c31.25-5.13 89.61-17.62 125.27-29.41.44-2.95.9-5.86 1.35-8.72 2.77-17.24 5.76-32.75 8.58-46 3.64-17.09 7-30.51 9.39-39.24a45.9 45.9 0 0 0 -14.68 5.77z"/><path d="m517 261.31c-12.65-9.48-28.22-6.07-37.88 1a25.87 25.87 0 0 0 -7.35 7.91c-2.75 4.89-2.44 12.27-1.95 15.82s-3.28 6.71-4.53 8.11a3.14 3.14 0 0 0 -.91 2.3c.05 1.06.65 2.37 2.16 4.12a3.73 3.73 0 0 1 .48.75c2.33 4.63 1.11 18.61 5.07 21.6 3.05 2.29 12.16-.26 15.25-1.22l-2.74 10.17c-1.56 0-3.11 0-4.65 0l4.62 4.61a17.09 17.09 0 0 0 21 2.49l13.84-8.46 3.71-2.28v-22.94a67.07 67.07 0 0 1 2.17-17c2.27-8.77 1.29-19.8-8.29-26.98z"/></g><path d="m774.82 794.58 4.12 10.65h-12.29s-38.4-20.19-92.78-58.4a102.69 102.69 0 0 0 24.81-19 76.7 76.7 0 0 0 10.25-13.59z" fill="#7dd8c7"/><path d="m550.26 846.7-1.56 8.3-10-1.44s-31.9-29.77-60.43-65.61a199.9 199.9 0 0 0 47.3-18.39z" fill="#7dd8c7"/><g fill="#442330"><path d="m467 301.29a3.73 3.73 0 0 0 -.48-.75c-1.51-1.75-2.11-3.06-2.16-4.12s2.09 2.37 3.93 2.75 1.94 3.49-1.29 2.12z"/><path d="m490.88 323.15-6.28 8.69 2.74-10.17 2-.65a1.39 1.39 0 0 1 1.54 2.13z"/><path d="m525.29 288.31a67.07 67.07 0 0 0 -2.17 17v22.87l-3.71 2.28a16 16 0 0 0 .26-1.62c2.25-27.18-13.29-25.19-15.25-38.78s15.8-18.83 3.86-27.76-29.16 0-29.16 0c9.66-7 25.23-10.45 37.88-1 9.58 7.19 10.56 18.22 8.29 27.01z"/><path d="m650.45 283.76-10.42 3.72-.79-14.74z"/><path d="m656.56 344.8c-17.86 15.38-40 30.39-62.15 44.81-6.52 4.24-13 8.43-19.44 12.56-9.34-12.58-15-24.45-18.1-35.24a85 85 0 0 1 -3.29-18.51s41 43.47 102.98-3.62z"/><path d="m438.65 372.14c-2.82 13.29-5.81 28.8-8.58 46-.45 2.86-.91 5.77-1.35 8.72-35.66 11.79-94 24.28-125.27 29.41 86.24-14.85 135.2-84.13 135.2-84.13z"/></g><path d="m575 402.17-.08.05c-15 9.65-20.15 37.18-17.49 62.36 1.27 12 4.32 23.5 9 32.24-12.1 13.55-25.4 24.88-39.65 31.57a129.69 129.69 0 0 1 -43.1 12.05c30.47-5.16 42.71-47.55 41.23-99.7-1.72-60.34 28.74-92.33 28.74-92.33a85 85 0 0 0 3.29 18.51c3.06 10.8 8.69 22.67 18.06 35.25z" fill="#5dc7b1"/><path d="m575 402.17c-15 9.6-20.24 37.18-17.57 62.41a258.79 258.79 0 0 0 -16-24.44 27.94 27.94 0 0 1 -3.93-25.41 411.92 411.92 0 0 1 19.36-47.8c3.14 10.79 8.77 22.66 18.14 35.24z" fill="#d8fb9a"/><path d="m443.28 537.55c-.12 1.68-.23 3.46-.35 5.34-14.77-6.39-23.13-13.49-23.64-13.89a117.81 117.81 0 0 0 23.99 8.55z" fill="#d8fb9a"/><path d="m458.16 548.3a122.75 122.75 0 0 1 -15.23-5.41c.12-1.88.23-3.66.35-5.34 2.42.59 5 1.14 7.61 1.59q3.6 4.62 7.27 9.16z" fill="#347b93"/><path d="m585.9 521.51c-17.33 11.61-33.67 19.38-48.87 24.31-4.81-6.38-8.92-12-12.19-16.55l1.87-.87c14.25-6.69 27.55-18 39.65-31.57a41.71 41.71 0 0 0 5.52 8.19c3.42 3.91 8.22 9.41 14.02 16.49z" fill="#d8fb9a"/><path d="m531.12 633.79c-4.37 20.74-7.21 45.89-8.62 60.18.33-64.39-43.49-120.64-44.18-121.51q5 5.82 10.12 11.48c12.74 15.27 27.63 32.8 42.68 49.85z" fill="#347b93"/><path d="m512.57 728.79c-49-10.71-83.36-42.92-83.36-42.92 4.47 1.83 10.21 4 16.82 6.32 16.32 5.63 38 11.64 59 13l6.25 19.57z" fill="#442330"/><path d="m575.34 593-2.58-3c-10.24-11.86-19.44-23.21-27.32-33.31l-2.09-2.69c-.45-.57-.89-1.15-1.33-1.72s-.88-1.14-1.3-1.7-.86-1.11-1.27-1.66l-1.14-1.49-2-2.59-.68-.9c-.22-.31-.45-.6-.67-.9q-2.79-3.74-5.22-7l-.44-.6-1-1.41-.74-1c-.35-.48-.7-1-1-1.43s-.59-.8-.87-1.2l-.83-1.16c-.93.42-1.86.82-2.78 1.22l-1.84.77-1.59.64-.45.18q-5.58 2.19-10.95 3.77l-1.5.43-1.91.53-2.13.54c-.89.23-1.77.43-2.65.63s-1.77.39-2.64.57c-1.75.36-3.48.66-5.2.94-.74.12-1.49.23-2.24.33h-.37l-2.1.28c-.3 0-.59.07-.89.09l-1.94.21-2 .18c-1.18.1-2.35.17-3.51.23h-.95l-1.49.05h-1.13-.9q-5.29.06-10.24-.32c-1.57-.1-3.11-.25-4.62-.42-2.69-.3-5.28-.68-7.78-1.12q3.6 4.62 7.27 9.16a126.44 126.44 0 0 0 33.73 4.78 29.47 29.47 0 0 1 25.94 15.69 65.31 65.31 0 0 0 23.13 25.06c10.44 6.6 28.39 9.7 46.24 12.8-4.17-4.46-8.17-9-12.03-13.46z" fill="#347b93"/><path d="m640 639.41c7.93-22.45-22.22-27.68-52.67-32.95-4.12-4.51-8.12-9-12-13.42l-2.58-3c-10.24-11.86-19.44-23.21-27.32-33.31l-2.09-2.69c-.45-.57-.89-1.15-1.33-1.72s-.88-1.14-1.3-1.7-.86-1.11-1.27-1.66l-1.14-1.49c-2.91-3.83-5.58-7.41-8-10.67-.34-.45-.67-.91-1-1.36-1-1.33-1.92-2.63-2.8-3.85-.3-.41-.59-.8-.87-1.2l-.83-1.16 1.87-.87c14.25-6.69 27.55-18 39.65-31.57a41.71 41.71 0 0 0 5.52 8.19c3.42 3.91 8.22 9.41 14 16.49a624 624 0 0 1 66.69 100.17c-4.21 6.55-8.42 12.44-12.53 17.77z" fill="#d8fb9a"/><path d="m679.56 678.4q-4.75-11.42-9.74-22.13c-.94-2-1.89-4.07-2.84-6.08l-.55-1.15q-6.82-14.32-13.84-27.36c-25.16 38.37-48.3 55.15-60.75 62q5.16 4.32 10.16 8.51c.61-.14 22.12-5.18 41.46-15a8.36 8.36 0 0 1 10.65 2.64l.13.18a205.54 205.54 0 0 0 26.65 31l17.74 16.82a76.7 76.7 0 0 0 10.25-13.59z" fill="#442330"/><path d="m774.82 794.58-2.39 3.11-73.75-69.89a76.7 76.7 0 0 0 10.25-13.59z" fill="#5dc7b1"/><path d="m690.54 304.17a83.53 83.53 0 0 1 -10.54 16.77c12.71-36.63-9.43-85.84-12.16-91.66 14.26 29.43 28.02 63.27 22.7 74.89z" fill="#442330"/><path d="m580.88 112.79a42.41 42.41 0 0 0 -15.53 8.55c-.8.7-1.58 1.41-2.32 2.17a42.29 42.29 0 0 0 -12.29 26.66c-.09 1.13-.14 2.26-.12 3.38a36.15 36.15 0 0 0 .22 4.42 42.59 42.59 0 0 0 6.24 18.16 42.49 42.49 0 0 0 13.41 13.44c.88.57 1.8 1.1 2.74 1.6a42.28 42.28 0 0 0 16.56 4.83h.07l3.1.12a42.07 42.07 0 0 0 20.2-5c.94-.51 1.86-1 2.75-1.6a42.54 42.54 0 0 0 18.39-25 39 39 0 0 0 .91-4.4c.18-1.05.3-2.11.39-3.19a42.45 42.45 0 0 0 -1.9-16.41c-.35-1.06-.72-2.11-1.15-3.12a42.51 42.51 0 0 0 -32.83-25.89c-1-.17-2.06-.29-3.1-.37h-.07a42.56 42.56 0 0 0 -15.67 1.65z" fill="#f9bf8f"/><path d="m601.36 138.34c.36-12.42-.21-22.32-1.64-26.83-1-.17-2.06-.29-3.1-.37a1.44 1.44 0 0 0 .07.71c1.25 3.09 2 12 1.77 24.8-.11 5.17-.4 11-.9 17.26-.12 1.47-.25 2.92-.38 4.34-21.42-2.72-29.14-26.14-31.5-36.25a1.34 1.34 0 0 0 -.33-.66c-.8.7-1.58 1.41-2.32 2.17 2.26 9.22 10.65 34.74 33.86 37.64-.36 3.62-.78 7-1.2 10.13-1.31-.05-2.63-.12-4-.23-18.9-1.51-35.27-8.39-39.81-16.73a1.41 1.41 0 0 0 -1.3-.77 36.15 36.15 0 0 0 .22 4.42c6.38 8.24 22.17 14.53 40.66 16 1.26.1 2.52.17 3.77.22-.52 3.32-1 6.33-1.59 9a42.65 42.65 0 0 0 -22.64 5.88 1.39 1.39 0 0 0 -.51.51c.88.57 1.8 1.1 2.74 1.6a39.37 39.37 0 0 1 19.81-5.09 36.12 36.12 0 0 1 -3 9.21 1.4 1.4 0 0 0 -.19.69l3.1.12a47.46 47.46 0 0 0 3.1-9.93h.4a41.09 41.09 0 0 1 16.7 4.93c.94-.51 1.86-1 2.75-1.6a1.41 1.41 0 0 0 -.52-.51 43.69 43.69 0 0 0 -18.7-5.75c.05-.3.12-.61.17-.93.48-2.48.95-5.18 1.38-8.07a86.85 86.85 0 0 0 9.95-.41c11.46-1.11 20.93-4.42 26.12-9.35a39 39 0 0 0 .91-4.4.31.31 0 0 0 -.13 0 1.53 1.53 0 0 0 -1.34.65c-3.69 4.91-12.23 8.42-23 9.87a84 84 0 0 1 -12.12.74c.43-3.17.82-6.49 1.19-10a31.92 31.92 0 0 0 16.22-3.62c7.79-4.05 13.59-10.86 17.65-17.25-.35-1.06-.72-2.11-1.15-3.12a1.33 1.33 0 0 0 -.73.59c-3.63 5.94-8.89 12.46-16 16.51a29.11 29.11 0 0 1 -15.75 3.95c.13-1.41.26-2.85.37-4.31.51-5.5.79-10.83.94-15.76z" fill="#34222e"/><g fill="#f6a871"><path d="m596.39 111.12h.23a1.44 1.44 0 0 0 .07.71c1.25 3.09 2 12 1.77 24.8-3.08-1.75-6.1-3.34-8.64-4.91-9.89-6.08-5.02-21.5 6.57-20.6z"/><path d="m599.72 111.51a42.51 42.51 0 0 1 32.83 25.89 1.33 1.33 0 0 0 -.73.59c-3.63 5.94-8.89 12.46-16 16.51-1.24-7.05-7.66-12-14.5-16.16.4-12.42-.17-22.34-1.6-26.83z"/><path d="m633.7 140.52a42.45 42.45 0 0 1 1.9 16.41c-.09 1.08-.21 2.14-.39 3.19a.31.31 0 0 0 -.13 0 1.53 1.53 0 0 0 -1.34.65c-3.69 4.91-12.23 8.42-23 9.87.28-.39.56-.8.84-1.21 2.92-4.38 4.27-8.22 4.45-11.63 7.81-4.08 13.61-10.89 17.67-17.28z"/><path d="m634.3 164.52a42.54 42.54 0 0 1 -18.39 25 1.41 1.41 0 0 0 -.52-.51 43.69 43.69 0 0 0 -18.7-5.75c.05-.3.12-.61.17-.93a31.83 31.83 0 0 0 11.33-8.48c11.45-1.09 20.92-4.4 26.11-9.33z"/><path d="m596.06 186.18h.4a41.09 41.09 0 0 1 16.7 4.93 42.07 42.07 0 0 1 -20.2 5 47.46 47.46 0 0 0 3.1-9.93z"/><path d="m593.05 186.09a36.12 36.12 0 0 1 -3 9.21 1.4 1.4 0 0 0 -.19.69h-.07a42.28 42.28 0 0 1 -16.55-4.81 39.37 39.37 0 0 1 19.81-5.09z"/><path d="m557.09 176.14c.34.18 11.15 7.51 24.13 8.58a42.49 42.49 0 0 0 -10.22 4.35 1.39 1.39 0 0 0 -.51.51 42.49 42.49 0 0 1 -13.4-13.44z"/></g><g fill="#20141b"><path d="m596.85 182.35c-.05.32-.12.63-.17.93a43.69 43.69 0 0 1 18.7 5.75 1.41 1.41 0 0 1 .52.51c-.89.57-1.81 1.09-2.75 1.6a41.09 41.09 0 0 0 -16.7-4.93h-.4a47.46 47.46 0 0 1 -3.1 9.93l-3.1-.12a1.4 1.4 0 0 1 .19-.69 36.12 36.12 0 0 0 3-9.21 39.37 39.37 0 0 0 -19.81 5.09c-.94-.5-1.86-1-2.74-1.6a1.39 1.39 0 0 1 .51-.51 42.49 42.49 0 0 1 10.21-4.35 32.2 32.2 0 0 0 15.64-2.4z"/><path d="m635.08 160.09a.31.31 0 0 1 .13 0 39 39 0 0 1 -.91 4.4c-5.19 4.93-14.66 8.24-26.12 9.35a39.83 39.83 0 0 0 2.58-3.26c10.75-1.45 19.29-5 23-9.87a1.53 1.53 0 0 1 1.32-.62z"/><path d="m632.55 137.4c.43 1 .8 2.06 1.15 3.12-4.06 6.39-9.86 13.2-17.65 17.25a14.58 14.58 0 0 0 -.19-3.27c7.07-4.05 12.33-10.57 16-16.51a1.33 1.33 0 0 1 .69-.59z"/><path d="m596.62 111.14c1 .08 2.08.2 3.1.37 1.43 4.51 2 14.41 1.64 26.83-1-.58-1.94-1.14-2.9-1.69.27-12.79-.52-21.71-1.77-24.8a1.44 1.44 0 0 1 -.07-.71z"/></g><path d="m792.8 808.27-6.45 24a7.21 7.21 0 0 1 -8.09 5.38 7.13 7.13 0 0 1 -6.24-5.83l-5.37-26.6 5.78-7.54 2.39-3.11 12.51 3.81a8.13 8.13 0 0 1 5.47 9.89z" fill="#509aaf"/><path d="m792.8 808.27-6.45 24a7.21 7.21 0 0 1 -8.09 5.38c4.62-1.85 9.83-28.34 10-32.43s-15.84-7.54-15.84-7.54l2.39-3.11 12.51 3.81a8.13 8.13 0 0 1 5.48 9.89z" fill="#347b93"/><path d="m562 866-14.81 20c-4.64 6.26-14.55 2-13.18-5.68l4.78-26.72 11.51-6.9 10.23 8.14a8.12 8.12 0 0 1 1.47 11.16z" fill="#509aaf"/><g fill="#f5ffc3"><path d="m548.21 856.22a1.5 1.5 0 0 0 -1.92-2.31c-6.6 5-10.71 5.1-10.75 5.1a1.5 1.5 0 0 0 0 3c.21 0 5.09 0 12.62-5.71z"/><path d="m546.68 863a1.5 1.5 0 0 0 -1.77-2.41c-7.13 4.23-11.24 3.85-11.28 3.84a1.5 1.5 0 0 0 -.37 3c.2 0 5 .59 13.18-4.24a1.46 1.46 0 0 0 .24-.19z"/><path d="m544.88 869.91a1.5 1.5 0 0 0 -1.73-2.43c-7.27 4-11.36 3.45-11.4 3.45a1.5 1.5 0 0 0 -.48 3c.2 0 5 .77 13.32-3.78a1.49 1.49 0 0 0 .29-.24z"/><path d="m775.63 802.91a1.5 1.5 0 0 0 -2.85-.94c-2.91 7.78-6.34 10-6.37 10.06a1.5 1.5 0 0 0 -.51 2.06 1.52 1.52 0 0 0 2.07.5c.17-.11 4.3-2.7 7.62-11.56.01-.03.03-.03.04-.12z"/><path d="m777.93 809.42a1.5 1.5 0 0 0 -2.78-1.09c-3.77 7.38-7.45 9.25-7.49 9.27a1.5 1.5 0 0 0 1.27 2.71c.19-.08 4.59-2.19 8.89-10.61a1.08 1.08 0 0 0 .11-.28z"/><path d="m780.12 816.26a1.52 1.52 0 0 0 -.72-1.72 1.5 1.5 0 0 0 -2 .59c-4 7.24-7.77 9-7.81 9a1.5 1.5 0 0 0 1.18 2.76c.19-.08 4.66-2 9.25-10.31a1.3 1.3 0 0 0 .1-.32z"/></g></svg>