<svg viewBox="0 0 1000 1000" xmlns="http://www.w3.org/2000/svg"><path d="m316.51 699.46a46.83 46.83 0 0 1 -11.29 16.59c-.89.84-1.76 1.65-2.62 2.43-2.55 2.34-4.77 3.49-6.88 5.27-3.14 2.66-7.28 3-11.27 3.57-8.27-6.11-25.13-18.56-34.75-41.68-2.59-6.22-4.83-12.09-6.62-17.52-7.3-21.91-7.5-36.57 4.95-37.68 15.54-1.39 26.67 8.94 36.93 29.19 9.24 18.23 16.86 35.58 31.55 39.83z" fill="#c5f8c8"/><path d="m321.17 665.63c-.6 6.77-1.43 15.69-2.14 23.13a40.14 40.14 0 0 1 -.72 4.63 41.14 41.14 0 0 1 -2.11 6.94c-13.09-3.8-22.13-13.63-30.37-29.88-9.15-18.06-16.82-32.89-30.68-31.66-11.09 1-10.92 14.06-4.41 33.6 1.6 4.83 3.6 10.07 5.91 15.62 8.57 20.61 23.73 33.69 31.1 39.14a18.9 18.9 0 0 1 -6.27-.2l-2.86-.57a27.07 27.07 0 0 1 -16.23-10.18c-33.39-44.05-44.2-68.2-30.57-88.32a42.26 42.26 0 0 1 4.51-5.56c11.15-11.7 27.66-16.6 36.28-18.46 4.53 5.77 19.45-5.42 23.74 0 2.89 3.67 11.2 6.51 13.9 9.94 9.5 11.98 2.29 41.25 10.92 51.83z" fill="#faf096"/><path d="m321.17 665.63c-.6 6.77-1.43 15.69-2.14 23.13a40.14 40.14 0 0 1 -.72 4.63c-21.32-15.94-25.28-30.68-38-57.53-15.3-32.19-43.94-13.55-43.94-13.55 11.15-11.7 27.66-16.6 36.28-18.46 4.53 5.77 9 11.42 13.26 16.84 2.89 3.67 5.71 7.22 8.41 10.65 9.46 11.99 18.22 23.71 26.85 34.29z" fill="#f4d859"/><path d="m287.75 727.15a18.9 18.9 0 0 1 -6.27-.2l-2.86-.57a27.07 27.07 0 0 1 -16.23-10.18c-33.39-44.05-44.2-68.2-30.57-88.32a42.26 42.26 0 0 1 4.51-5.56c-.34.63-11.51 22.22 14.41 50.07 1.6 4.83 3.6 10.07 5.91 15.62 8.57 20.61 23.73 33.69 31.1 39.14z" fill="#f4d859"/><path d="m303.81 717.29c-2.28 2.08-4.43 3.94-6.31 5.53a19.1 19.1 0 0 1 -9.75 4.33c-7.37-5.45-22.53-18.53-31.1-39.14-2.31-5.55-4.31-10.79-5.91-15.62a111.16 111.16 0 0 0 10.34 9.73c18.18 15.13 33.45 26.26 42.73 35.17z" fill="#82df9a"/><path d="m847.26 644c5.62 9.57 1.59 14.28-7.71 16.34-20.76-12.34-52.3-17.1-88.41-17.57-10.55-22.33-3-36.18 14-42 44.19 22.65 82.12 43.23 82.12 43.23z" fill="#ed8b7b"/><path d="m721.13 904.1c-3 8.32-9.21 9.1-17.29 5.22 0 0-27.09-44.79-59.26-78.19.91-22.12 12.87-32.79 39.39-21.35 20.03 49.42 37.16 94.32 37.16 94.32z" fill="#e06855"/><path d="m684 809.78a242.21 242.21 0 0 0 -39.39 21.35c-9-9.33-18.38-17.77-27.68-24.09-42.62-29-41.34-67.34-41.34-67.34-70.57-2.18-129.69-25.76-156.27-38.22 4.56-2.08 30.76-69.49 46.68-79.16 17.06-10.36 69.42 9.3 86.18 2.23 5.93 4.14 12.3 8.64 18.77 13.3 22.89 16.55 46.86 35.15 56.05 46.67 10.24 12.81 35.29 71.7 57 125.26z" fill="#f35b63"/><g fill="#ed8b7b"><path d="m280.28 423.25c1.41 6.39-5.52 9.9-18.1 11.07-19.34 1.8-28.1-13.18-29.22-13.2l.49-13.62c2.19-.35-6.49-22.44-4.45-23.54 0 0 36.79-3.47 37.26-7.82l6 20.11z"/><path d="m278 466.56c-28.9-12.56-45-37.08-41.66-45.36l7.51.18c12.63.32 25.27 1 36.43 1.87 8.69.69 16.46 1.51 22.65 2.46 10.26 2 19 14.08 23.77 21.06 11.49 16.85-12.47 35.55-48.7 19.79z"/><path d="m429.38 515.56c-3.81 2.67-8.91 5.15-15.33 7.76a144.09 144.09 0 0 1 -34.68 9c-3-3.47-44-46-48.93-49.73-11.55-8.89-14.13-51.47-17.23-54.84 17 4.29 39.26 14.16 55 21.73 11.44 5.49 19.43 9.77 19.43 9.77l-10-68.33 10-1.87s42.87 85 48.59 101.78c3.93 11.65 1.86 18.66-6.85 24.73z"/><path d="m274.36 366.69c0 10.36-7.32 12.06-7.32 12.06-1.09 9.94-7.77 16.1-16.58 20.85l-5.89 3.18-4.71 2.54a20.23 20.23 0 0 1 -6.4 2.18 20.61 20.61 0 0 1 -18-5.76 63.6 63.6 0 0 1 -14.49-22.43c-1.33-3.52-7.35-7.18-8-10.92v-15.39c2 2.19 9-6.59 13.08-6.06 7.73 1 23-1.44 39.28-2.7 18.14-1.39 9.25 9.88 10 14.13.54-8.73 17-8.66 18.85-1.06.72 3.07.18 7.21.18 9.38z"/></g><path d="m652.35 547.45c-50-18.76-159.7-28.62-242.86-16-3 .45-5.94.92-8.85 1.44q-9 1.56-17.4 3.51s-63.75 19-67 105.17c-.1 2.5 17.16 34 17.33 38.42 23.55 25.28 48.16 38.65 85.75 21.53a138.82 138.82 0 0 0 14.27-7.61q9.22-5.6 17.92-11.06c18-11.3 34.58-22.07 50.49-31.75q8.19-5 16.2-9.53a327.08 327.08 0 0 1 34-17c18.33-7.72 37.15-13 57.87-15 0 0 4.15 6.77 13.16 14.42 12.87 10.92 35.62 23.62 70.29 21 19.86-1.53 39.36-2.39 57.67-2.15a125.85 125.85 0 0 1 14-42c-40.54-20.9-86.28-43.43-112.84-53.39z" fill="#f9989f"/><path d="m272.24 396.25-6-20.11s7.15-.73 7.15-11.09a33.29 33.29 0 0 0 -1.07-7.86c-1.9-7.73-9.17 1.55-9.49 10.42a2.08 2.08 0 0 0 -.05-.36c-.74-4.24-4.53-12.06-22.81-10.65-24.87 1.91-39 4.06-44.72-2.31l2.62 14.13a63.34 63.34 0 0 0 3 10.88c-3.55-1.48-9.25-4.85-10.73-11.68a24.72 24.72 0 0 1 2.62-16.62.81.81 0 0 0 -1-1.15 16.11 16.11 0 0 0 -6.27 4 .49.49 0 0 1 -.83-.5 54.66 54.66 0 0 1 29.34-30.29c1.59-.7 3.27-1.33 5-1.9 28.43-9.23 53.47 5.07 56.41 27.66 2.89 22-3.17 47.43-3.17 47.43z" fill="#faf096"/><path d="m383.24 536.36a51.83 51.83 0 0 1 -3.88-4.05 65.36 65.36 0 0 1 -10.26-15.73 41.9 41.9 0 0 1 -4-17.39v-.47c.08-5.52.1-10.34.1-14.2a20 20 0 0 0 -7.85-15.77c-19.47-15-36.54-32.7-44.17-41-1.57-.4-3.09-.75-4.55-1-1.69-.35-3.61-.67-5.7-1 7.69 6 15.73 13.15 20.5 20.14 11.48 16.85-1.45 21.54-37.66 5.79-28.92-12.58-44.31-25.59-49.44-30.44-1.13 0-2.25-.06-3.37-.08-7-.14-13.71-.18-20.06.09-22.65 29.13-14.71 42 4.57 112.28 11.3 14.46 24.3 31.07 37.33 47.69 6 7.63 12 15.25 17.82 22.67 4.53 5.77 9 11.42 13.26 16.84q4.33 5.5 8.41 10.65c9.49 12 18.25 23.71 26.87 34.29 4.14 5.07 8.24 9.89 12.37 14.32-.17-4.39-.24-8.68-.21-12.84 0-2.59.08-5.14.19-7.64 3.28-86.19 49.73-123.15 49.73-123.15z" fill="#fccb8f"/><path d="m369.1 516.57c-56.48 29.46-78.34 88.64-83.22 104.11-4.28-5.42-8.73-11.07-13.26-16.84-5.85-7.42-11.84-15-17.82-22.67q3.09-4.15 6.28-8.06c39.25-48.11 88.11-68.32 104-73.94a41.9 41.9 0 0 0 4.02 17.4z" fill="#1d2323"/><path d="m502 651.06c-15.91 9.68-32.45 20.45-50.49 31.75a110.78 110.78 0 0 1 -11.77-12.74 139.51 139.51 0 0 1 -15.42-24.67c-2.31-4.65-4.4-9.4-6.26-14.19-16.43-42-17.4-87.37-17.39-98.36 2.91-.52 5.86-1 8.85-1.44 6.38 15.59 38.28 88.33 90.06 118.28.77.47 1.58.93 2.42 1.37z" fill="#1d2323"/><path d="m906.26 661.4-16.8 4.9c.36-8.11-1.56-13.82-3.86-17.7l19.79 2.4a5.35 5.35 0 0 1 .87 10.4z" fill="#ed8b7b"/><path d="m889.46 666.3-30.72 9-.16-.59a11.9 11.9 0 0 0 -15-8.32l-3.6 1.1-.47-7.08 7.75-16.41 38.34 4.57c2.3 3.91 4.22 9.62 3.86 17.73z" fill="#fccb8f"/><path d="m858.74 675.26-10.08 2.93a6.5 6.5 0 0 1 -8.31-5.8l-.33-4.94 3.6-1.1a11.9 11.9 0 0 1 15 8.32z" fill="#ed8b7b"/><path d="m747.75 959.54-14.89-9.19c6.27-5.16 9.22-10.41 10.56-14.72l11.5 16.28a5.34 5.34 0 0 1 -7.17 7.63z" fill="#e06855"/><path d="m743.43 935.63c-1.34 4.3-4.3 9.56-10.57 14.72l-27.23-16.81.37-.54a11.88 11.88 0 0 0 -3.84-16.68l-3.22-1.93 4.94-5.09 17.29-5.22z" fill="#f9a250"/><path d="m705.64 933.54-8.93-5.54a6.5 6.5 0 0 1 -1.26-10l3.45-3.55 3.22 1.93a11.91 11.91 0 0 1 3.88 16.62z" fill="#e06855"/><g fill="#ed8b7b"><path d="m217.47 533.49c-3.78 6.85-7.58 13.6-11.16 20.09-13.15 23.87-33.32 56.59-51.52 85.34q-3.39 5.36-6.65 10.46c-.06.11-.14.21-.2.31-1.3 2.06-2.59 4.07-3.86 6-17.34 27.11-30.77 47.42-30.77 47.42l-11.37-7.94c16.73-26.64 27.46-64.06 35.63-102.55v-.06c13.73-64.83 20.2-132.65 35.76-157.06 6.63-10.4 21.42-13.6 39.54-14.34a64.42 64.42 0 0 1 13.16 5.26c36.15 19.8 14.29 65.58-8.56 107.07z"/><path d="m394.31 375.7-6.71 13.3c-1.21 6.28-4.85 6-10 1.87-4.9-7.27-1.67-12.91.24-15.28a2.13 2.13 0 0 0 -1.24-3.46h-.08a8.88 8.88 0 0 1 -4.49-1.92 4.77 4.77 0 0 1 -.65-6.69l6.5-7.95a7.17 7.17 0 0 1 10.88-.23l3.3 3.69a14.92 14.92 0 0 1 2.25 16.67z"/><path d="m108.94 730.74-.48 1.36a1.67 1.67 0 0 1 -3.22-.29l-.41-2.44a1.72 1.72 0 0 0 -3.29-.37l-4.64 11.49a2.9 2.9 0 0 1 -5.58-.81l-1.32-13.62a31.91 31.91 0 0 1 5.12-20.55l6.78-10.29c10-4.81 15.14-3.76 11.37 7.94a75.54 75.54 0 0 1 -4.33 27.58z"/></g><path d="m424.29 645.4c-33.65 42.2-80.16 26.21-91 21.7 0-2.58.08-5.13.19-7.63 11.46 3.77 52.06 13.22 84.52-28.26 1.89 4.79 4 9.54 6.29 14.19z" fill="#1d2323"/><path d="m575.56 739.7c-70.57-2.18-129.69-25.76-156.27-38.22a138.82 138.82 0 0 0 14.27-7.61q9.22-5.6 17.92-11.06c18-11.3 34.58-22.07 50.49-31.75 17.06-10.36 33.42-19.44 50.18-26.51 5.93 4.14 12.3 8.64 18.77 13.3l-12 10c-31.69 26.37-23 77.23 15.66 91.47z" fill="#d64351"/><path d="m451.48 682.81q-8.72 5.46-17.92 11.06a138.82 138.82 0 0 1 -14.27 7.61c-37.59 17.12-62.2 3.75-85.75-21.53 0 0 39.15 7.78 106.18-9.88a110.78 110.78 0 0 0 11.76 12.74z" fill="#f35b63"/><path d="m518.17 641.53q-8 4.54-16.2 9.53c-.81-.44-1.62-.9-2.42-1.37q9.11-3.78 18.62-8.16z" fill="#f35b63"/><path d="m502 651.06c-15.91 9.68-32.45 20.45-50.49 31.75a110.78 110.78 0 0 1 -11.77-12.74 466.55 466.55 0 0 0 59.84-20.38c.77.47 1.58.93 2.42 1.37z" fill="#030505"/><path d="m628.38 617.92-5.2 6.07c-9-7.65-13.16-14.42-13.16-14.42h14.52a5.06 5.06 0 0 1 3.84 8.35z" fill="#f35b63"/><path d="m244.56 402.78-4.71 2.54a20.23 20.23 0 0 1 -6.4 2.18 20.61 20.61 0 0 1 -18-5.76 63.6 63.6 0 0 1 -14.49-22.43 63.34 63.34 0 0 1 -3-10.88l-2.62-14.13c2 2.19 5 3.38 9 3.91 2.73 2.46 8.64 6.32 18.83 6.46 14.96.18.43 36.76 21.39 38.11z" fill="#e06855"/><path d="m262.8 367.25c-.74-4.24-4.53-12.06-22.81-10.65-24.87 1.91-39 4.06-44.72-2.31l2.62 14.13a63.34 63.34 0 0 0 3 10.88c-3.55-1.48-9.25-4.85-10.73-11.68a24.72 24.72 0 0 1 2.6-16.62.81.81 0 0 0 -1-1.15 16.11 16.11 0 0 0 -6.27 4 .49.49 0 0 1 -.83-.5 54.66 54.66 0 0 1 29.34-30.29c-3.71 4.1-5.65 9-3.11 14.33 7.63 16.12 48.83 3.87 51.91 29.86z" fill="#f4d859"/><path d="m261.08 573.12q-3.18 3.9-6.28 8.06c-13-16.62-26-33.23-37.33-47.69 17.21-31.26 33.86-64.94 25.6-88.1 2.32 6.22 8.44 25.31 9.46 55.71 1.04 30.69 1.65 50.9 8.55 72.02z" fill="#f9a250"/><path d="m285.88 620.69c-4.28-5.42-8.73-11.07-13.26-16.84-5.85-7.42-11.84-15-17.82-22.67q3.09-4.15 6.28-8.06c4.67 14.3 12.25 28.98 24.8 47.57z" fill="#030505"/><g fill="#e06855"><path d="m217.47 533.49c-3.78 6.85-7.58 13.6-11.16 20.09-13.15 23.87-33.32 56.59-51.52 85.34 30.55-50.79 30.3-90.67 58.11-137.82 29.74-50.44 13.18-74.62 13.18-74.62 36.1 19.74 14.24 65.52-8.61 107.01z"/><path d="m181.82 396.4c0-.07 0-.12 0-.15s.05.02 0 .15z"/><path d="m226.06 426.47c-1-.43-35-14.92-49.26 34.21s-38.45 129.44-39.2 131.93c13.73-64.83 20.2-132.65 35.76-157.06 6.63-10.4 21.42-13.6 39.54-14.34a64.42 64.42 0 0 1 13.16 5.26z"/><path d="m262.2 388.34c-.51 1.6-5.6 29.45-29.24 32.78l.25-7 .24-6.64a20.23 20.23 0 0 0 6.4-2.18l10.61-5.72a30.62 30.62 0 0 0 11.72-11.22s.02-.01.02-.02z"/></g><path d="m262.18 388.38c-.55 1.28-9 20.18-29 25.76l.24-6.64a20.23 20.23 0 0 0 6.4-2.18l10.61-5.72a30.62 30.62 0 0 0 11.75-11.22z" fill="#c4483b"/><path d="m429.37 515.56c-3.81 2.67-8.91 5.15-15.33 7.76a144.09 144.09 0 0 1 -34.68 9 65.36 65.36 0 0 1 -10.26-15.73 41.9 41.9 0 0 1 -4-17.39v-.47c.08-5.52.1-10.34.1-14.2a19.92 19.92 0 0 0 -7.85-15.76 342 342 0 0 1 -30.66-27c.62.36 17.35 13 32.52 19.56 17.73 7.71 13.82 21.88 14.84 39.81 1.54 26.45 54.48 14.49 55.32 14.42z" fill="#e06855"/><path d="m385 472.44c-4.58-8.08-10.49-17.07-16.81-23 11.44 5.49 19.43 9.77 19.43 9.77l2.34 11.32a2.69 2.69 0 0 1 -4.96 1.91z" fill="#e06855"/><g fill="#1d2323"><path d="m376.55 357.29-4.5 5.5-56.28-320a2.69 2.69 0 0 1 5.29-.93z"/><path d="m405.52 537.53a3.71 3.71 0 0 1 -.47 0 2.69 2.69 0 0 1 -2.64-2.21l-28.87-164.16a26.71 26.71 0 0 0 5.73 1.62l28.43 161.63a2.7 2.7 0 0 1 -2.18 3.12z"/></g></svg>