<svg viewBox="0 0 1000 1000" xmlns="http://www.w3.org/2000/svg"><ellipse cx="500" cy="920.76" fill="#e2e2e2" rx="386.18" ry="34.81"/><path d="m286.09 357.69.64 9.3s-16.73 19.38-24.05 31.58l36.86 63.11s74.19 12.29 75.35 9.74-1-47.88-1-47.88l-3.37-8.81 8.24-8.88 16.57-8.62v-89.73l-14.57-42.27-46.18 21.18-26.48 5-11.84 22.81s-21.06 20.62-10.17 43.47z" fill="#d05847"/><path d="m415.65 553.49-20.02-10.74-108.03 38.42-7.65 20.82 114.23 60.39 15.05 52.51 81.37-8.29-43.74-120.05-24.18-16.16-10.36-5.7z" fill="#24358f"/><path d="m577.23 384c-101.86 18.29-131.91-37.21-152.15-77.69-12.29-24.57-31.31-35.93-44.36-41-1 26.93-.45 51-.15 73.34v1.18a2.36 2.36 0 0 0 0 .37c.28 21.61.35 41.57-1.32 60.86-.15 1.67-.34 3.29-.57 4.88l2.1.37c88.22 16.24 96.31 108.19 180.13 113.46 71.28 4.48 95.78-47.65 96.11-81.53v-.05c.3-33.99-28.81-63.38-79.79-54.19z" fill="#fdc17b"/><path d="m204.09 920.76h-37a2.89 2.89 0 0 1 -1.24-5.49l31-14.62c16.22-3.42 21.2 10.06 7.24 20.11z" fill="#d05847"/><path d="m414 581.05c-6.86-13.73-5.66-22.8-5-25.61.15-.61.26-.93.26-.93-.48-.1-1-.18-1.45-.27-30-5.64-54.91-1.08-74.54 7.08-35.13 14.58-53.27 40.68-53.27 40.68l9.77 17.62s-100.27 3.27-131 66c-26.12 53.43 33.67 164.46 52 196.31 3.06 5.31 5 8.42 5.13 8.69l-19.11 10a58.57 58.57 0 0 1 7.26 20.11h42.55a6.55 6.55 0 0 0 6.18-8.73l-7.55-21.35s-19.52-39.75-13.94-76.7 8.36-61.38 5.57-79.5c0 0 12.66 2.42 31.75 4.07 37.74 3.28 100.62 3.56 140.6-23.66a91.67 91.67 0 0 0 9-6.92l1.5-1.35c54.73-49.9 2.58-108.96-5.71-125.54z" fill="#24358f"/><path d="m784.86 890.07-28.93-16.81a11.79 11.79 0 0 0 -14.15 2l-9.08 9.25a42.2 42.2 0 0 1 -11.51-4.91c-34.4-20.12-84.22-89.83-100.3-110.81-9.74-12.69-25.66-19.89-38.2-23.81a116.45 116.45 0 0 0 -18.87-4.33c-48.58-127.45-106.82-159.65-130.42-167.65a48.68 48.68 0 0 0 -10.72-2.62l-6.9-15.88-.13-1q-2.73.38-6.42 1s-2.77 7.53 2.19 20.66c.22.58.45 1.17.72 1.79.52 1.3 1.15 2.67 1.85 4.09 3.24 6.48 13.2 19.45 20.83 35.85a0 0 0 0 0 0 0c11.89 25.52 18.18 59.29-15.15 89.7l-1.5 1.35a91.67 91.67 0 0 1 -9 6.92c20.08 17.9 41.31 34.79 62.87 50.55 120.64 88.31 252 141.77 252 141.77l.16-.42-.16.42s18.27 6.32 47.95 8.52l17.08-8.52z" fill="#24358f"/><path d="m814.3 915.6a277.7 277.7 0 0 1 -42.25.15 66.89 66.89 0 0 0 12.81-25.68l31.36 18.2a4 4 0 0 1 -1.92 7.33z" fill="#d05847"/><path d="m220.49 572.53c-.83-35.06 4.56-104 4.61-104.74l3.33.27c-.05.69-5.43 69.5-4.6 104.39z" fill="#e4ada5"/><path d="m238.11 570.47c-5.82-30.79-6.72-92.17-6.73-92.79l3.34-.05c0 .62.91 61.71 6.68 92.22z" fill="#e4ada5"/><path d="m657 438.19v.05c-.33 33.88-24.83 86-96.11 81.53-83.82-5.27-91.9-97.22-180.09-113.54l-2.1-.37c.23-1.59.42-3.21.57-4.88 1.67-19.29 1.6-39.25 1.32-60.86.26 7.73.15 47.37 33.05 54 45.75 9.29 55.65 27.28 84.29 55.59 31.46 31.1 76.14 40.89 111.68 6.85 22.89-21.87 42-72.3 47.39-18.37z" fill="#ff923b"/><path d="m419.66 546.27a5.09 5.09 0 0 1 -3.87 7.2h-.15c-1.82.25-3.95.59-6.41 1a365.13 365.13 0 0 0 -57.55 15.27 459.52 459.52 0 0 0 -66.52 29.39c-1.7.9-3.42 1.83-5.14 2.78a4.77 4.77 0 0 1 -6.7-2.26c-2.36-5.44-6.4-15-10.68-26.48-.38-1.06-.79-2.13-1.19-3.23-3.4-9.27-6.86-19.57-9.72-29.81-9.85-35.47-33.3-45.16-26.52-81.85 3.36-18.25 20.85-41.25 37.58-59.79 5.06-5.6 10.05-10.79 14.56-15.31 10-10.05 17.68-16.82 18.47-17.51q-.47 6.54-.7 13.09c0 1-.07 2-.1 2.94-.08 2.91-.11 5.83-.11 8.75 0 14.68 3 26.68 7.91 35.91a52.22 52.22 0 0 0 4.16 6.63c18.52 25 53.24 22.1 66.92-9.47 4.39 9.86 8.84 21.86 11 33.7 2.79 15.14 13.84 42.27 23.3 63.74.48 1.11 1 2.2 1.43 3.27 3.99 9.09 7.62 16.92 10.03 22.04z" fill="#f1d2cd"/><g fill="#2c2c2c"><path d="m346.29 534.35c-43.64 12.24-73.9 31.92-83.76 38.91-.38-1-.78-2.12-1.18-3.22 9.77-6.85 35.49-23.28 72.25-35.32 1.06-.35 2.13-.7 3.22-1q3.81-1.2 7.77-2.32c.6.95 1.16 1.93 1.7 2.95z"/><path d="m304.77 410.2c0 .25.3 8.95 2.15 22.81a52.18 52.18 0 0 1 -4.15-6.63c-1.12-9.9-1.32-15.88-1.34-16.08z"/><path d="m337.22 534.49-3 1.52c-.22-.44-.44-.86-.65-1.29a274.55 274.55 0 0 1 -12.55-29.26c1.79 1.5 3.58 3 5.31 4.63 3 7.84 6.5 15.76 10.46 23.59z"/></g><path d="m308.06 291.42a446.67 446.67 0 0 0 -11.06 60.79q-.42 3.89-.76 7.77a18.28 18.28 0 0 1 -6.8-.7l-.65-.26a27.58 27.58 0 0 1 -2.68-1.33c-7-3.91-17-12.33-19.63-19.08-3.07-7.9 15.32-27.56 16.34-33.94s5.09-7.14 12.06-6.89c3.67.12 8.95-3.17 13.18-6.36z" fill="#d05847"/><path d="m296.22 360c-.17 1.9-.32 3.81-.46 5.71s-.18.15-.4.36c-.19.16-.44.38-.74.66l-.32.29c-.45.39-1 .88-1.61 1.46l-.37.33c-.25.22-.5.46-.77.71s-.63.57-1 .89l-.78.72-1.1 1c-.62.57-1.27 1.19-2 1.85l-2.45 2.34-1.08 1q-1.53 1.49-3.17 3.1l-.91.9-1.85 1.84c-4.51 4.52-9.5 9.71-14.56 15.31l23.41-40.88a25 25 0 0 0 3.33 1.59 18.28 18.28 0 0 0 6.83.82z" fill="#d05847"/><circle cx="222.47" cy="574.51" fill="#2c2c2c" r="4.04"/><circle cx="240.43" cy="570.47" fill="#2c2c2c" r="4.04"/><path d="m399.5 124.69q-3.24 13.89-5.78 27a113 113 0 0 0 -27.24-7.48c9.37-17.28 15.78-27.24 15.78-27.24z" fill="#f1d2cd"/><path d="m380.57 338.57c.32 22.19.42 42.65-1.28 62.41-.15 1.67-.34 3.29-.57 4.88a67.65 67.65 0 0 1 -4.88 17.68c-10.3 23.78-32.55 31.32-50.82 22.87-15.51-7.17-28.15-25.87-28.15-55.94 0-2.92 0-5.84.11-8.75q.23-8 .8-16c0-.43.06-.86.1-1.29.11-1.47.23-2.95.36-4.42q.34-3.89.76-7.77a446.67 446.67 0 0 1 11.08-60.79c15.63-62.32 41.7-116.45 58.4-147.25a113.14 113.14 0 0 1 27.24 7.48 711.94 711.94 0 0 0 -13 113.55c-1 26.91-.45 51-.15 73.27z" fill="#f1d2cd"/><path d="m441.77 103.82c-8.55.6-24.59 3-35.56 12.28a33.25 33.25 0 0 0 -5.88 6.45l-8.22-2.55-9.83-3-.58-10.43a30.49 30.49 0 0 1 5.71-19.57 41 41 0 0 0 4.45-7.87 39.86 39.86 0 0 0 2.56-8.67l4.23-24a2.51 2.51 0 0 1 4.79-.52l4.56 11.06a1.12 1.12 0 0 0 2.13-.17l1.14-4.86a1.23 1.23 0 0 1 2.4 0l5.63 23.27a18.06 18.06 0 0 1 .46 5.43l-.9 13.07a1.67 1.67 0 0 0 1.71 1.78c4.09-.08 14.18.2 22.05 4.46a2.06 2.06 0 0 1 -.85 3.84z" fill="#bd3424"/><path d="m442.9 111.09c-8.56-.44-24.77 0-36.78 7.9a33 33 0 0 0 -6.61 5.7l-7.85-3.52-9.4-4.17.68-10.42a30.48 30.48 0 0 1 8-18.71 40.9 40.9 0 0 0 5.36-7.28 39.74 39.74 0 0 0 3.59-8.3l7.11-23.29a2.51 2.51 0 0 1 4.82.06l3.18 11.44a1.13 1.13 0 0 0 2.14.09l1.72-4.69a1.23 1.23 0 0 1 2.38.28l2.76 23.82a18.11 18.11 0 0 1 -.2 5.45l-2.47 12.86a1.68 1.68 0 0 0 1.48 2c4.07.41 14.05 1.9 21.35 7.08a2.06 2.06 0 0 1 -1.26 3.7z" fill="#d05847"/><g fill="#060b4f"><path d="m472.1 765.44c-21.56-15.76-42.79-32.65-62.87-50.55a91.67 91.67 0 0 0 9-6.92l1.5-1.35c33.33-30.41 27-64.18 15.15-89.7 1.63 2.27 57.91 78.78 37.22 148.52z"/><path d="m582.69 745-28.76 10.64 9.89-15a116.45 116.45 0 0 1 18.87 4.36z"/><path d="m268.61 738.55c-19.09-1.65-31.75-4.07-31.75-4.07l-10.58-16.69z"/><path d="m227.34 890.68h-11.42c-.17-.27-2.07-3.38-5.13-8.69z"/><path d="m732.7 884.55-1.83 4.82a3.66 3.66 0 0 1 -6.94-.28l-2.74-9.45a42.2 42.2 0 0 0 11.51 4.91z"/><path d="m409 555.44c-64.65 19.56-112.78 49.14-112.78 49.14l18.39 15h-24.89l-9.72-17.58c1.72-1 3.44-1.88 5.14-2.79 55.68-30 102.18-40.89 124.07-44.66q3.69-.64 6.42-1c-2.22.58-4.46 1.24-6.63 1.89z"/><path d="m433.4 573-21.26 4-8.7 1.6 8-3.39 11.26-4.78a48.68 48.68 0 0 1 10.7 2.57z"/></g><path d="m409.59 524.25a273.72 273.72 0 0 0 -63.3 10.1c-.54-1-1.1-2-1.7-3a276.89 276.89 0 0 1 63.56-10.35c.48 1.09.97 2.18 1.44 3.25z" fill="#0a0a0c"/><path d="m326.36 510.09c-1.73-1.59-3.52-3.13-5.31-4.63a351.36 351.36 0 0 1 -18.28-79.08 52.18 52.18 0 0 0 4.15 6.63c2.54 18.99 7.95 47.48 19.44 77.08z" fill="#0a0a0c"/><g fill="#e4ada5"><path d="m321.05 505.46c-14.85-12.46-30.65-22.46-36.93-32.37-21-33.21-11.81-66.13-1.6-86.59a111.63 111.63 0 0 1 13.19-20.75q-.47 6.54-.7 13.09c0 1-.07 2-.1 2.94-.08 2.91-.11 5.83-.11 8.75 0 14.68 3 26.68 7.91 35.91a352 352 0 0 0 18.34 79.02z"/><path d="m408.15 521a276.89 276.89 0 0 0 -63.56 10.39c-4.76-7.93-11.23-14.93-18.23-21.27-11.49-29.6-16.9-58.14-19.44-77.08 18.53 25 53.25 22.1 66.93-9.47 4.39 9.85 8.83 21.86 11 33.7 2.79 15.1 13.85 42.24 23.3 63.73z"/><path d="m419.66 546.28a5.08 5.08 0 0 1 -3.88 7.19h-.13q-2.73.38-6.42 1a366 366 0 0 0 -57.55 15.26 52.58 52.58 0 0 0 -5.36-35.42 273.72 273.72 0 0 1 63.3-10.1c4 9.12 7.63 16.95 10.04 22.07z"/><path d="m379.29 401c-.15 1.67-.33 3.29-.57 4.87a68 68 0 0 1 -4.87 17.69c-10.31 23.76-32.55 31.3-50.85 22.84 48.37-1.47 57.17-103.07 57.56-107.83.33 22.19.44 42.65-1.27 62.43z"/></g><g fill="#bd3424"><path d="m297 352.21q-.42 3.89-.76 7.77c-.13 1.47-.25 2.95-.36 4.42a29.21 29.21 0 0 0 -7.09-5.38c-.84-.47-1.73-.91-2.68-1.33-7-3.91-17-12.33-19.63-19.08.52.39 17.17 14.72 30.52 13.6z"/><path d="m296.22 360c-.17 1.9-.32 3.81-.46 5.71s0 0 0 0l-.36.31-.74.66-.32.29-1.61 1.46-.37.33c-.25.22-.5.46-.77.71l-1 .89-.78.72-1.1 1-2 1.85-2.45 2.34-1.08 1q-1.53 1.49-3.17 3.1l-.91.9-1.85 1.84 8.85-25.57a25 25 0 0 0 3.33 1.59 18.28 18.28 0 0 0 6.79.87z"/><path d="m406.11 119a33 33 0 0 0 -6.61 5.7l-7.85-3.52z"/></g></svg>