<svg viewBox="0 0 1000 1000" xmlns="http://www.w3.org/2000/svg"><path d="m652.89 779c-4.6 14.39-15.57 21.62-27 22.28-42.68-32.18-101.74-79.51-153.89-131.37 18.12-24.12 24.31-43.76 42.8-44.11 10.48-.19 35.71 14.52 42.49 16.49 4.33 17.56 6.6 28.75 6.6 28.75l14.68 17.8z" fill="#efa08d"/><path d="m333.75 698.58c-3.85 16.15-18.7 22-34.15 23.08-41.72-42.52-91.91-101.54-89.88-137.6 1-18.39 7.22-29.68 25.87-49.18 57.32-8.22 77.68 23.67 76.34 76.34-12.45 3.61-20.2 5.52-20.2 5.52z" fill="#efa08d"/><ellipse cx="440.92" cy="868.04" fill="#e2e2e2" rx="169.82" ry="20.19"/><ellipse cx="620.52" cy="874.38" fill="#e2e2e2" rx="169.82" ry="20.19"/><path d="m399.83 345-21.9 57.73c-7.17-2.8-16-9.25-25.46-17.66q-3.54-3.14-7.17-6.61c-18.11-17.31-37.43-39.9-51-56.53-10.83-13.26-18-22.73-18-22.73l11.07-9.6c20.23 15.84 45.06 28.66 66.24 38 6.78 3 13.19 5.59 18.95 7.83 16.19 6.29 27.27 9.57 27.27 9.57z" fill="#efa08d"/><path d="m557.3 642.29a90.17 90.17 0 0 0 -26.58-3.64c-18.49.34-40.59 7.14-58.71 31.26-32.09-31.92-61.68-65.44-83.42-98q-5.71-8.55-10.66-17l2.94-69.78.39-9.28c32.4-5.16 85.37 19.07 136.53 43.05 18.49 43.76 32.05 93.1 39.51 123.39z" fill="#34222e"/><path d="m697.46 833.31-12.59 10.48 12.51-10.55z" fill="#efa08d"/><path d="m493.29 501c-1.87 22.18-24.48 42.34-53.92 59.38a404.11 404.11 0 0 1 -43.86 21.55c-31.63 13.44-63.64 23.53-83.58 29.3-43.08-24.68-65.38-55.35-76.34-76.34 42.93-44.9 109.3-88.24 109.3-88.24z" fill="#34222e"/><path d="m433.06 186.32v-.12l-7.28-8.07-3.78-4.13.94-1.17c8.57-10.75 11.94-19.38 11.94-19.38l-4.63-27.93-48.25-11.32-6.66 7.07-.58.77c-2.2 3-10 14.7-10.67 29.29-.43 9.08-9.63 11.65-9.63 15.47a6.32 6.32 0 0 0 1.79 4.44 13.14 13.14 0 0 1 1.65 2.16 11.48 11.48 0 0 1 1.67 5.27 53.1 53.1 0 0 0 2.73 14.08c3.05 8.5 9.57 15.12 23.4 9.47l6.11 16 36.37 1.32 7.1-21.17z" fill="#efa08d"/><path d="m433.06 186.32-.06.08-10.21-5.27a8.26 8.26 0 0 1 -1.73-1.18 8.84 8.84 0 0 1 -2.7-4.25 9 9 0 0 1 -.32-2.38v-10.95l-19.51-14.19a30.65 30.65 0 0 1 -4.53-1.18 28.16 28.16 0 0 1 -10.55-6.56 3 3 0 0 1 0-4.22 30.79 30.79 0 0 0 6.93-10.69 2.24 2.24 0 0 0 -2.5-3 39.29 39.29 0 0 1 -13.15-.26c1.05-14.7 34.15-21.45 35.33-13.33.27 1.86 3.36 6.75 3.36 6.75l8.8-5h.05c.87-.43 13.37-5.87 24 23.57 9.08 25.19-11.88 50.5-13.21 52.06z" fill="#34222e"/><path d="m517.79 518.88c-49 9.8-102.26-19-136.53-43.05a347.09 347.09 0 0 1 -36.26-29.09s0 0 0 0a333.75 333.75 0 0 1 -.7-55q.44-6.62 1.11-13.1a435.11 435.11 0 0 1 8.31-50.9c14.22-63.59 38.18-109.35 38.18-109.35l43.47-19.84c11.77 7.75 20.16 16.83 28.35 27.75a120 120 0 0 1 23.28 84.59 420.52 420.52 0 0 0 30.81 208z" fill="#404b69"/><g fill="#efa08d"><path d="m563.67 300.68c0 25.83-49.11 70.9-77.1 94.49-11.15 9.39-18.95 15.38-18.95 15.38l-2.78-3.39-6.54-8a.17.17 0 0 1 0-.05l26.56-57.74 15-32.61s-4.87-1.47-12.41-4.25c-3.47-1.29-7.5-2.85-11.88-4.68-20.58-8.63-48.93-23.17-63-42.34-6-8.1-9.39-17-8.61-26.66a40.36 40.36 0 0 1 5.66-17.07 29 29 0 0 1 17.15-13.86 35.31 35.31 0 0 1 8.35-1.43c47.2-2.65 128.55 72.77 128.55 102.21z"/><path d="m475.6 299.83c-1.22 12.75-4.36 26.28-11.7 34.9-4.89 5.74-11.63 9.3-20.91 9-48.34-1.51-39.15-112.91-39.15-112.91h.16c-.78 9.65 2.65 18.56 8.61 26.66 5.3 7.2 12.61 13.75 20.76 19.57.43.31.85.61 1.28.9 3.67 2.57 7.49 5 11.37 7.25l1.88 1.09.3.17c.73.42 1.46.82 2.18 1.22 1.19.66 2.38 1.31 3.57 1.93l1.51.79c3 1.57 6 3 8.94 4.42l1.46.68c2 .93 3.94 1.8 5.85 2.63.67.3 1.33.58 2 .86z"/><path d="m467.62 410.55-18.81 21.82a20.65 20.65 0 0 1 -30.49 1l-.29-.31a6.52 6.52 0 0 1 1.38-10l12-7.42a2.37 2.37 0 0 0 -.49-4.26 43.51 43.51 0 0 1 -7.17-3.08 2.77 2.77 0 0 1 1.23-5.17c10.21-.54 29.55-1.84 33.35-4l12.48.89z"/><path d="m276.32 299.34-22.44-18.06a20.65 20.65 0 0 1 -2.06-30.45l.3-.3a6.52 6.52 0 0 1 10 1l7.88 11.77a2.37 2.37 0 0 0 4.24-.64 43 43 0 0 1 2.76-7.26 2.76 2.76 0 0 1 5.2 1c.89 10.19 2.85 29.47 5.14 33.2 5.5 10.92-1.14 11.68-11.02 9.74z"/></g><path d="m421.12 122.17s0 0 0 0a155.1 155.1 0 0 1 -4.77 17.94c-.42 1.29-.82 2.48-1.19 3.55-1.16 3.34-1.93 5.34-1.93 5.34l-8.66-1.31a24.42 24.42 0 0 0 1.32-4.7c.13-.69.27-1.43.41-2.21a0 0 0 0 0 0 0c.14-.78.27-1.6.41-2.45 1.86-11.82 3.33-29.63 3.33-29.63a18.36 18.36 0 0 1 4.8-.33l.75.07a17.32 17.32 0 0 1 6.61 2 50.62 50.62 0 0 1 -1.08 11.73z" fill="#404b69"/><path d="m388.73 195.5a45.5 45.5 0 0 1 -3.06 6.72c-5.5 10.38-15.82 18.75-23.56 18.66-7-.08-9.44-4.49-8.79-10.13a28.15 28.15 0 0 1 5.26-12.39c2.42-3.38 2.47-7.64 2.23-10.12a.16.16 0 0 1 .32-.06c4.81 13.31 16.46 8.69 23.64 4.17a2.67 2.67 0 0 1 3.96 3.15z" fill="#34222e"/><path d="m421.62 156.23a15.41 15.41 0 1 1 -27.5-9.55 14.94 14.94 0 0 1 2.58-2.57 15.29 15.29 0 0 1 9.51-3.29h.09c.38 0 .75 0 1.12.05a15.18 15.18 0 0 1 7.73 2.81 13.54 13.54 0 0 1 1.12.88 15.37 15.37 0 0 1 5.35 11.67z" fill="#404b69"/><path d="m416.53 156.23a10.31 10.31 0 0 1 -9.86 10.31h-.46a10.32 10.32 0 1 1 10.32-10.32z" fill="#222c3f"/><path d="m367.06 763.45c1 8.13-4.33 10.52-13.13 9.75 0 0-22.65-19.6-50-47.14-1.43-1.44-2.88-2.91-4.33-4.4 8.9-8 20.73-17 34.15-23.08l3.43 6.67z" fill="#404b69"/><path d="m557.3 642.29a90.17 90.17 0 0 0 -26.58-3.64c-9-15.32-17.85-27.21-27.08-33.19-27-17.46-25.11-45.64-22.17-59.49a7.39 7.39 0 0 0 -6.31-8.87c-35.39-4.37-69.76-29.38-94.29-52a345.53 345.53 0 0 1 -35.93-38.41 346.13 346.13 0 0 0 36.32 29.13c34.27 24.09 87.53 52.85 136.53 43.05 18.49 43.79 32.05 93.13 39.51 123.42z" fill="#060305"/><path d="m697.38 833.24c2.7 10.32-3.9 11.44-12.51 10.55 0 0-22.84-15.38-56.5-40.66l-2.5-1.89a132.36 132.36 0 0 1 27-22.28l4.19 5.07z" fill="#222c3f"/><path d="m714.47 861.9-29.2 17.41a7.54 7.54 0 0 1 -5.17 1 7.75 7.75 0 0 1 -5.94-10.62l10.71-25.92 12.51-10.55.08.07 18.22 16.62a7.08 7.08 0 0 1 1.59 2.07 7.47 7.47 0 0 1 -2.8 9.92z" fill="#060305"/><path d="m472 669.91c-28.81-28.65-55.6-58.6-76.5-88 9.29-3.95 18.56-8.19 27.47-12.7a11.26 11.26 0 0 1 16.34 9.44c1.19 22.2 7.21 60.46 32.69 91.26z" fill="#060305"/><path d="m291.73 616.74-5.17 1.3a6.48 6.48 0 0 0 -1.83 11.8l20.12 12.45z" fill="#e06855"/><path d="m578.58 688.84-2.44-.26a46.16 46.16 0 0 1 -38.92-31.48c-3.45-10.53-6.5-18.45-6.5-18.45a90.17 90.17 0 0 1 26.58 3.64c4.33 17.56 6.6 28.75 6.6 28.75z" fill="#e06855"/><path d="m517.79 518.88c-49 9.8-102.26-19-136.53-43.05a347.09 347.09 0 0 1 -36.26-29.09c2.84 2 120.55 85 136.24 34.7 10.24-32.83-15.07-39.49-34-34.8-18.68 4.63-28.63-12.75-28.9-13.23a20.65 20.65 0 0 0 30.49-1l18.81-21.82s7.8-6 18.95-15.38a419.45 419.45 0 0 0 31.22 123.71z" fill="#222c3f"/><path d="m487.48 304.51c-.11 2.12-.27 4.25-.5 6.38-1 9.4-1.75 19.59-2.09 30.48l-26.53 57.63c.9-2.43 13-35.74 5.54-64.3 7.34-8.62 10.48-22.15 11.7-34.9 4.4 1.86 8.4 3.42 11.88 4.71z" fill="#222c3f"/><path d="m475.6 299.83c-1.22 12.75-4.36 26.28-11.7 34.9a51.8 51.8 0 0 0 -12.78-23.48c-22.12-22.75-38.57-53.76-38.57-53.76 5.3 7.2 12.61 13.75 20.76 19.57.42.31.85.61 1.28.9 3.67 2.57 7.49 5 11.37 7.25.62.37 1.25.73 1.88 1.09l.3.17 2.18 1.22c1.19.66 2.38 1.31 3.57 1.93.5.27 1 .54 1.51.79 3 1.57 6 3 8.94 4.42.49.24 1 .46 1.46.68 2 .93 3.94 1.8 5.85 2.63.67.3 1.33.58 2 .86z" fill="#e06855"/><g fill="#222c3f"><path d="m406.21 140.82h.1a0 0 0 0 1 0 0z"/><path d="m416.34 140.13a15.05 15.05 0 0 0 -5.14-1.75c3.31-3 1.33-7.38 1.44-11.53.14-5.47 7-8.27 7.24-13s-5.05-5.48-5.05-5.48a17.68 17.68 0 0 1 7.36 2.09c.5 8.23-3.07 21.09-5.85 29.67z"/><path d="m421.62 156.23a15.41 15.41 0 0 1 -23.72 13h.1a15.36 15.36 0 0 0 8.67-2.67 10.32 10.32 0 0 0 5.54-18.71 15.41 15.41 0 0 0 -4.15-5.7 17.2 17.2 0 0 0 -1.74-1.31 15.42 15.42 0 0 1 15.3 15.41z"/></g><path d="m416.53 156.23a10.31 10.31 0 0 1 -9.86 10.31 15.42 15.42 0 0 0 5.54-18.71 10.3 10.3 0 0 1 4.32 8.4z" fill="#161d28"/><path d="m416.34 140.13c-.42 1.29-.82 2.48-1.19 3.55a15.3 15.3 0 0 0 -8.85-2.86 0 0 0 0 0 0 0 12.05 12.05 0 0 0 4.89-2.41 15.05 15.05 0 0 1 5.15 1.72z" fill="#161d28"/><path d="m411.2 138.38a12.05 12.05 0 0 1 -4.89 2.41c.14-.78.27-1.6.41-2.45a14.8 14.8 0 0 1 2.12-.15 14.18 14.18 0 0 1 2.36.19z" fill="#222c3f"/><path d="m435.26 198.4-.15.07a35.31 35.31 0 0 0 -8.35 1.43c3.65-8.18-2.94-16.83-5.7-20a8.26 8.26 0 0 0 1.73 1.18l10.21 5.32.06-.08z" fill="#e06855"/><g fill="#160e13"><path d="m433.06 186.32-.06.08-10.21-5.27a8.26 8.26 0 0 1 -1.73-1.18c-.32-.37-.59-.65-.79-.86 2.56 2.41 4.35 1.64 5.51-.94 2.7-6 1.94-21.89-.5-30.3-3.54-12.18 9.21-24.59 4.15-29.49s-8.14 3.43-8.29 3.83a51.34 51.34 0 0 0 1.1-11.53c.87-.43 13.37-5.87 24 23.57 9.11 25.22-11.85 50.53-13.18 52.09z"/><path d="m410.05 108.71s-1.47 17.81-3.33 29.63c-.14.85-.27 1.67-.41 2.45a0 0 0 0 1 0 0h-.09a15.29 15.29 0 0 0 -9.51 3.29 14.94 14.94 0 0 0 -2.58 2.57c1.87-4.68 6.76-6.14 8.79-9.07s-2.07-12.06 1.66-16.66 5.47-12.21 5.47-12.21z"/><path d="m388.88 194.85a2.65 2.65 0 0 1 -.15.65 45.5 45.5 0 0 1 -3.06 6.72c-5.5 10.38-15.82 18.75-23.56 18.66-7-.08-9.44-4.49-8.79-10.13a.09.09 0 0 1 0 .05c1 7.29 9.78 2.23 14-2.73 4.76-5.6 15.11-5.66 18.35-10.4s-.91-5.32-.91-5.32a2.68 2.68 0 0 1 4.12 2.5z"/></g><g fill="#e06855"><path d="m389.64 212.6-4-10.38a45.5 45.5 0 0 0 3.06-6.72 2.65 2.65 0 0 0 .15-.65z"/><path d="m357.87 173.4a13.14 13.14 0 0 0 -1.65-2.16 6.32 6.32 0 0 1 -1.79-4.44 4.44 4.44 0 0 0 2.17 3.33c2.4 1.14 3.01 3.8 1.27 3.27z"/><path d="m353.61 327.6a435.11 435.11 0 0 0 -8.31 50.9c-18.11-17.31-37.43-39.9-51-56.53 30.1 24.84 58.61 6.1 59.31 5.63z"/><path d="m501.74 305.22-1.85 3.54s-4.87-1.47-12.41-4.25l11-3.28a2.81 2.81 0 0 1 3.26 3.99z"/><path d="m563.67 300.68c0 25.83-49.11 70.9-77.1 94.49-11.15 9.39-18.95 15.38-18.95 15.38l-18.81 21.82a20.65 20.65 0 0 1 -30.49 1c23.37 16.33 46.52-26.25 46.52-26.25s112.51-85.12 81.38-117.48c-17.9-18.6-18.45-33.11-55.8-62.53s-63.66-27.21-63.66-27.21a35.31 35.31 0 0 1 8.35-1.43c47.21-2.65 128.56 72.77 128.56 102.21z"/></g><path d="m382.35 793.1-30.22 15.58a7.54 7.54 0 0 1 -5.64.59 7.73 7.73 0 0 1 -4.85-10.86l12.29-25.21 13.13-9.75 17.24 17.78a7.37 7.37 0 0 1 1.85 3.28 7.46 7.46 0 0 1 -3.8 8.59z" fill="#34222e"/><path d="m355.92 790.25a1 1 0 0 1 -1.86.57c-3.06-4.18-8.24-3.7-8.29-3.69a1 1 0 1 1 -.22-2.06c.26 0 6.42-.6 10.18 4.53a1 1 0 0 1 .19.65z" fill="#404b69"/><path d="m357.94 784.78a1 1 0 0 1 -1.86.57c-3.06-4.18-8.24-3.7-8.29-3.69a1 1 0 1 1 -.22-2.06c.26 0 6.42-.6 10.18 4.53a1 1 0 0 1 .19.65z" fill="#404b69"/><path d="m688.07 859.27a1 1 0 0 1 -1.6 1.12c-4.21-3-9-1-9-.94a1 1 0 0 1 -1.36-.53 1 1 0 0 1 .52-1.36c.24-.11 5.92-2.56 11.08 1.16a1.08 1.08 0 0 1 .36.55z" fill="#222c3f"/><path d="m688.29 853.44a1 1 0 0 1 -1.59 1.13c-4.21-3-9-1-9-1a1 1 0 1 1 -.84-1.89c.24-.1 5.92-2.56 11.07 1.16a1 1 0 0 1 .36.6z" fill="#222c3f"/><path d="m382.35 793.1-30.22 15.58a7.54 7.54 0 0 1 -5.64.59l39.66-24.76a7.46 7.46 0 0 1 -3.8 8.59z" fill="#404b69"/><path d="m714.47 861.9-29.2 17.41a7.54 7.54 0 0 1 -5.17 1l37.17-28.31a7.47 7.47 0 0 1 -2.8 9.9z" fill="#222c3f"/></svg>