<svg viewBox="0 0 1000 1000" xmlns="http://www.w3.org/2000/svg"><path d="m520.52 664.28s2.19 26.8 0 32.72c-3.86 10.41-2.77 19-35 19a39.45 39.45 0 0 1 -6.21-3.24c-10.88-7.06-22.34-19.25-33.56-34.12 27-15.45-4.63-58.3 6.2-68.49 4.12-3.88 56.67 21.24 58.87 18.79a210.85 210.85 0 0 1 9.7 35.34z" fill="#efa08d"/><path d="m620.49 589.12s3.82 27.42-4 34.85c-8.65 8.26-12.91 13-35.06 18.81a342.36 342.36 0 0 1 -52.9-28.23c7-4.39-8.25-48.57 7.19-65.69 8.35-9.27 47.33 13.13 54.41 0a419.17 419.17 0 0 1 30.36 40.26z" fill="#efa08d"/><path d="m373.83 333.15-18.3-27a179.46 179.46 0 0 1 -13.38-12.15c-5-4.95-11.17-11.42-18-19.4a362.59 362.59 0 0 1 -28-37.56 383.93 383.93 0 0 1 -31.15-58.34 46.13 46.13 0 0 1 -6.46 3 60.8 60.8 0 0 1 -16.54 3.76c1.4 18.35 6.26 44.13 15.23 72.22a396.46 396.46 0 0 0 17.77 45.7 334.79 334.79 0 0 0 19.46 36.18 255.87 255.87 0 0 0 33.75 43.6c24.39 1.45 48 1.77 50.47-27.39z" fill="#2e99b0"/><path d="m490.65 475.76c-28 60.41-111.17 81.94-111.17 81.94s-6.22-6.43-14.68-17.35c-2.8-3.6-5.84-7.7-9-12.21 9.94-32.19 9.38-47.22 37.57-58.13 35.69-13.81 56.33-8.35 82-2.54a144.19 144.19 0 0 0 12.86 7.11z" fill="#efa08d"/><path d="m475.35 467.47c-11.86 11.92-28.53 22.53-46.23 31.53-6.57 3.35-13.29 6.48-19.95 9.39-11.08 4.84-22 9.05-31.91 12.58-1.66.59-3.29 1.17-4.89 1.72-5.85 2-11.24 3.79-16 5.27l-.57.18c-3.32 1-6.3 1.94-8.88 2.7-5.85 1.73-12.28-1.56-13.71-7.49-8.7-36.13-5-140.19-5-140.19l51-42.6 20.7-2.29 14.19 7.27 26.36 1.91s26.55 51 10.19 83.23a17.83 17.83 0 0 0 4 21.51 155 155 0 0 0 20.7 15.28z" fill="#2e99b0"/><path d="m431 498.06c-33.31 28.57-66.15 42.29-66.15 42.29-2.8-3.6-5.84-7.7-9-12.21 18.75-5.88 48.26-16.14 75.15-30.08z" fill="#e06855"/><path d="m255.91 142.88-1.76 7.32c-3.05 5.89-7.33 7.53-12.88 4.76l-.35.13-2.16-.74a10.18 10.18 0 0 1 -6.32-6.25 25 25 0 0 0 -7.11-10.49l-7.92-6.93a3.56 3.56 0 1 1 5-5.09l3.39 3.69a1.32 1.32 0 0 0 2-1.72l-6.08-7.56a3.73 3.73 0 1 1 6-4.48l3.44 4.88a1.64 1.64 0 0 0 2.1.5 1.63 1.63 0 0 0 .64-2.26l-2.93-5a3.94 3.94 0 0 1 .5-4.66 3.78 3.78 0 0 1 .84-.69 3.93 3.93 0 0 1 5.37 1.23l2.18 3.39a.27.27 0 0 0 .48-.22l-.89-2.89a3.29 3.29 0 0 1 -.16-1 3.45 3.45 0 0 1 6.86-.52l.36 2.3a1.81 1.81 0 0 0 1.79 1.53 1.75 1.75 0 0 0 .7-.14 1.82 1.82 0 0 1 2.45 1.19l4.22 15.18a29.08 29.08 0 0 1 .24 14.54z" fill="#1e1548"/><path d="m258.51 162.42c-.92.44-4.53 8.87-5.47 9.25-5.32 2.13-8.23-4.67-12-4-.16-5-.16-8.62-.14-10.66 0-1.24 0-1.9 0-1.9l13.23-4.89q.48 1.43 1 2.82 1.65 4.77 3.38 9.38z" fill="#efa08d"/><path d="m265 178.7c-1.5.86-3.12 9.76-5.92 10.83-4.15 1.6-13.94-.83-17.13-4.07-.54-7-.82-13-1-17.81a75 75 0 0 0 14.68-4c.94-.38 1.88-.79 2.8-1.23q3.22 8.39 6.57 16.28z" fill="#fcd77f"/><path d="m408.64 339.51 8.57-9.46-2.49-28.72-24.05-25.25-6.5 7.55a17.82 17.82 0 0 0 -13 7c-9.49 12.84-13.39 8.22-16 11.91-.78 1.11-.17 2.22.4 3.67a8.53 8.53 0 0 1 .65 2.84 7.36 7.36 0 0 1 -.59 3c-2 5-5.89 10.84-1.77 13.87 3.72 2.73 10 4.76 14.5 6a9.37 9.37 0 0 1 6.75 7.1l3.6 16.81 25.79-7.45 9.67-2.79-5.49-6z" fill="#efa08d"/><path d="m432.29 306.21s9.82 36.16-23.64 33.3l-4.95-5.42a3 3 0 0 1 -.79-2 3.32 3.32 0 0 1 .15-1.08 18.18 18.18 0 0 0 -.62-12.58 2 2 0 0 1 .51-2.31c1.75-1.53 4.43-5 .4-9.63-2.75-3.19-5.66-2.77-7.62-1.86a4.21 4.21 0 0 1 -4.76-.88 4.61 4.61 0 0 1 -.34-6.07c2.46-3.18 5.44-8.16 3.13-11.49-3.63-5.21-9.58-2.6-9.58-2.6s-5-1.48-4-6 9.82-8.59 17.44-6.59a53.33 53.33 0 0 1 7.09 2.94c13.12 6.3 37.11 21.06 27.58 32.27z" fill="#fcd77f"/><path d="m590.18 548.86a173.06 173.06 0 0 1 -23.8 33.58 185.11 185.11 0 0 1 -37.8 32.11 274.56 274.56 0 0 1 -36.58-28.55 367.23 367.23 0 0 1 18.76 43c-2.2 2.45-5.3 5.7-9.42 9.58-10.83 10.19-28.69 24.67-55.65 40.12-27.33-36.2-53.29-88.28-66.26-121 0 0 69.07-38.5 111.17-81.94 6 2.85 12.83 5.88 20.43 9.71 21.25 10.66 48.33 27.45 79.15 63.39z" fill="#2e99b0"/><path d="m545.51 694.13c-.78 10.7 0 21.91-29.88 27.59-11.57-.56-22-2.27-30.12-5.68 19.49-14.62 28.38-31.65 32.24-42.04a55.31 55.31 0 0 0 2.77-9.7l12 3.14c.01 1.34 13.21 23.71 12.99 26.69z" fill="#1e1548"/><path d="m636 694.51 6.23 7.46-7.43 3.27s-69.9 18.83-119.17 16.48c12.64-17.38 15.87-37 16.65-47.66.22-3 .25-5.28.23-6.64z" fill="#2e99b0"/><path d="m633.06 596.94c-1.62 1.27 11.69 42.66 8.75 45.84-7.83 8.44-13.08 17.1-38.18 8.78q-11-4-22.15-8.78c5.81-21.24 16.32-35 25-43.25 7.77-7.43 14-10.41 14-10.41z" fill="#1e1548"/><path d="m750.93 670.25 8.2 9-11.78 3.34c-14.34-2.43-76.83-6.66-143.72-31 3.81-24.09 14.5-39.55 22.33-48a61.69 61.69 0 0 1 7.1-6.63z" fill="#2e99b0"/><path d="m324.18 274.63a252.17 252.17 0 0 1 -27.41 17.66c-7.51 4.21-14.87 7.9-21.78 11.09a396.46 396.46 0 0 1 -17.77-45.7 206.36 206.36 0 0 0 19.29-8.68 161.76 161.76 0 0 0 19.66-11.9 362.59 362.59 0 0 0 28.01 37.53z" fill="#1e1548"/><path d="m296.17 237.07a161.76 161.76 0 0 1 -19.66 11.93 408.52 408.52 0 0 1 -17.93-67.24 46.13 46.13 0 0 0 6.46-3 383.93 383.93 0 0 0 31.13 58.31z" fill="#238a9b"/><path d="m378.67 355.77c-37.14-6.58-63.4-32.32-81.9-63.48a252.17 252.17 0 0 0 27.41-17.66c6.8 8 13 14.45 18 19.4a179.46 179.46 0 0 0 13.37 12.16 7.26 7.26 0 0 1 .06 5.83c-2 5-5.89 10.84-1.77 13.87 6.34 4.64 20 7.24 20 7.24z" fill="#238a9b"/><path d="m324.18 274.63a252.17 252.17 0 0 1 -27.41 17.66 262.7 262.7 0 0 1 -20.26-43.29 161.76 161.76 0 0 0 19.66-11.9 362.59 362.59 0 0 0 28.01 37.53z" fill="#161138"/><path d="m265 178.7a46.13 46.13 0 0 1 -6.46 3c-1.26-7-2.2-13.14-2.87-18.08.94-.38 1.88-.79 2.8-1.23q3.18 8.42 6.53 16.31z" fill="#f6991f"/><path d="m465.53 514.51c-10.59 5.58-18 9-18 9l-1.53-1.66-3-3.46-4.63-5.23 13.38-17.16a110.81 110.81 0 0 1 7.76 9.59c1.53 2.1 3.18 4.48 4.87 7.14.38.54.76 1.15 1.15 1.78z" fill="#fcd77f"/><path d="m523.81 465.38c-1.91 8.34-6.09 15.28-12.73 20.09l-2.48 1.77c-13.46 9.56-32.06 21.47-43.07 27.27-.39-.63-.77-1.24-1.15-1.83-1.69-2.66-3.34-5-4.87-7.14a110.81 110.81 0 0 0 -7.76-9.59l22.45-28.83 11.31-14.52-24.3-15.3-10.52-6.63-9.26-21.58-27.29-63.56s37.8-9.89 74.07 29.63q3.3 3.6 6.32 7.29c12.32 15 21.2 31.08 26.1 46.15a97.79 97.79 0 0 1 3.07 11.92c1.71 9.05 1.79 17.48.11 24.86z" fill="#238a9b"/><g fill="#1e1548"><path d="m447.49 523.5-2.49 8.31a23.57 23.57 0 0 1 -8 11.69l-1.52 1.19a20.63 20.63 0 0 1 -26.92-1.25 43.71 43.71 0 0 1 -4.62-5.08 6.65 6.65 0 0 1 -.66-7.06l1.51-3a3.21 3.21 0 0 0 -.08-3.06 3.21 3.21 0 0 1 1.21-4.4l.56-.32a54.69 54.69 0 0 1 24.47-7l7.42-.33 4.63 5.23 3.06 3.46z"/><path d="m652.32 699.39-2.65 24.89a4.2 4.2 0 0 1 -4 3.81 4.16 4.16 0 0 1 -4.35-2.93l-6.52-19.92.92-8.24.28-2.49 11.44-.38a4.76 4.76 0 0 1 4.88 5.26z"/><path d="m781 684.92-1.2 1.9a10.08 10.08 0 0 1 -2 2.35 10.24 10.24 0 0 1 -10.56 1.64l-19.8-8.23 2.92-10.07.66-2.26 20.83-1.08h.53a10.27 10.27 0 0 1 8.62 15.75z"/></g><path d="m475.35 467.47c-11.86 11.92-28.53 22.53-46.23 31.53-6.57 3.35-13.29 6.48-19.95 9.39-11.08 4.84-22 9.05-31.91 12.58-1.66.59-3.29 1.17-4.89 1.72l-.54-.84c40.05-19.06 16.06-44-3.67-90.42-10.71-25.2 5.95-44.5 19.67-60 12.88-14.57 16.64-23.08 16.64-23.08l9.67-2.79 26.36 1.91s26.55 51 10.19 83.23a17.83 17.83 0 0 0 4 21.51 155 155 0 0 0 20.66 15.26z" fill="#238a9b"/><path d="m474.39 466.87-.19.25c-28.59-8.95-40.89-22.64-46-34.1-3.12-6.95 4.25-13.57 10.66-10.63a7.53 7.53 0 0 1 1.44.83l10.43 7.45a17.95 17.95 0 0 0 4 21.51 155.08 155.08 0 0 0 19.66 14.69z" fill="#013754"/><path d="m432.29 306.21s9.82 36.16-23.64 33.3l-4.95-5.42a3 3 0 0 1 -.79-2s11.45 7.71 17.32-3-7.92-14.12-5.28-24.06-26-28.24-10.23-31.12c13.11 6.33 37.1 21.09 27.57 32.3z" fill="#f6991f"/><g fill="#e06855"><path d="m356.18 309a8.53 8.53 0 0 0 -.65-2.84c-.57-1.45-1.18-2.56-.4-3.67a4.85 4.85 0 0 0 1.83 3.67c1.78 1.19.4 4.09-.78 2.84z"/><path d="m373.83 333.15 6.35 1a2.56 2.56 0 0 1 1.27 4.46l-5.45 4.76z"/><path d="m414.14 345.53-9.67 2.79c3.14-5.45-1.89-10.92-3-13.17s1.45-3 1.45-3a3 3 0 0 0 .79 2l4.95 5.42z"/><path d="m620.49 589.12s-6.27 3-14 10.41c-4.9-.79-10.28-1.6-16.27-2.59-9.69-1.59-17.29-7.09-23.8-14.5a173.06 173.06 0 0 0 23.8-33.58 419.17 419.17 0 0 1 30.27 40.26z"/></g><path d="m750.93 670.25-.66 2.26s-59.56-12.62-84.86-41.32c-14.87-16.87-25.68-23.67-39.45-27.62a61.69 61.69 0 0 1 7.1-6.63z" fill="#013754"/><path d="m781 684.92-1.2 1.9a10.08 10.08 0 0 1 -2 2.35c-6.25 1.33-2.35-6.89-5.38-14.46s-22.06-2.2-22.06-2.2l.66-2.26 20.83-1.08h.53a10.27 10.27 0 0 1 8.62 15.75z" fill="#040214"/><path d="m633.06 596.94a61.69 61.69 0 0 0 -7.1 6.63 167.06 167.06 0 0 0 -19.51-4c7.77-7.43 14-10.41 14-10.41z" fill="#040214"/><path d="m590.18 548.86a173.06 173.06 0 0 1 -23.8 33.58c-17.92-20.44-27.5-55.32-49.38-63.24-29.84-10.78-48.34 4.37-65.62 21.15s-31.74 8.51-31.74 8.51a20.6 20.6 0 0 0 15.81-4.17l1.55-1.19a23.57 23.57 0 0 0 8-11.69l2.52-8.31c.45-.21 7.76-3.57 18-9 11.7-6.17 32-19.23 45.55-29 4.4 2.21 9.06 4.69 13.95 7.55 18.67 10.88 40.74 27.33 65.16 55.81z" fill="#013754"/><path d="m520.52 664.28a55.31 55.31 0 0 1 -2.77 9.7c-8.83-.44-14.69-3-14.88-15.6-.1-6-.66-12.84-1.48-19.82 4.12-3.88 7.22-7.13 9.42-9.58a210.85 210.85 0 0 1 9.71 35.3z" fill="#e06855"/><path d="m492.05 586a367.23 367.23 0 0 1 18.76 43c-2.2 2.45-5.3 5.7-9.42 9.58-2.91-24.73-9.1-51.58-9.34-52.58z" fill="#013754"/><path d="m532.28 674.06c-5.33-.15-10.28.13-14.53-.08a55.31 55.31 0 0 0 2.77-9.7l12 3.14c.01 1.36-.02 3.66-.24 6.64z" fill="#040214"/><path d="m652.32 699.39-2.65 24.89a4.2 4.2 0 0 1 -4 3.81c-6.29-2.52 4.59-20.7 3.8-27.26s-13.75-3.83-13.75-3.83l.28-2.49 11.44-.38a4.76 4.76 0 0 1 4.88 5.26z" fill="#040214"/><path d="m636 694.51-.28 2.49s-51.73-1.31-78.19-16.62c-8.61-5-17.36-6.11-25.25-6.32.22-3 .25-5.28.23-6.64z" fill="#013754"/><path d="m378.67 355.77c-5.41-20.5-21.54-10.7-31.44-15.54s-7.54-15.14-.06-20.86a21.31 21.31 0 0 0 8.36-13.18 7.26 7.26 0 0 1 .06 5.83c-2 5-5.89 10.84-1.77 13.87 6.34 4.64 20 7.24 20 7.24z" fill="#013754"/><path d="m523.81 465.38c-1.91 8.34-6.09 15.28-12.73 20.09l-2.48 1.77a76.55 76.55 0 0 0 -5.75-5.08 87.88 87.88 0 0 0 -27.5-14.69l-1.15-.35 11.31-14.52s20.95-6 35.12-24a97.79 97.79 0 0 1 3.07 11.92c1.71 9.05 1.79 17.48.11 24.86z" fill="#1e1548"/><path d="m486.45 461.38-12.25 5.74 11.31-14.52 1.46.94a4.49 4.49 0 0 1 -.52 7.84z" fill="#040214"/><path d="m508.6 487.24c-13.46 9.56-32.06 21.47-43.07 27.27-.39-.63-.77-1.24-1.15-1.83 17.44-9.87 29.77-20.51 38.47-30.52a76.55 76.55 0 0 1 5.75 5.08z" fill="#013754"/><path d="m447.49 523.5-2.49 8.31a23.57 23.57 0 0 1 -8 11.69l-1.52 1.19a20.6 20.6 0 0 1 -15.81 4.17c18.29-2.13 26.39-27 26.39-27z" fill="#040214"/><path d="m465.53 514.51c-10.59 5.58-18 9-18 9l-1.53-1.66c6.67-3 12.77-6 18.35-9.17.41.59.79 1.2 1.18 1.83z" fill="#f6991f"/><path d="m523.81 465.38c-1.91 8.34-6.09 15.28-12.73 20.09l-2.48 1.77a76.55 76.55 0 0 0 -5.75-5.08c19.5-22.43 20.85-41.64 20.85-41.64 1.71 9.05 1.79 17.48.11 24.86z" fill="#040214"/><path d="m525 493c-22.27 16.37-76.26 30.15-77.52 30.47.45-.21 7.76-3.57 18-9 11.7-6.17 32-19.23 45.55-29 4.45 2.21 9.11 4.69 13.97 7.53z" fill="#001e33"/><path d="m258.51 162.42q-2.25-6-4.36-12.22l-13.23 4.89s0 .66 0 1.9l6.94-1.93a5.87 5.87 0 0 1 7.4 4.9c.14 1.14.3 2.38.48 3.69.91-.38 1.85-.79 2.77-1.23z" fill="#e06855"/><path d="m255.91 142.88-1.76 7.32-12.88 4.8c-8.72-11.07 7-24.87 2.39-27.58s-3.91-7.23-4.68-11.91-7.54-6.52-7.54-6.52a3.78 3.78 0 0 1 .84-.69 3.93 3.93 0 0 1 5.37 1.23l2.18 3.39a.27.27 0 0 0 .48-.22l-.89-2.89a3.29 3.29 0 0 1 -.16-1 3.45 3.45 0 0 1 6.86-.52l.36 2.3a1.81 1.81 0 0 0 1.79 1.53 1.75 1.75 0 0 0 .7-.14 1.82 1.82 0 0 1 2.45 1.19l4.22 15.18a29.08 29.08 0 0 1 .27 14.53z" fill="#161138"/><g fill="#2e99b0"><path d="m644.65 713.75a.68.68 0 0 1 -.52 1.17 6.29 6.29 0 0 0 -5.37 2.49.67.67 0 0 1 -1.1-.78 7.65 7.65 0 0 1 6.59-3 .66.66 0 0 1 .4.12z"/><path d="m642.65 710.51a.69.69 0 0 1 .21.55.67.67 0 0 1 -.73.61 6.35 6.35 0 0 0 -5.37 2.5.68.68 0 0 1 -.94.16.67.67 0 0 1 -.16-.94 7.64 7.64 0 0 1 6.59-3.06.73.73 0 0 1 .4.18z"/><path d="m640.82 707.17a.67.67 0 0 1 .22.55.68.68 0 0 1 -.73.62 6.33 6.33 0 0 0 -5.37 2.49.68.68 0 0 1 -.94.16.68.68 0 0 1 -.17-.94 7.66 7.66 0 0 1 6.59-3.06.67.67 0 0 1 .4.18z"/><path d="m766.93 674.37a.86.86 0 0 1 .74.24.89.89 0 0 1 0 1.26 8.35 8.35 0 0 0 -1.92 7.63.89.89 0 1 1 -1.72.48 10.17 10.17 0 0 1 2.35-9.35.84.84 0 0 1 .55-.26z"/><path d="m761.91 673.72a.89.89 0 0 1 .75.24.91.91 0 0 1 0 1.27 8.47 8.47 0 0 0 -1.92 7.62.89.89 0 0 1 -.61 1.1.9.9 0 0 1 -1.11-.61 10.17 10.17 0 0 1 2.35-9.35.94.94 0 0 1 .54-.27z"/><path d="m756.94 672.82a.89.89 0 0 1 .77 1.5 8.45 8.45 0 0 0 -1.91 7.62.9.9 0 0 1 -.62 1.11.88.88 0 0 1 -1.1-.62 10.12 10.12 0 0 1 2.34-9.35.86.86 0 0 1 .52-.26z"/></g><g fill="#f7e9e3"><path d="m299.19 172.05c.11 1 .25 2 .43 3-.18-.96-.33-1.97-.43-3z"/><path d="m344 209.58h.22-.53a1.63 1.63 0 0 0 .31 0z"/><path d="m347.88 209.14 1.27-.23z"/><path d="m349.15 208.91 1.31-.28-1.14.25z"/></g><path d="m299.19 172.05c.11 1 .25 2 .43 3-.18-.96-.33-1.97-.43-3z" opacity=".15"/><path d="m349.15 208.91 1.31-.28-1.14.25h-.18l-1.26.22z" opacity=".15"/><g fill="#f7e9e3"><path d="m350.51 208.62c.44-.1.88-.21 1.31-.33a3.74 3.74 0 0 1 -.45.12c-.29.08-.57.15-.86.21z"/><path d="m351.82 208.29c.44-.11.89-.24 1.32-.37-.3.1-.61.18-.92.27z"/><path d="m358 206.12.58-.25-.26.12z"/><path d="m303.06 149.51a.21.21 0 0 0 0 .07.08.08 0 0 1 0-.07z"/><path d="m383.06 167.09c0-.18 0-.37 0-.55a42.82 42.82 0 0 0 -.34-4.38c-.07-.48-.14-1-.22-1.43s-.21-1.22-.34-1.83a41.75 41.75 0 0 0 -9.86-19.4c-.49-.55-1-1.08-1.52-1.61s-1.07-1-1.62-1.53c-.24-.22-.48-.44-.73-.64a.13.13 0 0 0 -.06-.05l-.57-.48a.44.44 0 0 0 -.11-.09q-.44-.37-.9-.72a4.4 4.4 0 0 0 -.5-.38c-.3-.23-.59-.45-.9-.66s-.36-.26-.54-.38c-.37-.26-.76-.52-1.14-.76s-.93-.59-1.4-.85-.81-.47-1.22-.69l-.9-.48c-.3-.16-.6-.31-.91-.45l-.7-.33c-1-.45-1.94-.85-2.93-1.21-.38-.14-.76-.28-1.14-.4s-.48-.17-.73-.24c-.49-.16-1-.31-1.48-.44s-.8-.22-1.2-.31l-.7-.17c-.63-.15-1.27-.27-1.91-.39-1-.18-2-.33-3-.43a42.44 42.44 0 0 0 -4.39-.23 41.81 41.81 0 0 0 -17.09 3.62l-.48.22-.66.31c-.91.44-1.81.91-2.69 1.42l-.88.52c-.25.15-.5.3-.74.46-.61.38-1.21.78-1.8 1.21l-.68.49c-.32.23-.63.47-.94.72l-.79.63-.76.65a42.05 42.05 0 0 0 59.34 59.29 42 42 0 0 0 4.6-6.46c.24-.41.46-.81.68-1.23.36-.65.69-1.32 1-2 .12-.25.24-.5.35-.76l.33-.76c.15-.35.29-.71.42-1.06a.11.11 0 0 0 0-.07c.14-.36.27-.73.4-1.09l.22-.64a1.25 1.25 0 0 0 .09-.25c.1-.28.18-.56.27-.85.17-.54.33-1.1.47-1.66.11-.39.2-.79.29-1.19s.17-.76.25-1.14c0-.16.07-.32.09-.49.07-.35.13-.71.19-1.06s.14-.9.2-1.35c.12-.9.21-1.81.26-2.72 0-.4 0-.79.06-1.2 0-.15 0-.29 0-.45s0-.2 0-.31 0-.5 0-.76-.03-.34-.04-.53zm-17.06 5.91c-.68-.92-1.38-2-2.13-3.14-2.46-3.79-5.37-8.72-9-13.8-1.26-1.76-2.53-3.45-3.78-5.05-.64-.83-1.28-1.62-1.9-2.4-6.48-8.11-11.54-13.73-8.44-15.94 1.42-1 4.37-1.18 8-.42a35.66 35.66 0 0 1 16.08 8.46 32.26 32.26 0 0 1 4.5 5.06 34 34 0 0 1 6.12 19.9c-.06 5.33-1.47 9.53-3.34 10.86a2.39 2.39 0 0 1 -.63.33c-1.7.56-3.48-1-5.48-3.86z"/></g><g fill="#e8c3b4"><path d="m310.45 176.39h21.42v2.77h-21.42z" transform="matrix(.89100652 -.4539905 .4539905 .89100652 -45.7 165.18)"/><path d="m323.54 142.54h2.77v18.04h-2.77z" transform="matrix(.70710678 -.70710678 .70710678 .70710678 -12 274.15)"/><path d="m349.15 148.61c.62.78 1.26 1.57 1.9 2.4l-1.83 3.59-1 2-2.47-1.26 1-2z"/><path d="m366 173-10-1.58-2.07-.33.43-2.74 2.07.33 7.44 1.18c.71 1.14 1.41 2.22 2.13 3.14z"/><path d="m343.16 178.48h2.77v23.03h-2.77z" transform="matrix(.98768834 -.15643447 .15643447 .98768834 -25.47 56.23)"/></g><g fill="#0e3150"><path d="m329.19 157.73-2.49 15.71a2.27 2.27 0 0 0 1.22 2.39l14.18 7.23a2.28 2.28 0 0 0 2.65-.42l11.25-11.25a2.29 2.29 0 0 0 .42-2.66l-7.22-14.17a2.29 2.29 0 0 0 -2.4-1.22l-15.71 2.49a2.27 2.27 0 0 0 -1.9 1.9z"/><path d="m302.58 150.55a2 2 0 0 1 .1-.21 1 1 0 0 0 -.09.21z"/><path d="m303.06 149.51a.21.21 0 0 0 0 .07c-.13.26-.25.53-.37.79l.29-.65z"/><path d="m309.22 140.13a2.2 2.2 0 0 0 -.2.23l.23-.28.22-.24z"/><path d="m323.92 129.22-2.65 16.72v.06a2.3 2.3 0 0 1 -1.9 1.9l-13.91 2.19a41.79 41.79 0 0 1 8.06-14.22l.75-.63.79-.63c.31-.25.62-.49.94-.72l.68-.49c.59-.43 1.19-.83 1.8-1.21.24-.16.49-.31.74-.46l.88-.52c.88-.51 1.78-1 2.69-1.42l.66-.31z"/><path d="m312.88 198.9-.14-.13z"/><path d="m315.53 182.14v.06l-1.46 9.24a42 42 0 0 1 -9.16-16.44l9.35 4.76h.05a2.25 2.25 0 0 1 1.22 2.38z"/><path d="m372.27 139.52-7.52 1.19a35.66 35.66 0 0 0 -16.08-8.46l-3.27-6.42c1 .11 2 .25 3 .43.64.12 1.28.24 1.91.39l.7.17c.4.09.8.2 1.2.31s1 .28 1.48.44c.25.07.49.15.73.24s.76.26 1.14.4c1 .36 2 .76 2.93 1.21l.7.33c.31.14.61.29.91.45l.9.48c.41.22.82.44 1.22.69s.94.55 1.4.85.77.5 1.14.76c.18.12.36.24.54.38s.6.43.9.66a4.4 4.4 0 0 1 .5.38q.47.34.9.72a.44.44 0 0 1 .11.09l.57.48a.13.13 0 0 1 .06.05c.25.2.49.42.73.64q.83.74 1.62 1.53c.58.53 1.09 1.09 1.58 1.61z"/><path d="m358 206.12.58-.25-.26.12z"/><path d="m359.69 202.87a42.4 42.4 0 0 1 -23.11 1.6l7.69-7.69a2.28 2.28 0 0 1 2.65-.42h.05z"/><path d="m383.06 167.09v1.32.31s0 .3 0 .45c0 .41 0 .8-.06 1.2-.06.91-.14 1.81-.26 2.72-.06.45-.13.9-.2 1.35s-.12.71-.19 1.06c0 .17-.06.33-.09.49-.08.38-.16.76-.25 1.14s-.18.8-.29 1.19c-.14.56-.3 1.12-.47 1.66-.09.29-.17.57-.27.85a1.25 1.25 0 0 1 -.09.25l-.22.64c-.13.36-.26.73-.4 1.09a.11.11 0 0 1 0 .07c-.13.35-.27.71-.42 1.06l-.33.76c-.11.26-.23.51-.35.76-.31.68-.64 1.35-1 2-.22.42-.44.82-.68 1.23l-6-11.83a2.39 2.39 0 0 0 .63-.33c1.87-1.33 3.28-5.53 3.34-10.86l6.76-6.75c.13.61.24 1.22.34 1.83s.15 1 .22 1.43a42.82 42.82 0 0 1 .34 4.38c-.07.16-.07.35-.06.53z"/></g><path d="m314.06 191.44-1.18 7.46-.14-.12c-.82-.75-1.61-1.53-2.36-2.33-.17-.17-.33-.35-.49-.52s-.5-.55-.73-.83-.4-.46-.59-.7l-.15-.18c-.23-.27-.45-.55-.67-.83-.49-.63-1-1.28-1.41-1.93l-.46-.69c-.24-.36-.47-.73-.7-1.1-.4-.65-.78-1.31-1.14-2l-.48-.9-.45-.91c-.15-.31-.29-.62-.43-.93q-.39-.84-.72-1.71-.21-.5-.39-1-.31-.82-.57-1.65a0 0 0 0 1 0 0c-.18-.55-.35-1.11-.5-1.67s-.27-1-.39-1.5c0-.15-.07-.29-.1-.44-.1-.44-.19-.88-.28-1.32 0-.19-.07-.37-.1-.55-.18-1-.32-2-.43-3l5.72 2.92a42 42 0 0 0 9.14 16.43z" fill="#071b32"/><path d="m303.28 163.33a42.11 42.11 0 0 0 1.63 11.67l-5.72-3a42.44 42.44 0 0 1 -.23-4.39q0-1.78.15-3.54c.07-.85.16-1.7.29-2.54 0-.27.07-.53.12-.79.19-1.18.44-2.34.73-3.49.07-.28.14-.57.22-.85a42.42 42.42 0 0 1 1.41-4.21c.12-.32.25-.64.39-.95s.21-.49.32-.73l2.82-.45a42 42 0 0 0 -2.13 13.27z" fill="#e8c3b4"/><path d="m302.58 150.55c-.11.24-.22.48-.32.73.11-.28.21-.49.32-.73z" opacity=".15"/><path d="m313.47 135.88a41.79 41.79 0 0 0 -8.06 14.22l-2.82.45a1 1 0 0 1 .09-.21c.12-.26.24-.53.37-.79a.21.21 0 0 1 0-.07v-.07c.11-.22.21-.44.32-.65l.13-.26q.24-.47.48-.9c.12-.24.26-.47.39-.7l.06-.1.57-.8c.2-.33.4-.66.61-1s.23-.37.36-.55a3.75 3.75 0 0 1 .24-.36c.42-.63.87-1.25 1.33-1.85.16-.21.32-.43.49-.63s.36-.46.55-.68l.19-.23a1.83 1.83 0 0 1 .13-.16l.09-.11s0 0 0 0a2.2 2.2 0 0 1 .2-.23l.25-.29c.1-.12.21-.25.32-.36l.18-.2.54-.58q.72-.77 1.47-1.47l.68-.65.74-.65s.09-.13.1-.12z" fill="#071b32"/><path d="m303 149.69.08-.14c-.13.26-.25.53-.37.79z" opacity=".15"/><path d="m309.47 139.84-.25.29z" opacity=".15"/><path d="m336.58 204.47-4.32 4.32a42 42 0 0 1 -19.38-9.88l1.18-7.46a42 42 0 0 0 22.52 13.02z" fill="#e8c3b4"/><path d="m362 204.07-.28.16c-.42.25-.86.48-1.3.71l-.56.29-.17.08-.14.07-.95.46h-.06l-.58.25a.38.38 0 0 1 -.13.06l-.49.21c-.21.1-.43.19-.64.27h-.05c-.39.16-.78.31-1.18.45s-.67.24-1 .36l-.87.28-.44.14h-.05c-.43.13-.88.26-1.32.37s-.87.23-1.31.33h-.05l-1.31.28-1.27.23h-.08l-.71.11-.59.08h-.17l-1 .12h-.31-.45-.29-.25a1.63 1.63 0 0 1 -.31 0 5.83 5.83 0 0 1 -.59 0h-.66-.27-1.12-1.27c-.7 0-1.4-.06-2.1-.12s-1.38-.12-2-.21l-.57-.07h-.21c-.89-.13-1.76-.29-2.62-.47l4.32-4.32a42.4 42.4 0 0 0 23.11-1.6z" fill="#071b32"/><path d="m350.51 208.62c.44-.1.88-.21 1.31-.33a3.74 3.74 0 0 1 -.45.12c-.29.08-.57.15-.86.21z" opacity=".15"/><path d="m351.82 208.29c.44-.11.89-.24 1.32-.37-.3.1-.61.18-.92.27z" opacity=".15"/><path d="m372.81 195.17c-.47.55-1 1.09-1.47 1.61-.25.27-.51.53-.78.79a40.12 40.12 0 0 1 -3.3 2.93c-.28.23-.57.46-.87.68s-.57.43-.86.64-.62.44-.94.65l-.91.61-1 .6-.66.39-2.35-1.2a42 42 0 0 0 13.14-7.7z" fill="#e8c3b4"/><path d="m375.37 165.67c-.06 5.33-1.47 9.53-3.34 10.86a2.39 2.39 0 0 1 -.63.33l-1.66-3.26a2.29 2.29 0 0 1 .42-2.66z" fill="#39566b"/><path d="m371.4 176.86c-1.62.56-3.36-1-5.44-3.86l3.78.6z" fill="#fff2ee"/><path d="m370.14 170.9a2.29 2.29 0 0 0 -.42 2.66l-3.72-.56c-.68-.92-1.38-2-2.13-3.14l6.35 1z" fill="#f7e9e3"/><path d="m375.37 165.67-5.19 5.19-6.35-1c-2.46-3.79-5.37-8.72-9-13.8-1.26-1.76-2.53-3.45-3.78-5.05l4.51-8.85 9.19-1.45a32.26 32.26 0 0 1 4.5 5.06 34 34 0 0 1 6.12 19.9z" fill="#fff2ee"/><path d="m355.56 142.16-4.51 8.84c-.64-.83-1.28-1.62-1.9-2.4l3.93-7.71a2.28 2.28 0 0 0 2.39 1.22z" fill="#f7e9e3"/><path d="m364.75 140.71-9.19 1.45h-.06a2.28 2.28 0 0 1 -2.39-1.22l-4.41-8.65a35.66 35.66 0 0 1 16.05 8.42z" fill="#39566b"/><path d="m353.08 140.9-3.93 7.71c-6.48-8.11-11.54-13.73-8.44-15.94 1.42-1 4.37-1.18 8-.42z" fill="#fff2ee"/><g fill="#e2e2e2"><ellipse cx="377.83" cy="876.73" rx="231.03" ry="13.68"/><ellipse cx="622.17" cy="881.02" rx="231.03" ry="13.68"/></g></svg>