<svg viewBox="0 0 1000 1000" xmlns="http://www.w3.org/2000/svg"><path d="m622.08 200.64v-14.11l28.76-15.08s20.35-1.07 27.46 1.67l-18.56 24.33s-19.89 5.29-22.14 5.13-15.52-1.94-15.52-1.94z" fill="#f7de1c"/><path d="m676.32 229.68 10.29-.76 5.26-37.58-10.2-10.8-3.37-7.42-9.81-3.66-23.03 5.2-19.58 31.92 34.53 19.03z" fill="#efa08d"/><path d="m690.52 255.92 7.47-1.3-7.47-33.14h-8.2l-3.13 4.13-3.96-1.43 1.09 5.5-1.09 9.47z" fill="#138385"/><path d="m767.87 442.21-20.35-21.61-26.92-102.53-30.08-62.15-1.91-33.1 30.67-35.5 25.44 7.74s18.57-3.71 28.93 9.39 12.35 10.94 12.35 10.94l38.9 65.69 38.32 99.32 42.65 12.26-17.43 41.89-77.84 27.45-39.88-10.84z" fill="#45b7b8"/><path d="m762.02 450.33-8.32-16.59 15.91-17.27 57.25-11.18 78.98-12.63-55.25 106.78-84.85 166.25 34.9 135.39-9.97 10.95-10.17-10.95-11.61-36.21-22.23-83.4-12.55-57.33 10.7-84.36 17.32-61.58z" fill="#312641"/><path d="m376.86 483.12c.17.44.33.88.49 1.31.27.76.53 1.51.76 2.25q.84 2.6 1.4 5.09c.06.26.12.52.17.78 1.27 6 1.29 11.52 0 16a20.53 20.53 0 0 1 -.76 2.17 17.78 17.78 0 0 1 -1.56 2.93 15.61 15.61 0 0 1 -2.07 2.51 17.51 17.51 0 0 1 -1.67 1.41 17.51 17.51 0 0 0 1.67-1.41 16.16 16.16 0 0 0 2.07-2.51 17.78 17.78 0 0 0 1.56-2.93 20.53 20.53 0 0 0 .76-2.17c1.3-4.52 1.28-10 0-16-.05-.26-.11-.52-.17-.78q-.56-2.49-1.4-5.09c-.24-.75-.49-1.5-.76-2.25-.16-.43-.32-.87-.49-1.31v-.07a0 0 0 0 1 0 0 96.48 96.48 0 0 0 -16.16-26.67c-19.13-22.86-44.32-34.7-58.12-27.9a15.08 15.08 0 0 0 -2.35 1.41l-.08.06c-7.9 5.86-15.7 17.86-21.93 29.38q-3.24 6-6.63 11.9a9.54 9.54 0 0 1 -9.65 16.26q-11.94 19.4-25.61 37.71c-8.85 11.86-18.65 25.22-27.7 38-20.7 29.33-57.4 97.42-74.4 129l-.21.4c-.2.39-.41.77-.62 1.16-3.31 6.13-5.78 10.72-7.12 13.14-8.09 14.58 2 34.8 16.39 45.55a29.16 29.16 0 0 0 4.46 2.7c6.44 3.19 15.06 5.09 23.86 6 15.13 1.58 30.77.25 36.67-2.43 2.48-1.12 5.79-4 9.69-8.17v-.05c3.89-4.16 8.37-9.64 13.23-16 25.59-33.49 61.59-91.58 76.25-113.86 3-4.63 6.74-10.34 10.89-16.74 13.64-21 32.18-49.53 48.42-71.54 2.63-3.56 5.19-7 7.67-10.12 13.94-17.7 3.84-37.64 3.05-39.12z" fill="#706381"/><path d="m230.65 734.52-.91-38.43 71.42-97.58 16.63 5.41-7.06 56.29-39.02 56.7z" fill="#138385"/><path d="m126.28 706.92 5.06 27.6 24.37 20.85 36.52 2.5 25.14-7.29-12.06 12.88-12.54.29-21-.8-26.77-2.49-12-7.26-3.8-12.2-5.79-10.38-1.92-10.32 1.35-6.85s2.23-4.33 3.44-6.53z" fill="#2c3848"/><path d="m271.55 471.22 13.5 2.39 18.5-31.61-1-13.55-11.67 1.41-15.69 15.2s-7.12 20.34-3.64 26.16z" fill="#45b7b8"/><path d="m261.9 487.49 9.65-16.27 6.32 1s2.57 15.37 2.22 16-14.36 9.52-14.45 9.52-3.74-10.25-3.74-10.25z" fill="#706381"/><path d="m261.9 487.49v28.29l-74.98 127.88-36.35 44.98-16.34 3.58 11.46-23.31 23.81-64.99 27.24-52.93 33.91-21.35 17.57-28.69z" fill="#45b7b8"/><path d="m743.55 503.31 4.18-12.31-11.5.83-2.83 3.17s.92 7.92.92 8.06 9.23.25 9.23.25z" fill="#2c3848"/><path d="m750.02 466.17-9.97 6.2-.45-6.2 8.42-6.35z" fill="#f7de1c"/><path d="m740.22 462.59 3.33 2.84-6.27 11.57c-1.93 2.63 1.47 4.65 1.73 7.91l-6.82 7.11a3.9 3.9 0 0 0 -2.91-.31 3.32 3.32 0 0 1 -4.17-2.2l-2.72-9.6a13.61 13.61 0 0 1 .77-9.46l4-8.47 9.26.58z" fill="#efc103"/><path d="m769.61 407.89-15.22 41.78-14.17 12.92h-3.83l-9.26-.58-1.87-76.17c10.74 1.03 36.5 10.95 44.35 22.05z" fill="#e06855"/><g fill="#e2e2e2"><ellipse cx="634.05" cy="819.61" rx="120.77" ry="17.35"/><ellipse cx="761.77" cy="823.68" rx="120.77" ry="17.35"/><ellipse cx="205.82" cy="766.05" rx="120.77" ry="17.35"/><ellipse cx="375.79" cy="786.33" rx="174.47" ry="28.46"/></g><path d="m663.09 185.77c.54.66.21 1.29-.39 1.84l-.13.12-.06.05-1.19 1a6.38 6.38 0 0 1 -6.21 1.1l-6.87-2.46a15.5 15.5 0 0 0 1.25-5.25 103.43 103.43 0 0 1 12.15-5.17l.71-.25.79.24c1.33 2.23.75 3.67-.18 4.56a2.78 2.78 0 0 0 -.66 1 2.86 2.86 0 0 0 -.19 1 4.56 4.56 0 0 0 .98 2.22z" fill="#2c3848"/><path d="m636.71 218.45c-3.29 4.26-7.85 9.4-11.41 10.48-9.93 3-11.6-6.62-10.59-11.22a.19.19 0 0 1 0-.07c1.26-4 7.36-15.53 12.59-18.94 1.4 1.86 13.04 9.65 9.41 19.75z" fill="#efc103"/><path d="m649.49 182.16a15.5 15.5 0 0 1 -1.25 5.25 24.09 24.09 0 0 1 -8.12 10.16c-1.91 1.45-4.39 3-7 4.59-2.34 1.41-4.81 2.88-7.16 4.41-5.23 3.41-9.89 7.1-11.15 11.06.06-.23.11-.45.18-.65 1.57-4.85 7.14-16.33 7.14-16.33.24-.23 2-1.84 5-4.18a135.39 135.39 0 0 1 11.52-8.12c1.14-.73 2.33-1.46 3.56-2.19 2.27-1.37 4.71-2.71 7.28-4z" fill="#f7de1c"/><path d="m678.3 173.12a67.87 67.87 0 0 0 -6.83 1.08c-3.75-2.28-7.22-.72-8.18 2.21l-.94.31a102.14 102.14 0 0 0 -12.86 5.44 120.68 120.68 0 0 0 -10.87 6.18 135.39 135.39 0 0 0 -11.52 8.12c-3.23 2.52-5.05 4.2-5.05 4.2a37.32 37.32 0 0 1 -3.61-12.66c-.39-4.13 1.27-9 4.36-13.5 6.8-10 20.56-18.43 34.82-14.5 8.14 2.18 15.16 7.49 20.68 13.12z" fill="#f7de1c"/><path d="m691.87 191.34a56.1 56.1 0 0 0 -12.79-7.85 3.19 3.19 0 0 1 -1.7-1.83 15.17 15.17 0 0 0 -1.43-2.8 14.09 14.09 0 0 0 -4.47-4.65 67.87 67.87 0 0 1 6.83-1.08 86.83 86.83 0 0 1 13.56 18.21z" fill="#080c14"/><path d="m905.84 392.66a172.34 172.34 0 0 1 -43.76 27.67c-22.32 10-44.93 15.49-62.79 18.45-6.88 1.15-13 1.92-18.23 2.44l-1.12.11-1.52.14-1.44.13-1.35.12-.81.06-.79.06-1.49.11-1.39.09-1.85.1h-.56-.85-.43-.46c-1.82.07-2.8.08-2.8.08-4-4.66-7.86-9.61-11.68-14.76q-2.55-3.42-5-7c-7.85-11.1-15.32-22.94-22.27-34.76-13-22.09-24.07-44.14-32.22-61.37a87 87 0 0 1 -2.66-68.17l.15-.38c5.12-13.42 10.73-27 15.62-38.57 7.38-17.39 13.13-30 13.13-30s51-1.67 77.78 32.89c21.16 27.31 53 89.48 83.24 131 8.62 11.9 18.54 25.05 25.55 41.56z" fill="#45b7b8"/><path d="m719.28 187.32s-12.73 27.94-24.6 57.92c-1.41 3.54-2.8 7.12-4.16 10.68l-10.26-16.61a6.54 6.54 0 0 1 -.32-6.3c.68-1.4 1.52-3.26 2.43-5.55.36-.9.73-1.87 1.1-2.9a121.34 121.34 0 0 0 5.37-20.24 96.79 96.79 0 0 1 3.16-12.85 50.39 50.39 0 0 1 3.88-9 7.35 7.35 0 0 1 10-2.71l4.26 2.41z" fill="#45b7b8"/><path d="m836 613.16-35.36 187.92h-15.14s-45.47-122.62-38-206.65c7-79 33.75-152.59 33.75-152.59l-.18-.62 2.1-.22c4.72-.51 10.16-1.22 16.13-2.22 17.86-3 40.47-8.42 62.79-18.45 5.76-2.58 11.5-5.47 17.13-8.7a161.36 161.36 0 0 0 26.63-19c17.66 41.62 16.87 104.49-69.85 220.53z" fill="#706381"/><path d="m785.5 801.08h-5s-49.44-105.24-49.44-196.64c0-45.05 33.18-162.12 33.18-162.12s6.39 0 16.82-1.1l.18.62s-26.73 73.56-33.75 152.59c-7.49 84.03 38.01 206.65 38.01 206.65z" fill="#312641"/><path d="m692 191.47a96.79 96.79 0 0 0 -3.12 12.85 121.34 121.34 0 0 1 -5.37 20.24c-.37 1-.74 2-1.1 2.9l-3.18-1.85a13.48 13.48 0 0 1 -2.85 4 1.59 1.59 0 0 1 -.13.13 13.82 13.82 0 0 1 -12.54 3.59c-11-2.43-20.26-8.89-26.93-15a85.14 85.14 0 0 1 -10.83-11.87c2.35-1.53 4.83-3 7.17-4.41l.42-.25c.62-.37 1.23-.75 1.82-1.12l.88-.55c.52-.33 1-.65 1.51-1l.15-.1c.27-.18.53-.35.78-.53.51-.35 1-.69 1.44-1a24.09 24.09 0 0 0 8.12-10.16l6.87 2.46a6.38 6.38 0 0 0 6.21-1.1l1.19-1 .06-.05.13-.12c.42-.41.71-1 .41-1.43a10.76 10.76 0 0 1 -1.63-3.74 10.09 10.09 0 0 1 .16-5.47 5.17 5.17 0 0 1 .88-1.6 6.28 6.28 0 0 1 7.56-1.85 8.46 8.46 0 0 1 1.39.68 14.09 14.09 0 0 1 4.47 4.65 15.17 15.17 0 0 1 1.43 2.8 3.19 3.19 0 0 0 1.7 1.83 56.1 56.1 0 0 1 12.79 7.85z" fill="#efa08d"/><path d="m690.52 255.92c-4.66-3.59-11.74-6.86-16.52-8.85a5.8 5.8 0 0 1 -3.11-7.69 70 70 0 0 1 5.42-9.69 13.56 13.56 0 0 0 2.86-4.05l3.18 1.85c-.91 2.3-1.76 4.17-2.44 5.57a6.53 6.53 0 0 0 .33 6.28z" fill="#138385"/><path d="m812.65 279.17a112 112 0 0 0 -12-.66h-.12c-.74 0-1.46 0-2.18 0h-.46c-.52 0-1 0-1.53.06s-1.17.05-1.74.09-.87.05-1.3.09l-1.27.1-1.75.17h-.41l-1.85.23h-.04c-.67.08-1.34.18-2 .28l-1.55.25h-.11-.07-.21l-.91.17-1.11.21-.69.14-1.11.24c-.62.13-1.23.27-1.84.42-1.21.29-2.4.61-3.56.94l-.29.09c-.78.22-1.53.45-2.29.69l-1.25.41c-.41.14-.83.28-1.23.43s-1.07.38-1.59.58l-1.56.6-1.52.62-1.48.64-.25.11-1.31.6-1.28.61-1.37.68-1.33.7c-.87.45-1.72.93-2.55 1.41s-1.62.95-2.39 1.43c-.39.24-.78.48-1.15.73l-1.1.72-1.07.73-1 .72a78.73 78.73 0 0 0 -6.18 4.88l-.73.65-.7.63-.33.31-.32.3c-.48.45-.94.89-1.36 1.31l-.42.42c-.54.54-1 1.05-1.44 1.51-2.56-4.23-5.11-8.7-7.52-13.32-14.6-28-25-65.61-.36-86a27.66 27.66 0 0 1 11.71-5.88c11.78-2.65 24.94 3 36.95 14.59h.05c14.74 14.45 27.82 37.69 34.47 65.37z" fill="#5fd3d0"/><path d="m812.34 368.3a451.94 451.94 0 0 1 -24.67 44.28c-7 11.15-13.87 21.26-19.79 29.62q-3.12 4.41-5.85 8.12c-7.22 9.89-12 15.83-12 15.83h-10.43l.62-3.58 2.26-13 5-29 14.15-81.43a303.73 303.73 0 0 1 -24.39-34.6c.42-.46.9-1 1.44-1.51l.42-.42c.42-.42.88-.86 1.36-1.31l.32-.3.33-.31.7-.63.73-.65a78.73 78.73 0 0 1 6.18-4.88l1-.72 1.07-.73 1.1-.72 1.15-.73c.77-.48 1.57-1 2.39-1.43s1.68-1 2.55-1.41l1.33-.7 1.37-.68 1.28-.61 1.31-.6.25-.11 1.48-.64 1.52-.62 1.56-.6c.52-.2 1.05-.39 1.59-.58l1.23-.43 1.25-.41c.76-.24 1.51-.47 2.29-.69l.29-.09c1.16-.33 2.35-.65 3.56-.94.61-.15 1.22-.29 1.84-.42l1.11-.24.69-.14 1.11-.21.91-.17h.21.07.11l1.55-.25c.66-.1 1.33-.2 2-.28h.11l1.85-.23h.41l1.75-.17 1.27-.1c.43 0 .87-.06 1.3-.09s1.15-.07 1.74-.09 1 0 1.53-.06h.46 2.18.12a112 112 0 0 1 12 .66 167.62 167.62 0 0 1 4.17 26.6c1.36 17.34 5.88 40.82-4.44 62.4z" fill="#efa08d"/><path d="m758.73 488.33-.29 8a4.75 4.75 0 0 1 -4.46 4.57 3.62 3.62 0 0 0 -2.66 1.45 3.4 3.4 0 0 1 -2.75 1.4h-3.19a4.33 4.33 0 0 1 -1.83-.4 4.58 4.58 0 0 1 -2.44-2.74 10.59 10.59 0 0 0 -1.36-2.82 4.17 4.17 0 0 0 -3.84-2h-.4a3.5 3.5 0 0 1 -2.11-.79 3.14 3.14 0 0 1 -1.15-2.2l-.06-.72-.73-9.22a13.61 13.61 0 0 1 2.6-9.13l5.54-7.53h10.4l3.19 4.32a27.22 27.22 0 0 1 2.41 3.91 28.29 28.29 0 0 1 3.13 13.9z" fill="#f7de1c"/><path d="m785.5 801.08-24.34 13.85a5.75 5.75 0 0 0 -.88.62 3.29 3.29 0 0 1 -.52-6.27l20.74-8.2z" fill="#080c14"/><path d="m775.3 801.38a14.65 14.65 0 0 1 4.69 3.31 1.49 1.49 0 0 1 -.61 2.43l-5.72 2a1.49 1.49 0 0 1 -1.83-.77 13.17 13.17 0 0 0 -2.2-3.22 1.49 1.49 0 0 1 .63-2.43l4-1.32a1.52 1.52 0 0 1 1.04 0z" fill="#efc103"/><path d="m765.6 805.65a6.87 6.87 0 0 1 2.18 1.53.7.7 0 0 1 -.29 1.13l-2.65.91a.7.7 0 0 1 -.85-.36 6 6 0 0 0 -1-1.49.7.7 0 0 1 .3-1.13l1.85-.61a.72.72 0 0 1 .46.02z" fill="#efc103"/><path d="m743.55 503.31-33.8 73.13a3.31 3.31 0 0 1 -4.4 1.62l-.45-.21-4.62-2.13-.44-.2a3.32 3.32 0 0 1 -1.62-4.41l35.18-76.11a3.5 3.5 0 0 0 2.11.79h.4a4.17 4.17 0 0 1 3.84 2 10.59 10.59 0 0 1 1.36 2.82 4.58 4.58 0 0 0 2.44 2.7z" fill="#2c3848"/><g fill="#080c14"><path d="m700.28 575.72-88.58 197.23 1.56.72 92.53-197.73z"/><path d="m610.11 789.26.86.64 2.29-16.23-1.56-.72z"/><path d="m617.1 794.74a5.5 5.5 0 0 1 -5.49 5.49h-35a5.49 5.49 0 0 1 -5.49-5.49 6 6 0 0 1 .1-1 5.54 5.54 0 0 1 1.51-2.83 5.48 5.48 0 0 1 3.88-1.6h35a5.49 5.49 0 0 1 5.39 4.43 6 6 0 0 1 .1 1z"/></g><path d="m617 793.69a5.55 5.55 0 0 1 -1.51 2.82 5.49 5.49 0 0 1 -3.88 1.61h-35a4.45 4.45 0 1 1 0-8.86h35a5.49 5.49 0 0 1 5.39 4.43z" fill="#2c3848"/><path d="m379.68 492.55c-.05-.26-.11-.52-.17-.78q-.56-2.49-1.4-5.09c-.24-.75-.49-1.5-.76-2.25-.16-.43-.32-.87-.49-1.31v-.07a0 0 0 0 1 0 0 96.48 96.48 0 0 0 -16.16-26.67c-19.13-22.86-44.32-34.7-58.12-27.9a15.08 15.08 0 0 0 -2.35 1.41 15.91 15.91 0 0 0 -5.45 7.24c.57-.21 1.16-.39 1.76-.55-.6.16-1.19.34-1.76.55a26.21 26.21 0 0 0 -1.54 10.62c.41 10.06 5.07 22.53 13.45 34.82q1.28 1.85 2.65 3.69c1.21 1.63 2.49 3.26 3.84 4.87 9.5 11.34 20.48 20 30.82 25q2.15 1 4.23 1.86a44.91 44.91 0 0 0 8.77 2.52 29.64 29.64 0 0 0 5.44.49 20.92 20.92 0 0 0 7.35-1.25 16.5 16.5 0 0 0 3.86-2.08 17.51 17.51 0 0 0 1.67-1.41 16.16 16.16 0 0 0 2.07-2.51 17.78 17.78 0 0 0 1.56-2.93 20.53 20.53 0 0 0 .76-2.17c1.29-4.58 1.29-10.07-.03-16.1z" fill="#141a25"/><path d="m379.67 508.59a20.53 20.53 0 0 1 -.76 2.17 17.78 17.78 0 0 1 -1.56 2.93 16.16 16.16 0 0 1 -2.07 2.51 17.51 17.51 0 0 1 -1.67 1.41 16.5 16.5 0 0 1 -3.86 2.08 18.79 18.79 0 0 0 .61-1.79c1.3-4.52 1.28-10 0-16q-.08-.39-.18-.78c-.37-1.65-.84-3.35-1.4-5.08-.23-.75-.48-1.5-.76-2.25-.15-.44-.32-.88-.49-1.31v-.08a96.87 96.87 0 0 0 -16.17-26.66c-18.45-22.06-42.55-33.85-56.61-28.55a15.91 15.91 0 0 1 5.45-7.24 15.08 15.08 0 0 1 2.35-1.41c13.8-6.8 39 5 58.12 27.9a96.48 96.48 0 0 1 16.15 26.56 0 0 0 0 0 0 0v.07c.17.44.33.88.49 1.31.27.75.52 1.5.76 2.25q.84 2.6 1.4 5.09c.06.26.12.52.17.78 1.36 6.08 1.36 11.57.03 16.09z" fill="#2c3848"/><path d="m373.88 522.26c-2.48 3.16-5 6.56-7.67 10.12-16.24 22-34.78 50.5-48.42 71.54-4.15 6.4-7.85 12.11-10.89 16.74-14.66 22.28-50.66 80.37-76.25 113.86-4.86 6.37-9.34 11.85-13.23 16v.05c-3.9 4.18-7.21 7-9.69 8.17-5.9 2.68-21.54 4-36.67 2.43-8.8-.92-17.42-2.82-23.86-6a29.16 29.16 0 0 1 -4.46-2.7c-14.42-10.75-24.48-31-16.39-45.55 1.34-2.42 3.81-7 7.12-13.14.21-.39.42-.77.62-1.16l.21-.4c17-31.57 53.7-99.66 74.4-129 9.05-12.81 18.85-26.17 27.7-38q13.6-18.3 25.5-37.73a9.54 9.54 0 0 0 9.65-16.26q3.39-5.91 6.63-11.9c6.25-11.56 14.08-23.6 22-29.44-5.06 3.7-7.31 10.06-7 17.86a50.87 50.87 0 0 0 2.91 14.3c3.21 9.31 9 19.44 17 29.07 20.28 24.23 47.35 36.09 60.47 26.49a17.51 17.51 0 0 0 1.67-1.41 15.61 15.61 0 0 0 2.07-2.51 17.78 17.78 0 0 0 1.56-2.93 20.53 20.53 0 0 0 .76-2.17c1.3-4.52 1.28-10 0-16-.05-.26-.11-.52-.17-.78q-.56-2.49-1.4-5.09c-.23-.74-.49-1.49-.76-2.25-.16-.43-.32-.87-.49-1.31.85 1.44 10.95 21.38-2.92 39.1z" fill="#706381"/><path d="m366.21 532.38c-16.24 22-34.78 50.5-48.42 71.54-4.15 6.4-7.85 12.11-10.89 16.74-14.66 22.28-50.66 80.37-76.25 113.86-4.86 6.37-9.34 11.85-13.23 16v.05c-3.9 4.18-7.21 7-9.69 8.17-5.9 2.68-21.54 4-36.67 2.43-8.8-.92-17.42-2.82-23.86-6 73.42 5.81 129.68-94.93 147.6-131.4 9.15-18.63 11.91-37.32 12.43-51.14a53.88 53.88 0 0 1 18.94-39z" fill="#312641"/><path d="m381.05 504c-.11-.83-.25-1.66-.42-2.51a41.22 41.22 0 0 0 -.95-8.9c-.05-.26-.11-.52-.17-.78q-.56-2.49-1.4-5.09c-.23-.74-.49-1.49-.76-2.25-.16-.43-.32-.87-.49-1.31a41.24 41.24 0 0 1 4.19 20.84z" fill="#312641"/><path d="m249.11 655.19c-51.29 69.21-65.69 99.77-86.77 90.28-10-4.52-16.26-16.94-18.11-32.09-.06-.47-.11-1-.16-1.45s-.08-.79-.1-1.19a89.65 89.65 0 0 1 10.64-50.28c25.68-45.7 85.78-91.71 104.69-113.11 12.78-14.47 11.48-30.18 23.33-24.65 5.6 2.62 9.48 11.65 9.7 25.41.39 24.2-10.52 62.98-43.22 107.08z" fill="#45b7b8"/><path d="m249.4 660.54c-51.29 69.21-65.69 99.77-86.77 90.28-10-4.52-16.26-16.94-18.11-32.09-.06-.47-.11-1-.16-1.45q-.33-3.21-.39-6.54c0 .4.06.8.1 1.19s.1 1 .16 1.45c1.85 15.15 8.07 27.57 18.11 32.09 21.08 9.49 35.48-21.07 86.77-90.28 32.7-44.1 43.61-82.88 43.22-107.07 2.23 23.57-7.7 64.88-42.93 112.42z" fill="#312641"/><path d="m249.11 655.19c-51.29 69.21-65.69 99.77-86.77 90.28-10-4.52-16.26-16.94-18.11-32.09 3.14 24.85 26.53 24 38.47.62.33-.61.63-1.24.93-1.89a66.17 66.17 0 0 0 5.24-18.54c7.86-56.13 38.16-100.9 67.81-122.35 21.65-15.67 25.52-34.34 26-43.26l.21.09c4.84 2.26 8.39 9.31 9.41 20.06.42 24.19-10.49 62.97-43.19 107.08z" fill="#45b7b8"/><path d="m249.11 655.19c-51.29 69.21-65.69 99.77-86.77 90.28-10-4.52-16.26-16.94-18.11-32.09 3.14 24.85 26.53 24 38.47.62.33-.61.63-1.24.93-1.89a66.17 66.17 0 0 0 5.24-18.54c7.86-56.13 38.16-100.9 67.81-122.35 21.65-15.67 25.52-34.34 26-43.26a30.07 30.07 0 0 0 -.08-5.26c5.6 2.62 9.48 11.65 9.7 25.41.42 24.19-10.49 62.97-43.19 107.08z" fill="#138385"/><path d="m183.63 712.11c-.3.65-.6 1.28-.93 1.89-20.78-20.22-22.44-55-22.46-55.39a1 1 0 0 1 1-1 1 1 0 0 1 1 1c.02.3 1.63 33.81 21.39 53.5z" fill="#2c3848"/><g fill="#141a25"><path d="m194.08 721.2a1 1 0 0 1 -.87.5 1 1 0 0 1 -.49-.13 49.38 49.38 0 0 1 -10-7.57c.33-.61.63-1.24.93-1.89a47.29 47.29 0 0 0 10.08 7.73 1 1 0 0 1 .35 1.36z"/><path d="m197.73 702.4a1 1 0 0 1 -.65-.25 1 1 0 0 1 -.1-1.41c.78-.89 77.93-89.62 80.89-141.45a1 1 0 1 1 2 .11c-3 52.52-80.6 141.77-81.38 142.66a1 1 0 0 1 -.76.34z"/><path d="m275.18 478.7a9.54 9.54 0 0 1 -17.92 4.57 9.41 9.41 0 0 1 -1.17-4.57 9.54 9.54 0 0 1 15.46-7.48l.07.06a9.51 9.51 0 0 1 3.56 7.42z"/></g><path d="m272.79 475.84a9.54 9.54 0 0 1 -15.53 7.43 9.41 9.41 0 0 1 -1.17-4.57 9.54 9.54 0 0 1 15.46-7.48l.07.06a9.37 9.37 0 0 1 1.17 4.56z" fill="#2c3848"/><path d="m369.68 531.76-3.59 4.82-1 1.3-1.52 2.12a2.19 2.19 0 0 1 -1.89.89h-.62l-2-.11a4.89 4.89 0 0 0 -4.29 2.13l-2.77 3.99a3.46 3.46 0 0 1 -2.86 1.51h-10.69a4.11 4.11 0 0 1 -4-3.27l-.25-1.18a3.53 3.53 0 0 0 -2.51-2.68 3.45 3.45 0 0 0 -1-.14h-4.1a2.44 2.44 0 0 1 -2.24-3.39l1.76-4.17 2.13-5a3.45 3.45 0 0 1 3.26-2.09l36.07.95a2.72 2.72 0 0 1 2.11 4.32z" fill="#2c3848"/><path d="m261.9 487.49q-11.9 19.4-25.57 37.71c-8.85 11.86-18.65 25.22-27.7 38-20.7 29.33-57.4 97.42-74.4 129 5.48-10.75 6.58-21.75 6.93-33.32.42-14.45-.34-29.77 4.81-46.59 6-19.62 18.86-27.24 27.45-30.18a10.69 10.69 0 0 0 7.16-10.88c-1.64-23.71 14.67-29.44 36-40.15 15.51-7.77 20-13.16 23.23-19.93a.3.3 0 0 1 0-.08c1.25-2.67 2.3-5.55 3.73-8.88 6.46-14.68 17.94-14.7 18.36-14.7z" fill="#138385"/><path d="m302.54 428.46a15.08 15.08 0 0 0 -2.35 1.41c-7.93 5.84-15.76 17.88-22 29.44q-3.24 6-6.63 11.9a21.52 21.52 0 0 1 -4-5c-3.46-5.87-6.13-16.39 6.62-28.86a48.32 48.32 0 0 1 12.34-9.18c10.72-5.17 16.02.29 16.02.29z" fill="#45b7b8"/><path d="m326.75 625.51c-.13 14.16-4.14 9.45-4.14 23.68 0 16.41-27.82 72.58-49.37 85.29-13.23 7.81-30.84 4.13-42.59 0 25.59-33.49 61.59-91.58 76.25-113.86 3-4.63 6.74-10.34 10.89-16.74a34.69 34.69 0 0 1 6.47 9.71 28.59 28.59 0 0 1 2.49 11.92z" fill="#138385"/><path d="m313.76 633.19c-12.53 17.26-70.47 82.89-40.52 101.29-13.23 7.81-30.84 4.13-42.59 0 25.59-33.49 61.59-91.58 76.25-113.86 3-4.63 6.74-10.34 10.89-16.74a34.69 34.69 0 0 1 6.47 9.71c-1.37 4.49-4.26 11.06-10.5 19.6z" fill="#0b5e5e"/><path d="m217.37 750.58-11.91 13.84a4.7 4.7 0 0 1 -3.83 1.63l-66.4-3.92a8.83 8.83 0 0 1 -7-4.18l-1.9-3.08a4 4 0 0 1 .27-4.58l.66-.82a3.62 3.62 0 0 0 -.05-4.57l-1-1.27a2.53 2.53 0 0 1 -.06-3.17 2.53 2.53 0 0 0 .13-2.89l-2.76-4.43a1.22 1.22 0 0 0 -2-.1 1.22 1.22 0 0 1 -2 0l-3.09-4.39a4.76 4.76 0 0 1 -.17-5.21l10-16.48c-8.09 14.58 2 34.8 16.39 45.55 15.45 11.52 54.8 10.92 65 6.28 2.51-1.16 5.82-4.03 9.72-8.21z" fill="#2c3848"/><path d="m380.86 402.59a2.21 2.21 0 0 0 -3.83-1l-42 48.27-28.42 32.69q1.28 1.85 2.65 3.69l29.2-33.59 41.86-48.15a2.24 2.24 0 0 0 .54-1.91z" fill="#312641"/><path d="m375.79 400.57 9-10.87a7.72 7.72 0 0 1 8.48-2.36l12.38 4.29a10 10 0 1 1 -9.34 17.28l-7-5.4a3 3 0 0 0 -4.2.46l-2.11 2.58zm0 0" fill="#45b7b8"/><path d="m386.88 472.14a2.21 2.21 0 0 0 -3.82-1l-16.46 18.93-22.64 26q2.15 1 4.23 1.86l20.2-23.2 18-20.67a2.2 2.2 0 0 0 .49-1.92z" fill="#312641"/><path d="m381.82 470.13 9-10.88a7.75 7.75 0 0 1 8.49-2.36l12.38 4.3a10 10 0 1 1 -9.35 17.28l-7-5.41a3 3 0 0 0 -4.19.47l-2.15 2.57zm0 0" fill="#706381"/><path d="m386.88 491.46a2.21 2.21 0 0 0 -3.82-1l-12.21 14-13.89 16a29.64 29.64 0 0 0 5.44.49l8.93-10.26 15.06-17.3a2.19 2.19 0 0 0 .49-1.93z" fill="#312641"/><path d="m381.82 489.45 9-10.87a7.75 7.75 0 0 1 8.49-2.37l12.38 4.3a10 10 0 1 1 -9.35 17.28l-7-5.41a3 3 0 0 0 -4.19.47l-2.15 2.58zm0 0" fill="#2c3848"/><g fill="#141a25"><path d="m366.09 536.58-2.52 3.42a2.19 2.19 0 0 1 -1.89.89l-2.58-.14a4.89 4.89 0 0 0 -4.29 2.13l-2.81 4.02a3.46 3.46 0 0 1 -2.86 1.51h-10.69a4.11 4.11 0 0 1 -4-3.27l-.25-1.18a3.55 3.55 0 0 0 -3.48-2.82h-4.1a2.44 2.44 0 0 1 -2.24-3.39l1.76-4.17s8.6-2.54 9.91 1.91 13.51 7.65 17.14 2.71 12.9-1.62 12.9-1.62z"/><path d="m365.12 537.88-1.55 2.12a2.19 2.19 0 0 1 -1.89.89h-.62l-3.17-4.72a2.5 2.5 0 1 1 4.11-2.87z"/><path d="m332.86 534.44-1.21 6.84a3.45 3.45 0 0 0 -1-.14h-4.09l1.34-7.57a2.5 2.5 0 0 1 4.93.87z"/></g><path d="m284.72 804.88h-.44a2.5 2.5 0 0 1 -2-2.9l47.49-268.38a2.5 2.5 0 1 1 4.92.87l-47.51 268.35a2.5 2.5 0 0 1 -2.46 2.06z" fill="#2c3848"/><path d="m524.42 779.17a2.53 2.53 0 0 1 -2.08-1.1l-163.07-242.67a2.5 2.5 0 1 1 4.15-2.79l163.07 242.67a2.49 2.49 0 0 1 -2.07 3.89z" fill="#2c3848"/><path d="m678.3 173.12a67.87 67.87 0 0 0 -6.83 1.08 8.46 8.46 0 0 0 -1.39-.68 6.28 6.28 0 0 0 -7.56 1.85 5.17 5.17 0 0 0 -.88 1.6 103.43 103.43 0 0 0 -12.15 5.19 15.5 15.5 0 0 1 -1.25 5.25 24.09 24.09 0 0 1 -8.12 10.16c-.45.34-.93.68-1.44 1-.25.18-.51.35-.78.53l-.15.1c-.48.32-1 .64-1.51 1l-.88.55c-.59.37-1.2.75-1.82 1.12l-.42.25c6.72-4.45 7.76-8.13 7.3-10.56a86.15 86.15 0 0 0 -18.34 9.08c.24-.23 2-1.84 5-4.18a135.39 135.39 0 0 1 11.52-8.12c.15-18-15.8-13.88-15.8-13.88 6.8-10 20.56-18.43 34.82-14.5 8.14 2.22 15.16 7.53 20.68 13.16z" fill="#efc103"/><path d="m633.12 202.12.42-.25-.47.29z" fill="#efc103"/><path d="m661.48 182.44a81.28 81.28 0 0 0 -12-.28 103.43 103.43 0 0 1 12.16-5.16 10.09 10.09 0 0 0 -.16 5.44z" fill="#080c14"/><path d="m692 191.47a96.79 96.79 0 0 0 -3.12 12.85 121.34 121.34 0 0 1 -5.37 20.24c-.37 1-.74 2-1.1 2.9l-3.18-1.85a13.48 13.48 0 0 1 -2.85 4c.13-.21 2.64-4.32-4.85-14.51-7.7-10.48 4.65-25.77-1.07-31.69s-8.92-1-8.92-1a10.09 10.09 0 0 1 .16-5.47 5.17 5.17 0 0 1 .88-1.6 6.28 6.28 0 0 1 7.56-1.85 8.46 8.46 0 0 1 1.39.68 14.09 14.09 0 0 1 4.47 4.65 15.17 15.17 0 0 1 1.43 2.8 3.19 3.19 0 0 0 1.7 1.83 56.1 56.1 0 0 1 12.79 7.85z" fill="#ed8b7b"/><path d="m692 191.47a96.79 96.79 0 0 0 -3.12 12.85 121.34 121.34 0 0 1 -5.37 20.24c-.37 1-.74 2-1.1 2.9l-3.18-1.85c.25-.69 5.34-14.91-.11-42.12a56.1 56.1 0 0 1 12.79 7.85z" fill="#e06855"/><path d="m694.68 245.24c7.32-22.15 5-39.72 4.6-52.27-.41-14.08 10.2-11 10.82-10.83l9.15 5.17s-12.7 27.95-24.57 57.93z" fill="#138385"/><path d="m905.84 392.66a172.34 172.34 0 0 1 -43.76 27.67c-19.66-26.58-73.42-8.09-74.41-7.75a451.94 451.94 0 0 0 24.67-44.28c10.32-21.58 5.8-45.06 4.48-62.53a167.62 167.62 0 0 0 -4.17-26.6c-6.65-27.68-19.73-50.92-34.54-65.17h-.05c-33.81-37.19-71.11 2.55-71.91 3.41 7.38-17.39 13.13-30 13.13-30s51-1.67 77.78 32.89c21.16 27.31 53 89.48 83.24 131 8.61 11.7 18.53 24.85 25.54 41.36z" fill="#138385"/><path d="m905.84 392.66a161.85 161.85 0 0 1 -27.63 19.53l-2.48 1.38-1.59.85-2.59 1.36-1.57.8q-1.47.74-2.94 1.44l-1.28.61c-1.23.58-2.45 1.15-3.68 1.7-22.32 10-44.93 15.49-62.79 18.45-6 1-11.41 1.71-16.13 2.22l-1.82.8c1.47-.16 20.46 1.67 42.09.81a38.62 38.62 0 0 1 38.87 48.65 164.39 164.39 0 0 1 -31.47 61.48 158.66 158.66 0 0 0 -36 107l5.78 141.35 35.39-187.93c86.72-116.04 87.51-178.91 69.84-220.5z" fill="#312641"/><path d="m812.34 368.3a451.94 451.94 0 0 1 -24.67 44.28c-7 11.15-13.87 21.26-19.79 29.62q-3.12 4.41-5.85 8.12c-7.22 9.89-12 15.83-12 15.83h-3.36c44.65-65 44.13-114.7 33.21-145-4.07-11.3-5-25-5.36-39l.29-.09c1.16-.33 2.35-.65 3.56-.94.61-.15 1.22-.29 1.84-.42l1.11-.24.69-.14 1.11-.21.91-.17h.21.07.11l1.55-.25c.66-.1 1.33-.2 2-.28h.03l1.85-.23h.41l1.75-.17 1.27-.1c.43 0 .87-.06 1.3-.09s1.15-.07 1.74-.09 1 0 1.53-.06h.46 2.18.12a112 112 0 0 1 12 .66 167.62 167.62 0 0 1 4.17 26.6c1.36 17.31 5.88 40.79-4.44 62.37z" fill="#e06855"/><path d="m758.73 488.33-.29 8a4.73 4.73 0 0 1 -1.35 3.15c1.25-17.95-10.43-33.27-10.43-33.27h3.34l3.19 4.32a27.22 27.22 0 0 1 2.41 3.91 28.29 28.29 0 0 1 3.13 13.89z" fill="#efc103"/><path d="m812.65 279.17a112 112 0 0 0 -12-.66h-.12c-.74 0-1.46 0-2.18 0h-.46c-.52 0-1 0-1.53.06s-1.17.05-1.74.09-.87.05-1.3.09l-1.27.1-1.75.17h-.41l-1.85.23h-.04c-.67.08-1.34.18-2 .28l-1.55.25h-.11-.07-.21l-.91.17-1.11.21-.69.14-1.11.24c-.62.13-1.23.27-1.84.42-1.21.29-2.4.61-3.56.94l-.29.09c-.7-23.63 0-48.25-10.89-64.11-8-11.66-16.1-16.68-22.51-18.7 11.78-2.65 24.94 3 36.95 14.59h.05c14.77 14.48 27.85 37.72 34.5 65.4z" fill="#45b7b8"/><circle cx="600.38" cy="798.74" fill="#e2e2e2" r="11.3"/><g fill="#afafaf"><circle cx="597.6" cy="792.24" r="1"/><circle cx="602.57" cy="794.35" r="1"/><circle cx="602.57" cy="790.25" r="1"/><circle cx="607.55" cy="795.92" r="1"/><circle cx="603.32" cy="798.74" r="1"/><path d="m603.16 806.8a11.3 11.3 0 0 1 -11.3-11.3 11.18 11.18 0 0 1 1.49-5.6 11.3 11.3 0 1 0 16.84 14.44 11.23 11.23 0 0 1 -7.03 2.46z"/></g><path d="m302.54 428.46a15.08 15.08 0 0 0 -2.35 1.41c-7.93 5.84-15.76 17.88-22 29.44q-3.24 6-6.63 11.9a21.52 21.52 0 0 1 -4-5 49.36 49.36 0 0 0 8.79-9.74c13.4-18.62 10.17-28.3 10.17-28.3 10.72-5.17 16.02.29 16.02.29z" fill="#138385"/><path d="m239.86 511.17c-9.4 23.67-39.85 32.23-40.35 48.43s-15.75 24.25-30.75 36.27-11 28.72-23.25 55.46a37.08 37.08 0 0 1 -4.35 7.57c.42-14.45-.34-29.77 4.81-46.59 6-19.62 18.86-27.24 27.45-30.18a10.69 10.69 0 0 0 7.16-10.88c-1.64-23.71 14.67-29.44 36-40.15 15.56-7.77 20.09-13.16 23.28-19.93z" fill="#45b7b8"/><path d="m587.72 791.62a1.35 1.35 0 0 1 -.5 1 1.85 1.85 0 0 1 -1.2.43h-10.82a1.59 1.59 0 0 1 -1.7-1.46 1.26 1.26 0 0 1 0-.27 1.38 1.38 0 0 1 .46-.75 1.87 1.87 0 0 1 1.2-.43h10.84a1.66 1.66 0 0 1 1.67 1.18 1.24 1.24 0 0 1 .05.3z" fill="#5f6773"/><path d="m613.26 773.67v-1.01l-1.56.29.26 1.43z" fill="#080c14"/><path d="m796.15 824.86h-32.36a5.32 5.32 0 0 1 -3.51-9.31 5.75 5.75 0 0 1 .88-.62l24.34-13.85h15.14l3.36 13.85a8 8 0 0 1 -7.85 9.93z" fill="#2c3848"/><g fill="#f7de1c"><path d="m780.48 802.62a16.86 16.86 0 0 1 6 3 1.75 1.75 0 0 1 -.29 2.93l-6.28 3.28a1.75 1.75 0 0 1 -2.26-.57 15.07 15.07 0 0 0 -3.12-3.35 1.74 1.74 0 0 1 .3-2.92l4.41-2.23a1.64 1.64 0 0 1 1.24-.14z"/><path d="m770 809.28a7.89 7.89 0 0 1 2.79 1.39.82.82 0 0 1 -.13 1.36l-2.92 1.51a.8.8 0 0 1 -1-.26 7.07 7.07 0 0 0 -1.45-1.55.81.81 0 0 1 .14-1.35l2-1a.81.81 0 0 1 .57-.1z"/></g></svg>