<svg viewBox="0 0 1000 1000" xmlns="http://www.w3.org/2000/svg"><path d="m682.46 495.49v97.15h-15.3v-97.15a5.21 5.21 0 0 1 5.21-5.21h4.88a5.21 5.21 0 0 1 5.21 5.21z" fill="#ed6363"/><path d="m678.91 594.08v287.84a2.57 2.57 0 0 1 -2.57 2.57h-3.06a2.57 2.57 0 0 1 -2.57-2.57v-287.84z" fill="#ed6363"/><rect fill="#ffa258" height="10.03" rx="3.07" width="26.6" x="661.51" y="587.62"/><path d="m697.27 493.36-6.27 11.29-.5.91a4.54 4.54 0 0 1 -6.55 1.56l-1.53-1.05-.08-.05a4.51 4.51 0 0 0 -2.38-.79c-2.51-.08-8.38-.77-12.84-5.27-3-3.06-5.43-7.89-5.65-15.49l-3.15-13.34 10.54-.51 10.62.71a20.67 20.67 0 0 1 13.86 6.67l2.41 2.63a11 11 0 0 1 1.52 12.73z" fill="#003545"/><path d="m691 504.65-.5.91a4.54 4.54 0 0 1 -6.55 1.56l-1.61-1.1a4.51 4.51 0 0 0 -2.38-.79c-4.22-.13-17.94-2-18.49-20.76l1-1.86s1.26 16.32 17.93 15.87c9.9-.27 11.22 3.26 10.6 6.17z" fill="#001923"/><path d="m678.91 597.65v4.77h-.15s-3.12-2.51-8-.47v-4.27z" fill="#e13a3a"/><path d="m682.46 508.56v-2.49l-.08-.05a6.46 6.46 0 0 0 -2.61-.8 19.07 19.07 0 0 1 -12.61-5.22v87.66h15.3v-2.29a21.21 21.21 0 0 1 -7-.53 1 1 0 0 1 -.41-1.66c4.57-4 1-26.32-2.9-44.19-3.61-16.38-1.8-24.32-.67-27.26a2.43 2.43 0 0 1 2-1.51 18 18 0 0 0 6.06-2.48c1.46-.87 2.92.82 2.92.82z" fill="#e13a3a"/><path d="m581.27 174.73a12 12 0 0 0 -1.66 2.39c-5.28 9.8 2.18 25.53-5.2 28.9a7.57 7.57 0 0 1 -2.73.63 72.84 72.84 0 0 1 -11.08-.37c-.63-1.34-20.79 1.63-22.16.45-12.25-10.54-26-12.43-37-22.82-8.79-13.27-6.56-23.48 1.73-34.83 17.41-23.82 32.46-24.38 69.41-7.8 1.84 7.94.4 16.95 5.94 22.09 2.46 2.28 4 4 4.55 5.69.66 1.85.07 3.55-1.8 5.67z" fill="#efa08d"/><path d="m572.6 141.28c-6.06 2.81-12.21 5.95-18.26 9.26l-1.91 1-.78.43c-8.26 4.6-16.24 9.42-23.43 14l-1.94 1.23c-11 7-19.94 13.23-24.82 16.7-5.65 8.81-11.26 6.9-15.48.75-4.28-3.45-23.59-21.25-11.52-53.06 6.42-16.91 21.24-25.62 37.69-27h.11c22.17-1.86 47.25 9.5 58.63 31.85a20.42 20.42 0 0 1 1.71 4.84z" fill="#00454a"/><path d="m573.51 156.9a5.57 5.57 0 0 1 -2.67 5.09l-.32.18a31.06 31.06 0 0 1 -6.22 2.39 4.93 4.93 0 0 1 -4.11-.74 4.82 4.82 0 0 1 -2-2.85c-.46-1.84-1-4.16-1.39-6.7a5.51 5.51 0 0 0 -3.64-4.3c-4.78-1.61-15-4.22-31-4.17h-1.57-1.35a178.55 178.55 0 0 0 -20.9 1.78.61.61 0 0 1 -.26-1.18 158.37 158.37 0 0 1 24.05-4.57 252.92 252.92 0 0 1 46.24-.91 4.73 4.73 0 0 1 2.67 1 4.73 4.73 0 0 1 1.79 3.46z" fill="#132238"/><path d="m522.16 145.81c-.95 0-1.92 0-2.92 0a178.55 178.55 0 0 0 -20.9 1.78.61.61 0 0 1 -.26-1.18 158.37 158.37 0 0 1 24.05-4.57c.02 1.31.02 2.63.03 3.97z" fill="#0b1828"/><path d="m554.34 150.54c-.9.48-1.8 1-2.69 1.47-4.15-2.93-13.75-4.19-20.88-4.72a7.36 7.36 0 0 0 -7.71 9 19.59 19.59 0 0 0 5.16 9.72c-11.88 7.51-21.6 14.26-26.76 17.93-6.32-.43-11.77-.2-15.48.75-4.28-3.45-23.59-21.25-11.52-53.06a40.94 40.94 0 0 1 9.32-14.63c7.48-7.46 17.57-11.53 28.37-12.45-1.45.36-18 4.76-16.11 21.12 1.94 17.12 23-1.41 25.53 10.24a32 32 0 0 1 .56 5.94 158.37 158.37 0 0 0 -24.05 4.57.61.61 0 0 0 .26 1.18 178.55 178.55 0 0 1 20.9-1.78h2.92c16 0 26.23 2.55 31 4.16a5.26 5.26 0 0 1 1.18.56z" fill="#003545"/><path d="m581.27 174.73a12 12 0 0 0 -1.66 2.39c-2.67 1.3-4.07-1.38-.66-3.12a8.12 8.12 0 0 0 4.15-4.95c.63 1.86.04 3.56-1.83 5.68z" fill="#e06855"/><path d="m544.9 183.71c-2.64-5.35-7.38-9.7-11.35-13.09a3 3 0 0 1 .08-4.57c9.28-7.48 15.44-11.09 17.92-12.42a1.41 1.41 0 0 1 2 .8c3.48 12.6 2.77 16.8 16.91 7.74a31.06 31.06 0 0 1 -6.22 2.39 5 5 0 0 1 -6.04-3.56c-.46-1.84-1-4.16-1.39-6.7a5.57 5.57 0 0 0 -2.47-3.74c-.64.34-1.27.7-1.91 1.05l-.78.43c-8.26 4.6-16.24 9.42-23.43 14l-1.94 1.23c-11 7-19.94 13.23-24.82 16.7 18.33 1.24 44.05 8 56.3 18.53a11.09 11.09 0 0 1 2.83 3.84 72.84 72.84 0 0 0 11.08.37 7.57 7.57 0 0 0 2.73-.63c6.01-3.93-16.81 3.28-29.5-22.37z" fill="#e06855"/><path d="m501.46 183.91c-6.32-.43-11.77-.2-15.48.75-4.28-3.45-23.59-21.25-11.52-53.06a40.94 40.94 0 0 1 9.32-14.6 50.27 50.27 0 0 0 -8.23 23.31c-1.32 13.74 2.14 39.92 25.91 43.6z" fill="#00202d"/><path d="m559.44 153c-.42 2.21-.26 6.22 1.62 8.86s8.25.09 7.54-1.5c-1.37-3.05-5.75 2.88-6.9-.84-1.52-4.94 6.67-2.4 5.74-7.54-.7-3.87-7-4.17-8 1.02z" fill="#283c55"/><path d="m573.51 156.9a5.57 5.57 0 0 1 -2.67 5.09c3.42-3.21-.69-5.87.56-10.81 1.44-5.7-.25-9-.35-9.16a4.73 4.73 0 0 1 1.79 3.46z" fill="#0b1828"/><path d="m560.17 163.83a4.82 4.82 0 0 1 -2-2.85c-.46-1.84-1-4.16-1.39-6.7a5.51 5.51 0 0 0 -3.64-4.3c-4.78-1.61-15-4.22-31-4.17h-1.54l1.53-.72s26.42.11 33.92 5.13c3.26 2.19 1.57 9.52 4.12 13.61z" fill="#0b1828"/><ellipse cx="487.47" cy="879.57" fill="#e2e2e2" rx="110.35" ry="12.23"/><ellipse cx="604.17" cy="883.41" fill="#e2e2e2" rx="110.35" ry="12.23"/><path d="m597.05 449.1-28.39-196.63-18.06-30.47-46.35-18.91-24.76 5.12-.73 3-62.56-9.37-6.44 271.26a381.29 381.29 0 0 0 -10.58 60.42 303.23 303.23 0 0 0 31.24 1.55c42.92.24 121.32-6.22 178.89-50.67a229.21 229.21 0 0 1 -12.26-35.3z" fill="#1f3e3c"/><path d="m668.9 470.62-6.4 12-1 1.86a428.19 428.19 0 0 1 -64.46-35.37c-5.55-3.73-11.15-7.7-16.67-11.91a250.29 250.29 0 0 1 -24.73-21.37c-2-2-3.94-4-5.82-6a112.73 112.73 0 0 1 -11.82-15.68c-20.54-32.21-35.52-84.15-28-125.53 4.43-24.31 18-37.49 32.43-41a33.09 33.09 0 0 1 9.67-.89 32.57 32.57 0 0 1 17.15 6c38.82 27.29 31.56 135.41 31.56 135.41z" fill="#3c6562"/><path d="m580.38 437.19c-21.94-.32-44.85-4-57.53-6.37a26.45 26.45 0 0 0 -18.52 3.33 425.28 425.28 0 0 1 -75.33 35.6 58.66 58.66 0 0 1 -19.25 3.42 57.69 57.69 0 0 1 -18.38-2.84l-1.39-.46a124.12 124.12 0 0 1 -38.26-20.64 164.62 164.62 0 0 1 -22.11-21.23 37.53 37.53 0 0 1 -8.71-19.17 37.12 37.12 0 0 1 -.32-7.68l.24-3.79a50.44 50.44 0 0 0 .05-5.07 54.44 54.44 0 0 0 -1.2-9.42c-.22-1.06-.48-2.12-.76-3.17s-.46-1.81-.66-2.72a85.26 85.26 0 0 1 -1-28.62 61.67 61.67 0 0 0 .2-13.78 54.13 54.13 0 0 0 -2.45-11.58 83.23 83.23 0 0 1 -2.76-11.12v-.06a130.55 130.55 0 0 1 -1.84-26.39c.18-6.92.78-11.46.78-11.46-9.13-28.37-13.45-79.93-7.89-100s93.5-43.24 114.76-40.58a32.06 32.06 0 0 1 8.8 2.61l.86.39c.58.27 1.16.55 1.74.85 1.07.54 2.16 1.14 3.26 1.79.68.4 1.37.82 2.06 1.26q2.75 1.74 5.57 3.86c.62.47 1.24.94 1.85 1.42.77.61 1.54 1.24 2.32 1.89.37.3.73.61 1.09.92s.83.71 1.25 1.08l1.86 1.66q1.69 1.57 3.39 3.24l1.07 1.07c1.42 1.44 2.83 2.93 4.21 4.46l.84.92 1.66 1.92c.36.41.7.82 1.05 1.23l.71.88c.45.53.88 1.07 1.31 1.61s1 1.23 1.45 1.85l.35.45c.42.55.84 1.11 1.25 1.67l.43.57 1.37 1.92c.42.59.83 1.18 1.23 1.78.63.92 1.24 1.85 1.84 2.79.44.68.87 1.37 1.3 2.06s1 1.65 1.48 2.48q.58 1 1.14 2l.24.44c.39.7.77 1.41 1.14 2.12s.77 1.5 1.14 2.26l.06.12c.37.76.74 1.53 1.08 2.3a.08.08 0 0 1 0 0c.36.78.7 1.55 1 2.33a76.21 76.21 0 0 1 4.3 13.13c.27 1.2.53 2.5.78 3.89 1.42 7.7 2.64 18.19 3.67 30 3.18 36.35 4.69 85.23 5.18 104.05a25.36 25.36 0 0 0 5.2 14.72c1.53 2 3.06 3.92 4.57 5.72a140.89 140.89 0 0 0 14.85 15.32c11.73 10.39 20 13.73 20 13.73a112.73 112.73 0 0 0 11.84 15.63c1.88 2.05 3.83 4.06 5.82 6a250.29 250.29 0 0 0 24.72 21.41z" fill="#ffa258"/><path d="m518 380.42a147.49 147.49 0 0 1 -19.34-21 25.31 25.31 0 0 1 -5.2-14.72c-.49-18.82-2-67.7-5.18-104-1-11.82-2.25-22.31-3.67-30-.25-1.39-.51-2.69-.78-3.89a47.6 47.6 0 0 1 17.08 4.89 7.5 7.5 0 0 1 3.95 6.79c-.07 2.89-.24 7.19-.6 12.61a402 402 0 0 1 -4.78 40.37c-5.65 33-6.11 83.01 18.52 108.95z" fill="#e13a3a"/><path d="m569.76 226.72a41.64 41.64 0 0 1 -.48 6.08 32.37 32.37 0 0 0 -3.72-2.3 32.7 32.7 0 0 0 -23.1-2.84s-21.81-1.82-38.2 3.36c.36-5.42.53-9.72.6-12.61a7.49 7.49 0 0 0 -3.28-6.38 5.72 5.72 0 0 0 -.67-.41 47.6 47.6 0 0 0 -17.08-4.89 76.21 76.21 0 0 0 -4.3-13.13c.47-3 1.37-6.42 3-7.52a11.06 11.06 0 0 1 3.49-1.42c7.73-2 22.94-.82 38 2.84 13.14 3.2 26.13 8.32 33.82 14.94a11.09 11.09 0 0 1 2.83 3.84c1.48 3.1 2 6.33 6.14 8.33a4.1 4.1 0 0 1 2.28 3 54.25 54.25 0 0 1 .67 9.11z" fill="#3c6562"/><path d="m569.76 226.72a41.64 41.64 0 0 1 -.48 6.08 32.37 32.37 0 0 0 -3.72-2.3 32.7 32.7 0 0 0 -23.1-2.84s-21.81-1.82-38.2 3.36c.36-5.42.53-9.72.6-12.61a7.49 7.49 0 0 0 -3.28-6.38s20.22-2.66 40.8 2c9.73 2.23 19.62 6.1 27.38 12.69z" fill="#ffa258"/><path d="m311.17 273.92s-.6 4.54-.78 11.46a121.37 121.37 0 0 0 -6.93 24.9 186 186 0 0 0 -2.66 28.05 3.47 3.47 0 0 1 -5 3.09l-3.77-1.77a4.48 4.48 0 0 1 -2.52-4.65 162.16 162.16 0 0 1 9.62-37.48c5.96-15.15 12.04-23.6 12.04-23.6z" fill="#ed6363"/><path d="m320.82 397.31-.24 3.79a132.49 132.49 0 0 1 -2.31 14.56 172.7 172.7 0 0 1 -13.38 38.39 7.06 7.06 0 0 1 -6.34 4h-9.81a3.27 3.27 0 0 1 -2.45-5.42 149.17 149.17 0 0 0 29.3-52.88 111.23 111.23 0 0 0 4.08-16.89 53.42 53.42 0 0 1 1.15 14.45z" fill="#ed6363"/><path d="m640.65 867.92c-2.18 9.4-7.27 6.4-13.17 0l-32.27-151-11.52-53.92c-29-17.86-65.72-57.79-65.72-57.79-6.91 33.68-17.56 72.21-28.91 109.19-24.68 80.44-52.66 153.55-52.66 153.55-5 8.28-9.37 7.65-13.17 0l-.77-185.74c-18.7-45.74-27.36-104.84-23.28-148.59 0 0 52.21-92.42 71.37-92.32 42.92.24 39.35-13.12 138.76 43.2 22.18 51.9 46.54 109.14 52.2 163.5 6.49 62.28-20.86 219.92-20.86 219.92z" fill="#00454a"/><path d="m609.31 484.47c-57.57 44.45-136 50.91-178.89 50.67a303.23 303.23 0 0 1 -31.24-1.55 381.29 381.29 0 0 1 10.58-60.42 58.66 58.66 0 0 0 19.24-3.42 425.28 425.28 0 0 0 75.32-35.6 26.45 26.45 0 0 1 18.52-3.33c12.68 2.38 35.59 6.05 57.53 6.37 5.52 4.21 11.12 8.18 16.67 11.91a229.21 229.21 0 0 0 12.27 35.37z" fill="#345e5a"/><path d="m454 880.94a3.56 3.56 0 0 1 -3.6 3.54h-23.05a4.89 4.89 0 0 1 -4.88-5.21l.76-11.36h13.17l15.92 9.91a3.45 3.45 0 0 1 1.68 3.12z" fill="#ffa258"/><path d="m640.65 867.92 15.92 9.91a3.6 3.6 0 0 1 -1.9 6.66h-23.07a4.88 4.88 0 0 1 -4.87-5.21l.75-11.36z" fill="#ffa258"/><path d="m542.34 214.05c-20.58-4.68-40.8-2-40.8-2a5.72 5.72 0 0 0 -.67-.41 47.6 47.6 0 0 0 -17.08-4.89 76.21 76.21 0 0 0 -4.3-13.13c.47-3 1.37-6.42 3-7.52a11.06 11.06 0 0 1 3.49-1.42c7.73-2 22.94-.82 38 2.84 0 0-8 16.64 16.73 25.91z" fill="#1f3e3c"/><path d="m569.26 232.8a32.37 32.37 0 0 0 -3.72-2.3 32.7 32.7 0 0 0 -23.1-2.84s-21.81-1.82-38.2 3.36c.36-5.42.53-9.72.6-12.61a7.49 7.49 0 0 0 -3.28-6.38s20.22-2.66 40.8 2c25.51 9.97 26.9 18.77 26.9 18.77z" fill="#ff7128"/><path d="m662.5 482.61-1 1.86a428.19 428.19 0 0 1 -64.46-35.37c-5.55-3.73-11.15-7.7-16.67-11.91a250.29 250.29 0 0 1 -24.73-21.37c-2-2-3.94-4-5.82-6a112.73 112.73 0 0 1 -11.82-15.67c-20.54-32.21-35.52-84.15-28-125.53 4.43-24.31 18-37.49 32.43-41a33.09 33.09 0 0 1 9.67-.89s-44.1 8.08-16.7 61.27c24.79 48.22-10.22 79.18 33.86 125.28s93.24 69.33 93.24 69.33z" fill="#2a4d4b"/><path d="m441.93 759.68c-19.5 61.18-16 108.24-16 108.24h-2.68l-.77-185.74c-18.7-45.74-27.36-104.84-23.28-148.59a303.23 303.23 0 0 0 31.24 1.55c-12.59 21.71-24.25 57.9-9.2 107.92a144.87 144.87 0 0 0 23.85 45.76c9.13 12.03 9.33 31.66-3.16 70.86z" fill="#002123"/><path d="m597.05 449.1s-18.58 5.25-46.68 2.24a43.72 43.72 0 0 0 -39.58 17.26c-9.6 12.75-24.87 28.06-47.25 37.55a69.21 69.21 0 0 0 -32.84 28.51c-.09.16-.18.32-.28.48a303.23 303.23 0 0 1 -31.24-1.55 381.29 381.29 0 0 1 10.58-60.42 58.66 58.66 0 0 0 19.24-3.42 425.28 425.28 0 0 0 75.32-35.6 26.45 26.45 0 0 1 18.52-3.33c12.68 2.38 35.59 6.05 57.53 6.37 5.53 4.21 11.13 8.18 16.68 11.91z" fill="#1f3e3c"/><path d="m454 881a3.56 3.56 0 0 1 -3.6 3.54h-23.05a4.89 4.89 0 0 1 -4.88-5.21l.76-11.36h2.68s-4.43 11.63 4.11 12.48 23.04 5.55 23.98.55z" fill="#ff7128"/><path d="m518 605.18c-6.91 33.68-17.56 72.21-28.91 109.19 0 0-13-30.07-1.93-78.16a146.3 146.3 0 0 0 .94-63.11 2.22 2.22 0 0 1 4.05-1.65c13.41 21.44 25.85 33.73 25.85 33.73z" fill="#002123"/><path d="m593.73 670a16.91 16.91 0 0 1 6.95 16.88l-5.47 30-11.52-53.88z" fill="#002123"/><path d="m580.38 437.19c-8.75-.13-17.66-.79-26-1.69-11.16-1.2-21.32-2.83-28.79-4.17l-2.73-.51a26.45 26.45 0 0 0 -18.52 3.33 425.28 425.28 0 0 1 -75.34 35.6 58.66 58.66 0 0 1 -19.25 3.42 57.69 57.69 0 0 1 -18.38-2.84l-1.39-.46a124.12 124.12 0 0 1 -38.26-20.64q-3.94-3.14-7.37-6.25a161.8 161.8 0 0 1 -14.73-15 37.53 37.53 0 0 1 -8.71-19.17c-1-14 21.8-17 50.75-15.94 1.8.06 3.63.14 5.47.24 44 2.33 75.68 36 107.71 8.77 12.31-10.44 9.32-51.77 9.32-51.77a25.22 25.22 0 0 0 4.47 9.32 147.49 147.49 0 0 0 19.34 21c1.64 1.46 3.22 2.77 4.71 4 9.18 7.3 15.31 9.77 15.31 9.77a112.73 112.73 0 0 0 11.84 15.63c1.88 2.05 3.83 4.06 5.82 6a250.29 250.29 0 0 0 24.73 21.36z" fill="#ff7128"/><path d="m580.38 437.19c-8.75-.13-17.66-.79-26-1.69-15.94-17.67-31.69-51.12-31.69-51.12 9.18 7.3 15.31 9.77 15.31 9.77a112.73 112.73 0 0 0 11.84 15.63c1.88 2.05 3.83 4.06 5.82 6a250.29 250.29 0 0 0 24.72 21.41z" fill="#e55617"/><path d="m367.33 400.32a22 22 0 0 1 -2.53 1.85 19.07 19.07 0 0 1 -4 1.92 5.14 5.14 0 0 1 -4.95-.86 5.22 5.22 0 0 1 -1.94-4.62c.72-7.24 1.48-19.17 0-28.82l5.54-3.64 7.48-4.91 4.76 26.52a13.36 13.36 0 0 1 -4.36 12.56z" fill="#ed6363"/><path d="m366.93 361.23-7.48 4.91-5.54 3.64s-2.66-3.33-2.13-10.89a3.52 3.52 0 0 1 1.82-2.83l4.59-2.56 4.21-2.35a2.59 2.59 0 0 1 3.84 2.05z" fill="#3c6562"/><path d="m377.12 393.08c-1.84-.1-3.67-.18-5.47-.24a13.61 13.61 0 0 0 0-5.09l-4.76-26.52s11.19 22.77 10.23 31.85z" fill="#ff7128"/><path d="m377.12 393.08a6.07 6.07 0 0 1 -.44 1.83c-3.17 7.33-17.24 14.27-20.81 8.32a5.14 5.14 0 0 0 4.95.86 20.4 20.4 0 0 0 6.51-3.77 13 13 0 0 0 4.32-7.48c1.8.06 3.63.16 5.47.24z" fill="#e55617"/><path d="m525.59 431.32-2.73-.51a26.45 26.45 0 0 0 -18.52 3.33 425.28 425.28 0 0 1 -75.34 35.61 58.66 58.66 0 0 1 -19.25 3.42 57.69 57.69 0 0 1 -18.38-2.84l-1.39-.46a124.12 124.12 0 0 1 -38.26-20.64q-3.94-3.14-7.37-6.25c.85.51 35.67 25.6 69.55 18.29 67.03-14.47 74.34-42.56 111.69-29.95z" fill="#e55617"/><path d="m488.24 240.63a63.74 63.74 0 0 0 -5.66-15.45 58.21 58.21 0 0 0 -4.24-6.87 36.18 36.18 0 0 0 -7.78-7.89 37.24 37.24 0 0 0 -21.8-7.27 169.32 169.32 0 0 0 -34.78 3c-23 4.53-40 13.76-52.33 24.65a86.73 86.73 0 0 0 -25 37.09c-6.93 20.75-2.8 43.86-1.34 50.55a3.56 3.56 0 0 1 -1.16 3.48 22 22 0 0 1 -2.54 1.8 3.6 3.6 0 0 1 -5.2-1.69c-6.7-16.17-15.18-48.13-15.18-48.13-9.13-28.37-13.45-79.93-7.89-100 1.23-4.42 6.47-9 14.11-13.42 27-15.6 84.06-29.22 100.62-27.15a32.06 32.06 0 0 1 8.8 2.61c18.23 8 42 32.44 52.65 57.64a76.21 76.21 0 0 1 4.3 13.13c.27 1.2.53 2.5.78 3.89 1.4 7.72 2.61 18.21 3.64 30.03z" fill="#ed6363"/><path d="m498.62 359.4a25.36 25.36 0 0 1 -5.2-14.72c-.49-18.82-2-67.7-5.18-104a63.74 63.74 0 0 0 -5.66-15.45 58.21 58.21 0 0 0 -4.24-6.87 36.18 36.18 0 0 0 -7.78-7.89 37.24 37.24 0 0 0 -21.8-7.27c-41.43-.43-69.22 11.87-87.11 27.67a86.73 86.73 0 0 0 -25 37.09c-6.93 20.75-2.8 43.86-1.34 50.55a3.56 3.56 0 0 1 -1.16 3.48c.34-.21 5.1-1.16 3.63-8.43-5.72-28.31.55-50 19-69.38 16.59-17.37 46.17-3.37 42.64 20.39-.07.47-.15.94-.24 1.42-5.42 29.24-18 91.68 6.57 94.37a15.05 15.05 0 0 1 -5.82-4.7c-13.63-16.72 13.93-86 2.58-108.66a28.74 28.74 0 0 0 -15.65-14.27c42.2-2.39 77-2 90.6 29.24 14.16 32.52-3.88 78.54 17.6 107.88h6.48l1.65-4.66c-1.51-1.87-3.04-3.77-4.57-5.79z" fill="#ff7128"/><path d="m484 378.69a15.42 15.42 0 0 1 -9.66 9.56 14.92 14.92 0 0 1 -12-1l-.41-.22a15.23 15.23 0 0 1 -7.93-13.78c.49-19-1.61-33.27-4.29-43.5-2.55-9.79-14.71-11.31-20.31-4.64a11.76 11.76 0 0 0 -2.4 4.69c-.17.65-.33 1.32-.49 2a88.85 88.85 0 0 1 -5.62 17.2c-4.38 9.39-9.68 13.45-15.14 11.26a15.05 15.05 0 0 1 -5.82-4.7c-13.63-16.72 13.93-86 2.58-108.66-6.68-13.36-19.64-16.58-29.19-17a3.67 3.67 0 0 1 -1.89-6.72c.24-.16.47-.32.71-.46 11-7.31 24.77-13.25 41.8-16.62a169.32 169.32 0 0 1 34.78-3c.57 0 1.17 0 1.8.11 14.83 1.54 25 15.75 22.26 30.42a259.86 259.86 0 0 0 -4.25 45.77c-.09 28.6 9.47 59.54 14.74 83.6a80.94 80.94 0 0 1 1.47 9.14 15.08 15.08 0 0 1 -.74 6.55z" fill="#ed6363"/><g fill="#e13a3a"><path d="m472 211.53c-.46-.39-.93-.75-1.41-1.11a37.24 37.24 0 0 0 -21.8-7.27 177.49 177.49 0 0 0 -27.15 1.71q-3.92.57-7.63 1.31c-17 3.37-30.8 9.31-41.8 16.62 0 0 13.25-13.59 44.06-20.87l1.06-.21a170.55 170.55 0 0 1 33.67-2.82c.57 0 1.17 0 1.8.11a25.1 25.1 0 0 1 19.2 12.53z"/><path d="m484.2 378.13-.18.55c.05-.17.11-.36.18-.55z"/><path d="m484.74 372.17a15.24 15.24 0 0 1 -.54 6l-.18.55a15.39 15.39 0 0 1 -9.66 9.57c20.42-16.39-9.54-18.92-13.09-71.26-2.37-35-27.8-17.26-29.23-38.14-1.65-24.19 22.31-30.38 19.62-54.11-1.65-14.58-15.56-18.25-26-18.92a11.69 11.69 0 0 1 -4-1 12.17 12.17 0 0 1 -4.31-3.15 13.56 13.56 0 0 1 -2.75-4.84c-5.85-18-63.37 5.6-60.64-22.85 3.08-32.14 97.42-15.24 66.64-26.37-44.6-16.11-101.38 12.12-103.18 12.85 27-15.6 84.06-29.22 100.62-27.15a32.06 32.06 0 0 1 8.8 2.61c18.23 8 42 32.44 52.65 57.64a76.21 76.21 0 0 1 4.3 13.13c.27 1.2.53 2.5.78 3.89 1.42 7.7 2.64 18.19 3.67 30a63.74 63.74 0 0 0 -5.66-15.45 58.21 58.21 0 0 0 -4.24-6.87 36 36 0 0 0 -6.37-6.78c-.46-.39-.93-.75-1.41-1.11a37.24 37.24 0 0 0 -21.8-7.27c.57 0 1.17 0 1.8.11 14.83 1.54 25 15.75 22.26 30.42a259.86 259.86 0 0 0 -4.25 45.77c-.13 28.56 9.43 59.5 14.7 83.56a80.94 80.94 0 0 1 1.47 9.17z"/><path d="m367.33 400.32a22 22 0 0 1 -2.53 1.85c9.57-9.45.7-16.92-3.83-27.83a16.19 16.19 0 0 1 -1.52-8.2l7.48-4.91 4.76 26.52a13.36 13.36 0 0 1 -4.36 12.57z"/></g><path d="m363.68 356.68c.75-4.21-4.94-3.28-5.45-3.19l4.21-2.35a2.59 2.59 0 0 1 3.84 2.05l.65 8-7.48 4.91c.55-4.38 3.7-6.42 4.23-9.42z" fill="#1f3e3c"/><path d="m311.17 273.92s-.6 4.54-.78 11.46a121.37 121.37 0 0 0 -6.93 24.9c-.3-5.52-1.35-10.26-4.29-12.76 5.92-15.15 12-23.6 12-23.6z" fill="#e13a3a"/><path d="m320.82 397.31-.24 3.79a132.49 132.49 0 0 1 -2.31 14.56 81.32 81.32 0 0 0 -2.68-16 111.23 111.23 0 0 0 4.08-16.89 53.42 53.42 0 0 1 1.15 14.54z" fill="#e13a3a"/><path d="m325.53 335.5a20.57 20.57 0 0 1 -8.11-1 54.13 54.13 0 0 0 -2.42-11.5 83.23 83.23 0 0 1 -2.76-11.12c.31.89 4.34 12.05 14.58 17.87a3.09 3.09 0 0 1 -1.29 5.75z" fill="#ff7128"/><path d="m332.07 389.29c-3.55 1.83-7.48 3.16-11.2 2.95a54.44 54.44 0 0 0 -1.2-9.42c-.22-1.06-.48-2.12-.76-3.17s-.46-1.81-.66-2.72a13.19 13.19 0 0 0 12.68 7.72 2.46 2.46 0 0 1 1.14 4.64z" fill="#ff7128"/><path d="m678.91 865.38v16.54a2.57 2.57 0 0 1 -2.57 2.57h-3.06a2.57 2.57 0 0 1 -2.57-2.57v-78.31c1.85 23.22 4.51 47.39 8.2 61.77z" fill="#e13a3a"/><g fill="#00454a"><path d="m650.49 872.92a.66.66 0 0 1 -.15 1.24 6.13 6.13 0 0 0 -4.34 3.84.66.66 0 0 1 -1.25-.42 7.5 7.5 0 0 1 5.28-4.74.66.66 0 0 1 .46.08z"/><path d="m647.7 870.47a.63.63 0 0 1 .35.45.65.65 0 0 1 -.5.78 6.23 6.23 0 0 0 -4.31 3.87.66.66 0 0 1 -1.25-.41 7.49 7.49 0 0 1 5.28-4.75.64.64 0 0 1 .43.06z"/><path d="m645 867.87a.65.65 0 0 1 .35.45.66.66 0 0 1 -.5.79 6.23 6.23 0 0 0 -4.31 3.86.65.65 0 0 1 -.83.42.66.66 0 0 1 -.42-.83 7.48 7.48 0 0 1 5.28-4.74.7.7 0 0 1 .43.05z"/><path d="m447.32 872.92a.68.68 0 0 1 .36.46.67.67 0 0 1 -.51.78 6.13 6.13 0 0 0 -4.3 3.87.66.66 0 0 1 -.84.41.65.65 0 0 1 -.41-.83 7.48 7.48 0 0 1 5.28-4.74.68.68 0 0 1 .42.05z"/><path d="m444.52 870.47a.62.62 0 0 1 .36.45.65.65 0 0 1 -.51.78 6.2 6.2 0 0 0 -4.3 3.87.67.67 0 0 1 -.83.42.65.65 0 0 1 -.42-.83 7.46 7.46 0 0 1 5.28-4.75.6.6 0 0 1 .42.06z"/><path d="m441.86 867.87a.64.64 0 0 1 .36.45.66.66 0 0 1 -.51.79 6.2 6.2 0 0 0 -4.3 3.86.66.66 0 0 1 -1.25-.41 7.48 7.48 0 0 1 5.28-4.74.66.66 0 0 1 .42.05z"/></g></svg>