<svg viewBox="0 0 1000 1000" xmlns="http://www.w3.org/2000/svg"><path d="m684 215.81c-5.06 2.73-17-9.94-17-9.94 1.92-2.85 5.63-3.6 10.07-2.06 7.87 4.03 11.13 9.73 6.93 12z" fill="#2f2848"/><path d="m625.83 247.78 23.8-15.92 17.36-26-12.37-15.72s-41.18-4.11-53 22l-6.35 7-14.27 3.86v18l11.26 5.73z" fill="#efa08d"/><path d="m569.4 214.73s15 22.3 3.26 38.36c-6.78 9.24-15.68 15.29-20.93 32.94-2.59 8.65-16.12 17-30.33 18-42.16-3-110 5.27-159.34 12.73-9.3 1.4-17.95 2.77-25.64 4-13.63-1.21-15.07-18-3.44-25.35 85.61-39.49 144.64-65.55 186.13-74.75 31.71-7.03 50.29-5.93 50.29-5.93z" fill="#efa08d"/><path d="m446.49 435.46 75.31-21.05 65.42 75.47-36.27 25.67-100.22-15.77z" fill="#ff7657"/><path d="m677.76 794.74-9.1 11.62-10-11.62s7.51-52 4.32-98.1c-1.57-22.71-.17-38.62 2-49.44 2.81-14 6.91-19.5 7.46-20.2l.07-.08s-54.71 10-109.83-3.21c-46.17-61.52 15.76-108.16 65.2-114.62 45.76 22.41 115.3 59.18 126.84 80.81 17.45 32.7-44.25 126.48-76.96 204.84z" fill="#efa08d"/><g fill="#e2e2e2"><ellipse cx="549.88" cy="823.09" rx="247.44" ry="15.45"/><ellipse cx="282.16" cy="779.51" rx="247.44" ry="15.45"/><ellipse cx="403.81" cy="801.06" rx="27.49" ry="276.28" transform="matrix(.04972137 -.99876313 .99876313 .04972137 -416.32 1164.58)"/></g><path d="m635.34 164.25a2.81 2.81 0 0 1 -2.23 2.74 2.69 2.69 0 0 1 -.57.06 2.8 2.8 0 0 1 0-5.59 3.55 3.55 0 0 1 .57 0 2.8 2.8 0 0 1 2.23 2.79z" fill="#41395e"/><path d="m635.34 164.25a2.28 2.28 0 1 1 -4.46 0 2.28 2.28 0 1 1 4.46 0z" fill="#665c84"/><path d="m965.17 393.76c0-.88-.12-1.76-.22-2.63a46.82 46.82 0 0 0 -1.73-8.46c-.21-.64-.42-1.29-.66-1.92-.14-.4-.28-.78-.43-1.17a37.48 37.48 0 0 0 -4.57-8.27c-.22-.3-.44-.61-.69-.9a35.08 35.08 0 0 0 -6.5-6.44c-.3-.24-.61-.47-.93-.68a37.45 37.45 0 0 0 -8.44-4.58l-1.19-.44a44.52 44.52 0 0 0 -8.81-2.16c-.59-.09-1.19-.17-1.79-.22h-.11c-.5 0-1-.09-1.51-.12a59 59 0 0 0 -10.9.22l-1.39.19c-.53.06-1.06.14-1.61.23l-2 .33c-2.26.43-4.57 1-6.92 1.65l-1.21.37a90.83 90.83 0 0 0 -9.38 3.41l-1.09.48c-.51.21-1 .45-1.52.69-1.1.5-2.2 1-3.3 1.58s-2.51 1.28-3.76 2l-1 .56c-2.08 1.18-4.19 2.44-6.32 3.8l-1.65 1.09-1 .64q-3.89 2.66-7.37 5.54c-.29.24-.58.47-.86.72q-3.52 3-6.71 6.21l-.79.82c-2.13 2.2-4.14 4.49-6.08 6.88l-.71.88q-2.85 3.58-5.52 7.47-.35.48-.66 1c-1.7 2.51-3.34 5.09-5 7.78-.71 1.18-1.43 2.39-2.14 3.61-1.1 1.9-2.21 3.87-3.29 5.87-.21.35-.39.69-.58 1l-.44.82c-1.44 2.66-2.75 5.27-4 7.82l-.51 1.1c-1.22 2.6-2.33 5.15-3.36 7.64-.36.88-.73 1.75-1.07 2.62-1.3 3.26-2.46 6.43-3.56 9.53-.15.4-.28.8-.43 1.2-1 2.9-2 5.73-2.92 8.5-.26.78-.53 1.55-.79 2.32-4.49 13.06-8.92 24.85-18.17 36.28-7.17 8.86-44.7 40.69-58.33 52.14a6.51 6.51 0 0 0 4.2 11.48 6.39 6.39 0 0 0 4.19-1.54c10.11-8.58 33.71-28.68 54.12-46.7 15.12-13.35 33.93-18 54.85-23.33l1.25-.32 1.77-.46 2.25-.57c2-.52 4-1 6.11-1.61.4-.11.81-.21 1.23-.34 3.26-.88 6.55-1.82 9.89-2.86l1.21-.37.29-.09 2.5-.81c2.24-.73 4.48-1.51 6.74-2.35.39-.14.77-.27 1.14-.43 3-1.12 6.06-2.34 9.11-3.69l1.09-.49c1.57-.7 3.16-1.45 4.74-2.22 1.16-.56 2.31-1.15 3.48-1.75l.21-.11a2.25 2.25 0 0 0 .21-.12c.35-.18.7-.36 1-.55 20.77-11.15 35.4-26.54 43.81-42.52.52-1 1-2 1.49-3 1.06-2.22 2-4.43 2.81-6.65.14-.4.29-.8.43-1.19a72.31 72.31 0 0 0 2.77-10.38c.12-.7.24-1.39.34-2.08a56.58 56.58 0 0 0 .69-11.95zm-127.94 93.33-.75 1.66a2 2 0 0 1 -1.19 1.06l-23.77 8a2 2 0 0 1 -2.41-2.84l10.39-19.64a2 2 0 0 1 1.19-1l2.78-.86a2 2 0 0 1 2.36.95 29.91 29.91 0 0 0 2.88 4.34c.23.3.48.58.74.88a16.13 16.13 0 0 0 6.56 4.73 2 2 0 0 1 1 .7 1.93 1.93 0 0 1 .23 2zm64-19.24-3.23 1.56-.81.36-1.09.5c-3.1 1.38-6.1 2.63-9.1 3.73l-1.15.44c-3.3 1.23-6.49 2.31-9.52 3.23-.94.3-1.88.57-2.79.83-3 .87-5.89 1.6-8.53 2.18l-1.3.28c-2.71.57-5.16 1-7.31 1.27-.66.09-1.28.17-1.87.23s-1.27.14-1.85.17-1 .08-1.47.09a16 16 0 0 1 -8.44-1.66c-.36-.17-.72-.34-1.09-.53a28.49 28.49 0 0 1 -7.42-5.56c-.26-.27-.51-.56-.76-.85a19.86 19.86 0 0 1 -4.47-8.37c-.11-.43-.19-.88-.26-1.32a16.25 16.25 0 0 1 -.17-2.32c0-.9 0-1.93.14-3.06 0-.48.09-1 .14-1.5a70.19 70.19 0 0 1 1.16-7c.13-.65.28-1.31.44-2s.34-1.37.53-2.09c.1-.41.22-.84.34-1.27.85-3.06 1.93-6.36 3.27-9.85.16-.38.31-.77.47-1.15.58-1.49 1.22-3 1.92-4.54.42-.93.85-1.88 1.31-2.83q.39-.83.81-1.65c.18-.35.36-.72.54-1.08q2.09-4.09 4.68-8.36c.2-.33.4-.67.62-1q2.37-3.85 5.21-7.78l.68-.93c1.77-2.41 3.67-4.84 5.72-7.26.23-.29.48-.59.73-.87 1.07-1.24 2.16-2.49 3.3-3.72.92-1 1.9-2 2.92-3l.81-.78a89 89 0 0 1 6.94-6c.29-.24.59-.48.88-.7 2.41-1.85 5-3.62 7.58-5.31.33-.22.66-.42 1-.61 2.65-1.67 5.39-3.23 8.18-4.66.35-.19.69-.37 1-.54 2.91-1.46 5.88-2.78 8.86-3.95 1.1-.44 2.21-.86 3.32-1.23 2.5-.89 5-1.66 7.51-2.3l1.26-.31a71.57 71.57 0 0 1 8.83-1.58c.61-.08 1.22-.13 1.82-.18h.27q.75-.07 1.47-.09a48.54 48.54 0 0 1 11.05.53c.46.08.91.16 1.37.26s.79.16 1.19.25c.71.17 1.41.35 2.1.57a32.93 32.93 0 0 1 6.38 2.59c.35.18.69.37 1 .57.66.38 1.29.77 1.92 1.2a22.92 22.92 0 0 1 5.1 4.75c.25.29.47.6.7.9a26.29 26.29 0 0 1 4 8.8c.11.41.22.84.31 1.27 0 .18.08.38.11.56.13.65.25 1.32.34 2a43.19 43.19 0 0 1 .18 9.48c0 .58-.1 1.17-.18 1.76s-.15 1.19-.25 1.79-.14.92-.23 1.39a66.48 66.48 0 0 1 -2.75 10.4c-.13.39-.27.79-.42 1.19-.27.72-.54 1.45-.83 2.17q-.53 1.31-1.11 2.61-1 2.17-2.05 4.32-.25.53-.54 1.05a87.91 87.91 0 0 1 -4.87 8.17c-.2.33-.42.64-.65 1a87.48 87.48 0 0 1 -5.61 7.38l-.73.87a87.92 87.92 0 0 1 -6.33 6.62c-.27.27-.54.52-.83.77a80.41 80.41 0 0 1 -7.06 5.84c-.3.23-.61.45-.93.67s-1 .68-1.43 1c-2.12 1.43-4.23 2.8-6.34 4.09l-1 .6c-2.73 1.68-5.47 3.23-8.19 4.67l-1 .55c-1.43.78-2.93 1.55-4.44 2.28z" fill="#665c84"/><path d="m444.19 605.19c-147.65 97.5-292.57 141.69-292.57 141.69l-15.47-4.29 8.08-13.35c16.84-7.3 33.24-18 61.8-48.11 3.57-3.76 7.31-7.82 11.29-12.21q4.68-5.14 9.68-10.92c42.25-48.35 88-44.43 88-44.43 12.16-33.72 26.53-61.65 43.1-86 11.55-7.28 37.63-24.64 42.33-18.51l26.53 3.08c15.26 19.98 25.88 51.22 17.23 93.05z" fill="#efa08d"/><path d="m655.32 356.33a59.92 59.92 0 0 1 -26.5 48.6 54.22 54.22 0 0 1 -5.89 3.48l-.74.38a64 64 0 0 0 -18.19 13.67 63.28 63.28 0 0 0 -16.29 34.54 145.29 145.29 0 0 0 -.49 32.9 97.13 97.13 0 0 1 -29.77 4.67c-.85 0-1.7 0-2.54 0s-1.48 0-2.21-.09c-.4 0-.78 0-1.18-.06-.69 0-1.38-.09-2.06-.14h-.07c-.82-.07-1.65-.15-2.47-.24h-.24c-.84-.09-1.69-.2-2.53-.31s-1.44-.19-2.16-.31q-1.83-.27-3.63-.63c-.66-.11-1.3-.25-2-.38-.85-.18-1.69-.37-2.53-.57-.52-.11-1-.24-1.55-.37l-1.67-.43c-.73-.18-1.44-.39-2.15-.59-1.43-.4-2.84-.83-4.25-1.29-.66-.22-1.32-.43-2-.67s-1.58-.53-2.36-.84c-.53-.18-1-.38-1.59-.59-1-.36-2-.75-3-1.17-.47-.18-.94-.38-1.41-.58-2.76-1.15-5.46-2.4-8.12-3.72l-1.72-.86q-4.9-2.52-9.57-5.32c-.56-.34-1.13-.68-1.68-1s-1.2-.74-1.8-1.12-1.28-.81-1.91-1.22c-1.14-.74-2.26-1.48-3.35-2.23-.58-.39-1.15-.78-1.71-1.18l-1.69-1.19c-.75-.53-1.49-1.06-2.23-1.61l-2.07-1.68c-5-3.79-9.73-7.7-14-11.52l-.65-.58-.69-.63-1.33-1.22-1.33-1.23c-.37-.32-.73-.66-1.08-1q-2.64-2.52-5.06-4.91c-.77-.77-1.51-1.53-2.25-2.28-1.21-1.24-2.38-2.46-3.47-3.63-.57-.59-1.1-1.17-1.62-1.73q6.81-5.49 13.85-10.95c47.72-37 54.45-82.82 61.06-120.51 1.77-10.19 3.55-19.77 6.13-28.43 14.38-48.35 41.87-60.84 41.87-60.84a188.1 188.1 0 0 1 17.09 12.69c16.59 13.74 31.8 30.23 43.21 43.79 12.64 15 20.62 26.4 20.62 26.4.63 2.3 1.2 4.72 1.71 7.24 3.15 16.06 3.6 35.79 3.26 51.49z" fill="#ffba5a"/><path d="m559.73 371.57a54 54 0 0 0 11.64 6.28c-2.36 10.54-8.32 21.44-20.41 31.2-13.47 10.88-47.65 23.6-87.64 43l-.69-.63-1.33-1.22-1.3-1.2c-.37-.32-.73-.66-1.08-1q-2.64-2.52-5.06-4.91c-.77-.77-1.51-1.53-2.25-2.28-1.21-1.24-2.38-2.46-3.47-3.63-.57-.59-1.1-1.17-1.62-1.73q6.81-5.49 13.85-10.95c47.72-37 54.45-82.82 61.06-120.51 1.77-10.19 3.55-19.77 6.13-28.43 14.38-48.35 41.87-60.84 41.87-60.84a188.1 188.1 0 0 1 17.09 12.69l-41.71 64.89 4.16 8.95c-11.67 24.48-9.48 56.12 10.76 70.32z" fill="#ff9c37"/><path d="m587.22 489.88c-32.78 32.83-68.22 62.28-104.22 88.47q-14.16 10.27-28.38 19.9c-3.47 2.35-6.92 4.65-10.38 6.94-34.9-16.19-59.28-41-74.57-61-4.69-6.12-8.53-11.79-11.55-16.6 24.65-36.26 54.17-64.55 88.42-92.14.52.56 1.05 1.14 1.62 1.73 1.08 1.17 2.25 2.39 3.47 3.63.74.75 1.48 1.51 2.25 2.28q2.42 2.38 5.06 4.91c.35.33.71.67 1.08 1l1.31 1.22 1.33 1.22.71.62.63.59c4.31 3.82 9 7.73 14 11.52l2.13 1.58c.74.55 1.48 1.08 2.23 1.61l1.69 1.19c.56.4 1.13.79 1.71 1.18 1.09.75 2.21 1.49 3.35 2.23.63.41 1.26.82 1.91 1.22s1.19.76 1.8 1.12 1.12.69 1.68 1q4.67 2.81 9.57 5.32l1.72.86c2.66 1.32 5.36 2.57 8.12 3.72.47.2.94.4 1.41.58 1 .42 2 .81 3 1.17.54.21 1.06.41 1.59.59.78.31 1.57.58 2.36.84s1.32.45 2 .67c1.41.46 2.82.89 4.25 1.29.71.2 1.42.41 2.15.59l1.67.43c.51.13 1 .26 1.55.37.84.19 1.68.39 2.53.57.65.13 1.3.27 2 .38q1.8.36 3.63.63c.72.12 1.44.22 2.16.31s1.68.22 2.53.31h.24c.81.09 1.64.17 2.47.24h.07c.68 0 1.37.11 2.06.14.4 0 .78.05 1.18.06.73.05 1.47.08 2.21.09s1.69 0 2.54 0a97.13 97.13 0 0 0 29.71-4.58z" fill="#ff7657"/><g fill="#efa08d"><path d="m748.85 529.61-1.15 8.5-10-2.21s-4.63-7.7-13.4-20.35a705.47 705.47 0 0 0 -85.67-101.3q-6.93-6.74-14.27-13.45a172.34 172.34 0 0 1 -20.5-21.93c-8.54-11.07-13.83-21.47-16.56-31-5.88-20.52.11-37 10.8-47.28a42.39 42.39 0 0 1 28.51-12c13.14-.14 23.73 9 23.73 9s55.81 77.69 98.51 232.02z"/><path d="m748.85 529.61 7.46 1.19a18.17 18.17 0 0 1 13 9.09l2.38 4.26a7.84 7.84 0 0 1 -1.37 9.46 43.11 43.11 0 0 1 -11.31 8 6 6 0 0 1 -8.07-3l-1-2.21a5.17 5.17 0 0 0 -3.53-2.92c-4.31-1.05-12.51-4.75-8.75-17.57z"/><path d="m298 311.59-33.12-6.74a7.89 7.89 0 0 0 -9.47 7.28 32.08 32.08 0 0 0 2.59 15.18 10.54 10.54 0 0 0 11.78 5.7l8.51-1.87a4.54 4.54 0 0 1 5.4 5.46l-1.29 5.64a3.25 3.25 0 0 0 5.82 2.59l12.49-17.83 6.71-9.34z"/></g><path d="m627.86 509.09c-5.35 24-20.81 69.08-65.2 114.62-22.32-5.37-44.66-14.54-63.56-29.71-24.85-20-43.58-50.47-47.94-96.43l30.58-30.61c27.73 19.92 65 35.89 105.48 22.94 0-.02 17.2 7.7 40.64 19.19z" fill="#ff7657"/><g fill="#665c84"><path d="m677.76 794.74 22.81 11.35c7.28 3.62 4.7 14.58-3.42 14.58h-35.82a8.67 8.67 0 0 1 -8.1-11.77l5.41-14.16z"/><path d="m151.62 746.88-1.62 25.42c-.52 8.11-11.63 10-14.77 2.48l-13.85-33a8.68 8.68 0 0 1 7.72-12l15.16-.49z"/><path d="m667.16 200.37c-27.57-5.73-46.4 8.67-46.4 8.67l-9.53 1.6-9.53 1.58s-5.64-27.15 13.86-41a36.63 36.63 0 0 1 5.18-3.09c22.58-11 44.82 9.3 46.2 26.82.13 1.79.21 3.62.22 5.42z"/></g><path d="m667 205.87a81.84 81.84 0 0 1 -1.09 8.86 109.31 109.31 0 0 1 -13.35 35.49 13 13 0 0 1 -10.56 6.39h-.67a12.91 12.91 0 0 1 -7.92-2.69l-3.78-2.9a41.88 41.88 0 0 1 -3.78-3.26 44.73 44.73 0 0 1 -13.46-27.08l-.34-2.86-.83-7.22 9.53-1.6c6.36 4.91 16.93 8 33.21 1.3a109 109 0 0 1 13.04-4.43z" fill="#efa08d"/><path d="m677.06 203.81a76.93 76.93 0 0 0 -10.06 2.06c-.94.24-1.92.53-2.94.83l-.13.05c-.86.26-1.75.54-2.67.86l-.54.17c-2.13.72-4.38 1.57-6.77 2.54-16.28 6.67-26.85 3.61-33.21-1.3a53.75 53.75 0 0 1 17-7.77 62 62 0 0 1 29.47-.88 38.66 38.66 0 0 1 9.85 3.44z" fill="#665c84"/><g fill="#efa08d"><path d="m613.39 226.3a47.21 47.21 0 0 1 -1-5.6z"/><path d="m625.83 247.78-3.55 5.31-3.66 5.45s-10.14 5.51-22-2.44a24.31 24.31 0 0 1 -8.67-9.65 19.19 19.19 0 0 1 .42-17.45l15.53-7.32a8 8 0 0 0 2 2.3 10.5 10.5 0 0 0 6.64 2.37h.9a44.65 44.65 0 0 0 12.39 21.43z"/><path d="m587.28 347.88a73.53 73.53 0 0 0 3.27 9l.57 1.27c.94 2.08 2 4.18 3.19 6.32.17.32.35.63.53.95.61 1.06 1.25 2.15 1.93 3.24.41.65.82 1.32 1.27 2 .9 1.39 1.85 2.8 2.86 4.21.45.62.9 1.26 1.38 1.89s1 1.38 1.56 2.07a52.42 52.42 0 0 1 -12.4 2.2 47.6 47.6 0 0 1 -20.07-3.22 54 54 0 0 1 -11.64-6.28c-20.24-14.2-22.43-45.84-10.79-70.31 6-12.62 15.69-23.33 28.48-28.77 23.49-10 44.47-5.81 52.28-1.28 12.64 15 20.62 26.4 20.62 26.4s-10.59-9.17-23.73-9c-23.88.28-49.54 23.62-39.31 59.31z"/></g><path d="m571.37 377.85a54 54 0 0 1 -11.64-6.28 37.8 37.8 0 0 1 -8-7.6c6.93-9.94 9.16-22.2 10.06-35.09 0 0 15.33 23.42 9.58 48.97z" fill="#e06855"/><path d="m603.91 221.68a124.62 124.62 0 0 0 -17.71 18.65c-7.72 9.89-16 23.23-20.14 38.93-.2.77-.4 1.55-.58 2.34-3.46 14.59-2.57 31.41-3.69 47.28-.9 12.89-3.13 25.15-10.06 35.09-5.43 7.77-13.73 14.11-26.54 18.21-29.43 9.4-51.13-20.75-32.8-37.87s30.27-11 37.57-47.17c10.48-52 46.64-74 71.71-84.94l.87 4.69.42 2.23a7.94 7.94 0 0 0 .94 2.54z" fill="#fbeed7"/><path d="m336.42 320.77c-12.07 2-21.79 3.7-28 4.82-4.94.89-7.69 1.41-7.69 1.41l-2.73-15.41c2.37-1.1 4.74-2.2 7.08-3.27q14.42-6.66 27.9-12.89c-.24 6.62.15 16.33 3.44 25.34z" fill="#665c84"/><path d="m959.12 396.68-2 1.91-6.27-6.59 6.61-6.31 1.48 1.56c-.09-.67-.21-1.34-.34-2l-.33-.35.22-.21c-.09-.43-.2-.86-.31-1.27l-.69.65-6.29-6.63 2.95-2.82c-.23-.3-.45-.61-.7-.9l-3 2.89-6.3-6.63 2.31-2.21c-.34-.2-.68-.39-1-.57l-2.06 2-4.4-4.63c-.69-.22-1.39-.4-2.1-.57l5.61 5.91-6.61 6.31-6.3-6.63 6.11-5.84c-.46-.1-.91-.18-1.37-.26l-5.53 5.29-5.5-5.78q-.72 0-1.47.09l6.18 6.51-6.61 6.32-6.29-6.64 6.45-6.17c-.6.05-1.21.1-1.82.18l-5.41 5.18-3.42-3.6-1.26.31 3.86 4.07-6.61 6.32-6.3-6.63 1.54-1.46c-1.11.37-2.22.79-3.32 1.23l.18.19-6.6 6.32-2.41-2.6c-.35.17-.69.35-1 .54l2.66 2.8-6.66 6.32-4.23-4.46c-.33.19-.66.39-1 .61l4.41 4.64-6.62 6.31-5.37-5.64c-.29.22-.59.46-.88.7l5.43 5.73-6.61 6.32-5.76-6.06-.81.78 5.76 6.06-6.61 6.33-5.38-5.6c-.25.28-.5.58-.73.87l5.27 5.56-6.61 6.33-4.38-4.63-.68.93 4.25 4.48-6.61 6.31-2.85-3c-.22.33-.42.67-.62 1l2.65 2.79-6.61 6.33-.72-.76c-.18.36-.36.73-.54 1.08l.44.46-1.25 1.19c-.46.95-.89 1.9-1.31 2.83l3.34-3.19 6.3 6.63-6.62 6.31-4.94-5.21c-.16.38-.31.77-.47 1.15l4.6 4.85-6.61 6.32-1.26-1.32c-.12.43-.24.86-.34 1.27l.78.83-1.31 1.26c-.16.68-.31 1.34-.44 2l2.53-2.42 6.3 6.63-6.61 6.33-3.38-3.56c0 .52-.1 1-.14 1.5l2.7 2.84-2.67 2.54c.07.44.15.89.26 1.32l3.19-3 6.3 6.63-5 4.79c.25.29.5.58.76.85l5-4.81 6.29 6.63-3.91 3.74c.37.19.73.36 1.09.53l3.6-3.44 4.84 5.1q.69 0 1.47-.09l-5.5-5.79 6.61-6.33 6.3 6.63-5.56 5.32c.59-.06 1.21-.14 1.87-.23l4.47-4.26 2.84 3 1.3-.28-3.32-3.5 6.61-6.32 6.29 6.63-1.05 1c.91-.26 1.85-.53 2.79-.83l-.14-.14 6.61-6.32 3 3.23 1.2-.59-3.39-3.57 6.61-6.33 5.83 6.14 1.09-.5-6.09-6.42 6.61-6.32 6.29 6.63-6 5.75 3.27-1.56 3.51-3.37 1 1.08 1-.55-1.23-1.31 6.61-6.32 2.81 3 1-.6-3-3.14 6.61-6.33 4.14 4.37c.32-.22.63-.44.93-.67l-4.25-4.48 6.61-6.32 4.7 5c.29-.25.56-.5.83-.77l-4.72-5 6.61-6.31 4.44 4.67.73-.87-4.34-4.58 6.6-6.33 3.35 3.53c.23-.32.45-.63.65-1l-3.18-3.35 6.61-6.33 1.44 1.51q.29-.53.54-1.05l-1.17-1.24 3.22-3.08q.58-1.31 1.11-2.61l-5.11 4.88-6.29-6.63 6.61-6.33 5.62 5.91c.15-.4.29-.8.42-1.19l-5.23-5.5 6.63-6.33 1.35 1.43c.09-.47.17-.93.23-1.39l-.77-.82 1-1c.16-.55.23-1.14.28-1.72zm-2.44-11.87-6.61 6.33-6.3-6.63 6.61-6.33zm-108.77 62.94 6.62-6.33 6.29 6.63-6.61 6.33zm5.47 7.41-6.61 6.33-6.29-6.65 6.61-6.31zm9.39-21.63 6.6-6.32 6.31 6.64-6.62 6.31zm5.47 7.42-6.61 6.32-6.29-6.63 6.61-6.33zm44.22-28.07-6.61 6.33-6.29-6.64 6.61-6.32zm-5.46-7.41 6.61-6.33 6.29 6.64-6.61 6.32zm-8.2 6.28-6.3-6.63 6.61-6.33 6.3 6.64zm-.82.78-6.62 6.32-6.29-6.63 6.61-6.32zm-7.43 7.11-6.63 6.36-6.3-6.63 6.61-6.33zm-7.43 7.1-6.61 6.33-6.29-6.64 6.61-6.32zm-6.65 7.92 6.3 6.64-6.61 6.32-6.3-6.63zm.82-.78 6.61-6.32 6.3 6.64-6.61 6.32zm7.43-7.1 6.61-6.32 6.29 6.63-6.62 6.32zm7.42-7.1 6.61-6.33 6.25 6.65-6.61 6.32zm13.7 1.13 6.29 6.63-6.61 6.32-6.3-6.63zm.81-.79 6.61-6.32 6.29 6.64-6.61 6.32zm7.42-7.1 6.61-6.32 6.31 6.63-6.62 6.33zm7.44-7.1 6.61-6.33 6.29 6.63-6.61 6.33zm.35-14.56 6.61-6.32 6.29 6.63-6.61 6.32zm5.48 7.42-6.63 6.32-6.3-6.63 6.59-6.37zm-13.68-1.14-6.31-6.63 6.61-6.32 6.31 6.63zm-.83.78-6.61 6.33-6.31-6.65 6.61-6.32zm-13.68-1.13-6.29-6.63 6.6-6.32 6.3 6.63zm-.82.78-6.61 6.33-6.3-6.64 6.62-6.32zm-7.43 7.11-6.61 6.32-6.29-6.64 6.6-6.31zm-7.43 7.1-6.61 6.32-6.29-6.63 6.61-6.32zm-7.42 7.1-6.61 6.33-6.3-6.63 6.62-6.33zm-7.44 7.11-6.61 6.33-6.29-6.63 6.61-6.33zm-7.42 7.11-6.61 6.31-6.29-6.63 6.61-6.31zm.43 15.38 6.29 6.63-6.61 6.32-6.3-6.64zm.81-.78 6.61-6.33 6.3 6.63-6.61 6.33zm13.69 1.13 6.29 6.63-6.61 6.32-6.29-6.64zm.81-.79 6.62-6.32 6.29 6.63-6.6 6.33zm7.44-7.1 6.63-6.34 6.29 6.63-6.65 6.37zm7.42-7.11 6.61-6.32 6.3 6.63-6.62 6.33zm13.68 1.14 6.31 6.63-6.61 6.32-6.31-6.63zm.83-.78 6.61-6.33 6.29 6.63-6.61 6.33zm7.42-7.11 6.61-6.33 6.3 6.64-6.63 6.32zm7.43-7.11 6.61-6.31 6.3 6.63-6.63 6.31zm7.43-7.1 6.61-6.32 6.29 6.63-6.6 6.33zm.35-14.56 6.61-6.32 6.3 6.64-6.61 6.31zm7.43-7.11 6.61-6.31 6.3 6.63-6.61 6.33zm7-20.88 6.29 6.63-6.65 6.33-6.3-6.63zm-1.14 13.74-6.61 6.33-6.3-6.63 6.61-6.33zm-13.42-14.09 6.29 6.64-6.61 6.32-6.29-6.63zm-1.13 13.74-6.61 6.33-6.29-6.63 6.61-6.33zm-13.37-14.11 6.3 6.63-6.6 6.37-6.3-6.63zm-1.13 13.73-6.62 6.33-6.29-6.64 6.61-6.32zm-13.38-14.08 6.3 6.63-6.61 6.32-6.29-6.6zm-7.42 7.1 6.29 6.64-6.61 6.32-6.29-6.64zm-7.43 7.1 6.3 6.64-6.61 6.32-6.3-6.63zm-7.43 7.15 6.29 6.63-6.61 6.37-6.29-6.63zm-7.42 7.11 6.29 6.63-6.61 6.32-6.29-6.64zm-7.44 7.09 6.31 6.65-6.61 6.31-6.35-6.64zm-7.42 7.11 6.29 6.63-6.61 6.33-6.29-6.63zm-14 13.44 6.6-6.33 6.3 6.63-6.61 6.33zm6.24 8.22 6.31 6.63-6.61 6.33-6.31-6.63zm-14 13.44 6.61-6.33 6.29 6.63-6.67 6.29zm-.41 14.59 6.61-6.32 6.29 6.64-6.61 6.31zm13.36 14-6.29-6.63 6.61-6.33 6.29 6.63zm1.14-13.74 6.6-6.33 6.31 6.65-6.62 6.31zm13.37 14.09-6.3-6.63 6.62-6.33 6.29 6.63zm1.13-13.74 6.61-6.32 6.33 6.71-6.61 6.32zm13.37 14.09-6.29-6.63 6.61-6.33 6.29 6.64zm7.42-7.11-6.29-6.59 6.61-6.32 6.3 6.63zm7.44-7.1-6.29-6.59 6.61-6.32 6.29 6.63zm1.13-13.74 6.61-6.32 6.29 6.63-6.61 6.33zm13.37 14.09-6.3-6.63 6.61-6.33 6.29 6.64zm7.43-7.11-6.3-6.63 6.62-6.32 6.29 6.64zm7.42-7.1-6.29-6.63 6.61-6.32 6.3 6.63zm7.43-7.1-6.29-6.63 6.61-6.33 6.29 6.63zm7.43-7.11-6.3-6.63 6.62-6.33 6.29 6.65zm14-13.42-6.61 6.31-6.29-6.63 6.61-6.31zm-6.26-8.24-6.24-6.59 6.61-6.33 6.29 6.63zm7.43-7.11-6.3-6.63 6.61-6.33 6.3 6.65z" fill="#f3cf99"/><path d="m667 205.87a81.84 81.84 0 0 1 -1.09 8.86s-6.25 1.47-17 9c-4.64 3.25-10.85 4.4-15.21 4.78a5.63 5.63 0 0 0 -5.11 6.12c.66 7.35 3.31 19.21 13.41 22h-.67a12.91 12.91 0 0 1 -7.92-2.69l-3.78-2.9a41.88 41.88 0 0 1 -3.78-3.26 44.73 44.73 0 0 1 -13.46-27.08l-.34-2.86-.83-7.22 9.53-1.6c6.36 4.91 16.93 8 33.21 1.3a109 109 0 0 1 13.04-4.45z" fill="#ed8b7b"/><path d="m588 246.45a99.76 99.76 0 0 0 -21.9 32.81c4.18-15.7 12.42-29 20.14-38.93a19.31 19.31 0 0 0 1.76 6.12z" fill="#ff9c37"/><path d="m613.4 226.35-1-5.65-.34-2.86-.83-7.22-9.53 1.58 1.29 6.92a7.92 7.92 0 0 0 .95 2.56 124.62 124.62 0 0 0 -17.71 18.65 19.31 19.31 0 0 0 1.76 6.12 83.12 83.12 0 0 1 6.31-5.55 12.36 12.36 0 0 1 17.54 2.35 43.83 43.83 0 0 0 10.47 9.84l3.55-5.31a44.65 44.65 0 0 1 -12.46-21.43z" fill="#e06855"/><path d="m603.9 221.66a20.13 20.13 0 0 1 -6.61-4.33s-37.12 15.67-46.29 50.38-6.23 60.29-31.7 73.84c-31.82 17-20.88 46.67 5.89 40.63-29.43 9.4-51.13-20.75-32.8-37.87s30.27-11 37.57-47.17c10.48-52 46.64-74 71.71-84.94l.87 4.69.42 2.23a7.94 7.94 0 0 0 .94 2.54z" fill="#f3cf99"/><path d="m369.62 544.2c-18.51 30.38-47.52 79.5-47.52 79.5s-60.68 2.84-104.77 45.2q4.67-5.12 9.67-10.9c42.25-48.35 88-44.43 88-44.43 12.16-33.72 26.53-61.65 43.1-86 2.99 4.84 6.83 10.51 11.52 16.63z" fill="#e06855"/><path d="m463.3 452.08c-36.76 17.85-75 61.43-93.68 92.12-4.69-6.12-8.53-11.79-11.55-16.6 24.65-36.26 54.17-64.55 88.42-92.14.52.56 1.05 1.14 1.62 1.73 1.09 1.17 2.26 2.39 3.47 3.63.74.75 1.48 1.51 2.25 2.28q2.42 2.38 5.06 4.91c.35.33.71.67 1.08 1l1.31 1.22 1.33 1.22z" fill="#ff5035"/><path d="m483 578.35q-14.16 10.27-28.38 19.9c-16-40.68-3.41-100.7-3.41-100.7 3.3 35.32 15.14 61.5 31.79 80.8z" fill="#ff5035"/><path d="m628.82 404.93a54.22 54.22 0 0 1 -5.89 3.48l-.74.38a64 64 0 0 0 -18.19 13.67c-6.17-13.1-10.1-28.21-12.58-41.39a52.42 52.42 0 0 0 12.4-2.2 172.34 172.34 0 0 0 20.5 21.93z" fill="#ff9c37"/><path d="m603.84 378.87a52.42 52.42 0 0 1 -12.4 2.2 263.36 263.36 0 0 1 -4.16-33.19 73.53 73.53 0 0 0 3.27 9c.19.43.37.84.57 1.27.94 2.08 2 4.18 3.19 6.32.17.32.35.63.53.95.61 1.06 1.25 2.15 1.93 3.24.41.66.82 1.33 1.27 2 .9 1.39 1.85 2.8 2.86 4.21.45.63.9 1.26 1.38 1.89s1.03 1.42 1.56 2.11z" fill="#e06855"/><path d="m724.28 515.55a705.47 705.47 0 0 0 -85.67-101.3q-6.93-6.74-14.27-13.45a172.34 172.34 0 0 1 -20.5-21.93c-8.54-11.07-13.83-21.47-16.56-31-5.88-20.52.11-37 10.8-47.28 0 0-13.67 36.73 17.17 69.08s93.19 116.53 109.03 145.88z" fill="#ed8b7b"/><path d="m546.55 235.81c-6.78 9.24-13.77 22.1-19 39.75-2.58 8.66-4.36 18.24-6.13 28.43-42.16-3-110 5.27-159.34 12.73 14-2.3 31.19-5.64 48.81-9.29a275.09 275.09 0 0 0 135.65-71.6z" fill="#ed8b7b"/><path d="m667.13 200.35c-27.57-5.73-46.4 8.67-46.4 8.67l-9.52 1.6-9.53 1.58s-5.64-27.15 13.86-41a36.19 36.19 0 0 1 5.15-3.07c-.29.35-.57.71-.84 1.06-9 12 1.06 28.93 16 27.62 17.25-1.55 30.61 3.19 31.28 3.54z" fill="#41395e"/><path d="m660.71 207.78c-2.13.72-4.38 1.57-6.77 2.54-16.28 6.67-26.85 3.61-33.21-1.3a53.75 53.75 0 0 1 17-7.77s-4.66 9.06 5 9.37c6.48.2 13.83-1.62 17.98-2.84z" fill="#41395e"/><path d="m688.67 623.71-23.67 23.49c2.81-14 6.91-19.5 7.46-20.2l.07-.08z" fill="#e06855"/><path d="m308.4 325.59c-4.94.89-7.69 1.41-7.69 1.41l-2.71-15.41c2.37-1.1 4.74-2.2 7.08-3.27a52.92 52.92 0 0 0 3.32 17.27z" fill="#41395e"/><path d="m611.21 210.62-9.53 1.58s-5.64-27.15 13.86-41a36.19 36.19 0 0 1 5.15-3.07c-.69.66-12.92 13.16-9.48 42.49z" fill="#2f2848"/><circle cx="808.87" cy="285.36" fill="#94e061" r="17.64"/><path d="m803.88 302.28a17 17 0 0 1 -3.23-1.3 13.28 13.28 0 0 0 -.94-11.48 14 14 0 0 0 -8.4-5.93 17.44 17.44 0 0 1 .64-3.2 16.3 16.3 0 0 1 11.93 21.91z" fill="#e9eff4"/><path d="m817.29 300.87a17.66 17.66 0 0 1 -22.69-5.12 17.65 17.65 0 0 0 27.24-21.61 17.09 17.09 0 0 0 -1.24-2 17.64 17.64 0 0 1 -3.31 28.69z" fill="#70cf3d"/><path d="m804.64 300.13a13.67 13.67 0 0 1 -.76 2.15l-.21-.06a17.46 17.46 0 0 1 -1.71-.62c-.09 0-1.32-.59-1.31-.62a15.82 15.82 0 0 0 .46-1.57 17.55 17.55 0 0 0 3.53.72z" fill="#d3dce2"/><path d="m826.43 287a17.67 17.67 0 0 1 -.59 3.15 16.34 16.34 0 0 1 -11.74-21.68 17.21 17.21 0 0 1 3 1.25 14 14 0 0 0 .33 10.17 13.3 13.3 0 0 0 9 7.11z" fill="#e9eff4"/><path d="m826.43 287c0 .41-.09.81-.16 1.22 0 .15-.4 1.93-.43 1.93a13.59 13.59 0 0 1 -3.17-1 18.14 18.14 0 0 0 1-3.2 15.86 15.86 0 0 0 2.76 1.05z" fill="#d3dce2"/><path d="m826.43 287v.4a1.36 1.36 0 0 0 0 .2v.2.17.25a2 2 0 0 1 0 .24v.07c0 .09 0 .17-.05.26l-.06.27v.16a.83.83 0 0 0 0 .15 1.46 1.46 0 0 1 0 .2 1.33 1.33 0 0 1 0 .19c0 .13-.06.26-.1.39a13.13 13.13 0 0 1 -3.17-1 17.89 17.89 0 0 0 1-3.2 15.86 15.86 0 0 0 2.38 1.05z" fill="#d3dce2"/><g fill="#ffba5a"><path d="m696.33 799.16a1.5 1.5 0 0 1 .74 2.9c-8 2.38-10.43 5.65-10.46 5.68a1.5 1.5 0 0 1 -2.45-1.73c.12-.17 3-4.11 12.05-6.82z"/><path d="m690 796.42a1.5 1.5 0 0 1 .9 2.84c-7.62 3.27-9.73 6.82-9.75 6.85a1.51 1.51 0 0 1 -2 .57 1.49 1.49 0 0 1 -.58-2c.09-.18 2.49-4.43 11.19-8.15a1.52 1.52 0 0 1 .24-.11z"/><path d="m683.31 793.77a1.5 1.5 0 0 1 1 2.83c-7.5 3.52-9.49 7.14-9.51 7.18a1.51 1.51 0 0 1 -2 .64 1.49 1.49 0 0 1 -.65-2c.09-.18 2.34-4.51 10.91-8.54a1.73 1.73 0 0 1 .25-.11z"/><path d="m154.13 765.49a1.5 1.5 0 0 1 -2.41 1.79c-5.23-6.45-9.2-7.5-9.24-7.51a1.5 1.5 0 1 1 .67-2.92c.2 0 4.94 1.19 10.9 8.54z"/><path d="m154.24 758.58a1.5 1.5 0 0 1 -2.24 1.92c-5.92-5.8-10-6.4-10-6.41a1.5 1.5 0 0 1 .34-3c.21 0 5 .62 11.81 7.24a1.37 1.37 0 0 1 .09.25z"/><path d="m154.14 751.4a1.5 1.5 0 0 1 -2.26 2c-6.11-5.59-10.22-6.05-10.26-6.05a1.51 1.51 0 0 1 -1.36-1.63 1.5 1.5 0 0 1 1.6-1.36c.2 0 5.07.44 12 6.82a1.94 1.94 0 0 1 .28.22z"/></g></svg>