<svg viewBox="0 0 1000 1000" xmlns="http://www.w3.org/2000/svg"><ellipse cx="387.59" cy="928.49" fill="#e2e2e2" rx="284.72" ry="18.59"/><ellipse cx="723.2" cy="934.32" fill="#e2e2e2" rx="196.96" ry="18.59"/><path d="m661.46 909.91-27 15.53a6 6 0 0 0 3.46 10.92h44.31a9 9 0 0 0 8.31-12.28l-7.68-14.17z" fill="#080a0f"/><path d="m578.47 907.48-26.57 18.23a7.11 7.11 0 0 0 4.47 12.63h40.19a9.89 9.89 0 0 0 8.8-14.42l-3.88-15.81z" fill="#080a0f"/><g fill="#ffc857"><path d="m744.45 501.18c-19.72-16.48-51-24.28-83.48-27.47-1.73-.18-3.47-.31-5.2-.45-9.19-.66-18.45-.48-27.78 3.16l-.09-4v-.54a608.85 608.85 0 0 0 -74.9 3.85c-2.5-88.81 5.33-159.34.75-193.19-5.26-38.87-6-68.36-5.84-84 0-4.22.13-7.44.22-9.55s.14-3 .14-3a90.05 90.05 0 0 1 8.13-5.16 135.26 135.26 0 0 1 22.39-10.13 142.94 142.94 0 0 1 27-6.62l14.95-2.19 10.7-1.57.38 1c14.68-.1 42 2 70 16.47 0 0 21.06 125.24 31.15 219.73 4.22 38.7 14.03 61.18 11.48 103.66z"/><path d="m748 491.92-19.22-16.19v-.05c.29-2.35-56.69-61.48-72.71-132.7l-19.21-106.07 62.14-59.14s162.38 84.76 49 314.15z"/><path d="m578.47 278.32-8.47 12.68-2.64 4-12.12 18.3c-111.6 34.7-195.32 94.38-196.62 95.31l-7.08-6.44-10.69-9.72c82.39-110.38 207.44-206.45 207.44-206.45z"/></g><path d="m357.78 425.74-4.61 6.9c-1.65 2.49-4.73 2.9-4.73-.08v-3a6.35 6.35 0 0 0 -6.36-6.34c-.57 0 1.33-.55.75-.39-2.78.78-2.34 3.77-1.9 6.64l.66 4.27c.69 4.6-6.77 8.56-10.76 6.17l-2.09-1.25-2.32-1.38a21.51 21.51 0 0 1 -10.42-18.46v-2.82a20.21 20.21 0 0 1 12.82-18.81l12-4.74 9.21 8.37 8.56 7.79-.22 3.25a13.39 13.39 0 0 1 -.59 13.88z" fill="#efa08d"/><path d="m724 321.72a1 1 0 0 1 -.26.83 1.08 1.08 0 0 1 -1.83-.33l-1-2.81a535 535 0 0 1 -29.07-136.82 9.34 9.34 0 0 1 13.49-9l13.22 6.61a9.31 9.31 0 0 1 5.1 9.45c-.93 7.75-2.34 22.26-2.91 42.54-.13 4.5-.22 9.29-.23 14.34a746.58 746.58 0 0 0 3.49 75.19z" fill="#3f4788"/><path d="m682.84 909.91h-21.38s-22.68-27.61-76.11-212.45c-22.85-78.98-30.46-155.46-32.35-221.73 23.3-2.6 66.54-6.08 108-2-1.31 72.94-3.87 196.66-3.87 196.66z" fill="#291634"/><path d="m744.45 501.18c-.1 1.61-.21 3.24-.34 4.9-.08.9-.15 1.8-.24 2.72-3.78 42-19.3 103.23-61.32 213.36q-7 18.35-15 38.55c-17.73 44.74-40 87-66.08 147.4l-23-.63 48.07-418.48 1.83-15.79v-1.27c10.75.17 21.74.73 32.63 1.79 19.51 1.92 38.61 5.5 55 11.65 10.9 4.04 20.59 9.24 28.45 15.8z" fill="#422750"/><path d="m748 491.92c-1.31 9.53-5.13 20.59-8.37 28.79-2.8 7.09-5.19 12-5.19 12-1.76-12.08-7-24.6-10.74-32.54a7.43 7.43 0 0 0 -11.39-2.55l-2.6 2.12a1.88 1.88 0 0 1 -3-2l.68-2.36a25.84 25.84 0 0 1 6-10.39c.15-.16.31-.31.45-.45a25.76 25.76 0 0 1 7.12-5.09l7.85-3.77z" fill="#efa08d"/><path d="m547.85 315.65c-107.88 35-188 92.05-189.23 93 50.13-52.4 152.69-85.22 166.06-98.16s11.64-47.36 11.64-47.36c3.92 19.98 8.13 38.44 11.53 52.52z" fill="#ffb23a"/><path d="m612.08 368c-35.49-54.4-44.8-127.59-13.08-141.45 48.92-21.4 48.95-44.15 49.51-44.89-8.88 6.89-25.84 8.25-34.05 7.72-5.91-.38-8.36-2.8-8.36-2.8-2.95.5-10 6.52-13 6.33-.32 0-.65 0-1-.06-.93-.08-1.85-.18-2.76-.32-10.92-1.64-20.37-7.31-22.2-13.51a20.33 20.33 0 0 1 -.72-3.28c-3.39 1.55-6.72 3.27-10 5.11-.82.47-1.63 1-2.42 1.42a9.29 9.29 0 0 1 3.92 6.36 7.82 7.82 0 0 1 .11 1.54c-.07 3.87-.16 8.31-.25 13.17 0 1.14 0 2.28-.07 3.46-.34 17.87-.79 40.86-1.29 64-.09 4.21-.17 8.43-.28 12.63-.21 10.1-.45 20.08-.68 29.5-.16 6.91-.34 13.54-.51 19.68a.34.34 0 0 1 0 .1c-.91 37-3.53 86.27-1.93 143a608.85 608.85 0 0 1 74.87-3.81s.45.07.45 0c-.03-1.25 14.02-57.52-16.26-103.9z" fill="#ffb23a"/><path d="m558 190.17c-.09 4.78-.19 10.38-.32 16.63-.33 17.87-.78 40.87-1.28 64-.09 4.21-.17 8.43-.28 12.63-.21 10.1-.45 20.08-.68 29.5-.16 6.91-.34 13.54-.51 19.68a.34.34 0 0 1 0 .1 1.42 1.42 0 0 1 -2.79.22c-1.15-4.47-2.63-10.35-4.31-17.31-3.4-14.08-7.61-32.54-11.53-52.56s-7.5-41.37-9.71-61.56a13.71 13.71 0 0 1 6.54-13.21l10.54-6.39a9.43 9.43 0 0 1 14.23 6.7 7.82 7.82 0 0 1 .1 1.57z" fill="#3f4788"/><path d="m743.87 508.8c-3.78 42-19.3 103.23-61.32 213.36 32.54-96.45 41.36-221.5 41.36-221.5 3.79 7.93 8.78 20 10.54 32.1z" fill="#291634"/><path d="m713.82 484.59c-.14.14-.3.29-.45.45-49.94-6.04-86.83 3.96-86.83 3.96l1.83-15.79v-1.27c10.75.17 21.74.73 32.63 1.79 18.62 1.81 36.91 5.18 52.82 10.86z" fill="#291634"/><path d="m728.8 475.68c.15-1.2 2-41.9-.08-81.23-2-38-7.83-74.67-7.87-75l1 2.81a1.08 1.08 0 0 0 1.83.33 1 1 0 0 0 .26-.83 746.58 746.58 0 0 1 -3.53-75.2c4.48 23.35 13.92 69.32 23.15 92.93 16.33 41.65-13.87 133.3-14.76 136.19z" fill="#ffb23a"/><path d="m645.29 185.82c-8.88 6.89-20.73 8.46-29 8.59a11.25 11.25 0 0 1 -11.22-9.4l-.22-1.27-.42-2.53-2.57-15.21 5.92-16.05 26.81-14.72 5.52-3 6.75 14.1 5.2 17.51a20.51 20.51 0 0 1 -6.77 21.98z" fill="#ed8b7b"/><path d="m656.09 110.89-8.4 30.52-14 4.38-14.62 4.59-28.84 10.09-11.49-16.82c.11-1.71-2.44-3.37-5.08-5.27-.78-.56-1.57-1.15-2.31-1.74-2.46-2-4.27-4.37-2.93-7.27a0 0 0 0 0 0 0 9.81 9.81 0 0 1 2.46-3c9.81-8.69 11.21-21 13.73-35s14.28-21 14.28-21l29.41-2.52 17.44 21.15z" fill="#efa08d"/><path d="m589.13 80.16s10.7 6.43 28.45 9.69c24.66 4.53-9.47 27-9.86 41.39s-5.07 17.5-11.3 14.69c0 0-5.65 15.84.19 14.41s41-5.4 47.69-9.65 17.78-51.21 18.37-52.77-32.93-33.51-34.49-33.92-39.05 16.16-39.05 16.16z" fill="#ed8b7b"/><path d="m634.59 135.22c0 .92 0 1.87-.08 2.81-.13 2.51-.37 5.13-.77 7.76-.33 2.23-.74 4.47-1.28 6.7a67 67 0 0 1 -3 9.67l-.06.13-1.54 3.47a41.71 41.71 0 0 1 -5 8 28.75 28.75 0 0 1 -18 10 38.42 38.42 0 0 1 -7.86.5 44.93 44.93 0 0 1 -4.78-.45 41.56 41.56 0 0 1 -5.43-1.2c-8.49-2.4-15.25-7.18-16.76-12.32a20.14 20.14 0 0 1 -.71-3.27c-.89-6.35 1.79-10 3-13.79a10 10 0 0 0 .15-6.64c-.35-1.06-.7-2.15-1-3.25a18.06 18.06 0 0 1 -.55-3 .32.32 0 0 1 0-.07 7.13 7.13 0 0 1 .42-3.64c.8-1.84 4.35-2.64 8.5-2.52 6.45.17 14.34 2.55 15.51 6.74 1.47 5.24 2.76 11.31 16 5.95s7.44-29.09 16.41-31.14c4.37-.98 6.99 7.93 6.83 19.56z" fill="#333e51"/><path d="m676.08 132.25a41.07 41.07 0 0 1 -6.55 10.11c-9.57 10.76-21.07 10.87-21.07 10.87-9.2-4.09-11.6-14-11.6-14a5.94 5.94 0 0 0 6.32-.63c5.12-3.89 6.71-15.89 3.91-21.36-3.75-7.34-12.49-.86-12.49-.86a35.62 35.62 0 0 0 1.72-21.24 34.51 34.51 0 0 0 -4.57-11.31s-32.82.84-42.62-3.67c-11.62-5.37-12.49-19.1-1.38-28.39 18.75-15.7 36.32 12.23 69.74 22.68s28.32 37 18.59 57.8z" fill="#333e51"/><path d="m648.46 153.23c-11.11 29-43.57 30.54-43.57 30.54a28.75 28.75 0 0 0 18-10c7.54-9.22 11-23.55 11.66-35.68 2.33-1.57 8.14-6.21 8.29-13.73.17-9.43-8.2-7.9-8.2-7.9s8.74-6.48 12.49.86-.35 26.26-10.23 22c-.04-.06 2.36 9.82 11.56 13.91z" fill="#e06855"/><path d="m579.9 134.12c-4.15-.12-7.7.68-8.5 2.52-2.46-2-4.27-4.37-2.93-7.27a0 0 0 0 0 0 0s1.13 4.72 5.67 2.86 5.76 1.89 5.76 1.89z" fill="#ed8b7b"/><g fill="#1e2635"><path d="m629.4 162.29-1.54 3.47a41.71 41.71 0 0 1 -5 8 28.75 28.75 0 0 1 -18 10 38.42 38.42 0 0 1 -7.86.5 44.93 44.93 0 0 1 -4.78-.45 41.56 41.56 0 0 1 -5.43-1.2c-8.49-2.4-15.25-7.18-16.76-12.32a20.14 20.14 0 0 1 -.71-3.27c-.89-6.35 1.79-10 3-13.79a10 10 0 0 0 .15-6.64c-.35-1.06-.7-2.15-1-3.25a18.06 18.06 0 0 1 -.55-3c.17.64 1.6 7.88 8 11.25 7.44 3.9-6.27 20.32 16.63 26.91 21.99 6.31 32.92-14.36 33.85-16.21z"/><path d="m640.34 87.51-4 7.63a34.51 34.51 0 0 0 -4.57-11.31l6.07-.29a2.71 2.71 0 0 1 2.5 3.97z"/><path d="m669.53 142.34c-9.57 10.76-21.07 10.87-21.07 10.87-9.2-4.09-11.6-14-11.6-14a5.94 5.94 0 0 0 6.32-.63s14.08 12.88 26.35 3.76z"/></g><path d="m467.57 691.71 3.25 3.12a2.35 2.35 0 0 1 -1 4l-5.11 1.43a2.33 2.33 0 0 1 -2.31-.62l-2.4-2.5a2.36 2.36 0 0 1 .65-3.77l4.29-2.08a2.35 2.35 0 0 1 2.63.42z" fill="#ffc857"/><rect fill="#897c7c" height="12.87" rx="6.44" transform="matrix(-1 0 0 -1 943.66 1432.59)" width="48.93" x="447.36" y="709.86"/><path d="m310.72 599.38 2.23 2.07 11.27 10.45 211.49 196.22a7.5 7.5 0 0 0 10.21-11l-215.83-200.22-9.17-8.51a7.3 7.3 0 0 0 -2.95-1.68 7.49 7.49 0 0 0 -7.25 12.67z" fill="#bcbab8"/><path d="m712.13 737.55a19.18 19.18 0 0 1 4.79.61l.37.09 46.52 11.09.27.07h.28a25.76 25.76 0 0 1 24.46 25.75 24.61 24.61 0 0 1 -.13 2.55 25.81 25.81 0 0 1 -36.89 20.69l-3.5-2h-.07-.08l-43.69-22-.46-.4a19.15 19.15 0 0 1 8.14-36.48zm1.7-.95a20.84 20.84 0 0 0 -8.83 39.7l41.5 20.9 3.3 1.91a27.1 27.1 0 0 0 39-21.63c.08-.88.13-1.77.13-2.67a27.09 27.09 0 0 0 -25.7-27.06l-44.11-10.51a20.44 20.44 0 0 0 -5.21-.66z" fill="#422750"/><path d="m601.88 775.17a161.19 161.19 0 0 0 321.59 15.89q.78-7.84.78-15.89a161.19 161.19 0 0 0 -152.85-161q-4.14-.21-8.34-.21a161.18 161.18 0 0 0 -161.18 161.21zm20.58 0a140.61 140.61 0 1 1 281.21 0q0 3.83-.2 7.59a140.61 140.61 0 0 1 -281-7.59z" fill="#5c5656"/><path d="m192.08 775.18a28.8 28.8 0 0 0 57.45 2.82c.09-.94.14-1.89.14-2.84a28.81 28.81 0 0 0 -27.31-28.76c-.49 0-1 0-1.49 0a28.79 28.79 0 0 0 -28.79 28.78z" fill="#ffc857"/><path d="m209.12 775.18a11.75 11.75 0 0 0 23.45 1.16 11.12 11.12 0 0 0 .06-1.16 11.76 11.76 0 0 0 -11.15-11.74h-.61a11.76 11.76 0 0 0 -11.75 11.74z" fill="#3f4788"/><circle cx="540.82" cy="798.06" fill="#ffc857" r="49.3"/><path d="m540.82 748.76v98.6c24.57 0 70-17.79 109.32-35.58s72.47-35.58 72.47-35.58l-10.48-41.65-100.6 8.34-11.38 1z" fill="#ffc857"/><path d="m433.57 377.11c-3.3-.66-6.33-1.17-9.5-1.67s-6.26-.93-9.41-1.32c-6.29-.77-12.61-1.34-19-1.63a151.09 151.09 0 0 0 -19.36.25c-6.52.59-13.19 1.58-19.88 4.33a29.34 29.34 0 0 0 -9.63 6.2 24.76 24.76 0 0 0 -5.66 10.37 52.7 52.7 0 0 0 -1.79 10.07c-.29 3.29-.37 6.53-.34 9.73a169.13 169.13 0 0 0 1.43 18.94c.8 6.25 1.81 12.36 3.12 18.58a3.51 3.51 0 0 0 6.9-1.22v-.09c-.85-5.91-1.46-12-1.84-18a163.73 163.73 0 0 1 -.19-18c.16-3 .43-5.88.87-8.71a42 42 0 0 1 1.94-8 14.23 14.23 0 0 1 3.35-5.57 18.31 18.31 0 0 1 6.12-3.26c4.85-1.65 10.58-2.24 16.32-2.35a139.22 139.22 0 0 1 17.58.92c5.91.65 11.83 1.58 17.72 2.69 2.94.56 5.88 1.17 8.8 1.82s5.9 1.37 8.61 2.1h.06a8.3 8.3 0 0 0 4.33-16z" fill="#422750"/><path d="m329.78 539.62 2.93 3.73 12.29 15.56 101 128.33a98.78 98.78 0 0 0 103.39 34.36l31.36-8.42a7.5 7.5 0 1 0 -3.89-14.48l-31.36 8.42a83.86 83.86 0 0 1 -87.74-29.12l-106.45-135.29-9.74-12.37a7.5 7.5 0 0 0 -11.79 9.28z" fill="#bcbab8"/><path d="m220.87 779.18a4 4 0 0 0 3.17-1.56l34.73-45a247.1 247.1 0 0 0 38.51-71.62c30.62-90 67.37-198.8 68.6-206 1.87-10.88-11.43-16.53-19.59-18.16a4 4 0 0 0 -1.56 7.85c3 .61 14.13 3.92 13.27 9s-26.41 81.61-68.29 204.73a239.16 239.16 0 0 1 -37.27 69.39l-34.73 45a4 4 0 0 0 .72 5.61 3.91 3.91 0 0 0 2.44.76z" fill="#bcbab8"/><path d="m59.69 775.17a161.19 161.19 0 0 0 321.59 15.89q.78-7.84.78-15.89a161.19 161.19 0 0 0 -152.85-161q-4.14-.21-8.34-.21a161.18 161.18 0 0 0 -161.18 161.21zm20.58 0a140.61 140.61 0 1 1 281.21 0q0 3.83-.2 7.59a140.61 140.61 0 0 1 -281-7.59z" fill="#625757"/><path d="m226.38 607 2.83 7.22a161.19 161.19 0 0 1 152.85 161q0 8-.78 15.89l7.55 3.14a6.35 6.35 0 0 0 8.77-5.36q.52-6.76.52-13.67a177.27 177.27 0 0 0 -165.43-176.91 6.36 6.36 0 0 0 -6.31 8.69z" fill="#422750"/><path d="m768.57 607 2.83 7.22a161.19 161.19 0 0 1 152.85 161q0 8-.78 15.89l7.53 3.09a6.35 6.35 0 0 0 8.77-5.36q.53-6.76.52-13.67a177.27 177.27 0 0 0 -165.41-176.86 6.36 6.36 0 0 0 -6.31 8.69z" fill="#422750"/><path d="m315.16 598.34a2.49 2.49 0 0 0 .91-4.82l-39.91-15.62a16.29 16.29 0 0 1 -9.69-10.4l-3.18-10.19a2.5 2.5 0 1 0 -4.77 1.48l3.17 10.2a21.33 21.33 0 0 0 12.65 13.57l39.91 15.61a2.44 2.44 0 0 0 .91.17z" fill="#ffc857"/><g fill="#bcbab8"><path d="m309 605.55 5.8 1.94a4.76 4.76 0 0 0 6-3l4.14-12.36 13.77-41.13 5.7-17 4.22-12.6-13.71-8.53-28.92 86.65a4.76 4.76 0 0 0 3 6.03z"/><path d="m334.06 516.48 14.31 4.79a2.62 2.62 0 0 0 3.45-2.51l-.13-11a2.62 2.62 0 0 0 -1.79-2.45l-7.45-2.49a2.61 2.61 0 0 0 -2.9.88l-6.73 8.72a2.61 2.61 0 0 0 1.24 4.06z"/><path d="m589.26 646.44a6.35 6.35 0 0 0 .49.64 7.49 7.49 0 0 0 9.93 1.34l5.53-3.77 7.11-4.84 5.91-4 58.24-39.68a64 64 0 0 1 29.79-10.78l116.56-11.26a26.13 26.13 0 0 1 23.55 41.51l-93.73 127.22-9.15 12.42-3.59 4.87a7.5 7.5 0 1 0 12.1 8.89l.21-.29 9.79-13.26 96.5-131a41.13 41.13 0 0 0 -37.08-65.33l-116.61 11.27a79.07 79.07 0 0 0 -36.81 13.31l-55.71 37.95-6.5 4.43-13 8.87-1.56 1.05a7.74 7.74 0 0 0 -.62.47 7.5 7.5 0 0 0 -1.35 9.97z"/><path d="m585.5 629.24 5.36 4.19 1.94 1.57 12.41 9.7 7.11 5.56 118.92 93a76 76 0 0 1 12.25 12.06 75.65 75.65 0 0 1 12.51 22.34 7.5 7.5 0 0 0 14.15-5 90.84 90.84 0 0 0 -17.5-29.87 91.79 91.79 0 0 0 -12.17-11.46l-122.25-95.55-5.91-4.61-6.5-5.09-11.08-8.66a7.36 7.36 0 0 0 -2.47-1.27 7.5 7.5 0 0 0 -6.77 13.09z"/><path d="m206 466.65 5.52 90.35a13.71 13.71 0 0 0 13.69 12.88h59a13.72 13.72 0 0 0 13.34-10.51l7.06-29.35 10.84-45a13.73 13.73 0 0 0 -8.22-15.94l-22.23-8.9a122 122 0 0 0 -50.94-8.73l-15 .65a13.73 13.73 0 0 0 -13.06 14.55z"/></g><path d="m690 756.69a22.16 22.16 0 0 0 12.73 20 22.15 22.15 0 1 0 15-41.5 22.16 22.16 0 0 0 -27.73 21.5z" fill="#ffc857"/><path d="m729.54 775.17a33.54 33.54 0 0 0 14.61 27.7 33.8 33.8 0 0 0 18.91 5.83 33.53 33.53 0 0 0 33.36-30.22 32.76 32.76 0 0 0 .16-3.31 33.5 33.5 0 0 0 -31.79-33.46c-.57 0-1.14-.05-1.73-.05a33.51 33.51 0 0 0 -33.52 33.51z" fill="#ffc857"/><path d="m750.25 775.18a12.79 12.79 0 0 0 5.59 10.58 11.44 11.44 0 0 0 1.55.91 12.82 12.82 0 0 0 18.42-10.23c0-.41.07-.84.07-1.26a12.82 12.82 0 0 0 -12.15-12.8h-.67a12.81 12.81 0 0 0 -12.81 12.8z" fill="#3f4788"/><path d="m502.28 798.06a38.53 38.53 0 0 0 16.79 31.84 37 37 0 0 0 4.69 2.73 38.56 38.56 0 0 0 55.41-30.77c.12-1.25.19-2.52.19-3.8a38.53 38.53 0 0 0 -36.56-38.48c-.65 0-1.31-.06-2-.06a38.54 38.54 0 0 0 -38.52 38.54z" fill="#3f4788"/><path d="m854 555a92.46 92.46 0 0 0 65.82-27.26l17.84-17.74a7.5 7.5 0 0 0 -10.6-10.61l-17.83 17.83a77.55 77.55 0 0 1 -55.16 22.78l-166.57-2.34h-.11a7.5 7.5 0 0 0 -.11 15z" fill="#ffc857"/><path d="m696.14 586.92a8 8 0 0 0 1.92-.25 7.5 7.5 0 0 0 5.34-9.17l-9-34.26a7.5 7.5 0 0 0 -14.51 3.83l9 34.26a7.52 7.52 0 0 0 7.25 5.59z" fill="#bcbab8"/><path d="m590 610.1 12.38 13.19.43-22.84h-8.61a5.73 5.73 0 0 0 -4.2 9.65z" fill="#191f1f"/><path d="m601.96 646.87 3.25-2.22 7.11 5.56v-28.56l-6.5 4.43-3.42-2.67z" fill="#8b8885"/><rect fill="#9d8f8f" height="12.87" rx="6.44" transform="matrix(-1 0 0 -1 1144.89 1641.46)" width="48.93" x="547.98" y="814.29"/><path d="m338.71 550.97 6.25 7.94 6.35-16.2-6.9-8.76z" fill="#8b8885"/><path d="m318.89 607 5.33 4.94 5.87-15-5.15-4.78-4.14 12.36a4.73 4.73 0 0 1 -1.91 2.48z" fill="#8b8885"/><g fill="#ffc857"><path d="m572.8 908.47a1 1 0 0 1 1.82.72 9.61 9.61 0 0 0 4.17 8.06 1 1 0 0 1 .3 1.43 1 1 0 0 1 -1.42.31c-.22-.14-5.39-3.54-5.12-9.89a1.07 1.07 0 0 1 .25-.63z"/><path d="m568 911.75a1 1 0 0 1 1.82.72c-.22 5.17 4.12 8 4.17 8.06a1 1 0 1 1 -1.12 1.74c-.22-.14-5.39-3.54-5.11-9.89a1.06 1.06 0 0 1 .24-.63z"/><path d="m563 914.76a1 1 0 0 1 .83-.36 1 1 0 0 1 1 1.08c-.23 5.18 4.12 8 4.16 8.06a1 1 0 0 1 .32 1.43 1 1 0 0 1 -1.43.31c-.22-.14-5.39-3.54-5.12-9.89a1 1 0 0 1 .24-.63z"/><path d="m655.07 910.27a1 1 0 0 1 .83-.36 1 1 0 0 1 1 1.07 9.64 9.64 0 0 0 4.17 8.07 1 1 0 0 1 -1.12 1.74c-.22-.15-5.39-3.54-5.12-9.9a1 1 0 0 1 .24-.62z"/><path d="m650.23 913.54a1.05 1.05 0 0 1 .83-.36 1 1 0 0 1 1 1.08c-.22 5.18 4.12 8 4.17 8.06a1 1 0 1 1 -1.12 1.74c-.22-.14-5.39-3.54-5.11-9.89a1.06 1.06 0 0 1 .23-.63z"/><path d="m645.24 916.56a1 1 0 0 1 .83-.37 1 1 0 0 1 1 1.08c-.23 5.18 4.12 8 4.16 8.06a1 1 0 0 1 .32 1.43 1 1 0 0 1 -1.43.31c-.22-.14-5.39-3.54-5.12-9.89a1 1 0 0 1 .24-.62z"/></g></svg>