<svg viewBox="0 0 1000 1000" xmlns="http://www.w3.org/2000/svg"><path d="m498.23 687.71-72.27-20s-75.56-27.17-66.68-91.69l107.07-37-7.35-100.35-84.22-24.62-8.84-60.24 24.89-85.81 81 41.75 78.92 187.25 22.72-13.19 55.91 54.67-78.63 121.06z" fill="#6d4741"/><ellipse cx="508.99" cy="829.56" fill="#e2e2e2" rx="357.25" ry="30.41"/><path d="m195.57 513.07 5.32-6.91 8-10.41a12.19 12.19 0 0 0 -.58-14.85l-61.79-64.17a5 5 0 0 0 -8.79 4.23l24.91 93.8a963.93 963.93 0 0 0 23.7 128.52s42 25.58 59.73-28.83c-22.52-28.52-45.73-64.56-50.5-101.38z" fill="#6d4741"/><path d="m783.72 826-61.32-34s1.38-2.39 3.76-6.77c1-1.85 2.2-4 3.54-6.59 10.88-20.38 31.86-61.67 49.17-107.19-39-76.49-81 3.06-81 3.06 4 56.1-14.61 117.49-14.61 117.49l-9.85 29.78a11.19 11.19 0 0 0 10.59 14.64h97a5.56 5.56 0 0 0 2.72-10.42z" fill="#6d4741"/><path d="m528.82 629.72q-3.51 7.5-7.21 15v.06s-38.29 1.24-55.22-6.29l-.28-.13a170.66 170.66 0 0 0 32.57-1.89 219.43 219.43 0 0 0 30.14-6.75z" fill="#03080e"/><path d="m316.86 753.68-5-25.83c1.32-9.33 2.72-18.1 4.17-26.4z" fill="#03080e"/><g fill="#322425"><path d="m200.89 506.16-5.32 6.91h-2.64a1.56 1.56 0 0 1 -.65-3z"/><path d="m726.16 785.18c-2.38 4.38-3.76 6.77-3.76 6.77h-3.78a2 2 0 0 1 -.67-3.88z"/><path d="m228.76 210.6s-3.45 3.94-8.85 10.74l-7.15-25.69z"/><path d="m168.79 305.03-.02.02h-7.61l9.57-4.68z"/></g><path d="m324.06 364.12c-21.09 16.25-33.23 58-58 64.2-14.32 3.57-25.36 2.15-33.8-2.62-30.26-17.12-26.86-77.51-20.73-105.14 7.84-35.3 0-88.3 0-88.3-4.12-17.86 17.23-49.49 17.23-49.49 7 6.47 46.13 26.49 55 40.64 17 27 27.95 49.28 39.82 70.55 0 0 6.51 22.07 6.61 22.24 1.18 2.23 18.17 22.25-6.13 47.92z" fill="#ff5f34"/><path d="m573.47 483.78c-.71 39.46-8.2 84.37-13.51 111.66a44.46 44.46 0 0 1 -30.89 34.2l-.25.08c-10.63 3.13-21.88 36.63-31.37 38-101.95 15.28-138.29-91.9-138.29-91.9 15.27-22.78 30.41-34.18 41.52-53.31 26.65-45.92.64-82.64-25.93-108.46 17.33-.22 32.69-5.07 43.37-17.26 47.29-54-27.29-128.8-27.29-128.8 17.21 4.26 40.78 7.49 72.09 13 41.29 7.27 46.65 24.14 51.18 44.14v.08c1.24 5.43 2.41 11.11 4.24 16.89 2.31 7.28 6.78 13.64 12.22 20.4 14.73 18.3 36.59 39.59 41.78 90.43a251 251 0 0 1 1.13 30.85z" fill="#f38eb4"/><path d="m390.83 268a114.45 114.45 0 0 1 -14.42-4.44 236.86 236.86 0 0 0 -26.47-40.14c-25.76-32-59.73-60-89.74-73.95-17.34-8.08-33.36-11.46-45.72-8.19-54.26 14.32-73.09 161.25-73.09 161.25l-3 9.44a93.83 93.83 0 0 0 .35 58.73l4.45 13.22a14.16 14.16 0 0 0 24.33 4.52l.52-.64a27.93 27.93 0 0 0 6.42-18.26l-.46-25.37a2.32 2.32 0 0 1 3.76-1.86l10.18 8.06a2.11 2.11 0 0 0 3.18-2.64l-22.35-42.68c11.24-27.75 29.37-54.8 42.76-72.79 3.1-4.17 5.95-7.83 8.38-10.92 5.4-6.8 8.85-10.74 8.85-10.74 20.35 18.83 53.5 83.64 71.6 116l.13.25a285.81 285.81 0 0 0 23.57 37.23 170.31 170.31 0 0 0 20.57 23.15c7.51 6.89 18.88 15.86 30.12 26.78 17.33-.22 32.69-5.07 43.37-17.26 47.29-53.94-27.29-128.75-27.29-128.75z" fill="#6d4741"/><path d="m528.82 629.72c-2.34 5 24.24 14.59 21.77 19.57l-17.32 21c-7.23 14.59-15.1 8.7-35 17.42-47.64 80.29-110.61 146.29-166.43 148.63-77.86 3.32-122-101.94-145.48-193.06 0 0 40-7.32 59.73-28.83 16.28 20.61 32.19 37.29 40.51 47.52 18.31 22.45 24.33 59.5 25.18 65.14l.09.74c1.32-9.33 2.72-18.1 4.17-26.4 11.76-67.28 27.52-102.38 43.12-125.63l.12.24c2.17 4.16 32.21 59.34 106.79 62.28a170.66 170.66 0 0 0 32.57-1.89 219.43 219.43 0 0 0 30.18-6.73z" fill="#232a32"/><path d="m349.94 223.41c-1.64-2-3.31-4-5-6-25.06-29.43-56.64-54.84-84.74-67.91.7-.15 16.27-3.29 26.16 1.28 10.12 4.66 21.34 9.23 27.21 7.77 4.83-1.18 9-.15 11.59 2.21a7.85 7.85 0 0 1 1.79 2.27c1.85 3.47.72 5.53 3.29 7.83a10.26 10.26 0 0 0 1.07.85c3 2 17.68 13.83 23.06 27.47 3.15 7.99 3.1 16.61-4.43 24.23z" fill="#5b3834"/><path d="m778.87 671.4c-35.67-9.73-81 3.06-81 3.06-4-56.09 0-90 0-90a261.67 261.67 0 0 1 -21.57 18.66 450.36 450.36 0 0 1 -104.47 61.09 442.49 442.49 0 0 1 -73.58 23.46c11.13-18.76 21.42-38.31 30.59-58l.25-.08a44.46 44.46 0 0 0 30.91-34.15c5.31-27.29 12.8-72.2 13.51-111.66h.06s188.54-50.07 225.58 29.32c17.38 37.28 1.47 101.12-20.28 158.3z" fill="#232a32"/><path d="m571.81 664.25a442.49 442.49 0 0 1 -73.58 23.46c11.13-18.76 21.42-38.31 30.59-58l.25-.08a44.46 44.46 0 0 0 30.93-34.19c5.31-27.29 12.8-72.2 13.51-111.66-.04 0 21.49 98.44-1.7 180.47z" fill="#03080e"/><path d="m324.06 364.12c-21.09 16.25-33.23 58-58 64.2-14.32 3.57-25.36 2.15-33.8-2.62 80.09-10.67 20.85-182.57 20.85-182.57 17 27 35.33 62.24 47.2 83.51l.13.25a285.81 285.81 0 0 0 23.62 37.23z" fill="#f7291f"/><path d="m530.56 362.48c-3.31 6-9.16 11.77-16.07 16.77-11.13 8.08-18.75-.24-6.42-13.37 13.29-14.16 6.26-38.35 6-40.69 1.24 5.43 2.41 11.11 4.24 16.89 2.34 7.28 6.81 13.64 12.25 20.4z" fill="#e6547d"/><path d="m702.45 548.25-4.6 36.25a261.67 261.67 0 0 1 -21.57 18.66z" fill="#03080e"/><g fill="#322425"><path d="m330.22 170.84a10.9 10.9 0 0 1 -1.66 6.38c-1.89 2.51-6.38-1.14-4.5-3.89s1.12-12.1 1.08-12.59a7.85 7.85 0 0 1 1.79 2.27c1.85 3.47.72 5.53 3.29 7.83z"/><path d="m349.94 223.41c-1.64-2-3.31-4-5-6 9.89-5.39 9.43-18.21 9.43-18.21 3.15 7.97 3.1 16.59-4.43 24.21z"/></g></svg>