<?xml version="1.0" standalone="no"?>
<!DOCTYPE svg PUBLIC "-//W3C//DTD SVG 1.1//EN"
"http://www.w3.org/Graphics/SVG/1.1/DTD/svg11.dtd">

<svg width="861" height="431" view_box="0 0 861 431"
xmlns="http://www.w3.org/2000/svg"
xmlns:link="http://www.w3.org/1999/xlink">\n\n<desc>Généré par Mocodo 2.3.7 le Mon, 01 Mar 2021 06:17:45</desc>

<rect id="frame" x="0" y="0" width="861" height="431" fill="#f7f7f7" stroke="none" stroke-width="0"/>

<!-- Association get -->
<line x1="575" y1="245" x2="679" y2="388" stroke="#4393c3" stroke-width="2"/>
<text x="638" y="322.261389222" fill="#b2182b" font-family="Verdana" font-size="12">1,1</text>
<line x1="790" y1="388" x2="679" y2="388" stroke="#4393c3" stroke-width="2"/>
<text x="701" y="405.0" fill="#b2182b" font-family="Verdana" font-size="12">0,N</text>
<g id="association-get">
	<path d="M 682 363 a 14 14 90 0 1 14 14 V 388 h -34 V 377 a 14 14 90 0 1 14 -14" fill="#92c5de" stroke="#92c5de" stroke-width="0"/>
	<path d="M 696 388.0 v 11 a 14 14 90 0 1 -14 14 H 676 a 14 14 90 0 1 -14 -14 V 388.0 H 34" fill="#d1e5f0" stroke="#d1e5f0" stroke-width="0"/>
	<rect x="662" y="363" width="34" height="50" fill="none" rx="14" stroke="#4393c3" stroke-width="2"/>
	<line x1="662" y1="388" x2="696" y2="388" stroke="#4393c3" stroke-width="1"/>
	<text x="669" y="380.7" fill="#000000" font-family="Verdana" font-size="12">get</text>
</g>

<!-- Association deserve -->
<line x1="280" y1="245" x2="181" y2="388" stroke="#4393c3" stroke-width="2"/>
<text x="207" y="310.171051662" fill="#b2182b" font-family="Verdana" font-size="12">1,1</text>
<line x1="69" y1="388" x2="181" y2="388" stroke="#4393c3" stroke-width="2"/>
<text x="121" y="405.0" fill="#b2182b" font-family="Verdana" font-size="12">0,N</text>
<g id="association-deserve">
	<path d="M 198 363 a 14 14 90 0 1 14 14 V 388 h -62 V 377 a 14 14 90 0 1 14 -14" fill="#92c5de" stroke="#92c5de" stroke-width="0"/>
	<path d="M 212 388.0 v 11 a 14 14 90 0 1 -14 14 H 164 a 14 14 90 0 1 -14 -14 V 388.0 H 62" fill="#d1e5f0" stroke="#d1e5f0" stroke-width="0"/>
	<rect x="150" y="363" width="62" height="50" fill="none" rx="14" stroke="#4393c3" stroke-width="2"/>
	<line x1="150" y1="388" x2="212" y2="388" stroke="#4393c3" stroke-width="1"/>
	<text x="157" y="380.7" fill="#000000" font-family="Verdana" font-size="12">deserve</text>
</g>

<!-- Association create -->
<line x1="575" y1="245" x2="449" y2="127" stroke="#4393c3" stroke-width="2"/>
<text x="491" y="200.939229308" fill="#b2182b" font-family="Verdana" font-size="12">1,1</text>
<line x1="280" y1="245" x2="449" y2="127" stroke="#4393c3" stroke-width="2"/>
<text x="332" y="223.862009522" fill="#b2182b" font-family="Verdana" font-size="12">0,N</text>
<g id="association-create">
	<path d="M 462 102 a 14 14 90 0 1 14 14 V 127 h -54 V 116 a 14 14 90 0 1 14 -14" fill="#92c5de" stroke="#92c5de" stroke-width="0"/>
	<path d="M 476 127.0 v 11 a 14 14 90 0 1 -14 14 H 436 a 14 14 90 0 1 -14 -14 V 127.0 H 54" fill="#d1e5f0" stroke="#d1e5f0" stroke-width="0"/>
	<rect x="422" y="102" width="54" height="50" fill="none" rx="14" stroke="#4393c3" stroke-width="2"/>
	<line x1="422" y1="127" x2="476" y2="127" stroke="#4393c3" stroke-width="1"/>
	<text x="429" y="119.7" fill="#000000" font-family="Verdana" font-size="12">create</text>
</g>

<!-- Association prefer -->
<line x1="449" y1="43" x2="280" y2="43" stroke="#4393c3" stroke-width="2"/>
<text x="396" y="60.0" fill="#b2182b" font-family="Verdana" font-size="12">0,N</text>
<line x1="280" y1="245" x2="280" y2="43" stroke="#4393c3" stroke-width="2"/>
<text x="253.0" y="152" fill="#b2182b" font-family="Verdana" font-size="12">0,N</text>
<g id="association-prefer">
	<path d="M 292 18 a 14 14 90 0 1 14 14 V 43 h -52 V 32 a 14 14 90 0 1 14 -14" fill="#92c5de" stroke="#92c5de" stroke-width="0"/>
	<path d="M 306 43.0 v 11 a 14 14 90 0 1 -14 14 H 268 a 14 14 90 0 1 -14 -14 V 43.0 H 52" fill="#d1e5f0" stroke="#d1e5f0" stroke-width="0"/>
	<rect x="254" y="18" width="52" height="50" fill="none" rx="14" stroke="#4393c3" stroke-width="2"/>
	<line x1="254" y1="43" x2="306" y2="43" stroke="#4393c3" stroke-width="1"/>
	<text x="261" y="35.7" fill="#000000" font-family="Verdana" font-size="12">prefer</text>
</g>

<!-- Association stay -->
<line x1="69" y1="245" x2="181" y2="245" stroke="#4393c3" stroke-width="2"/>
<text x="134" y="262.0" fill="#b2182b" font-family="Verdana" font-size="12">1,N</text>
<line x1="280" y1="245" x2="181" y2="245" stroke="#4393c3" stroke-width="2"/>
<text x="207" y="237.0" fill="#b2182b" font-family="Verdana" font-size="12">1,1</text>
<g id="association-stay">
	<path d="M 187 220 a 14 14 90 0 1 14 14 V 245 h -40 V 234 a 14 14 90 0 1 14 -14" fill="#92c5de" stroke="#92c5de" stroke-width="0"/>
	<path d="M 201 245.0 v 11 a 14 14 90 0 1 -14 14 H 175 a 14 14 90 0 1 -14 -14 V 245.0 H 40" fill="#d1e5f0" stroke="#d1e5f0" stroke-width="0"/>
	<rect x="161" y="220" width="40" height="50" fill="none" rx="14" stroke="#4393c3" stroke-width="2"/>
	<line x1="161" y1="245" x2="201" y2="245" stroke="#4393c3" stroke-width="1"/>
	<text x="168" y="237.7" fill="#000000" font-family="Verdana" font-size="12">stay</text>
</g>

<!-- Association write -->
<line x1="449" y1="388" x2="359" y2="388" stroke="#4393c3" stroke-width="2"/>
<text x="388" y="405.0" fill="#b2182b" font-family="Verdana" font-size="12">1,1</text>
<line x1="280" y1="245" x2="359" y2="388" stroke="#4393c3" stroke-width="2"/>
<text x="304.258998872" y="347" fill="#b2182b" font-family="Verdana" font-size="12">0,N</text>
<g id="association-write">
	<path d="M 368 363 a 14 14 90 0 1 14 14 V 388 h -46 V 377 a 14 14 90 0 1 14 -14" fill="#92c5de" stroke="#92c5de" stroke-width="0"/>
	<path d="M 382 388.0 v 11 a 14 14 90 0 1 -14 14 H 350 a 14 14 90 0 1 -14 -14 V 388.0 H 46" fill="#d1e5f0" stroke="#d1e5f0" stroke-width="0"/>
	<rect x="336" y="363" width="46" height="50" fill="none" rx="14" stroke="#4393c3" stroke-width="2"/>
	<line x1="336" y1="388" x2="382" y2="388" stroke="#4393c3" stroke-width="1"/>
	<text x="343" y="380.7" fill="#000000" font-family="Verdana" font-size="12">write</text>
</g>

<!-- Association subscribe -->
<line x1="575" y1="245" x2="449" y2="245" stroke="#4393c3" stroke-width="2"/>
<text x="490" y="262.0" fill="#b2182b" font-family="Verdana" font-size="12">1,N</text>
<line x1="280" y1="245" x2="449" y2="245" stroke="#4393c3" stroke-width="2"/>
<text x="332" y="262.0" fill="#b2182b" font-family="Verdana" font-size="12">0,N</text>
<g id="association-subscribe">
	<path d="M 471 220 a 14 14 90 0 1 14 14 V 245 h -72 V 234 a 14 14 90 0 1 14 -14" fill="#92c5de" stroke="#92c5de" stroke-width="0"/>
	<path d="M 485 245.0 v 11 a 14 14 90 0 1 -14 14 H 427 a 14 14 90 0 1 -14 -14 V 245.0 H 72" fill="#d1e5f0" stroke="#d1e5f0" stroke-width="0"/>
	<rect x="413" y="220" width="72" height="50" fill="none" rx="14" stroke="#4393c3" stroke-width="2"/>
	<line x1="413" y1="245" x2="485" y2="245" stroke="#4393c3" stroke-width="1"/>
	<text x="420" y="237.7" fill="#000000" font-family="Verdana" font-size="12">subscribe</text>
</g>

<!-- Association at -->
<line x1="790" y1="245" x2="679" y2="245" stroke="#4393c3" stroke-width="2"/>
<text x="703" y="262.0" fill="#b2182b" font-family="Verdana" font-size="12">1,N</text>
<line x1="575" y1="245" x2="679" y2="245" stroke="#4393c3" stroke-width="2"/>
<text x="638" y="237.0" fill="#b2182b" font-family="Verdana" font-size="12">1,1</text>
<g id="association-at">
	<path d="M 679 220 a 14 14 90 0 1 14 14 V 245 h -28 V 234 a 14 14 90 0 1 14 -14" fill="#92c5de" stroke="#92c5de" stroke-width="0"/>
	<path d="M 693 245.0 v 11 a 14 14 90 0 1 -14 14 H 679 a 14 14 90 0 1 -14 -14 V 245.0 H 28" fill="#d1e5f0" stroke="#d1e5f0" stroke-width="0"/>
	<rect x="665" y="220" width="28" height="50" fill="none" rx="14" stroke="#4393c3" stroke-width="2"/>
	<line x1="665" y1="245" x2="693" y2="245" stroke="#4393c3" stroke-width="1"/>
	<text x="672" y="237.7" fill="#000000" font-family="Verdana" font-size="12">at</text>
</g>

<!-- Association have -->
<line x1="575" y1="245" x2="575" y2="43" stroke="#4393c3" stroke-width="2"/>
<text x="580.0" y="152" fill="#b2182b" font-family="Verdana" font-size="12">1,1</text>
<line x1="449" y1="43" x2="575" y2="43" stroke="#4393c3" stroke-width="2"/>
<text x="480" y="60.0" fill="#b2182b" font-family="Verdana" font-size="12">0,N</text>
<g id="association-have">
	<path d="M 583 18 a 14 14 90 0 1 14 14 V 43 h -44 V 32 a 14 14 90 0 1 14 -14" fill="#92c5de" stroke="#92c5de" stroke-width="0"/>
	<path d="M 597 43.0 v 11 a 14 14 90 0 1 -14 14 H 567 a 14 14 90 0 1 -14 -14 V 43.0 H 44" fill="#d1e5f0" stroke="#d1e5f0" stroke-width="0"/>
	<rect x="553" y="18" width="44" height="50" fill="none" rx="14" stroke="#4393c3" stroke-width="2"/>
	<line x1="553" y1="43" x2="597" y2="43" stroke="#4393c3" stroke-width="1"/>
	<text x="560" y="35.7" fill="#000000" font-family="Verdana" font-size="12">have</text>
</g>

<!-- Association contain -->
<line x1="449" y1="388" x2="575" y2="388" stroke="#4393c3" stroke-width="2"/>
<text x="489" y="405.0" fill="#b2182b" font-family="Verdana" font-size="12">1,1</text>
<line x1="575" y1="245" x2="575" y2="388" stroke="#4393c3" stroke-width="2"/>
<text x="548.0" y="347" fill="#b2182b" font-family="Verdana" font-size="12">0,N</text>
<g id="association-contain">
	<path d="M 591 363 a 14 14 90 0 1 14 14 V 388 h -60 V 377 a 14 14 90 0 1 14 -14" fill="#92c5de" stroke="#92c5de" stroke-width="0"/>
	<path d="M 605 388.0 v 11 a 14 14 90 0 1 -14 14 H 559 a 14 14 90 0 1 -14 -14 V 388.0 H 60" fill="#d1e5f0" stroke="#d1e5f0" stroke-width="0"/>
	<rect x="545" y="363" width="60" height="50" fill="none" rx="14" stroke="#4393c3" stroke-width="2"/>
	<line x1="545" y1="388" x2="605" y2="388" stroke="#4393c3" stroke-width="1"/>
	<text x="552" y="380.7" fill="#000000" font-family="Verdana" font-size="12">contain</text>
</g>

<!-- Entity ACTIVITY_STATUT -->
<g id="entity-ACTIVITY_STATUT">
	<g id="frame-ACTIVITY_STATUT">
		<rect x="728" y="363" width="124" height="25" fill="#f4a582" stroke="#f4a582" stroke-width="0"/>
		<rect x="728" y="388.0" width="124" height="25" fill="#fddbc7" stroke="#fddbc7" stroke-width="0"/>
		<rect x="728" y="363" width="124" height="50" fill="none" stroke="#d6604d" stroke-width="2"/>
		<line x1="728" y1="388" x2="852" y2="388" stroke="#d6604d" stroke-width="1"/>
	</g>
	<text x="733" y="380.7" fill="#000000" font-family="Verdana" font-size="12">ACTIVITY_STATUT</text>
	<text x="733" y="405.8" fill="#000000" font-family="Verdana" font-size="12">name</text>
	<line x1="733" y1="408" x2="768" y2="408" stroke="#000000" stroke-width="1"/>
</g>

<!-- Entity ACTIVITY_PLACE -->
<g id="entity-ACTIVITY_PLACE">
	<g id="frame-ACTIVITY_PLACE">
		<rect x="730" y="152" width="120" height="25" fill="#f4a582" stroke="#f4a582" stroke-width="0"/>
		<rect x="730" y="177.0" width="120" height="161" fill="#fddbc7" stroke="#fddbc7" stroke-width="0"/>
		<rect x="730" y="152" width="120" height="186" fill="none" stroke="#d6604d" stroke-width="2"/>
		<line x1="730" y1="177" x2="850" y2="177" stroke="#d6604d" stroke-width="1"/>
	</g>
	<text x="738" y="169.7" fill="#000000" font-family="Verdana" font-size="12">ACTIVITY_PLACE</text>
	<text x="735" y="194.7" fill="#000000" font-family="Verdana" font-size="12">address</text>
	<line x1="735" y1="197" x2="783" y2="197" stroke="#000000" stroke-width="1"/>
	<text x="735" y="211.7" fill="#000000" font-family="Verdana" font-size="12">city</text>
	<text x="735" y="228.7" fill="#000000" font-family="Verdana" font-size="12">department</text>
	<text x="735" y="245.8" fill="#000000" font-family="Verdana" font-size="12">google_place_key</text>
	<text x="735" y="262.8" fill="#000000" font-family="Verdana" font-size="12">lat</text>
	<text x="735" y="279.8" fill="#000000" font-family="Verdana" font-size="12">lng</text>
	<text x="735" y="296.8" fill="#000000" font-family="Verdana" font-size="12">region</text>
	<text x="735" y="313.8" fill="#000000" font-family="Verdana" font-size="12">private</text>
	<text x="735" y="330.8" fill="#000000" font-family="Verdana" font-size="12">indoor</text>
</g>

<!-- Entity USER_GRADE -->
<g id="entity-USER_GRADE">
	<g id="frame-USER_GRADE">
		<rect x="22" y="354" width="94" height="25" fill="#f4a582" stroke="#f4a582" stroke-width="0"/>
		<rect x="22" y="379.0" width="94" height="43" fill="#fddbc7" stroke="#fddbc7" stroke-width="0"/>
		<rect x="22" y="354" width="94" height="68" fill="none" stroke="#d6604d" stroke-width="2"/>
		<line x1="22" y1="379" x2="116" y2="379" stroke="#d6604d" stroke-width="1"/>
	</g>
	<text x="27" y="371.7" fill="#000000" font-family="Verdana" font-size="12">USER_GRADE</text>
	<text x="27" y="396.8" fill="#000000" font-family="Verdana" font-size="12">name</text>
	<line x1="27" y1="399" x2="62" y2="399" stroke="#000000" stroke-width="1"/>
	<text x="27" y="413.8" fill="#000000" font-family="Verdana" font-size="12">point</text>
</g>

<!-- Entity USER -->
<g id="entity-USER">
	<g id="frame-USER">
		<rect x="233" y="160" width="94" height="25" fill="#f4a582" stroke="#f4a582" stroke-width="0"/>
		<rect x="233" y="185.0" width="94" height="145" fill="#fddbc7" stroke="#fddbc7" stroke-width="0"/>
		<rect x="233" y="160" width="94" height="170" fill="none" stroke="#d6604d" stroke-width="2"/>
		<line x1="233" y1="185" x2="327" y2="185" stroke="#d6604d" stroke-width="1"/>
	</g>
	<text x="263" y="177.7" fill="#000000" font-family="Verdana" font-size="12">USER</text>
	<text x="238" y="202.7" fill="#000000" font-family="Verdana" font-size="12">email</text>
	<line x1="238" y1="205" x2="272" y2="205" stroke="#000000" stroke-width="1"/>
	<text x="238" y="219.7" fill="#000000" font-family="Verdana" font-size="12">pseudo</text>
	<text x="238" y="236.7" fill="#000000" font-family="Verdana" font-size="12">password</text>
	<text x="238" y="253.8" fill="#000000" font-family="Verdana" font-size="12">lastname</text>
	<text x="238" y="270.8" fill="#000000" font-family="Verdana" font-size="12">firstname</text>
	<text x="238" y="287.8" fill="#000000" font-family="Verdana" font-size="12">avatar</text>
	<text x="238" y="304.8" fill="#000000" font-family="Verdana" font-size="12">reward_count</text>
	<text x="238" y="321.8" fill="#000000" font-family="Verdana" font-size="12">admin</text>
</g>

<!-- Entity ACTIVITY -->
<g id="entity-ACTIVITY">
	<g id="frame-ACTIVITY">
		<rect x="517" y="160" width="116" height="25" fill="#f4a582" stroke="#f4a582" stroke-width="0"/>
		<rect x="517" y="185.0" width="116" height="145" fill="#fddbc7" stroke="#fddbc7" stroke-width="0"/>
		<rect x="517" y="160" width="116" height="170" fill="none" stroke="#d6604d" stroke-width="2"/>
		<line x1="517" y1="185" x2="633" y2="185" stroke="#d6604d" stroke-width="1"/>
	</g>
	<text x="546" y="177.7" fill="#000000" font-family="Verdana" font-size="12">ACTIVITY</text>
	<text x="522" y="202.7" fill="#000000" font-family="Verdana" font-size="12">title</text>
	<line x1="522" y1="205" x2="546" y2="205" stroke="#000000" stroke-width="1"/>
	<text x="522" y="219.7" fill="#000000" font-family="Verdana" font-size="12">description</text>
	<text x="522" y="236.7" fill="#000000" font-family="Verdana" font-size="12">illustration</text>
	<text x="522" y="253.8" fill="#000000" font-family="Verdana" font-size="12">date</text>
	<text x="522" y="270.8" fill="#000000" font-family="Verdana" font-size="12">time</text>
	<text x="522" y="287.8" fill="#000000" font-family="Verdana" font-size="12">duration</text>
	<text x="522" y="304.8" fill="#000000" font-family="Verdana" font-size="12">participant_count</text>
	<text x="522" y="321.8" fill="#000000" font-family="Verdana" font-size="12">min_participant</text>
</g>

<!-- Entity MESSAGE -->
<g id="entity-MESSAGE">
	<g id="frame-MESSAGE">
		<rect x="414" y="363" width="70" height="25" fill="#f4a582" stroke="#f4a582" stroke-width="0"/>
		<rect x="414" y="388.0" width="70" height="25" fill="#fddbc7" stroke="#fddbc7" stroke-width="0"/>
		<rect x="414" y="363" width="70" height="50" fill="none" stroke="#d6604d" stroke-width="2"/>
		<line x1="414" y1="388" x2="484" y2="388" stroke="#d6604d" stroke-width="1"/>
	</g>
	<text x="419" y="380.7" fill="#000000" font-family="Verdana" font-size="12">MESSAGE</text>
	<text x="419" y="405.8" fill="#000000" font-family="Verdana" font-size="12">comment</text>
	<line x1="419" y1="408" x2="476" y2="408" stroke="#000000" stroke-width="1"/>
</g>

<!-- Entity SPORT -->
<g id="entity-SPORT">
	<g id="frame-SPORT">
		<rect x="423" y="9" width="52" height="25" fill="#f4a582" stroke="#f4a582" stroke-width="0"/>
		<rect x="423" y="34.0" width="52" height="43" fill="#fddbc7" stroke="#fddbc7" stroke-width="0"/>
		<rect x="423" y="9" width="52" height="68" fill="none" stroke="#d6604d" stroke-width="2"/>
		<line x1="423" y1="34" x2="475" y2="34" stroke="#d6604d" stroke-width="1"/>
	</g>
	<text x="428" y="26.7" fill="#000000" font-family="Verdana" font-size="12">SPORT</text>
	<text x="428" y="51.8" fill="#000000" font-family="Verdana" font-size="12">name</text>
	<line x1="428" y1="54" x2="463" y2="54" stroke="#000000" stroke-width="1"/>
	<text x="428" y="68.8" fill="#000000" font-family="Verdana" font-size="12">icon</text>
</g>

<!-- Entity USER_PLACE -->
<g id="entity-USER_PLACE">
	<g id="frame-USER_PLACE">
		<rect x="9" y="169" width="120" height="25" fill="#f4a582" stroke="#f4a582" stroke-width="0"/>
		<rect x="9" y="194.0" width="120" height="127" fill="#fddbc7" stroke="#fddbc7" stroke-width="0"/>
		<rect x="9" y="169" width="120" height="152" fill="none" stroke="#d6604d" stroke-width="2"/>
		<line x1="9" y1="194" x2="129" y2="194" stroke="#d6604d" stroke-width="1"/>
	</g>
	<text x="29" y="186.7" fill="#000000" font-family="Verdana" font-size="12">USER_PLACE</text>
	<text x="14" y="211.7" fill="#000000" font-family="Verdana" font-size="12">address</text>
	<line x1="14" y1="214" x2="62" y2="214" stroke="#000000" stroke-width="1"/>
	<text x="14" y="228.7" fill="#000000" font-family="Verdana" font-size="12">city</text>
	<text x="14" y="245.8" fill="#000000" font-family="Verdana" font-size="12">department</text>
	<text x="14" y="262.8" fill="#000000" font-family="Verdana" font-size="12">google_place_key</text>
	<text x="14" y="279.8" fill="#000000" font-family="Verdana" font-size="12">lat</text>
	<text x="14" y="296.8" fill="#000000" font-family="Verdana" font-size="12">lng</text>
	<text x="14" y="313.8" fill="#000000" font-family="Verdana" font-size="12">region</text>
</g>
</svg>